<svg width="28" height="28" viewBox="0 0 28 28" fill="none" xmlns="http://www.w3.org/2000/svg">
<g clip-path="url(#clip0_74_1192)">
<path d="M8.05903 25.3829L2.31689 19.6985C2.31689 19.6985 16.459 6.07841 22.1585 0.464338C24.2479 -1.604 29.1798 3.78494 27.7301 5.19198C21.8458 11.003 8.05903 25.3829 8.05903 25.3829Z" fill="#F73B50"/>
<path d="M6.5096 21.2462C4.76138 19.7548 2.89945 19.0794 2.34514 19.7126C1.79082 20.3457 2.52991 22.3578 4.27813 23.8492C6.02635 25.3407 7.63244 25.9176 8.18676 25.2703C8.74107 24.6231 8.25783 22.7236 6.5096 21.2462Z" fill="#FFD358"/>
<path d="M10.3188 16.8844C9.48021 16.0402 8.51372 15.2944 7.46194 14.7316C6.65179 15.5196 5.89849 16.2372 5.23047 16.8844C5.71372 17.0814 6.18275 17.3206 6.62336 17.5879C7.36245 18.0382 8.0589 18.5869 8.67006 19.1919C9.28123 19.797 9.83555 20.4864 10.2904 21.204C10.532 21.5698 10.7452 21.9638 10.93 22.3578C11.5269 21.7387 12.1807 21.0492 12.9056 20.3176C12.5929 19.7829 12.2376 19.2482 11.868 18.7417C11.4132 18.0944 10.8873 17.4613 10.3188 16.8844Z" fill="#FFD358"/>
<path d="M24.8448 2.99698C23.9068 2.13869 22.7981 1.46331 21.6042 1.01306C20.8509 1.74472 19.9981 2.58894 19.0601 3.50351C19.5007 3.64422 19.9271 3.82713 20.3392 4.05226C21.7037 4.81206 22.7981 5.97989 23.6367 7.28844C23.9068 7.71055 24.1484 8.13266 24.3758 8.58291C25.3423 7.59799 26.2519 6.69748 27.0479 5.89547C26.4936 4.79799 25.7545 3.81306 24.8448 2.99698Z" fill="#FFD358"/>
<path d="M7.00706 23.5256C6.68016 22.597 5.88422 21.9357 5.05986 21.3869C4.77559 21.204 4.47711 21.0211 4.136 20.9367C3.80909 20.8523 3.42534 20.8663 3.14107 21.0492C2.91366 21.1899 2.75732 21.4291 2.61519 21.6402C1.9898 22.597 1.35021 23.5538 0.724831 24.5105C0.369501 25.0452 0.0141706 25.6221 -4.25644e-05 26.2553C-0.0142558 26.8322 0.312648 27.4231 0.81011 27.7186C1.30757 28.0141 1.94717 28.0985 2.6294 27.6623L2.85681 27.5216C3.95123 26.7055 5.08828 25.9317 6.25376 25.2C6.55224 25.0171 6.85072 24.8201 7.00706 24.5105C7.16341 24.2291 7.12077 23.8633 7.00706 23.5256Z" fill="#F73B50"/>
</g>
<defs>
<clipPath id="clip0_74_1192">
<rect width="28" height="28" fill="white"/>
</clipPath>
</defs>
</svg>
