<svg width="88" height="72" fill="none" xmlns="http://www.w3.org/2000/svg"><path d="M29.19 24.745v-2.843h-1.567v2.702c0 .483-.444.808-1.193.808-.783 0-1.21-.313-1.21-.814v-2.696h-1.584v2.696c0 1.404 1.14 2 2.73 2 1.701 0 2.824-.602 2.824-1.853zm5.277 1.788V25.3h-2.795v-3.398h-1.584v4.63h4.379zm4.708-3.469v-1.162h-5.478v1.162h1.935v3.469h1.602v-3.47h1.941zm2.107 3.469v-4.631h-1.608v4.63h1.608zm7.377 0v-4.631h-1.982l-1.252 2.778-1.192-2.778h-2.046v4.63h1.49v-2.5l1.076 2.5h1.333l1.088-2.5v2.5h1.485zm2.483-.856h2.479l.403.856h1.69l-2.315-4.631H51.51l-2.45 4.63h1.655l.427-.855zm1.982-1.038h-1.468l.58-1.115.175-.425.163.42.55 1.12zm7.559-1.575v-1.162h-5.478v1.162h1.935v3.469h1.602v-3.47h1.941zm5.327 3.469v-1.15h-3.29v-.602h3.156v-1.127H62.72v-.596h3.25v-1.156h-4.793v4.63h4.834zm-30.425 2.462H34.07s-.988 2.914-.988 2.985c0-.07-.924-2.985-.924-2.985h-1.642s-.918 2.914-.918 2.985c0-.07-.994-2.985-.994-2.985h-1.702l1.72 4.631h1.712s.924-2.767.93-2.844c.006.077.924 2.844.924 2.844h1.718l1.679-4.631zm2.072 4.631v-4.631h-1.608v4.631h1.608zm6.253 0v-4.631h-1.496v2.519l-2.205-2.52H38.56v4.632h1.509v-2.578l2.274 2.578h1.567zm6.264 0v-4.631h-1.497v2.519l-2.204-2.52h-1.649v4.632h1.509v-2.578l2.274 2.578h1.567zm5.748 0v-1.15h-3.291v-.602h3.157v-1.127H52.63v-.596h3.25v-1.156h-4.794v4.631h4.835zm6.181-3.221c0-.419-.1-.72-.31-.938-.275-.295-.748-.472-1.473-.472h-3.654v4.631h1.561v-1.634h1.42l1.141 1.634h1.742l-1.385-1.888a1.12 1.12 0 00.724-.46c.147-.206.234-.513.234-.873zm-1.52.147a.496.496 0 01-.053.242c-.058.118-.21.165-.461.165h-1.836v-.843h1.806c.246 0 .41.041.491.194a.443.443 0 01.054.242zm-30.733 7.63V35.92h-.548v2.228c0 .525-.49.824-1.197.824-.834 0-1.245-.32-1.245-.829V35.92h-.551v2.205c0 .927.715 1.337 1.774 1.337 1.095 0 1.766-.437 1.766-1.279zm3.927 1.234v-.512H31.39V35.92h-.552v3.497h2.94zm3.135-2.989v-.508h-3.681v.508h1.562v2.99h.557v-2.99h1.562zm3.924.481c0-.25-.053-.432-.145-.579-.164-.245-.477-.41-.998-.41H37.45v3.497h.543v-1.474h1.58l.967 1.474h.636l-1.046-1.568a.764.764 0 00.583-.378c.08-.134.123-.33.123-.562zm-.547.045a.736.736 0 01-.062.298c-.07.13-.234.196-.499.2h-1.73v-1.033h1.629c.33 0 .507.08.6.232.04.071.062.191.062.303zm2.119 1.599h2.158l.442.864h.591l-1.757-3.497h-.649l-1.814 3.497h.578l.45-.864zm1.929-.494h-1.691l.702-1.341.154-.325.155.325.68 1.34zm6.862 1.024c.136-.16.198-.387.198-.632 0-.232-.066-.464-.203-.606a1.019 1.019 0 00-.6-.267.536.536 0 00.326-.205c.12-.139.19-.361.19-.584 0-.236-.07-.45-.22-.597-.164-.165-.442-.272-.83-.272h-2.332v3.497h2.504c.468 0 .794-.12.967-.334zM50.54 36.9a.52.52 0 01-.133.374c-.084.094-.225.134-.375.134h-1.766V36.4h1.664c.204 0 .358.04.464.139a.494.494 0 01.146.36zm.176 1.845c-.11.124-.3.187-.578.187h-1.872v-1.038h1.885c.256 0 .433.053.539.156a.466.466 0 01.137.352c0 .142-.031.262-.11.343zm4.688.671v-.512h-2.692v-.998h2.586v-.508h-2.586v-.97h2.662v-.509h-3.201v3.497h3.231zm4.314-1.033c0-.57-.375-.864-1.298-.971-.155-.023-.49-.058-.671-.08-.857-.103-1.117-.219-1.117-.517 0-.29.287-.455 1.152-.455.67 0 1.016.134 1.188.374a.555.555 0 01.088.21h.591a1.245 1.245 0 00-.119-.36c-.238-.415-.728-.714-1.748-.714-1.218-.004-1.722.441-1.722.994 0 .552.393.833 1.413.953.177.022.49.058.645.076.79.098 1.038.218 1.038.552 0 .308-.284.53-1.189.53-.741 0-1.139-.133-1.297-.392a.576.576 0 01-.084-.258h-.583c.013.16.057.334.137.472.23.423.768.669 1.81.669 1.245 0 1.766-.406 1.766-1.083zm3.958-1.956v-.508h-3.682v.508h1.563v2.99h.556v-2.99h1.563zm-38.931 6.029c0-.356-.07-.597-.19-.78-.167-.263-.494-.4-1.064-.4h-2.19v3.496h.548v-1.14h1.62c.535-.005.901-.13 1.095-.414.124-.174.181-.424.181-.762zm-.556 0c0 .178-.018.312-.075.4-.102.166-.31.268-.737.268h-1.528v-1.35h1.545c.402 0 .61.094.72.276.053.08.075.228.075.406zm4.552 2.316v-.512h-2.693v-.998h2.587v-.508h-2.587v-.97h2.663v-.509H25.51v3.497h3.231zm4.212-2.508c0-.25-.053-.432-.146-.579-.164-.245-.477-.41-.998-.41h-2.243v3.497h.543v-1.474h1.58l.968 1.474h.636l-1.047-1.568a.764.764 0 00.583-.378c.08-.134.123-.33.123-.562zm-.548.045a.737.737 0 01-.062.298c-.07.13-.234.196-.499.2h-1.73v-1.033h1.629c.33 0 .508.08.6.232.04.071.062.191.062.303zm4.64-.526v-.508h-3.081v3.497h.547v-1.487h2.42v-.522h-2.42v-.98h2.534zm2.514-.57c-.738 0-1.245.183-1.607.566-.305.298-.437.713-.437 1.234 0 .57.172.998.49 1.287.34.343.86.521 1.554.521.715 0 1.271-.178 1.602-.539.287-.294.437-.712.437-1.274 0-.543-.128-.958-.432-1.252-.35-.365-.87-.543-1.607-.543zm0 3.11c-.486 0-.83-.107-1.09-.321-.266-.219-.394-.553-.394-.98 0-.401.11-.735.323-.936.242-.231.613-.37 1.156-.37.56 0 .91.134 1.17.366.221.196.318.543.318.935 0 .397-.101.735-.327.94-.26.245-.627.366-1.156.366zm6.181-2.059c0-.25-.052-.432-.145-.579-.163-.245-.477-.41-.998-.41h-2.242v3.497h.543v-1.474h1.58l.967 1.474h.636l-1.047-1.568a.764.764 0 00.583-.378c.08-.134.124-.33.124-.562zm-.547.045a.737.737 0 01-.062.298c-.07.13-.234.196-.498.2h-1.731v-1.033h1.629c.331 0 .508.08.6.232.04.071.062.191.062.303zm5.828 2.463v-3.497h-.715l-1.426 2.878-1.4-2.878h-.728v3.497h.525v-2.69l1.307 2.69h.574l1.338-2.69v2.69h.525zm1.549-.864h2.16l.44.864h.593l-1.758-3.497h-.649l-1.814 3.497h.578l.45-.864zm1.93-.494h-1.69l.7-1.341.156-.325.154.325.68 1.34zm5.24 1.358v-3.497h-.526v2.718l-2.295-2.718h-.622v3.497h.534v-2.735l2.313 2.735h.596zm4.763-1.305h-.575a.78.78 0 01-.19.441c-.238.28-.617.401-1.2.401-.49 0-1.015-.138-1.268-.499-.132-.169-.216-.419-.216-.793 0-.334.058-.583.185-.753.212-.343.658-.52 1.286-.52.609 0 .993.168 1.196.404a.782.782 0 01.203.446h.574a1.355 1.355 0 00-.212-.624c-.283-.423-.804-.757-1.757-.757-.909 0-1.452.294-1.753.735-.194.254-.292.61-.292 1.065 0 .508.12.882.327 1.145.301.414.88.663 1.753.663.897 0 1.43-.271 1.696-.703.15-.21.225-.46.243-.65zm3.95 1.305v-.512h-2.694v-.998h2.588v-.508H65.76v-.97h2.663v-.509h-3.201v3.497h3.232zM28.08 48.246l.66 2.051h2.136l-1.729 1.267.66 2.05-1.728-1.266-1.729 1.267.66-2.05-1.728-1.268h2.137l.66-2.05zm7.622.001l.673 2.05h2.18l-1.763 1.267.673 2.05-1.763-1.266-1.764 1.267.673-2.05-1.763-1.268h2.18l.674-2.05zm7.561 0l.674 2.05h2.18l-1.764 1.267.674 2.05-1.764-1.266-1.764 1.267.674-2.05-1.764-1.268h2.18l.674-2.05zm7.563 0l.673 2.05h2.18l-1.763 1.267.673 2.05-1.763-1.266-1.764 1.267.674-2.05-1.764-1.268h2.18l.674-2.05zm7.621 0l.66 2.05h2.137l-1.729 1.267.66 2.05-1.728-1.266-1.728 1.267.66-2.05-1.729-1.268h2.137l.66-2.05zM31.783 13.652l.499 1.55h1.615l-1.307.958.5 1.55-1.307-.958-1.307.958.499-1.55-1.307-.958h1.616l.499-1.55zm5.763-.002l.509 1.55h1.648l-1.333.958.51 1.55-1.334-.958-1.334.958.51-1.55-1.334-.958h1.648l.51-1.55zm5.716 0l.51 1.55h1.648l-1.333.958.509 1.55-1.334-.958-1.333.958.51-1.55-1.334-.958h1.648l.51-1.55zm5.719 0l.51 1.55h1.648l-1.334.958.51 1.55-1.334-.958-1.334.958.51-1.55-1.334-.958h1.649l.51-1.55zm5.762 0l.5 1.55h1.615l-1.307.958.5 1.55-1.308-.958-1.306.958.499-1.55-1.307-.958h1.615l.5-1.55z" fill="#222443"/><path fill-rule="evenodd" clip-rule="evenodd" d="M8.772 41.556c-2.203-13.909 4.227-27.67 17.099-33.58l.118.264C13.247 14.09 6.87 27.717 9.055 41.51c2.418 15.262 14.618 24.414 29.558 24.855l-.008.29c-15.057-.445-27.39-9.68-29.833-25.099z" fill="#222443"/><path d="M23.08 11.526c-2.379.055-5.163 1.409-6.806 3.375 1.318 1.234 3.437.778 4.963.525 2.177-.36 4.492-1.058 6.546-2.046-.844-1.814-3.12-1.89-4.703-1.854z" fill="#222443"/><path d="M21.21 8.565c-1.41 2.215-3.089 4.416-4.916 6.354-1.529-1.448-.606-3.858.018-5.356 1.13-2.716 3.84-5.058 6.673-6.256.778 1.785-.911 3.899-1.776 5.258zm-5.014 9.172c-2.227.799-4.141 3.048-5.102 5.306 1.601.751 3.422-.334 4.754-1.056 1.83-.993 3.695-2.362 5.163-3.946-1.326-1.412-3.34-.833-4.815-.304z" fill="#222443"/><path d="M13.496 15.524a34.71 34.71 0 01-2.379 7.53c-1.874-.892-1.802-3.446-1.722-5.071.137-2.775 1.675-5.939 3.817-7.95 1.31 1.419.594 3.882.284 5.49zM11.91 25.755c-1.855 1.478-2.98 4.216-3.241 6.66 1.756.204 3.159-1.408 4.203-2.515 1.422-1.506 2.768-3.395 3.622-5.371-1.673-.921-3.375.264-4.584 1.226z" fill="#222443"/><path d="M8.695 24.508a31.58 31.58 0 010 7.91c-2.041-.252-2.718-2.726-3.118-4.278-.691-2.679-.228-6.14 1.117-8.744 1.682.94 1.79 3.481 2.001 5.112zm1.759 9.999c-1.47 2.171-1.986 5.573-1.325 8.308 1.94-.464 2.903-2.681 3.675-4.247 1.027-2.081 1.895-4.51 2.205-6.891-2.105-.442-3.588 1.4-4.556 2.83z" fill="#222443"/><path d="M6.598 34.288a39.972 39.972 0 012.56 8.52c-2.226.483-3.828-1.876-4.758-3.44-1.657-2.783-2.14-6.643-1.533-9.973 2.037.413 3.034 3.264 3.731 4.893zm4.882 9.665c-.788 2.633-.24 6.213 1.357 8.689 1.754-1.153 1.997-3.69 2.246-5.509.328-2.4.482-5.06.075-7.549-2.244.29-3.15 2.61-3.677 4.368z" fill="#222443"/><path d="M7.58 45.08a46.652 46.652 0 015.284 7.545c-2.032 1.28-4.416-.468-5.861-1.706-2.565-2.194-4.23-5.925-4.625-9.441 2.134-.29 4.015 2.227 5.203 3.602zm8.039 7.836c.17 3.065 2.147 6.282 4.78 8.113 1.272-1.757.475-4.449.041-6.328-.584-2.53-1.392-5.165-2.594-7.502-2.094 1.117-2.339 3.698-2.227 5.717z" fill="#222443"/><path d="M12.077 55.505a73.074 73.074 0 018.343 5.496c-1.584 2.105-4.75 1.266-6.713.59-3.458-1.193-6.542-4.336-8.152-7.827 2.042-1.062 4.837.796 6.522 1.741zm11.667 4.9c1.713 3.153 5.615 5.21 9.29 5.706.395-2.293-2.063-4.563-3.403-6.048-1.907-2.114-3.894-4.307-6.122-6.135-1.67 1.956-.787 4.594.235 6.477z" fill="#222443"/><path d="M21.3 64.401c3.892.409 7.85.997 11.74 1.674-.371 2.893-4.92 3.36-6.985 3.53-4.234.35-8.944-1.367-12.224-4.258 1.629-1.934 5.395-1.163 7.468-.946zm7.497-58.852c-2.614.752-5.673 2.18-7.184 4.814 2.743-.302 5.439-1.287 8.075-2.037 2.953-.84 6.063-1.47 8.922-2.63-3.132-1.264-6.822-1.008-9.813-.147z" fill="#222443"/><path fill-rule="evenodd" clip-rule="evenodd" d="M79.353 41.51c2.184-13.793-4.192-27.42-16.934-33.27l.119-.263c12.871 5.91 19.301 19.67 17.098 33.58C77.194 56.974 64.86 66.21 49.803 66.654l-.008-.29c14.94-.441 27.14-9.593 29.558-24.854z" fill="#222443"/><path d="M65.328 11.526c2.379.055 5.162 1.409 6.806 3.375-1.318 1.234-3.438.778-4.963.525-2.177-.36-4.492-1.058-6.546-2.046.844-1.814 3.12-1.89 4.703-1.854z" fill="#222443"/><path d="M67.199 8.565c1.409 2.215 3.088 4.416 4.915 6.354 1.529-1.448.606-3.858-.018-5.356-1.13-2.716-3.84-5.058-6.674-6.256-.778 1.785.912 3.899 1.777 5.258zm5.014 9.172c2.227.799 4.14 3.048 5.101 5.306-1.602.751-3.422-.334-4.754-1.056-1.83-.993-3.695-2.362-5.163-3.946 1.326-1.412 3.34-.833 4.816-.304z" fill="#222443"/><path d="M74.912 15.524a34.693 34.693 0 002.378 7.53c1.874-.892 1.803-3.446 1.722-5.071-.136-2.775-1.674-5.939-3.816-7.95-1.312 1.419-.594 3.882-.284 5.49zm1.585 10.231c1.856 1.478 2.981 4.216 3.242 6.66-1.755.204-3.159-1.408-4.203-2.515-1.422-1.506-2.768-3.395-3.622-5.371 1.673-.921 3.375.264 4.583 1.226z" fill="#222443"/><path d="M79.714 24.508a31.617 31.617 0 00-.001 7.91c2.041-.252 2.72-2.726 3.119-4.278.69-2.679.227-6.14-1.118-8.744-1.681.94-1.79 3.481-2 5.112zm-1.761 9.999c1.469 2.171 1.985 5.573 1.325 8.308-1.94-.464-2.903-2.681-3.676-4.247-1.026-2.081-1.894-4.51-2.205-6.891 2.105-.442 3.59 1.4 4.556 2.83z" fill="#222443"/><path d="M81.81 34.288a39.96 39.96 0 00-2.56 8.52c2.225.483 3.827-1.876 4.758-3.44 1.657-2.783 2.14-6.643 1.533-9.973-2.037.413-3.035 3.264-3.732 4.893zm-4.884 9.665c.788 2.633.242 6.213-1.356 8.689-1.754-1.153-1.997-3.69-2.246-5.509-.327-2.4-.482-5.06-.075-7.549 2.244.29 3.15 2.61 3.677 4.368z" fill="#222443"/><path d="M80.825 45.08a46.73 46.73 0 00-5.282 7.545c2.031 1.28 4.415-.468 5.861-1.706 2.564-2.194 4.23-5.925 4.625-9.441-2.134-.29-4.016 2.227-5.204 3.602zm-8.037 7.836c-.17 3.065-2.147 6.282-4.78 8.113-1.272-1.757-.474-4.449-.041-6.328.584-2.53 1.392-5.165 2.593-7.502 2.096 1.117 2.34 3.698 2.228 5.717z" fill="#222443"/><path d="M76.33 55.505a73.058 73.058 0 00-8.342 5.496c1.584 2.105 4.75 1.266 6.712.59 3.46-1.193 6.543-4.336 8.153-7.827-2.042-1.062-4.837.796-6.523 1.741zm-11.666 4.9c-1.713 3.153-5.614 5.21-9.29 5.706-.395-2.293 2.063-4.563 3.403-6.048 1.907-2.114 3.894-4.307 6.122-6.135 1.67 1.956.786 4.594-.235 6.477z" fill="#222443"/><path d="M67.109 64.401c-3.892.409-7.85.997-11.74 1.674.37 2.893 4.92 3.36 6.984 3.53 4.235.35 8.945-1.367 12.224-4.258-1.628-1.934-5.394-1.163-7.468-.946zM59.612 5.549c2.613.752 5.673 2.18 7.183 4.814-2.742-.302-5.438-1.287-8.075-2.037-2.953-.84-6.062-1.47-8.921-2.63 3.131-1.264 6.822-1.008 9.813-.147zM45.904 4.185L44.563 1.2l-1.316 2.93-3.06-1.914 1.967 4.169h4.89l1.894-4.17-3.034 1.97zm1.107 2.848h-4.897v.729h4.898v-.73zm-2.098 56.413l.789 2.45h2.554l-2.066 1.515.789 2.451-2.066-1.515-2.066 1.515.79-2.45-2.067-1.515h2.554l.789-2.45z" fill="#222443"/></svg>