<svg width="126" height="64" fill="none" xmlns="http://www.w3.org/2000/svg"><path d="M9.825 13.758c-.778-1.987-.44-4.272.276-6.194.753-2.022 2.064-4.039 4.025-5.102.097 2.13-.55 4.236-1.257 6.134-.636 1.708-1.416 3.527-2.704 4.94a39.045 39.045 0 00-.456 3.199 8.114 8.114 0 011.983-2.968c1.112-1.059 2.766-1.876 4.319-1.393-.455 1.727-1.492 3.383-2.72 4.544-.966.914-2.242 2.086-3.744 2.132a37.73 37.73 0 00.1 4.64c.212-1.119.667-2.172 1.323-2.956.902-1.077 2.238-2.393 3.946-2.173-.094 1.748-.787 3.54-1.752 4.885-.767 1.07-1.779 2.432-3.216 2.784.23 1.502.55 2.978.957 4.422.004-1.106.247-2.191.729-3.062.679-1.228 1.736-2.76 3.445-2.88.25 1.716-.089 3.59-.774 5.081-.547 1.192-1.277 2.712-2.607 3.34a36.793 36.793 0 001.978 4.524c-.266-1.257-.256-2.582.06-3.773.433-1.643 1.51-3.369 3.24-3.87.61 1.814.527 3.838.171 5.682-.292 1.517-.866 3.3-2.153 4.286a36.777 36.777 0 002.787 3.925c-.545-1.223-.816-2.562-.67-3.787.211-1.785.71-3.694 2.522-4.646 1.028 1.785 1.266 3.787 1.353 5.764.07 1.6-.158 3.57-1.262 4.872a36.94 36.94 0 003.923 3.553c-.903-1.165-1.535-2.533-1.67-3.886-.189-1.911-.096-4.015 1.59-5.418 1.442 1.516 2.302 3.747 2.724 5.685.372 1.713.762 3.741-.126 5.428a37.74 37.74 0 005.69 3.071c-1.413-1.013-2.571-2.404-3.122-3.84-.723-1.883-1.17-4.126.238-6.011 1.886 1.215 3.272 3.289 4.364 5.18.937 1.623 1.907 3.862 1.425 5.795a39.55 39.55 0 003.423.998l-.07.289a39.867 39.867 0 01-3.435-1.002c-.783 2.327-3.347 3.096-5.42 3.436-2.955.483-6.473-.454-8.995-2.341 1.331-1.893 4.047-2.085 6.095-2.23l.027-.002c2.244-.159 4.67.053 6.927.643a38.174 38.174 0 01-7.295-3.729l-.033.053c-1.232 2.01-3.706 2.089-5.648 1.962-2.636-.173-5.678-1.785-7.44-4.014 1.657-1.462 4.104-1.053 6-.736l.008.002c2.116.354 4.428 1.126 6.369 2.314a9.344 9.344 0 01-.542-.464 37.263 37.263 0 01-5.207-4.518 5.785 5.785 0 01-.055.055c-1.536 1.555-3.773 1.148-5.518.642-2.336-.677-4.759-2.72-5.92-5.064 1.8-1.014 3.95-.178 5.623.483 1.836.725 3.779 1.886 5.273 3.365a9.009 9.009 0 01-.44-.61 37.067 37.067 0 01-3.735-5.047l-.056.035c-1.737 1.128-3.705.311-5.265-.492-2.115-1.09-3.815-3.483-4.55-5.837 1.877-.604 3.73.582 5.172 1.523 1.576 1.027 3.173 2.494 4.269 4.175a7.797 7.797 0 01-.225-.508 37.078 37.078 0 01-2.672-5.801l-.037.012-.003.002c-1.58.604-3.339-.336-4.486-1.366-1.594-1.431-2.717-3.632-2.98-5.783 1.646-.214 3.198 1.068 4.259 2.161 1.22 1.258 2.317 2.746 2.99 4.398a7.267 7.267 0 01-.126-.546 37.27 37.27 0 01-1.384-5.837l-.024.003-.008.002c-1.67.28-3.214-.997-4.137-2.237-1.294-1.74-1.961-4.147-1.794-6.33 1.664.117 2.93 1.71 3.752 2.998.95 1.49 1.74 3.178 2.085 4.944a7.155 7.155 0 01-.02-.424 37.923 37.923 0 01-.26-6.198h-.006c-1.697-.062-2.952-1.648-3.6-3.055-.927-2.013-1.076-4.558-.458-6.703 1.619.457 2.52 2.325 3.053 3.763.614 1.657 1.043 3.465 1.046 5.263.089-1.508.266-3.028.538-4.554zm33.441-3.721v7.2c0 3.167-2.85 4.69-7.17 4.69-4.039 0-6.934-1.508-6.934-5.063v-6.827h4.023v6.827c0 1.27 1.084 2.061 3.074 2.061 1.9 0 3.029-.821 3.029-2.046v-6.842h3.978zm13.4 8.604v3.122h-11.12V10.037h4.023v8.604h7.097zm11.957-5.661v-2.943H54.712v2.943h4.914v8.783h4.068V12.98h4.93z" fill="#222443"/><path fill-rule="evenodd" clip-rule="evenodd" d="M82.895 11.233c.535.552.788 1.314.788 2.374 0 .912-.223 1.688-.595 2.211-.416.568-1.054 1.046-1.84 1.165l3.519 4.78h-4.425l-2.896-4.138H73.84v4.138h-3.964V10.037h9.28c1.84 0 3.043.449 3.74 1.196zm-3.206 3.36c.104-.179.133-.418.133-.612 0-.224-.03-.463-.133-.612-.208-.389-.624-.493-1.248-.493h-4.587v2.136h4.662c.638 0 1.025-.12 1.173-.419zm10.433 5.004h6.295l1.024 2.166h4.291l-5.88-11.726h-4.795l-6.22 11.726h4.2l1.085-2.166zm5.032-2.629h-3.726l1.47-2.823.446-1.075.416 1.06 1.394 2.838zM82.47 23.971c-2.49 0-3.801 1.188-3.801 2.933 0 1.97 1.375 2.97 3.8 2.97 2.671 0 3.794-1.16 3.794-2.97 0-1.839-1.267-2.933-3.793-2.933zm0 4.447c-1.418 0-1.83-.587-1.83-1.492 0-.89.447-1.477 1.822-1.477 1.505 0 1.843.659 1.843 1.477 0 .87-.41 1.492-1.835 1.492z" fill="#222443"/><path d="M74.978 29.787v-3.368h-3.757v1.224h2.008a.918.918 0 01-.18.384c-.209.246-.763.463-1.483.463-.748 0-1.23-.195-1.49-.5-.172-.224-.273-.542-.273-1.02 0-.5.1-.84.295-1.065.28-.319.756-.456 1.454-.456.626 0 1.058.145 1.26.326.13.108.23.26.252.362h1.864a1.953 1.953 0 00-.166-.68C74.316 24.543 73.28 24 71.516 24c-1.533 0-2.563.471-3.131 1.18-.374.486-.547 1.094-.547 1.775 0 .753.201 1.398.533 1.825.56.732 1.561 1.093 2.763 1.093 1.059 0 1.785-.253 2.246-.637l.05.55h1.548zm-19.608-3.44c1.462.16 2.088.68 2.088 1.673 0 1.202-1.166 1.854-3.462 1.854-2.138 0-3.06-.609-3.412-1.405a2.462 2.462 0 01-.137-.565h2.073a.715.715 0 00.137.304c.173.21.655.333 1.476.333 1.058 0 1.31-.152 1.31-.434 0-.305-.26-.37-1.217-.471-.381-.036-.986-.094-1.238-.116-1.828-.167-2.505-.739-2.505-1.716 0-1.014 1.195-1.789 3.376-1.789 1.936 0 2.836.58 3.21 1.303.115.218.187.464.21.638h-2.074a.479.479 0 00-.115-.261c-.159-.21-.562-.348-1.281-.348-1.015 0-1.281.123-1.281.384 0 .29.338.355 1.468.478.439.036 1.137.109 1.375.138z" fill="#222443"/><path fill-rule="evenodd" clip-rule="evenodd" d="M34.706 24.587c.381.304.597.818.597 1.564 0 .609-.15 1.065-.439 1.383-.388.45-1.029.652-1.864.66-.259.007-2.476 0-2.476 0v1.593h-1.936v-5.685h4.383c.778 0 1.368.16 1.735.485zm-1.432 2.006a.819.819 0 00.086-.413c0-.188-.036-.347-.1-.434-.123-.181-.353-.268-.728-.268H30.51v1.39h2.008c.403 0 .64-.094.756-.275zm9.112-1.912c.259.268.381.637.381 1.152 0 .441-.108.818-.288 1.071a1.38 1.38 0 01-.892.565l1.706 2.318h-2.145l-1.404-2.006h-1.749v2.006h-1.922v-5.685h4.499c.892 0 1.475.217 1.814.58zm-1.555 1.63a.616.616 0 00.065-.297c0-.109-.015-.225-.065-.297-.1-.188-.302-.24-.605-.24h-2.224v1.036h2.26c.31 0 .497-.058.569-.202z" fill="#222443"/><path d="M49.864 29.787v-1.412H45.81v-.74h3.887v-1.382H45.81v-.732h4.002v-1.42H43.91v5.686h5.953zm14.598-4.258v-1.427h-6.744v1.427H60.1v4.258h1.972v-4.258h2.39zm2.594-1.427v5.685h-1.98v-5.685h1.98zm10.832 0v5.685h-1.98v-5.685h1.98zm16.012 0v3.49c0 1.536-1.382 2.274-3.476 2.274-1.957 0-3.362-.731-3.362-2.455v-3.31h1.952v3.31c0 .616.525 1 1.49 1 .92 0 1.468-.399 1.468-.992v-3.317H93.9zm7.771 3.918c0-.992-.626-1.514-2.087-1.673a49.09 49.09 0 00-1.375-.138c-1.13-.123-1.47-.188-1.47-.478 0-.26.267-.384 1.283-.384.72 0 1.123.138 1.28.348.08.101.108.181.116.26h2.073a2.006 2.006 0 00-.209-.636c-.374-.725-1.274-1.304-3.21-1.304-2.181 0-3.376.775-3.376 1.789 0 .977.677 1.55 2.505 1.716l.117.01.196.018.925.088c.958.101 1.216.166 1.216.47 0 .283-.25.435-1.309.435-.82 0-1.303-.123-1.477-.333a.712.712 0 01-.135-.304H94.66c.022.145.058.376.137.565.353.796 1.274 1.404 3.412 1.404 2.296 0 3.462-.651 3.462-1.853z" fill="#222443"/><path fill-rule="evenodd" clip-rule="evenodd" d="M51.338 31.963c-1.618 0-2.47.772-2.47 1.907 0 1.28.894 1.93 2.47 1.93 1.736 0 2.465-.754 2.465-1.93 0-1.196-.823-1.907-2.465-1.907zm0 2.89c-.921 0-1.188-.381-1.188-.97 0-.578.29-.96 1.184-.96.977 0 1.197.429 1.197.96 0 .565-.267.97-1.193.97z" fill="#222443"/><path d="M42.337 34.594c0-.645-.407-.984-1.357-1.087a32.13 32.13 0 00-.893-.09c-.735-.08-.955-.122-.955-.31 0-.17.173-.25.833-.25.468 0 .73.09.833.226.051.066.07.118.075.17h1.347a1.294 1.294 0 00-.136-.414c-.243-.471-.828-.848-2.086-.848-1.418 0-2.194.504-2.194 1.163 0 .635.44 1.007 1.628 1.115.163.014.556.052.804.076.623.066.79.108.79.306 0 .183-.163.282-.85.282-.534 0-.847-.08-.96-.216a.464.464 0 01-.088-.198H37.78c.014.094.038.245.09.367.229.518.827.913 2.217.913 1.492 0 2.25-.423 2.25-1.205z" fill="#222443"/><path fill-rule="evenodd" clip-rule="evenodd" d="M32.996 34.698c0 .254-.07.503-.21.668-.215.264-.618.377-1.137.377h-3.26v-3.695h3.171c.506 0 .828.122 1.006.306.16.16.23.372.23.612s-.057.437-.178.583a.705.705 0 01-.445.24c.262.033.51.165.65.349.117.136.173.343.173.56zm-1.576-1.295a.32.32 0 00.075-.216.272.272 0 00-.09-.217c-.065-.06-.186-.084-.364-.084h-1.427v.602h1.46c.159 0 .28-.023.346-.085zm-.21 1.502c.22 0 .35-.029.425-.099.047-.047.066-.118.066-.207a.292.292 0 00-.08-.221c-.07-.062-.192-.09-.397-.09h-1.61v.617h1.595z" fill="#222443"/><path d="M37.4 34.825v.917h-3.868v-3.694h3.836v.922h-2.6v.476h2.525v.899h-2.526v.48h2.634zm9.49-2.777v.927h-1.554v2.767h-1.282v-2.767h-1.548v-.927h4.383zm11.194 0v.936H55.59v.523h2.377v.927H55.59v1.309h-1.258v-3.695h3.752zm6.338.927v-.927H60.04v.927h1.548v2.767h1.282v-2.767h1.553zm4.782-.927v3.694h-1.253v-1.34H66.07v1.34h-1.254v-3.694h1.254v1.346h1.88v-1.346h1.254zm4.611 3.694v-.917h-2.634v-.48h2.526v-.9h-2.526v-.475h2.601v-.922h-3.836v3.694h3.869zm7.756-3.694h1.211l-1.342 3.694h-1.375s-.735-2.207-.74-2.268c-.004.061-.744 2.269-.744 2.269h-1.37l-1.375-3.695h1.36s.797 2.325.797 2.381c0-.056.734-2.381.734-2.381h1.315s.739 2.325.739 2.381c0-.056.79-2.381.79-2.381z" fill="#222443"/><path fill-rule="evenodd" clip-rule="evenodd" d="M85.185 31.963c-1.619 0-2.47.772-2.47 1.907 0 1.28.893 1.93 2.47 1.93 1.736 0 2.465-.754 2.465-1.93 0-1.196-.824-1.907-2.465-1.907zm0 2.89c-.922 0-1.188-.381-1.188-.97 0-.578.29-.96 1.183-.96.978 0 1.197.429 1.197.96 0 .565-.266.97-1.192.97zm7.098-2.428c.167.174.247.414.247.748 0 .287-.07.532-.187.696a.895.895 0 01-.58.367l1.108 1.507h-1.393l-.913-1.304H89.43v1.303h-1.25v-3.694h2.924c.58 0 .96.141 1.18.377zm-1.01 1.058a.411.411 0 00.04-.193.377.377 0 00-.04-.193c-.067-.122-.198-.155-.395-.155h-1.444v.673h1.468c.201 0 .323-.037.37-.132z" fill="#222443"/><path d="M96.777 35.742v-.983h-2.236v-2.711h-1.268v3.694h3.504z" fill="#222443"/><path fill-rule="evenodd" clip-rule="evenodd" d="M101.737 33.827c0 .574-.056.885-.224 1.177-.253.465-.753.739-1.638.739h-2.6v-3.695h2.572c.88 0 1.399.25 1.656.678.183.287.234.593.234 1.1zm-2.1 1.007c.397 0 .622-.094.758-.301.084-.127.108-.424.108-.682-.005-.236-.033-.485-.108-.598-.146-.221-.364-.301-.749-.301h-1.118v1.882h1.109z" fill="#222443"/><path d="M51.556 53.711h-1.938s-1.265 3.72-1.265 3.81c0-.09-1.183-3.81-1.183-3.81h-2.103s-1.175 3.72-1.175 3.81c0-.09-1.273-3.81-1.273-3.81h-2.178l2.2 5.912h2.194s1.182-3.532 1.19-3.63c.008.098 1.183 3.63 1.183 3.63h2.2l2.148-5.912zm2.653 5.912V53.71H52.15v5.912h2.059zm8.006-5.912v5.912h-2.006l-2.912-3.291v3.29h-1.93v-5.91h2.11l2.821 3.215V53.71h1.917zm8.017 5.912V53.71h-1.916v3.216l-2.822-3.216h-2.11v5.912h1.93v-3.291l2.912 3.29h2.006zm7.361-1.469v1.469h-6.19V53.71h6.137v1.476h-4.162v.761h4.042v1.438h-4.042v.768h4.215z" fill="#222443"/><path fill-rule="evenodd" clip-rule="evenodd" d="M85.504 55.511c0-.535-.128-.919-.397-1.197-.352-.377-.958-.603-1.886-.603h-4.678v5.912h1.999v-2.086h1.819l1.46 2.086h2.23l-1.774-2.41c.396-.06.718-.301.928-.587.186-.264.299-.655.299-1.115zm-1.947.188a.638.638 0 01-.067.31c-.075.15-.27.21-.59.21h-2.35v-1.077h2.311c.315 0 .525.053.629.249.053.075.067.196.067.309z" fill="#222443"/><path d="M45.58 43.282l-.812-2.513-.812 2.513h-2.627l2.125 1.554-.811 2.513 2.125-1.553 2.125 1.553-.812-2.513 2.125-1.554H45.58zm8.559-2.515l.828 2.514h2.68l-2.168 1.553.828 2.513-2.168-1.553-2.169 1.553.828-2.513-2.168-1.553h2.68l.829-2.514zm10.125 2.513l-.828-2.513-.829 2.514h-2.68l2.168 1.553-.828 2.513 2.168-1.553 2.169 1.553-.828-2.513 2.168-1.553h-2.68zm8.468-2.513l.829 2.514h2.68l-2.168 1.553.828 2.513-2.169-1.553-2.168 1.553.828-2.513-2.168-1.553h2.68l.828-2.514zm10.183 2.513l-.812-2.513-.813 2.514h-2.626l2.125 1.553-.811 2.513 2.125-1.553 2.125 1.553-.811-2.513 2.124-1.553h-2.626zm34.079-29.468c.777-1.987.439-4.272-.276-6.194-.754-2.022-2.065-4.039-4.025-5.102-.098 2.131.549 4.236 1.257 6.135.636 1.707 1.415 3.526 2.703 4.938.198 1.07.35 2.137.456 3.199a8.117 8.117 0 00-1.981-2.966c-1.112-1.06-2.768-1.876-4.32-1.393.455 1.727 1.491 3.382 2.719 4.544.967.914 2.243 2.085 3.745 2.131a37.484 37.484 0 01-.102 4.64c-.211-1.118-.665-2.17-1.322-2.955-.902-1.077-2.239-2.393-3.945-2.173.093 1.748.787 3.539 1.752 4.885.765 1.069 1.778 2.432 3.216 2.784a36.92 36.92 0 01-.958 4.422c-.004-1.106-.246-2.192-.728-3.063-.679-1.228-1.737-2.759-3.446-2.879-.251 1.715.089 3.59.774 5.08.547 1.192 1.277 2.712 2.607 3.34a36.68 36.68 0 01-1.978 4.525c.267-1.257.256-2.582-.059-3.774-.434-1.643-1.51-3.369-3.24-3.87-.612 1.815-.527 3.838-.171 5.682.292 1.518.866 3.3 2.153 4.287a36.752 36.752 0 01-2.789 3.927c.546-1.225.817-2.563.671-3.79-.212-1.784-.709-3.694-2.521-4.645-1.029 1.785-1.267 3.787-1.354 5.764-.071 1.599.157 3.571 1.262 4.872a37.142 37.142 0 01-3.922 3.553c.903-1.166 1.535-2.534 1.669-3.886.189-1.912.098-4.015-1.589-5.418-1.441 1.515-2.303 3.746-2.723 5.684-.373 1.714-.762 3.742.124 5.428-1.78 1.17-3.68 2.2-5.69 3.072 1.414-1.013 2.571-2.405 3.123-3.841.723-1.882 1.17-4.126-.238-6.01-1.886 1.215-3.272 3.288-4.364 5.18-.937 1.622-1.907 3.862-1.425 5.795a39.65 39.65 0 01-3.423.998l.07.288a39.943 39.943 0 003.434-1c.783 2.326 3.347 3.095 5.42 3.434 2.955.484 6.473-.453 8.996-2.34-1.332-1.893-4.048-2.085-6.096-2.23l-.027-.002a21.809 21.809 0 00-6.926.643 38.194 38.194 0 007.294-3.73l.031.05c1.232 2.014 3.708 2.092 5.65 1.965 2.637-.172 5.679-1.785 7.439-4.013-1.656-1.462-4.101-1.053-5.997-.736l-.01.002c-2.115.353-4.426 1.125-6.366 2.313.184-.146.364-.3.54-.463a37.283 37.283 0 005.206-4.518l.066.066c1.536 1.542 3.766 1.135 5.508.63 2.337-.677 4.759-2.719 5.92-5.063-1.8-1.015-3.95-.179-5.623.482-1.838.726-3.782 1.888-5.277 3.37.154-.196.302-.4.442-.612a37.21 37.21 0 003.737-5.049l.048.03.012.007c1.736 1.124 3.703.308 5.261-.494 2.115-1.09 3.816-3.483 4.55-5.837-1.877-.605-3.73.582-5.171 1.522-1.578 1.029-3.176 2.495-4.272 4.178a7.49 7.49 0 00.226-.509 36.99 36.99 0 002.672-5.803l.038.013.006.002c1.579.602 3.337-.337 4.483-1.366 1.593-1.432 2.717-3.633 2.98-5.783-1.646-.215-3.199 1.067-4.259 2.16-1.221 1.26-2.318 2.748-2.992 4.402.05-.181.093-.364.128-.55a37.255 37.255 0 001.384-5.836l.046.006c1.664.271 3.203-1.002 4.123-2.239 1.294-1.74 1.961-4.147 1.793-6.33-1.662.118-2.93 1.71-3.751 2.998-.951 1.492-1.74 3.18-2.085 4.947.011-.141.017-.283.019-.426a37.96 37.96 0 00.261-6.198c1.699-.06 2.958-1.648 3.606-3.055.926-2.013 1.075-4.558.458-6.703-1.619.457-2.522 2.325-3.054 3.762-.614 1.658-1.042 3.466-1.046 5.263a39.064 39.064 0 00-.537-4.554z" fill="#222443"/></svg>