<svg width="118" height="64" fill="none" xmlns="http://www.w3.org/2000/svg"><path d="M106.989 4.519c1.105 1.86 2.166 4.155 1.644 6.615-1.8-1.16-3.248-3.056-4.396-4.927-1.157-1.883-2.357-3.886-2.769-6.207 2.271.654 4.304 2.47 5.521 4.519zM9.386 11.13c-.52-2.46.542-4.753 1.65-6.613C12.253 2.47 14.287.656 16.558.003c-.413 2.321-1.615 4.323-2.773 6.205-1.15 1.87-2.6 3.764-4.4 4.923z" fill="#222443"/><path d="M7.8 15.849c.407-1.949.398-4.081.011-5.909-.34-1.606-.835-3.876-2.463-4.642-1.184 2.139-1.66 5.051-.97 7.234.5 1.578 1.396 3.665 3.257 3.988 1.707.444 3.433-.582 4.796-1.429 1.516-.941 3.001-2.44 3.903-4.22-1.655-.941-3.54-.178-4.957.554-1.529.789-2.933 2.481-3.576 4.424zm33.13 1.871V7.94h-2.964v3.564H33.52V7.939h-2.964v9.781h2.964v-3.55h4.447v3.55h2.965zm9.831-9.781h3.274l-4.645 6.554v3.227h-2.976v-3.215l-4.59-6.566h3.373l2.743 3.912 2.821-3.912z" fill="#222443"/><path fill-rule="evenodd" clip-rule="evenodd" d="M64.36 8.774c.587.523.918 1.408.918 2.691 0 1.047-.232 1.832-.675 2.38-.597.773-1.581 1.121-2.864 1.134-.399.012-3.806 0-3.806 0v2.741h-2.975V7.94h6.736c1.195 0 2.102.274 2.666.835zm-2.201 3.451c.088-.174.133-.399.133-.71 0-.324-.056-.598-.155-.748-.188-.311-.542-.46-1.117-.46h-3.11v2.392h3.086c.62 0 .985-.162 1.162-.474z" fill="#222443"/><path d="M75.61 15.29v2.43h-9.147V7.94h9.071v2.442h-6.15v1.259h5.973v2.38h-5.974v1.27h6.228z" fill="#222443"/><path fill-rule="evenodd" clip-rule="evenodd" d="M86.718 8.936c.399.46.586 1.096.586 1.981 0 .76-.166 1.408-.442 1.844-.31.474-.786.872-1.372.972l2.622 3.987h-3.297l-2.155-3.45h-2.69v3.451h-2.954V7.94h6.913c1.372 0 2.269.374 2.788.997zm-2.39 2.803c.078-.15.1-.349.1-.51 0-.187-.022-.387-.1-.511-.154-.324-.463-.412-.929-.412h-3.417v1.782h3.473c.475 0 .763-.1.874-.349z" fill="#222443"/><path d="M74.027 29.99c0-2.237-1.26-3.412-4.202-3.77a88.142 88.142 0 00-2.767-.31c-2.275-.278-2.956-.425-2.956-1.078 0-.588.536-.865 2.579-.865 1.449 0 2.26.31 2.579.783.16.229.217.408.232.588h4.172a4.873 4.873 0 00-.42-1.436c-.753-1.632-2.564-2.938-6.462-2.938-4.39 0-6.795 1.746-6.795 4.031 0 2.203 1.362 3.493 5.042 3.868.416.04 1.31.135 2.041.213l.046.005h.008l.003.001.394.042c1.927.229 2.449.376 2.449 1.061 0 .636-.507.98-2.637.98-1.652 0-2.623-.278-2.97-.752a1.708 1.708 0 01-.276-.685h-4.172c.043.326.115.849.275 1.273.71 1.795 2.564 3.166 6.868 3.166 4.621 0 6.97-1.469 6.97-4.178z" fill="#222443"/><path fill-rule="evenodd" clip-rule="evenodd" d="M44.445 32.665c.435-.571.652-1.436.652-2.317 0-.751-.174-1.47-.536-1.942-.435-.637-1.203-1.094-2.014-1.208a2.128 2.128 0 001.377-.832c.376-.506.55-1.192.55-2.024 0-.832-.217-1.567-.71-2.122-.55-.636-1.55-1.06-3.115-1.06h-9.823v12.81h10.098c1.609 0 2.855-.391 3.521-1.305zm-3.999-7.556c0 .31-.087.571-.231.75-.203.213-.58.294-1.073.294h-4.52v-2.089h4.419c.55 0 .927.082 1.13.294.188.18.275.44.275.75zm.435 5.614c-.232.245-.638.343-1.319.343h-4.94v-2.138h4.984c.637 0 1.014.098 1.231.31.174.196.247.44.247.767 0 .31-.058.555-.203.718z" fill="#222443"/><path d="M58.74 30.788v3.183H46.757V21.159h11.881v3.2h-8.056v1.647h7.824v3.118h-7.824v1.664h8.157zm29.385-6.413v-3.216H74.55v3.216h4.796v9.596h3.969v-9.596h4.81zm-.344 20.933h-.638l-.046-.693c-.195.35-.608.771-1.479.771-1.472 0-2.157-.999-2.157-3.551 0-1.973.436-3.56 2.234-3.56 1.558 0 2.033 1.149 2.055 2.385h-.778c-.023-.807-.343-1.552-1.261-1.552-1.105 0-1.425.745-1.425 2.754 0 2.095.398 2.753 1.44 2.753.732 0 1.16-.456 1.301-1V42.31h-1.573v-.798h2.32v2.017c0 .602.005 1.245.006 1.569l.001.154v.057z" fill="#222443"/><path fill-rule="evenodd" clip-rule="evenodd" d="M30.973 43.563h2.18l.451 1.745h.825l-1.806-6.946h-1.004l-1.931 6.946h.817l.468-1.745zm1.985-.78h-1.775l.786-2.868.133-.667.086.46.038.207c.008.044.732 2.867.732 2.867z" fill="#222443"/><path d="M40.338 38.362h.748l-1.456 6.946h-.927s-1.035-5.402-1.035-5.63c-.008.228-1.067 5.63-1.067 5.63h-.926l-1.456-6.946h.841s1.129 5.499 1.129 5.718c0-.22 1.035-5.718 1.035-5.718h.927s1.035 5.508 1.035 5.718c0-.21 1.152-5.718 1.152-5.718z" fill="#222443"/><path fill-rule="evenodd" clip-rule="evenodd" d="M44.283 43.563h-2.18l-.467 1.745h-.818l1.931-6.946h1.004l1.807 6.946h-.826l-.451-1.745zm-1.97-.78h1.775s-.724-2.825-.732-2.868l-.059-.316-.065-.35-.133.666c-.015.061-.786 2.867-.786 2.867zm6.247-4.421c.95 0 1.463.5 1.463 1.956 0 1.236-.412 1.649-.84 1.789l1.183 3.2h-.856l-1.098-3.025h-1.495v3.026h-.778v-6.946h2.42zm-.117 3.131c.615 0 .763-.36.763-1.149 0-.894-.234-1.166-.802-1.166h-1.48v2.315h1.52zm6.764.228c0 1.64-.11 2.306-.42 2.806-.312.483-.803.78-1.597.78h-2.117v-6.945h2.063c.778 0 1.386.264 1.666.737.311.509.405 1.14.405 2.622zm-2.18 2.762c.475 0 .872-.14 1.074-.447.218-.333.28-1.008.28-2.315 0-1.096-.054-1.684-.28-2.06-.21-.325-.615-.465-1.09-.465H51.86v5.287h1.168z" fill="#222443"/><path d="M63.42 38.362h.747l-1.456 6.946h-.926s-1.035-5.402-1.035-5.63c-.008.228-1.067 5.63-1.067 5.63h-.926L57.3 38.362h.84s1.13 5.499 1.13 5.718c0-.22 1.035-5.718 1.035-5.718h.926s1.036 5.508 1.036 5.718c0-.21 1.152-5.718 1.152-5.718zm2.124 0v6.946h-.81v-6.946h.81zm5.068 0v6.946h-.895l-2.297-5.385v5.385h-.755v-6.946h.942l2.242 5.306v-5.306h.763zm5.048 0v6.946h-.895l-2.296-5.385v5.385h-.756v-6.946h.943l2.242 5.306v-5.306h.762zm1.91 0v6.946h-.809v-6.946h.81zm5.07 0v6.946h-.896l-2.296-5.385v5.385h-.756v-6.946h.943l2.242 5.306v-5.306h.763zM39.737 58.996l-.892-3.093-.892 3.093h-2.887l2.335 1.911L36.51 64l2.336-1.911L41.181 64l-.892-3.093 2.335-1.911h-2.887zm10.317 0l-.91-3.093-.91 3.093h-2.946l2.383 1.911-.91 3.093 2.383-1.911L51.527 64l-.91-3.093L53 58.996h-2.946zm10.219 0l-.91-3.093-.911 3.093h-2.946l2.383 1.911L56.98 64l2.383-1.911L61.745 64l-.91-3.093 2.383-1.911h-2.946zm10.217 0l-.91-3.093-.91 3.093h-2.946l2.383 1.911-.91 3.093 2.383-1.911L71.963 64l-.91-3.093 2.383-1.911H70.49zm10.28 0l-.89-3.093-.893 3.093H76.1l2.336 1.911L77.544 64l2.335-1.911L82.215 64l-.893-3.093 2.337-1.911H80.77zM2.544 21.106c.84 1.443 2.139 3.25 4.033 3.198 1.722.097 3.21-1.227 4.382-2.332 1.262-1.19 2.402-2.93 2.883-4.812-1.762-.578-3.449.492-4.707 1.5-1.313 1.054-2.323 2.983-2.54 4.962-.017-1.983-.493-4.032-1.262-5.682-.702-1.509-1.681-3.548-3.427-3.956-.689 2.348-.469 5.22.638 7.122z" fill="#222443"/><path d="M7.137 32.075c-1.758.332-3.473-.882-4.586-2.309C1.117 27.93.264 25.464.438 22.996c1.806.053 3.174 1.81 4.185 3.14 1.088 1.433 1.98 3.317 2.408 5.26-.188-1.937.39-4.028 1.461-5.32 1.035-1.248 2.484-2.608 4.287-2.39-.04 1.964-.913 3.836-1.815 5.237-.84 1.306-2.135 2.922-3.827 3.152z" fill="#222443"/><path d="M3.89 38.6c1.619 1.188 3.582 2.363 5.646 1.474 1.693-.675 2.77-2.595 3.432-4.356.7-1.867 1.17-4.02.845-6.063-1.86.186-3.403 1.685-4.222 3.515-.857 1.914-1.021 4.191-.363 6.197-.973-2.064-2.394-3.733-3.9-5.276-1.37-1.403-3.342-2.88-5.328-2.603.378 2.767 1.877 5.636 3.89 7.113z" fill="#222443"/><path d="M13.706 47.551c1.594-1.073 2.235-3.33 2.497-5.265.282-2.086.27-4.386-.499-6.366-1.848.582-3.117 2.456-3.536 4.508-.443 2.169-.07 4.48 1.007 6.327-1.43-1.85-3.334-3.377-5.158-4.448-1.761-1.034-3.923-2.282-6.038-1.529 1.02 2.805 3.202 5.416 5.62 6.496 1.874.837 4.153 1.664 6.107.277z" fill="#222443"/><path d="M21.26 48.277c.234 2.013.227 4.567-1.16 6.117-1.735 2-4.42 1.614-6.49 1.174-2.78-.591-5.908-2.726-7.585-5.57 2.048-1.27 4.553-.457 6.58.2l.116.038c2.264.734 4.675 1.915 6.692 3.529-1.61-1.638-2.782-4.043-2.84-6.467-.051-2.167.784-4.487 2.582-5.52 1.255 1.855 1.842 4.238 2.105 6.499z" fill="#222443"/><path d="M29.315 60.096c1.022-2.191.01-4.764-.798-6.665-.954-2.247-2.257-4.537-4.123-6.182-1.791 1.738-1.62 4.226-1.088 6.389.633 2.57 2.828 4.763 5.102 6.012a26.504 26.504 0 00-8.244-1.966l-.277-.02c-2.198-.162-5.06-.372-6.81 1.44 2.647 2.536 6.408 3.999 9.723 3.923 2.222-.051 5.27-.347 6.515-2.93zm80.899-44.241c-.641-1.943-2.045-3.638-3.572-4.428-1.419-.733-3.302-1.498-4.957-.559.9 1.782 2.383 3.28 3.899 4.224 1.362.848 3.087 1.875 4.794 1.433 1.861-.32 2.76-2.407 3.261-3.986.692-2.181.219-5.094-.963-7.234-1.63.765-2.127 3.034-2.467 4.64-.389 1.828-.4 3.961.005 5.91z" fill="#222443"/><path d="M108.876 18.665c1.313 1.054 2.32 2.98 2.536 4.96.019-1.983.497-4.03 1.267-5.678.703-1.509 1.684-3.547 3.431-3.953.685 2.348.464 5.22-.646 7.121-.839 1.44-2.137 3.244-4.028 3.195-1.725.1-3.214-1.228-4.387-2.335-1.261-1.192-2.398-2.933-2.877-4.815 1.761-.576 3.447.495 4.704 1.505z" fill="#222443"/><path d="M110.968 31.409c.192-1.939-.383-4.035-1.456-5.33-1.032-1.248-2.481-2.609-4.283-2.392.036 1.964.908 3.836 1.809 5.238.839 1.306 2.131 2.922 3.823 3.155 1.758.335 3.475-.878 4.591-2.304 1.435-1.836 2.29-4.3 2.119-6.768-1.807.05-3.176 1.807-4.188 3.136-1.092 1.433-1.986 3.32-2.415 5.265z" fill="#222443"/><path d="M108.408 33.174c.856 1.914 1.018 4.192.358 6.198.974-2.064 2.397-3.733 3.905-5.275 1.37-1.4 3.343-2.876 5.329-2.597-.379 2.766-1.881 5.634-3.895 7.109-1.619 1.184-3.58 2.357-5.641 1.471-1.696-.673-2.773-2.597-3.434-4.362-.701-1.867-1.167-4.02-.841-6.063 1.86.187 3.402 1.688 4.219 3.519z" fill="#222443"/><path d="M104.815 46.75c1.075-1.844 1.45-4.153 1.011-6.32-.417-2.053-1.685-3.928-3.534-4.511-.77 1.978-.784 4.278-.504 6.365.261 1.93.898 4.184 2.482 5.26 1.956 1.398 4.241.571 6.116-.265 2.42-1.078 4.605-3.687 5.627-6.491-2.115-.755-4.277.49-6.04 1.523-1.823 1.07-3.727 2.593-5.158 4.44z" fill="#222443"/><path d="M96.726 48.272c-.235 2.013-.231 4.567 1.156 6.118 1.732 2.002 4.417 1.618 6.488 1.18 2.78-.59 5.91-2.722 7.589-5.564-2.046-1.271-4.552-.461-6.58.195l-.116.037c-2.263.731-4.675 1.91-6.693 3.522 1.61-1.637 2.784-4.04 2.843-6.463.054-2.167-.78-4.487-2.576-5.522-1.257 1.854-1.846 4.236-2.11 6.497z" fill="#222443"/><path d="M95.173 63.02c-2.22-.053-5.269-.351-6.511-2.936l-.018-.036c-.992-2.185.016-4.738.82-6.628.957-2.247 2.262-4.536 4.128-6.18 1.791 1.741 1.618 4.229 1.084 6.39-.636 2.571-2.833 4.761-5.108 6.008a26.512 26.512 0 018.246-1.959l.278-.02c2.198-.159 5.06-.366 6.809 1.447-2.65 2.533-6.412 3.993-9.728 3.914z" fill="#222443"/></svg>