<svg width="64" height="64" fill="none" xmlns="http://www.w3.org/2000/svg"><g clip-path="url(#clip0_197_1085)"><path d="M22.258 27.977c-1.793.271-3.458-.844-3.719-2.492l-1.45-9.701c-.26-1.648.98-3.203 2.774-3.474 1.793-.271 3.458.844 3.719 2.492l1.45 9.701c.26 1.648-.981 3.203-2.774 3.474z" fill="#D7F6FF"/><path d="M41.194 28.628c1.777.168 3.38-1.023 3.58-2.66l1.09-9.635c.2-1.637-1.08-3.1-2.856-3.268-1.777-.168-3.38 1.023-3.58 2.66l-1.09 9.634c-.2 1.637 1.079 3.1 2.856 3.269z" fill="#F73B50"/><path d="M49.353 34.55c1.63.373 3.197-.397 3.5-1.723l1.712-7.81c.304-1.324-.77-2.701-2.4-3.075-1.629-.375-3.196.396-3.5 1.721l-1.711 7.81c-.304 1.325.77 2.702 2.4 3.076z" fill="#AED032"/><path d="M32.21 25.303a3.284 3.284 0 01-3.332-3.234l-.274-11.1a3.284 3.284 0 116.566-.097l.274 11.099a3.284 3.284 0 01-3.234 3.332z" fill="#FFD358"/><path d="M36.353 59.016l-12.488-.87c-3.444-.24-6.02-3.547-6.203-7.527-.053-1.154.62-2.218 1.671-2.699 1.255-.574 17.63 7.942 18.38-2.789.185-2.66-6.588-4.705-8.68-5.019-5.205-.78-7.577-4.585-2.687-6.403l12.812 1.045c3.733.305 6.471 4.235 6.115 8.775l-.527 6.71c-.405 5.158-4.149 9.073-8.393 8.777z" fill="#222443"/><path d="M16.966 40.055l-1.41 1.489a3.289 3.289 0 01-4.649.127l-4.04-3.827a3.289 3.289 0 01-.127-4.65l1.41-1.488a3.288 3.288 0 014.648-.127l4.042 3.827a3.289 3.289 0 01.126 4.649z" fill="#AED032"/><path d="M4.743 11.892l.993 2.79c.042.12.126.214.232.262l2.48 1.117c.35.158.35.716 0 .874l-2.48 1.117a.447.447 0 00-.232.262l-.993 2.79c-.14.395-.636.395-.776 0l-.992-2.79a.447.447 0 00-.233-.262l-2.48-1.117c-.35-.158-.35-.716 0-.874l2.48-1.117a.447.447 0 00.233-.262l.992-2.79c.14-.394.636-.394.776 0zm48.314-6.705l.737 2.07a.332.332 0 00.172.195l1.84.828c.26.117.26.531 0 .648l-1.84.829a.332.332 0 00-.172.194l-.736 2.07c-.105.292-.472.292-.576 0l-.736-2.07a.332.332 0 00-.173-.194l-1.84-.829c-.259-.117-.259-.53 0-.648l1.84-.828a.332.332 0 00.173-.195l.736-2.07c.104-.292.471-.292.575 0zm2.706 42.333a2.153 2.153 0 10-4.191-.99 2.153 2.153 0 004.191.99zM11.428 9.346a.93.93 0 100-1.859.93.93 0 000 1.859z" fill="#FFD358"/></g><defs><clipPath id="clip0_197_1085"><path fill="#fff" transform="translate(0 4)" d="M0 0h56v56H0z"/></clipPath></defs></svg>