<svg width="56" height="56" fill="none" xmlns="http://www.w3.org/2000/svg"><g clip-path="url(#clip0_197_1234)"><path d="M36.574 54.472c-1.568-1.32-3.143-2.9-4.667-4.65A59.847 59.847 0 0128 44.802L41.253 31.55a58.212 58.212 0 016.177 4.945 40.848 40.848 0 013.492 3.628 4.297 4.297 0 01-.252 5.806l-8.29 8.29a4.298 4.298 0 01-5.806.253z" fill="#222443"/><path d="M47.43 36.495a58.202 58.202 0 00-6.178-4.945L28 44.802a59.831 59.831 0 003.907 5.02c.325.374.653.738.983 1.095 2.209-.491 4.326-1.404 6.327-2.732 2.471-1.64 5.026-3.861 7.008-6.093 1.194-1.344 2.16-2.668 2.89-3.956a45.489 45.489 0 00-1.685-1.641z" fill="#fff"/><path d="M45.65 29.616a3.574 3.574 0 00-5.054 0 3.574 3.574 0 00-5.054-5.054 3.574 3.574 0 10-5.055-5.055 3.574 3.574 0 000-5.054c-1.717-1.718-3.803-1.201-6.006.231-1.125.732-2.28 1.703-3.434 2.737 1.018 5.234-3.902 6.85-5.843 5.646-2.027 3.053-2.716 6.275-2.449 9.328a1.773 1.773 0 01-.653 1.545 54.041 54.041 0 00-3.182 2.745 40.326 40.326 0 00-3.289 3.438 4.297 4.297 0 00.252 5.806l8.291 8.29a4.305 4.305 0 005.822.24 40.617 40.617 0 003.53-3.391 54.254 54.254 0 002.636-3.066 1.774 1.774 0 011.546-.654c3.053.267 6.275-.422 9.328-2.448 1.919-1.274 4.303-3.246 6.241-5.427 1.36-1.531 2.5-3.166 3.105-4.735.734-1.904.678-3.712-.732-5.122z" fill="#222443"/><path d="M21.442 21.657l-.731-.693c-1.151 2.371-4.105 2.972-5.507 2.103-2.027 3.053-2.716 6.275-2.449 9.329a1.773 1.773 0 01-.653 1.544 54.077 54.077 0 00-3.182 2.746 40.341 40.341 0 00-3.289 3.437 4.297 4.297 0 00.252 5.806l8.291 8.29a4.305 4.305 0 005.822.24 40.617 40.617 0 003.53-3.391 54.254 54.254 0 002.636-3.066 1.774 1.774 0 011.546-.654c.51.044 1.024.062 1.542.051-7.202-2.975-11.014-17.608-7.808-25.742z" fill="#222443"/><path d="M7.672 28.367a3.152 3.152 0 000 4.457l1.404 1.404a3.152 3.152 0 104.457-4.457l-1.404-1.404a3.152 3.152 0 00-4.457 0z" fill="#fff"/><path d="M11.488 23.269a3.152 3.152 0 000 4.457l1.404 1.404a3.152 3.152 0 104.457-4.457l-1.404-1.404a3.152 3.152 0 00-4.457 0z" fill="#fff"/><path d="M15.945 18.811a3.152 3.152 0 000 4.458l1.404 1.404a3.152 3.152 0 004.457-4.457l-1.404-1.405a3.152 3.152 0 00-4.457 0z" fill="#fff"/><path d="M20.402 14.354a3.152 3.152 0 000 4.457l1.404 1.405a3.152 3.152 0 104.457-4.457l-1.404-1.405a3.152 3.152 0 00-4.457 0z" fill="#fff"/><path d="M11.863 2.843c-.535-.44-1.217-.855-1.861-1.18a1.448 1.448 0 00-2.075 1.058c-.116.71-.18 1.505-.14 2.195a.618.618 0 01-.28.558c-.584.373-1.192.894-1.7 1.407-.684.69-.5 1.855.364 2.3.642.331 1.381.639 2.052.813a.61.61 0 01.437.437c.174.671.482 1.41.813 2.052a1.448 1.448 0 002.3.364c.514-.508 1.034-1.115 1.407-1.7a.618.618 0 01.558-.28c.69.04 1.485-.024 2.196-.14a1.448 1.448 0 001.057-2.075c-.325-.644-.74-1.326-1.18-1.86a.618.618 0 01-.098-.617c.253-.644.438-1.422.548-2.134a1.448 1.448 0 00-1.647-1.647c-.713.11-1.49.294-2.135.547a.618.618 0 01-.616-.098z" fill="#FFD358"/><path d="M17.143 9.28c-6.053.63-8.392-4.666-7.872-7.766-.644.039-1.23.51-1.344 1.207-.116.71-.18 1.505-.14 2.195a.618.618 0 01-.28.558c-.584.373-1.192.894-1.7 1.407-.684.69-.5 1.855.364 2.3.642.331 1.381.639 2.052.813a.61.61 0 01.437.437c.174.671.482 1.41.813 2.052a1.448 1.448 0 002.3.364c.514-.508 1.034-1.115 1.407-1.7a.618.618 0 01.558-.28c.69.04 1.485-.024 2.196-.14a1.448 1.448 0 001.209-1.446z" fill="#FFD358"/><path d="M28 8.145a2.573 2.573 0 01-2.573-2.573V3.093a2.573 2.573 0 115.146 0v2.48A2.573 2.573 0 0128 8.144z" fill="#AED032"/><path d="M30.452 6.353c-2-.526-3.887-3.361-3.116-5.746a2.574 2.574 0 00-1.91 2.486v2.48a2.573 2.573 0 005.026.78z" fill="#AED032"/><path d="M4.966 21.658H2.573a2.573 2.573 0 010-5.146h2.393a2.573 2.573 0 010 5.146z" fill="#D7F6FF"/><path d="M3.558 16.512h-.985a2.573 2.573 0 000 5.146h2.393c.26 0 .512-.04.75-.112-1.434-.722-2.833-3.08-2.158-5.034z" fill="#D7F6FF"/><path d="M44.138 2.843c.535-.44 1.217-.855 1.86-1.18a1.448 1.448 0 012.076 1.058c.116.71.18 1.505.14 2.195a.618.618 0 00.28.558c.584.373 1.191.894 1.7 1.407.683.69.5 1.855-.365 2.3-.642.331-1.38.639-2.051.813a.61.61 0 00-.438.437c-.174.671-.481 1.41-.812 2.052a1.448 1.448 0 01-2.3.364c-.514-.508-1.035-1.115-1.407-1.7a.618.618 0 00-.559-.28c-.69.04-1.484-.024-2.195-.14a1.448 1.448 0 01-1.057-2.075c.324-.644.74-1.326 1.18-1.86a.618.618 0 00.097-.617c-.252-.644-.438-1.422-.547-2.134a1.448 1.448 0 011.647-1.647c.713.11 1.49.294 2.135.547a.618.618 0 00.616-.098z" fill="#FFD358"/><path d="M46.528 12.483c.33-.642.638-1.381.813-2.052a.61.61 0 01.437-.437 9.97 9.97 0 001.749-.663c-4.711.008-6.875-3.792-6.986-6.701a11.918 11.918 0 00-1.154-.236A1.448 1.448 0 0039.74 4.04c.11.712.294 1.49.547 2.134a.618.618 0 01-.097.616c-.44.535-.856 1.217-1.18 1.861a1.448 1.448 0 001.057 2.075c.71.116 1.505.18 2.195.14a.618.618 0 01.559.28c.373.584.893 1.192 1.406 1.7.69.684 1.855.5 2.3-.364z" fill="#FFD358"/><path d="M53.428 21.658h-2.393a2.573 2.573 0 110-5.146h2.393a2.573 2.573 0 010 5.146z" fill="#F73B50"/><path d="M52.019 16.512h-.985a2.573 2.573 0 000 5.146h2.393c.26 0 .512-.04.75-.112-1.434-.722-2.834-3.08-2.158-5.034z" fill="#F73B50"/></g><defs><clipPath id="clip0_197_1234"><path fill="#fff" d="M0 0h56v56H0z"/></clipPath></defs></svg>