<svg width="60" height="60" fill="none" xmlns="http://www.w3.org/2000/svg"><path d="M22.969 26.484L30 24.727l-3.246-3.516-3.785-1.758c-.971 0-3.516 2.545-3.516 3.516 0 .97 2.545 3.515 3.516 3.515zm14.062 0L30 24.727l3.246-3.516 3.785-1.758c.971 0 3.516 2.545 3.516 3.516 0 .97-2.545 3.515-3.516 3.515z" fill="#fff"/><path d="M30 24.727l3.516 8.789L30 40.969c-.95.808-2.18 1.336-3.516 1.336h-5.59c-3.374 0-6.68-1.266-9.175-3.516H5.39c-.985 0-1.875-.773-1.875-1.758v-8.789c0-1.942 1.69-3.515 3.632-3.515h4.536l8.296-8.262a1.7 1.7 0 012.461 0l4.313 4.746h-3.785a1.74 1.74 0 00-1.758 1.758 1.74 1.74 0 001.758 1.758H30z" fill="#222443"/><path d="M52.852 24.727c1.941 0 3.632 1.573 3.632 3.515v8.79c0 .984-.89 1.757-1.875 1.757h-6.328a13.777 13.777 0 01-9.175 3.516h-5.59c-1.336 0-2.567-.528-3.516-1.336V24.727h7.031a1.74 1.74 0 001.758-1.758 1.74 1.74 0 00-1.758-1.758h-3.785l4.313-4.746a1.7 1.7 0 012.46 0l8.297 8.262h4.536z" fill="#222443"/><path d="M30 10.664a1.757 1.757 0 01-1.758-1.758V5.391a1.757 1.757 0 113.516 0v3.515c0 .972-.786 1.758-1.758 1.758zm0 45.703a1.757 1.757 0 01-1.758-1.758v-3.515a1.757 1.757 0 113.516 0v3.515c0 .972-.786 1.758-1.758 1.758z" fill="#D7F6FF"/><path d="M20.332 13.254a1.756 1.756 0 01-2.4-.643l-1.757-3.044a1.756 1.756 0 113.042-1.758l1.757 3.044c.488.841.2 1.916-.642 2.401zM40.784 52.19l-1.758-3.043a1.755 1.755 0 01.642-2.402 1.752 1.752 0 012.4.644l1.758 3.044a1.756 1.756 0 11-3.042 1.758zm-1.116-38.936a1.756 1.756 0 01-.642-2.401l1.758-3.044a1.756 1.756 0 113.042 1.758l-1.758 3.044a1.756 1.756 0 01-2.4.643zm-22.851 39.58a1.756 1.756 0 01-.642-2.401l1.758-3.044a1.756 1.756 0 113.042 1.758l-1.758 3.044a1.756 1.756 0 01-2.4.643z" fill="#FFD358"/><path d="M7.148 40.547c0 .972-.786 1.758-1.757 1.758H1.758A1.757 1.757 0 010 40.547V26.484c0-.971.786-1.757 1.758-1.757h5.39v15.82z" fill="#AED032"/><path d="M60 40.547c0 .972-.786 1.758-1.758 1.758H54.61a1.757 1.757 0 01-1.757-1.758v-15.82h5.39c.972 0 1.758.786 1.758 1.757v14.063z" fill="#F73B50"/><path d="M31.758 8.906V5.391c0-.972-.786-1.758-1.758-1.758v7.031c.972 0 1.758-.786 1.758-1.758zm0 45.704v-3.516c0-.972-.786-1.758-1.758-1.758v7.031c.972 0 1.758-.786 1.758-1.758z" fill="#D7F6FF"/></svg>