<svg width="64" height="64" fill="none" xmlns="http://www.w3.org/2000/svg"><g clip-path="url(#clip0_197_655)"><path d="M34.933 24.178l2.646 5.572c.274.6.83 1.022 1.48 1.127l5.87.886a2.108 2.108 0 011.085 3.553L41.8 39.583c-.476.49-.69 1.18-.576 1.853l1.003 6.055a1.993 1.993 0 01-2.845 2.199l-5.303-2.897a1.883 1.883 0 00-1.813 0l-5.302 2.898a1.993 1.993 0 01-2.847-2.2l.999-6.055a2.146 2.146 0 00-.576-1.853l-4.214-4.267a2.108 2.108 0 011.085-3.553l5.87-.886a1.972 1.972 0 001.48-1.127l2.646-5.572a1.925 1.925 0 013.526 0z" fill="#FFD358"/><path d="M41.806 39.581a2.166 2.166 0 00-.583 1.856l1.004 6.052a1.998 1.998 0 01-2.85 2.205l-5.3-2.9a1.908 1.908 0 00-1.81 0l-5.299 2.904a1.998 1.998 0 01-2.851-2.206l.224-1.335c13.314-8.051 11.243-18.963 10.032-22.701.237.198.427.446.556.726l2.645 5.577a2.007 2.007 0 001.489 1.12l5.863.888a2.106 2.106 0 011.085 3.55l-4.205 4.264z" fill="#FFD358"/><path d="M19.338 6.917l2.116 4.462c.222.477.665.813 1.185.897l4.694.709a1.686 1.686 0 01.869 2.842l-3.368 3.412c-.38.393-.551.944-.46 1.483l.8 4.842a1.595 1.595 0 01-2.277 1.759l-4.242-2.316a1.499 1.499 0 00-1.45 0l-4.242 2.317a1.595 1.595 0 01-2.276-1.759l.799-4.841c.091-.54-.08-1.09-.46-1.483l-3.369-3.414a1.686 1.686 0 01.87-2.842l4.694-.71a1.58 1.58 0 001.184-.896l2.117-4.457a1.54 1.54 0 012.816-.005z" fill="#F73B50"/><path d="M24.835 19.238a1.733 1.733 0 00-.467 1.485l.807 4.842a1.598 1.598 0 01-2.28 1.764l-4.241-2.322a1.524 1.524 0 00-1.448 0l-4.239 2.324a1.599 1.599 0 01-2.28-1.765l.18-1.068c10.65-6.443 8.992-15.17 8.023-18.16.191.157.344.356.449.58l2.112 4.461c.226.476.67.812 1.19.897l4.69.71a1.685 1.685 0 01.868 2.84l-3.364 3.412z" fill="#F73B50"/><path d="M40.829 45.413l6.706-5.613a2.706 2.706 0 013.667 3.972L40.013 55.167a3.496 3.496 0 01-2.385 1.04H21.437a9.056 9.056 0 00-3.345.645L15.242 58H0v-1.793s4.483-3.586 6.276-5.38c7.172-7.172 12.525-8.068 16.11-8.068a6.209 6.209 0 013.982 1.425 1.69 1.69 0 001.084.368h9.235a4.69 4.69 0 011.542.502c.14.098.271.206.395.323.346.353.599.788.735 1.264l1.47-1.228z" fill="#222443"/><path d="M41.232 47.044a3.533 3.533 0 01-.95 2.672 3.632 3.632 0 01-2.627 1.111h-9.862a.897.897 0 010-1.793h9.862c.5.006.98-.195 1.327-.555.334-.358.502-.84.466-1.327a3.209 3.209 0 00-.09-.511c-.008 0 1.47-1.229 1.47-1.229.238.514.374 1.068.404 1.632z" fill="#fff"/><path d="M41.165 8.331l1.235 2.6c.128.28.387.476.69.526l2.74.414a.986.986 0 01.506 1.657l-1.965 1.99a1 1 0 00-.269.866l.466 2.825a.93.93 0 01-1.328 1.026l-2.474-1.352a.88.88 0 00-.845 0l-2.475 1.352a.93.93 0 01-1.328-1.026l.467-2.825a1.003 1.003 0 00-.27-.865l-1.964-1.99a.986.986 0 01.507-1.658l2.738-.415a.922.922 0 00.691-.525l1.235-2.6a.897.897 0 011.643 0z" fill="#AED032"/><path d="M44.373 15.516a1.01 1.01 0 00-.269.865l.47 2.824a.933.933 0 01-1.331 1.03l-2.477-1.356a.888.888 0 00-.844 0l-2.473 1.356a.932.932 0 01-1.33-1.03l.105-.623c6.212-3.756 5.245-8.848 4.68-10.593.11.093.2.209.26.34l1.234 2.602a.937.937 0 00.695.523l2.735.414a.986.986 0 01.507 1.657l-1.962 1.991z" fill="#AED032"/><path d="M8.93 39.309c1.755-.941 2.806-2.395 2.35-3.246-.458-.852-2.25-.779-4.004.162-1.754.941-2.805 2.395-2.348 3.246.457.851 2.249.779 4.003-.162z" fill="#D7F6FF"/><path d="M51.555 27.335a1.928 1.928 0 10-3.754-.887 1.928 1.928 0 003.754.887z" fill="#FFD358"/></g><defs><clipPath id="clip0_197_655"><path fill="#fff" transform="translate(0 6)" d="M0 0h52v52H0z"/></clipPath></defs></svg>