<svg width="111" height="32" fill="none" xmlns="http://www.w3.org/2000/svg"><path d="M37.076 20.363V7.918h-2.022v12.445h2.022zm1.238-4.148c0 2.543 1.69 4.35 4.26 4.35s4.261-1.807 4.261-4.35c0-2.542-1.69-4.349-4.26-4.349s-4.261 1.807-4.261 4.35zm2.04 0c0-1.488.878-2.525 2.22-2.525 1.343 0 2.222 1.037 2.222 2.525 0 1.472-.879 2.526-2.221 2.526-1.343 0-2.222-1.054-2.222-2.526zm7.161-.167c0 2.409 1.542 4.148 3.846 4.148 1.194 0 2.222-.485 2.736-1.288v1.405c0 1.355-.846 2.259-2.255 2.259-1.26 0-2.122-.62-2.238-1.706h-2.039c.265 2.157 1.907 3.562 4.161 3.562 2.653 0 4.344-1.756 4.344-4.483V12.1h-1.79l-.117 1.121c-.497-.87-1.525-1.388-2.735-1.388-2.338 0-3.913 1.79-3.913 4.215zm2.056-.05c0-1.372.862-2.375 2.139-2.375 1.392 0 2.32 1.02 2.32 2.375 0 1.371-.928 2.425-2.32 2.425-1.26 0-2.139-1.037-2.139-2.425zm7.499.217c0 2.543 1.691 4.35 4.26 4.35 2.57 0 4.261-1.807 4.261-4.35 0-2.542-1.69-4.349-4.26-4.349s-4.26 1.807-4.26 4.35zm2.04 0c0-1.488.878-2.525 2.22-2.525 1.344 0 2.222 1.037 2.222 2.525 0 1.472-.878 2.526-2.221 2.526s-2.222-1.054-2.222-2.526zm8.67-5.805a1.21 1.21 0 001.21-1.22c0-.67-.547-1.205-1.21-1.205-.68 0-1.193.536-1.193 1.205 0 .686.514 1.22 1.193 1.22zm-1.011 9.953h2.022V12.1H66.77v8.263zm3.795 3.831h1.972v-4.968c.514.853 1.625 1.355 2.852 1.355 2.42 0 3.862-1.873 3.83-4.45-.05-2.592-1.526-4.282-3.847-4.282-1.243 0-2.37.552-2.868 1.506l-.116-1.255h-1.823v12.094zm2.055-7.962c0-1.489.895-2.526 2.305-2.526 1.409 0 2.254 1.054 2.254 2.526 0 1.472-.845 2.509-2.254 2.509-1.41 0-2.305-1.02-2.305-2.51zm7.111 1.656c.067 1.64 1.327 2.693 3.283 2.693 1.923 0 3.233-1.037 3.233-2.643 0-1.188-.73-1.99-2.073-2.325l-1.442-.351c-.613-.168-1.028-.385-1.028-.92 0-.569.448-.97 1.177-.97.763 0 1.26.434 1.26 1.154h1.84c-.066-1.64-1.276-2.677-3.05-2.677-1.757 0-3.067 1.037-3.067 2.61 0 1.07.614 1.957 2.188 2.375l1.426.368c.53.15.862.401.862.87 0 .652-.613.953-1.36.953-.894 0-1.408-.418-1.408-1.137h-1.84zm10.711 2.693c1.111 0 2.172-.518 2.653-1.288l.132 1.07h1.89V12.1h-2.022v4.333c0 1.488-.564 2.325-1.89 2.325-1.028 0-1.74-.502-1.74-2.208V12.1H87.44v5.17c0 1.973 1.06 3.311 3 3.311zm8.482-.218v-4.75c0-1.338.78-1.974 1.741-1.974.962 0 1.592.62 1.592 1.79v4.934h1.972V15.63c0-1.355.763-1.99 1.724-1.99.979 0 1.608.618 1.608 1.789v4.934h1.957v-5.402c0-1.907-1.045-3.112-3.034-3.112-1.243 0-2.222.602-2.619 1.573-.448-.97-1.343-1.573-2.703-1.573-.961 0-1.823.452-2.304 1.188l-.1-.937h-1.856v8.263h2.022zm-4.848 7.385a.571.571 0 00.563-.56.573.573 0 00-.563-.568.574.574 0 00-.571.568c0 .304.262.56.57.56zm1.145-2.064c0 1.224.745 2.048 1.83 2.048.936 0 1.65-.568 1.8-1.416h-.713c-.135.472-.547.752-1.039.752-.697 0-1.141-.544-1.141-1.392 0-.864.467-1.392 1.157-1.392.476 0 .888.256 1.015.76h.714c-.127-.856-.793-1.432-1.72-1.432-1.127 0-1.904.84-1.904 2.072zm3.912-.008c0 1.176.792 2.056 1.982 2.056 1.189 0 1.982-.88 1.982-2.056 0-1.176-.793-2.056-1.982-2.056-1.19 0-1.982.88-1.982 2.056zm.753 0c0-.8.483-1.384 1.229-1.384.745 0 1.229.584 1.229 1.384 0 .8-.484 1.384-1.229 1.384-.746 0-1.23-.584-1.23-1.384zm4.593 1.968v-2.352c0-.616.38-1.016.935-1.016.531 0 .864.344.864.96v2.408h.73V25.3c0-.624.373-1.024.935-1.024.524 0 .857.344.857.96v2.408h.721v-2.568c0-.904-.523-1.456-1.411-1.456-.603 0-1.07.296-1.261.776-.198-.48-.634-.776-1.268-.776-.484 0-.912.224-1.126.608l-.056-.496h-.666v3.912h.746z" fill="#fff"/><path fill-rule="evenodd" clip-rule="evenodd" d="M1.442 16.317l.001-.146.003-.146.004-.146.006-.146.007-.145.01-.146.01-.146.011-.146.014-.145.014-.146.017-.146.017-.145.02-.145.02-.145.022-.145.024-.145.025-.145.027-.144.028-.145.03-.144.03-.144.033-.143.034-.143.035-.144.037-.142.039-.143.04-.142.04-.142.044-.14.044-.142.045-.14.048-.14.048-.14.05-.14.052-.14.052-.138.055-.138.055-.137.058-.137.058-.137.06-.136.061-.136.063-.134.064-.135.066-.134.067-.133.068-.132.07-.132.07-.132.073-.13.074-.13.075-.13.077-.128.077-.128.08-.127.08-.127.082-.126.083-.125.084-.124.086-.123.087-.123.088-.122.09-.12.09-.12.093-.12.093-.118.094-.118.096-.117.097-.115.098-.115.1-.114.1-.113.102-.112.103-.111.104-.11.105-.11.107-.107.107-.107.109-.106.11-.105.11-.104.113-.103.113-.102.114-.1.115-.1.116-.099.118-.097.118-.097.12-.095.12-.094.121-.093.123-.092.123-.09.125-.09.125-.088.126-.087.127-.085.128-.085.13-.083.13-.082.13-.081.132-.08.132-.078.134-.077.134-.075.135-.075.136-.073.136-.072.138-.07.138-.07.139-.067.14-.066.14-.065.14-.064.143-.062.142-.061.143-.06.144-.058.144-.057.146-.055.145-.054.147-.053.146-.05.148-.05.148-.049.148-.046.15-.046.15-.044.15-.042.15-.04.151-.04.151-.038.152-.037.153-.035.153-.033.153-.032.153-.03.154-.03.155-.027.154-.026.155-.025.156-.023.155-.021.156-.02.156-.018.157-.017.156-.015.157-.014.157-.012.157-.01.845-.05.048 4.109h.261l.117.002.117.004.116.004.117.006.117.007.117.007.117.01.117.01.116.011.117.013.116.014.117.015.117.016.116.017.116.018.116.02.116.02.116.022.115.023.116.025.115.025.115.027.115.027.115.029.114.03.114.031.114.032.114.034.113.034.113.036.113.037.112.038.112.039.112.04.111.041.111.043.111.044.11.044.11.046.11.047.109.048.108.05.108.05.108.05.107.053.107.054.106.054.106.056.105.057.105.058.104.059.104.06.103.06.102.063.102.063.102.064.1.065.1.066.1.068.099.068.098.07.098.07.097.07.096.073.095.073.095.075.094.075.093.076.093.077.092.078.091.08.09.08.09.08.09.082.087.083.088.084.086.084.086.086.084.086.084.088.084.088.082.089.081.09.08.09.08.092.08.093.077.093.077.094.076.095.075.095.074.097.074.097.072.098.071.099.07.1.07.1.068.1.068.102.066.103.066.103.064.104.063.104.062.106.062.106.06.106.059.107.058.108.057.109.056.109.055.11.054.11.052.11.052.112.05.112.05.113.048.113.047.113.046.114.045.115.044.115.042.116.041.116.04.117.04.117.038.117.036.118.036.118.034.12.033.118.032.12.031.12.03.12.028.12.027.122.026.12.025.122.023.122.022.123.021.122.02.123.019.123.017.123.016.123.015.124.013.124.012.124.011.124.01.125.009.124.007.125.006.125.005.125.003.125.002.125.001.125v.126l-.002.125-.003.125-.004.126-.005.125-.007.126-.008.125-.01.126-.01.125-.012.125-.013.126-.015.125-.015.125-.017.125-.018.125-.02.125-.02.124-.023.125-.023.124-.025.125-.026.123-.027.124-.029.124-.03.123-.03.123-.033.123-.033.123-.035.122-.036.122-.037.122-.039.121-.04.122-.04.12-.043.12-.044.12-.045.12-.046.12-.047.119-.049.118-.05.118-.05.118-.052.117-.054.117-.054.116-.056.116-.057.115-.058.114-.06.115-.06.113-.062.114-.063.112-.064.112-.066.111-.066.111-.068.11-.069.11-.07.109-.07.108-.073.108-.073.107-.075.106-.075.106-.077.105-.078.104-.078.103-.08.103-.081.102-.082.101-.084.1-.084.1-.085.1-.087.098-.087.097-.088.096-.09.096-.09.095-.091.094-.093.093-.093.092-.095.091-.095.09-.096.09-.098.09-.098.087-.099.087-.1.085-.101.085-.102.084-.103.083-.104.082-.104.081-.105.08-.107.079-.107.078-.108.077-.109.076-.11.075-.11.073-.111.073-.112.072-.113.07-.114.07-.114.068-.115.068-.116.066-.116.065-.118.064-.118.062-.118.062-.12.06-.12.06-.12.058-.122.057-.122.056-.122.055-.123.053-.124.053-.124.05-.125.05-.126.05-.126.047-.126.046-.128.045-.127.044-.128.042-.129.041-.129.04-.13.04-.13.037-.13.036-.13.035-.132.034-.132.032-.132.031-.132.03-.133.028-.133.027-.134.026-.133.025-.134.023-.135.022-.134.02-.136.02-.135.018-.135.017-.136.015-.136.014-.136.012-.136.012-.136.01-.137.008-.137.008-.137.005-.137.005-.137.003-.137.002h-.275l-.137-.003-.137-.003-.138-.005-.137-.006-.138-.008-.137-.01-.138-.01-.137-.011-.137-.014-.137-.014-.137-.016-.138-.017-.137-.019-.136-.02-.137-.021-.136-.023-.137-.024-.136-.025-.136-.027-.135-.028-.136-.03-.135-.03-.135-.033-.135-.033-.134-.035-.134-.036-.134-.038-.134-.039-.133-.04-.133-.041-.132-.043-.132-.045-.132-.045-.13-.047-.132-.048-.13-.05-.13-.05-.13-.053-.129-.053-.128-.055-.128-.056-.128-.057-.127-.059-.126-.06-.126-.061-.125-.063-.125-.063-.124-.065-.124-.066-.122-.068-.123-.069-.121-.07-.121-.07-.12-.073-.12-.074-.12-.075-.117-.076-.118-.077-.116-.078-.116-.08-.116-.08-.114-.083-.114-.083-.113-.084-.112-.086-.11-.086-.111-.088-.11-.09-.109-.09-.107-.09-.107-.092-.106-.094-.105-.094-.105-.096-.103-.096-.102-.098-.102-.098-.1-.1-.1-.101-.098-.102-.098-.103L5.184 26l-.096-.105-.094-.106-.094-.107-.092-.107-.091-.11-.09-.109-.09-.11-.088-.112-.087-.112-.086-.114-.084-.114-.084-.115-.082-.116-.082-.117-.08-.118-.08-.118-.077-.12-.077-.12-.075-.12-.074-.123-.074-.122-.071-.123-.071-.125-.07-.124-.068-.126-.067-.126-.065-.128-.065-.127-.063-.129-.062-.129-.06-.13-.06-.13-.057-.131-.057-.132-.055-.132-.054-.133-.053-.133-.052-.135-.05-.134-.048-.135-.048-.136-.046-.136-.044-.137-.043-.137-.042-.138-.04-.138-.04-.139-.037-.14-.037-.139-.035-.14-.033-.14-.032-.14-.03-.142-.03-.141-.028-.142-.026-.142-.025-.143-.024-.142-.022-.143-.02-.144-.02-.143-.017-.144-.016-.144-.015-.145-.013-.144-.012-.145-.01-.145-.01-.145-.007-.145-.006-.145-.005-.146-.003-.145-.001-.146v-.145zM15.409 5.649l-.033-2.8-.031.003-.143.015-.143.017-.143.018-.143.02-.142.02-.142.023-.141.024-.142.025-.14.026-.141.028-.14.03-.14.03-.14.032-.139.034-.139.035-.138.036-.138.037-.137.039-.137.04-.136.042-.136.042-.136.044-.135.046-.134.047-.134.048-.133.049-.133.05-.132.053-.132.053-.13.054-.131.056-.13.057-.129.058-.128.06-.128.06-.127.063-.126.063-.126.064-.125.066-.124.067-.123.068-.123.069-.122.07-.121.072-.12.072-.12.074-.119.075-.118.076-.117.078-.116.078-.115.08-.115.08-.114.082-.112.082-.112.084-.111.085-.11.086-.11.087-.108.088-.107.09-.106.09-.105.09-.105.092-.103.093-.102.094-.102.095-.1.096-.1.097-.097.098-.098.099-.096.1-.095.1-.094.101-.093.103-.092.103-.09.104-.09.104-.089.106-.087.107-.086.107-.085.108-.084.109-.083.11-.082.11-.08.111-.08.112-.078.113-.077.113-.076.114-.075.115-.073.115-.072.116-.071.117-.07.117-.068.118-.068.119-.066.12-.065.119-.063.12-.063.121-.06.122-.06.122-.059.122-.057.123-.056.124-.055.124-.053.125-.052.125-.051.125-.05.126-.048.126-.047.127-.045.127-.045.127-.043.128-.041.129-.04.128-.04.129-.037.13-.036.129-.035.13-.034.13-.032.13-.031.13-.03.131-.028.131-.027.132-.026.131-.024.132-.023.131-.021.133-.02.132-.02.132-.017.132-.016.133-.015.132-.013.133-.012.132-.011.133-.01.133-.007.133-.007.132-.005.133-.004.133-.003.133-.001.132v.133l.001.133.003.132.004.132.006.133.006.132.008.132.01.132.01.131.013.132.013.131.015.131.016.13.018.131.018.13.02.131.022.13.023.13.024.129.025.129.026.128.028.129.03.128.03.127.032.128.033.127.034.126.035.126.037.126.038.125.04.125.04.124.042.124.043.123.044.123.045.123.047.122.048.12.05.122.05.12.05.12.054.119.053.118.056.118.056.117.057.117.059.116.06.115.06.115.062.114.063.114.064.112.065.113.067.11.067.111.069.11.07.11.07.108.072.107.073.107.074.106.075.106.075.104.077.104.078.103.08.102.08.101.08.1.082.1.083.099.084.097.084.097.086.096.087.095.087.094.089.094.09.092.09.091.09.09.093.09.092.089.094.087.095.087.095.086.096.084.097.084.098.082.098.082.1.08.1.08.1.079.102.077.102.077.103.075.104.074.105.074.105.072.105.07.107.071.107.069.108.068.108.066.11.066.109.065.11.063.11.062.112.061.112.06.112.06.113.057.114.056.114.056.114.054.115.053.116.052.116.05.116.05.117.049.117.047.117.046.119.045.118.043.119.043.119.041.12.04.12.039.12.038.12.036.12.035.122.034.121.033.122.031.122.03.122.03.122.028.123.026.122.026.123.024.123.023.124.022.123.02.124.02.123.018.124.017.124.015.124.014.124.014.124.011.124.011.124.01.125.008.124.007.124.005.124.005.124.003.125.002h.248l.124-.001.123-.003.124-.004.124-.006.123-.006.124-.008.123-.009.123-.01.123-.011.123-.013.122-.014.123-.015.122-.016.122-.017.121-.02.121-.019.122-.021.12-.022.12-.023.12-.025.12-.026.12-.027.12-.028.118-.029.119-.03.118-.032.117-.032.118-.034.117-.035.116-.036.116-.038.116-.038.115-.04.114-.04.114-.042.114-.042.113-.044.113-.045.112-.046.112-.047.11-.049.111-.049.11-.05.11-.052.108-.052.108-.054.108-.054.107-.056.106-.056.106-.058.105-.059.104-.06.104-.06.103-.062.102-.062.102-.064.1-.064.101-.066.1-.066.098-.068.098-.068.098-.07.096-.07.096-.07.095-.073.094-.072.093-.074.093-.075.091-.075.091-.077.09-.077.09-.078.088-.08.088-.079.086-.08.086-.082.085-.082.084-.083.083-.084.083-.084.08-.086.081-.086.08-.086.079-.088.077-.088.077-.09.076-.089.074-.09.074-.091.073-.092.072-.092.07-.093.07-.094.07-.094.067-.095.067-.096.066-.096.065-.097.064-.097.063-.098.062-.098.06-.1.06-.099.059-.1.057-.1.057-.102.055-.101.055-.102.053-.103.053-.103.05-.103.05-.104.05-.105.048-.105.047-.105.046-.105.044-.106.044-.107.042-.107.041-.106.04-.108.04-.108.038-.108.037-.108.036-.109.034-.109.034-.11.032-.108.031-.11.03-.11.03-.11.027-.11.027-.111.025-.111.025-.111.023-.112.022-.11.02-.113.02-.111.02-.112.017-.112.016-.112.016-.112.014-.112.013-.112.011-.112.011-.113.01-.112.008-.113.007-.112.006-.112.005-.113.004-.112.002-.112.002-.113v-.224l-.003-.112-.003-.112-.004-.112-.005-.112-.007-.112-.007-.111-.01-.111-.009-.112-.01-.11-.013-.112-.013-.11-.015-.11-.015-.111-.017-.11-.017-.11-.02-.11-.019-.109-.021-.109-.022-.109-.023-.108-.024-.108-.026-.108-.026-.108-.028-.107-.028-.107-.03-.106-.03-.107-.032-.105-.033-.106-.034-.105-.035-.104-.036-.105-.037-.103-.038-.104-.039-.103-.04-.102-.041-.102-.042-.102-.043-.1-.044-.101-.045-.1-.047-.1-.047-.099-.048-.098-.049-.099-.05-.097-.05-.097-.052-.096-.053-.096-.054-.095-.055-.094-.055-.094-.057-.094-.057-.092-.058-.092-.06-.092-.06-.09-.06-.09-.063-.09-.063-.09-.063-.087-.065-.088-.065-.086-.066-.086-.067-.086-.068-.084-.069-.084-.069-.083-.07-.083-.071-.082-.072-.08-.073-.08-.073-.08-.074-.078-.075-.078-.076-.077-.076-.077-.077-.075-.078-.075-.078-.073-.08-.073-.08-.072-.08-.072-.08-.07-.083-.07-.082-.068-.084-.068-.083-.067-.085-.066-.085-.066-.086-.064-.086-.063-.087-.063-.087-.062-.088-.06-.089-.06-.089-.06-.09-.057-.09-.057-.09-.057-.092-.055-.091-.054-.092-.053-.093-.053-.093-.051-.094-.05-.094-.05-.094-.049-.095-.048-.096-.046-.095-.046-.096-.045-.097-.043-.097-.043-.1-.043-.095-.04-.098-.04-.098-.038-.099-.038-.099-.036-.1-.036-.099-.035-.1-.034-.1-.032-.1-.032-.1-.03-.102-.03-.1-.03-.102-.027-.102-.026-.102-.026-.102-.025-.102-.023-.102-.023-.102-.021-.103-.02-.103-.02-.103-.018-.103-.018-.103-.016-.103-.015-.104-.015-.103-.013-.103-.012-.104-.011-.103-.01-.104-.01-.104-.007-.103-.008-.104-.006-.103-.004-.104-.004-.103-.003-.104-.002-.103-.001h-.124l.032 2.78h.134l.076.001.076.002.076.003.075.003.076.005.076.005.076.005.075.007.076.007.076.008.076.009.076.01.075.01.076.01.076.013.075.012.076.014.075.014.075.015.076.015.075.017.075.017.075.018.075.018.074.02.075.02.074.021.074.022.074.022.074.023.074.024.073.025.074.026.073.026.073.027.073.028.072.028.072.03.072.03.072.03.072.032.07.032.072.033.07.033.07.035.07.035.07.036.07.036.07.037.068.038.068.04.069.039.067.04.068.04.067.042.067.042.066.043.066.044.065.044.066.045.064.046.065.046.063.047.064.048.063.049.062.049.063.05.061.05.061.05.061.053.06.052.06.053.06.053.058.055.058.054.058.056.057.056.057.057.056.057.055.058.055.059.055.059.054.06.053.06.053.06.052.062.052.062.05.062.051.064.05.063.05.064.048.065.048.065.047.066.047.066.046.067.045.068.045.067.044.069.043.069.043.069.042.07.041.07.041.07.04.072.04.072.038.072.038.072.037.073.036.073.036.074.035.074.034.075.034.075.033.075.032.076.031.076.03.077.03.077.03.077.028.077.027.078.027.079.026.078.025.079.024.08.024.079.023.08.021.08.022.08.02.08.02.081.018.081.018.082.017.081.017.082.015.082.015.083.013.082.014.083.012.083.01.083.011.083.01.083.009.084.008.083.007.084.006.084.005.084.005.084.003.085.003.084.002.085.001.084v.169l-.002.085-.002.085-.003.085-.004.085-.005.084-.006.085-.007.085-.007.085-.009.085-.01.085-.01.085-.01.085-.012.084-.013.085-.014.084-.015.085-.015.084-.016.085-.018.084-.018.084-.019.084-.02.084-.02.084-.022.083-.022.084-.023.083-.024.083-.026.083-.025.083-.027.082-.028.082-.028.083-.03.081-.03.082-.03.082-.033.08-.032.082-.034.08-.034.08-.036.08-.036.08-.037.08-.038.079-.038.079-.04.078-.04.078-.041.078-.042.078-.043.077-.043.076-.045.077-.045.076-.046.075-.047.075-.047.075-.049.074-.049.074-.05.074-.05.073-.052.072-.052.072-.053.072-.054.071-.055.07-.055.07-.056.07-.057.07-.058.068-.058.068-.06.068-.06.067-.06.066-.061.066-.062.066-.063.064-.063.064-.064.064-.065.063-.065.063-.067.061-.066.062-.068.06-.068.06-.069.06-.07.058-.07.058-.07.057-.071.057-.072.056-.073.055-.073.055-.074.054-.075.053-.075.053-.075.052-.076.05-.077.051-.078.05-.077.049-.079.048-.079.047-.08.047-.08.046-.08.045-.081.044-.082.044-.082.043-.082.042-.083.041-.084.04-.084.04-.084.04-.085.037-.086.038-.085.036-.087.035-.086.035-.087.034-.088.033-.088.032-.088.032-.089.03-.088.03-.09.029-.09.027-.09.028-.09.026-.09.025-.092.024-.091.024-.092.022-.091.022-.093.021-.092.02-.093.019-.093.018-.093.017-.094.017-.093.015-.094.014-.094.014-.095.012-.094.012-.095.01-.095.01-.095.01-.095.007-.095.007-.096.006-.095.006-.096.004-.095.003-.096.002-.096.001h-.193l-.096-.001-.096-.003-.096-.003-.096-.005-.097-.005-.096-.007-.096-.007-.096-.008-.096-.01-.097-.01-.096-.01-.096-.013-.096-.013-.096-.014-.096-.015-.096-.016-.095-.017-.096-.018-.095-.018-.096-.02-.095-.02-.095-.023-.095-.022-.094-.024-.095-.024-.094-.026-.094-.027-.094-.027-.094-.028-.093-.03-.094-.03-.093-.031-.092-.032-.093-.033-.092-.034-.092-.035-.091-.036-.091-.037-.091-.038-.091-.039-.09-.04-.09-.04-.09-.041-.089-.043-.089-.043-.088-.044-.088-.045-.088-.046-.087-.047-.087-.048-.086-.048-.086-.05-.086-.05-.085-.052-.084-.052-.084-.053-.084-.054-.083-.055-.082-.055-.082-.057-.082-.057-.08-.058-.081-.06-.08-.06-.08-.06-.078-.062-.078-.062-.078-.063-.077-.064-.076-.065-.076-.065-.075-.067-.075-.067-.073-.068-.074-.069-.072-.069-.072-.07-.071-.071-.07-.072-.07-.072-.07-.074-.068-.073-.068-.075-.067-.076-.066-.076-.066-.076-.065-.078-.064-.078-.063-.079-.063-.08-.061-.08-.061-.08-.06-.082-.06-.082-.059-.083-.057-.083-.057-.085-.056-.084-.056-.085-.054-.086-.054-.087-.053-.087-.052-.087-.05-.089-.051-.088-.05-.09-.048-.09-.047-.09-.047-.09-.046-.092-.045-.092-.044-.093-.043-.092-.042-.094-.041-.094-.04-.094-.04-.095-.038-.095-.037-.096-.037-.096-.035-.096-.035-.097-.034-.098-.032-.097-.032-.098-.03-.099-.03-.099-.029-.099-.028-.1-.026-.1-.026-.1-.025-.1-.023-.1-.023-.102-.022-.101-.02-.102-.02-.102-.019-.102-.017-.102-.017-.103-.015-.103-.015-.103-.013-.103-.012-.103-.012-.104-.01-.104-.01-.104-.007-.104-.007-.104-.006-.105-.005-.104-.004-.105-.003-.105-.002-.104v-.21l.001-.105.002-.105.004-.105.005-.105.005-.106.007-.105.008-.105.009-.105.01-.105.01-.105.013-.105.013-.105.015-.105.015-.105.016-.104.018-.105.018-.104.02-.105.02-.104.023-.104.023-.104.024-.104.025-.103.026-.103.027-.104.028-.103.03-.102.03-.103.031-.102.033-.102.033-.102.035-.101.035-.101.037-.101.038-.1.039-.101.04-.1.04-.1.042-.099.043-.099.044-.098.045-.098.046-.098.047-.097.048-.097.05-.097.05-.096.05-.095.052-.095.053-.095.055-.094.055-.094.056-.093.057-.093.058-.092.059-.092.06-.091.06-.09.062-.09.063-.09.064-.09.065-.087.065-.088.067-.087.067-.087.069-.086.069-.085.07-.085.071-.084.072-.083.073-.083.074-.082.075-.08.075-.081.076-.08.078-.08.078-.078.079-.078.08-.077.08-.076.081-.075.083-.075.083-.074.083-.073.085-.073.085-.071.087-.07.087-.07.087-.07.089-.068.089-.068.09-.066.09-.066.092-.065.092-.064.093-.063.093-.062.094-.062.095-.06.095-.06.097-.058.096-.058.098-.057.098-.055.099-.055.099-.054.1-.053.1-.052.101-.051.102-.05.102-.05.103-.048.103-.047.104-.046.104-.045.105-.044.106-.043.105-.042.107-.041.107-.04.107-.04.108-.037.108-.037.109-.036.109-.035.11-.034.109-.032.11-.032.11-.03.112-.03.111-.028.112-.027.112-.026.112-.025.113-.024.113-.023.113-.022.114-.02.114-.02.114-.019.114-.017.114-.016.115-.015.043-.005zm.048 4.123l-.033-2.81-.094.013-.1.015-.102.016-.1.018-.101.018-.1.02-.1.02-.1.02-.1.023-.099.023-.099.024-.098.025-.098.026-.095.026-.1.029-.098.029-.097.03-.096.03-.096.032-.096.033-.095.033-.095.035-.094.035-.094.036-.094.037-.093.039-.093.039-.092.04-.091.04-.092.042-.09.042-.09.044-.09.044-.09.045-.088.046-.089.047-.087.047-.088.049-.086.05-.086.05-.085.05-.085.052-.085.053-.083.053-.084.054-.082.055-.082.056-.08.056-.082.057-.08.058-.079.059-.079.06-.077.06-.078.06-.076.062-.076.063-.076.063-.074.064-.074.064-.073.065-.073.066-.072.067-.07.067-.07.068-.07.068-.07.07-.067.069-.067.07-.067.071-.066.072-.065.072-.064.073-.063.073-.063.074-.062.075-.06.075-.06.075-.06.076-.059.077-.058.077-.057.078-.056.078-.055.08-.054.078-.054.08-.053.08-.051.08-.051.082-.05.081-.05.083-.048.082-.048.083-.046.083-.046.083-.045.084-.044.085-.043.085-.042.085-.042.085-.04.086-.04.086-.038.087-.038.087-.037.087-.036.087-.035.088-.034.088-.033.088-.032.089-.031.089-.03.089-.03.089-.029.09-.027.09-.027.09-.025.09-.025.09-.024.09-.023.09-.022.091-.02.091-.021.092-.02.09-.017.092-.018.092-.016.091-.015.092-.015.092-.013.091-.013.092-.011.092-.01.092-.01.092-.01.092-.007.092-.007.092-.006.093-.005.092-.004.092-.003.092-.002.091-.001.092v.184l.002.092.002.091.003.092.005.091.005.092.006.091.007.091.009.091.009.09.01.091.01.09.012.091.013.09.013.09.015.09.015.09.016.089.017.089.018.088.02.089.02.088.02.088.021.088.023.087.023.088.024.087.025.086.026.086.027.086.028.086.028.085.03.085.03.085.03.084.032.084.033.083.033.083.035.083.035.082.036.082.037.081.037.081.038.081.04.08.04.08.04.08.042.078.042.078.043.078.043.077.045.077.045.076.046.076.047.075.047.075.049.075.048.073.05.073.05.073.051.072.052.072.052.07.053.07.054.07.055.07.055.068.055.068.057.068.057.066.057.067.059.065.058.065.06.064.06.064.06.063.062.062.062.062.062.06.063.061.064.06.064.059.065.058.065.058.066.057.066.056.067.056.067.054.068.054.069.054.068.053.07.051.07.052.07.05.07.05.071.049.072.048.072.048.073.046.072.047.074.045.073.044.074.044.075.043.075.042.075.041.075.041.076.04.076.039.077.038.077.038.077.036.078.036.078.035.078.035.078.033.079.033.079.032.079.03.08.031.08.03.08.028.08.028.08.027.08.026.081.025.081.025.081.024.082.023.081.022.082.02.082.021.082.02.082.019.082.018.082.017.083.016.082.015.083.015.083.014.082.013.083.012.083.011.083.01.083.01.083.009.083.008.083.007.083.006.083.006.083.004.083.004.083.003.083.002.083.002h.165l.083-.001.082-.002.083-.003.082-.003.082-.005.083-.005.082-.006.082-.007.081-.008.082-.008.082-.01.08-.01.082-.01.081-.012.08-.012.081-.013.08-.014.08-.015.08-.016.08-.016.08-.017.08-.018.078-.019.079-.02.078-.02.079-.02.078-.022.077-.022.078-.024.076-.024.077-.024.077-.026.076-.026.075-.027.076-.028.075-.028.075-.029.074-.03.074-.03.074-.032.073-.032.072-.032.073-.033.072-.034.072-.035.07-.035.072-.037.07-.036.07-.038.07-.038.068-.038.069-.04.068-.04.068-.04.067-.042.066-.041.067-.043.065-.043.066-.044.064-.044.064-.045.064-.046.063-.046.063-.046.062-.048.062-.048.06-.048.061-.05.06-.049.06-.05.058-.05.058-.052.058-.052.057-.052.057-.053.055-.053.056-.054.055-.054.054-.055.053-.055.053-.056.052-.056.052-.057.051-.057.05-.058.05-.058.05-.058.048-.06.048-.059.047-.06.046-.06.046-.06.046-.061.044-.061.044-.062.043-.063.043-.062.042-.063.04-.063.041-.064.04-.064.04-.064.038-.065.038-.065.037-.065.036-.065.036-.066.035-.067.034-.066.034-.067.032-.067.032-.067.032-.067.03-.068.03-.068.03-.069.028-.068.028-.069.027-.069.027-.069.025-.069.025-.07.024-.07.024-.07.022-.07.022-.07.022-.07.02-.07.02-.07.019-.072.018-.07.018-.071.016-.071.016-.072.016-.071.014-.071.014-.072.013-.071.012-.072.012-.071.011-.072.01-.072.01-.072.008-.071.008-.072.007-.072.007-.072.005-.072.005-.071.005-.072.003-.072.003-.072.002-.071.001-.072v-.215l-.002-.07-.003-.072-.003-.071-.003-.071-.005-.071-.005-.071-.006-.07-.007-.072-.007-.07-.008-.07-.01-.07-.009-.07-.01-.07-.011-.07-.012-.07-.012-.069-.013-.069-.014-.07-.014-.068-.015-.068-.016-.069-.017-.068-.017-.067-.017-.068-.019-.068-.02-.067-.019-.066-.02-.067-.021-.067-.022-.066-.023-.065-.023-.066-.024-.065-.024-.065-.025-.064-.026-.065-.026-.064-.027-.063-.027-.064-.029-.063-.028-.062-.03-.063-.03-.062-.03-.061-.032-.061-.031-.061-.033-.06-.033-.06-.033-.06-.034-.06-.035-.059-.035-.058-.036-.058-.036-.058-.037-.057-.038-.057-.038-.056-.038-.056-.04-.056-.039-.055-.04-.055-.04-.054-.042-.054-.041-.053-.043-.053-.042-.052-.044-.052-.043-.051-.044-.05-.045-.051-.045-.05-.045-.05-.046-.048-.047-.049-.047-.048-.047-.047-.048-.047-.048-.046-.048-.046-.05-.045-.049-.045-.05-.044-.05-.044-.05-.043-.052-.042-.051-.042-.052-.042-.052-.04-.052-.041-.053-.04-.053-.039-.054-.039-.054-.038-.054-.037-.055-.037-.054-.036-.056-.036-.055-.035-.056-.035-.056-.034-.056-.033-.057-.033-.057-.032-.057-.032-.058-.03-.057-.031-.058-.03-.059-.029-.058-.029-.059-.027-.058-.028-.06-.027-.059-.026-.06-.025-.06-.025-.06-.024-.06-.024-.06-.023-.06-.022-.06-.022-.061-.021-.061-.02-.061-.02-.061-.02-.062-.018-.061-.018-.062-.018-.061-.016-.062-.017-.062-.015-.062-.015-.062-.014-.062-.014-.062-.012-.063-.013-.062-.011-.062-.011-.063-.01-.062-.01-.063-.01-.062-.008-.063-.008-.062-.007-.063-.007-.062-.006-.063-.005-.062-.005-.063-.004-.062-.004-.063-.003-.062-.002-.063-.001-.062-.001h-.105l.033 2.745h.055l.035.002h.036l.036.003.036.002.036.002.036.003.036.003.036.003.036.004.037.004.036.005.036.005.036.005.036.006.036.006.036.007.037.007.036.007.036.008.036.008.036.008.036.01.036.009.036.01.036.01.036.01.036.01.035.012.036.011.036.012.035.013.036.012.035.014.036.013.035.014.035.014.035.015.035.015.035.016.035.015.034.017.035.016.034.017.035.018.034.018.034.018.034.018.033.02.034.018.033.02.034.02.033.02.033.021.032.021.033.022.032.022.033.022.032.023.032.023.031.023.032.024.031.024.031.024.031.025.03.025.031.026.03.025.03.027.03.026.03.027.029.027.029.028.029.028.028.028.029.029.028.029.028.029.027.03.027.03.027.03.027.03.026.031.026.031.026.032.026.032.025.032.025.032.025.033.024.033.024.034.024.033.023.034.023.034.023.035.022.035.022.035.022.035.021.036.021.036.021.036.02.036.02.037.02.037.02.037.018.038.019.037.018.038.018.039.017.038.017.039.017.039.017.039.015.039.016.04.015.04.015.04.014.04.014.04.014.04.013.041.013.041.012.042.012.041.011.042.011.041.01.042.011.042.01.043.01.042.008.043.009.042.008.043.007.043.008.043.006.043.007.044.005.043.006.044.005.044.004.044.004.043.004.045.003.044.003.044.002.044.002.045.001.044.001.045v.134l-.001.045-.002.045-.002.045-.002.045-.003.045-.003.045-.004.045-.005.045-.004.045-.006.045-.006.045-.006.045-.006.045-.008.046-.007.045-.008.045-.01.045-.008.045-.01.045-.01.045-.01.045-.012.044-.011.045-.012.045-.013.045-.013.044-.013.045-.014.044-.014.045-.015.044-.016.044-.016.045-.016.044-.017.044-.017.043-.018.044-.018.044-.019.043-.02.043-.019.043-.02.043-.02.043-.022.043-.021.043-.022.042-.023.042-.023.042-.023.042-.024.042-.025.041-.024.041-.026.042-.026.04-.026.041-.027.04-.027.04-.027.041-.028.04-.029.04-.029.039-.03.039-.029.039-.03.038-.031.039-.031.038-.032.037-.032.038-.032.037-.033.037-.033.037-.034.036-.034.036-.035.036-.035.036-.035.035-.036.035-.036.034-.037.034-.037.034-.037.034-.038.033-.038.033-.039.032-.039.033-.039.032-.04.031-.04.031-.04.03-.041.031-.041.03-.042.03-.042.03-.042.028-.043.028-.043.028-.043.028-.044.027-.044.027-.044.027-.044.026-.046.025-.045.025-.045.025-.046.024-.046.024-.047.024-.047.023-.047.023-.047.022-.048.021-.048.021-.048.021-.049.02-.049.02-.049.02-.049.019-.05.018-.05.018-.05.017-.05.017-.05.017-.051.016-.05.015-.052.015-.052.015-.051.014-.052.013-.052.013-.052.013-.053.012-.052.011-.053.011-.053.01-.053.01-.053.01-.054.009-.053.008-.054.008-.054.007-.054.007-.054.006-.055.006-.054.005-.054.004-.055.004-.055.004-.055.003-.055.002-.055.002-.055.001h-.055l-.055.001h-.055l-.056-.001-.055-.002-.056-.002-.055-.002-.056-.004-.055-.003-.056-.005-.055-.005-.056-.005-.056-.006-.055-.006-.056-.008-.055-.007-.056-.009-.056-.008-.055-.01-.056-.01-.055-.01-.055-.011-.056-.012-.055-.012-.055-.013-.055-.014-.056-.013-.055-.015-.054-.015-.055-.016-.055-.016-.054-.017-.055-.017-.054-.018-.055-.018-.054-.02-.054-.02-.053-.02-.054-.02-.054-.021-.053-.022-.053-.023-.053-.023-.053-.023-.053-.024-.052-.025-.053-.025-.052-.026-.051-.026-.052-.027-.051-.028-.052-.027-.05-.029-.051-.029-.05-.03-.05-.03-.05-.03-.05-.032-.05-.031-.049-.032-.049-.033-.048-.034-.049-.033-.048-.035-.047-.035-.048-.035-.047-.036-.046-.036-.047-.037-.046-.038-.046-.037-.045-.039-.045-.039-.045-.04-.044-.039-.044-.04-.044-.041-.043-.042-.043-.041-.042-.043-.042-.042-.042-.044-.041-.043-.041-.044-.04-.045-.04-.045-.04-.046-.04-.045-.038-.047-.039-.047-.037-.047-.038-.048-.037-.048-.036-.048-.036-.05-.036-.048-.035-.05-.035-.05-.034-.05-.034-.052-.033-.051-.032-.052-.033-.052-.031-.052-.031-.053-.031-.053-.03-.054-.03-.054-.029-.054-.028-.055-.028-.055-.028-.055-.027-.056-.026-.056-.026-.056-.026-.056-.024-.057-.024-.058-.024-.057-.023-.058-.023-.058-.022-.058-.02-.059-.022-.059-.02-.059-.02-.06-.018-.059-.019-.06-.018-.06-.017-.06-.016-.061-.016-.061-.016-.061-.014-.061-.015-.062-.013-.062-.013-.062-.012-.062-.012-.062-.011-.062-.01-.063-.01-.063-.01-.063-.008-.063-.008-.063-.007-.063-.006-.064-.006-.064-.005-.063-.005-.064-.004-.064-.003-.064-.003-.064-.002-.065-.001-.064-.001-.064v-.13l.002-.064.002-.065.003-.064.003-.065.004-.065.004-.065.006-.065.006-.064.006-.065.008-.065.008-.065.008-.065.01-.064.01-.065.01-.065.012-.064.012-.065.013-.064.013-.065.014-.064.015-.064.015-.065.016-.064.017-.064.018-.064.018-.063.018-.064.02-.064.02-.063.02-.063.022-.063.022-.063.023-.063.024-.063.024-.062.024-.062.026-.062.026-.062.027-.062.027-.061.028-.062.029-.06.03-.061.03-.06.03-.061.031-.06.032-.06.033-.06.033-.059.034-.059.035-.058.035-.059.035-.058.037-.058.037-.057.038-.057.038-.057.039-.057.04-.056.04-.056.04-.055.042-.055.042-.055.042-.054.043-.054.044-.054.044-.053.045-.053.046-.052.046-.052.046-.052.047-.051.048-.05.049-.051.049-.05.049-.05.05-.049.05-.048.052-.048.051-.048.052-.047.053-.047.053-.046.054-.046.054-.045.055-.044.055-.044.056-.044.056-.043.057-.043.057-.042.058-.042.058-.04.059-.041.059-.04.06-.04.06-.038.06-.038.061-.038.061-.037.062-.037.062-.036.063-.035.063-.035.064-.034.064-.033.064-.033.064-.032.066-.032.065-.031.066-.03.066-.03.067-.03.066-.028.068-.028.067-.027.068-.027.069-.026.068-.025.069-.025.07-.024.069-.023.07-.023.07-.022.07-.021.07-.02.072-.02.07-.02.072-.018.072-.018.072-.017.072-.016.072-.016.073-.015.073-.014.036-.007zm.896 5.28l-.831.2-.049-4.152-.04.009-.058.014-.059.014-.059.016-.058.015-.058.017-.058.016-.057.018-.058.018-.057.018-.057.02-.056.019-.057.02-.056.02-.056.022-.055.022-.056.022-.054.023-.055.023-.054.024-.055.024-.053.025-.054.026-.053.025-.053.027-.052.027-.052.027-.052.028-.051.028-.051.029-.051.03-.05.029-.05.03-.05.03-.05.032-.048.032-.049.032-.048.032-.047.033-.048.033-.047.034-.046.034-.046.035-.046.035-.046.036-.044.035-.045.037-.044.037-.043.037-.044.037-.042.038-.043.038-.041.039-.042.039-.04.04-.041.039-.04.04-.04.04-.04.041-.038.041-.038.042-.038.041-.037.042-.037.043-.036.043-.036.043-.035.043-.035.044-.035.043-.034.045-.033.044-.033.045-.032.045-.032.045-.032.046-.03.046-.03.046-.03.046-.03.047-.029.047-.028.047-.028.047-.027.048-.027.047-.027.048-.025.048-.025.049-.025.048-.024.049-.024.049-.023.049-.023.049-.022.05-.021.049-.021.05-.02.05-.02.05-.02.05-.018.05-.019.05-.018.05-.017.051-.016.05-.016.052-.016.05-.015.052-.014.05-.014.052-.014.051-.013.051-.012.052-.012.051-.011.052-.01.051-.011.052-.01.051-.009.052-.008.051-.008.052-.008.052-.007.052-.006.051-.006.052-.005.052-.005.051-.004.052-.004.051-.003.052-.003.052-.002.051-.001.052-.001.051-.001.051v.102l.002.052.001.051.002.051.003.051.003.05.004.051.004.051.005.05.005.051.005.05.007.05.006.05.008.05.007.05.009.05.008.049.01.05.01.048.01.05.01.048.011.049.012.048.012.048.013.049.013.047.013.048.014.048.015.047.015.047.015.047.016.047.017.046.016.046.018.046.017.046.019.045.018.046.02.044.019.045.02.045.02.044.02.044.022.044.021.043.022.043.023.043.023.043.023.042.024.042.024.042.024.041.025.041.025.041.026.04.026.04.026.04.027.04.027.04.027.038.028.039.028.038.029.038.029.037.029.037.03.037.03.037.03.036.03.036.03.035.032.035.032.035.031.034.032.035.033.033.033.033.033.033.033.033.034.032.033.032.035.031.034.031.035.03.035.03.035.03.035.03.036.029.036.029.036.028.037.027.036.028.037.027.037.026.038.027.037.025.038.026.038.024.038.025.039.024.038.024.039.023.039.023.039.022.039.022.04.022.04.02.039.021.04.02.04.02.04.02.04.019.04.018.041.018.041.018.04.017.042.017.04.017.042.015.041.016.042.015.041.015.042.014.041.013.042.014.042.013.042.012.042.012.042.011.042.012.042.01.042.01.042.01.042.01.042.008.042.009.043.008.042.008.042.007.043.006.042.007.042.006.042.005.042.005.043.005.042.004.042.003.043.004.042.002.042.003.042.002.042.001.042.001.042.001h.125l.042-.001.041-.002.042-.001.04-.003.042-.002.041-.003.042-.004.04-.003.042-.005.04-.005.04-.005.041-.005.04-.006.041-.006.04-.007.04-.007.04-.007.04-.008.04-.008.039-.009.04-.009.038-.01.04-.009.038-.01.039-.01.038-.011.039-.011.038-.012.038-.012.037-.012.038-.013.037-.013.037-.013.037-.014.037-.014.037-.015.036-.014.036-.015.036-.016.036-.016.035-.016.035-.016.035-.017.035-.017.035-.017.034-.018.034-.018.034-.018.033-.02.033-.018.033-.02.033-.019.033-.02.032-.02.032-.02.032-.021.031-.021.031-.021.031-.022.03-.022.031-.022.03-.022.03-.023.03-.023.029-.023.029-.023.028-.024.028-.024.028-.024.028-.024.027-.025.028-.025.026-.025.027-.025.026-.025.026-.026.026-.026.025-.026.025-.027.024-.026.024-.027.024-.027.024-.027.023-.027.023-.028.023-.027.022-.028.022-.028.022-.028.021-.029.021-.028.021-.029.02-.029.02-.029.02-.029.02-.03.018-.029.019-.03.018-.029.018-.03.018-.03.017-.03.017-.03.016-.03.017-.03.015-.031.016-.03.015-.031.015-.031.014-.031.015-.03.013-.032.014-.031.013-.031.013-.031.012-.032.012-.031.012-.032.011-.031.011-.032.01-.031.011-.032.01-.032.01-.031.009-.032.009-.032.008-.032.008-.032.008-.032.008-.032.007-.031.007-.032.006-.032.006-.032.006-.032.005-.032.006-.032.004-.032.005-.032.004-.031.003-.032.004-.032.003-.032.003-.031.002-.032.002-.032.002-.031.001-.032.001-.031v-.032l.001-.031v-.093l-.001-.032-.002-.03-.001-.031-.002-.032-.002-.03-.003-.03-.003-.032-.003-.03-.003-.03-.004-.031-.004-.03-.004-.03-.005-.03-.005-.03-.005-.03-.006-.03-.006-.029-.006-.03-.006-.028-.007-.03-.007-.029-.008-.028-.007-.03-.008-.028-.008-.028-.009-.028-.008-.029-.01-.027-.009-.028-.01-.028-.009-.027-.01-.028-.01-.027-.011-.027-.01-.027-.012-.026-.011-.027-.012-.026-.012-.026-.012-.026-.012-.026-.013-.026-.013-.025-.013-.025-.013-.025-.014-.025-.013-.025-.014-.024-.015-.024-.014-.024-.015-.024-.015-.024-.015-.023-.015-.023-.015-.024-.016-.022-.016-.023-.016-.022-.016-.022-.017-.022-.016-.022-.017-.021-.017-.022-.018-.02-.017-.021-.018-.021-.017-.02-.018-.02-.018-.02-.018-.02-.019-.02-.018-.018-.02-.02-.018-.018-.019-.018-.02-.019-.018-.018-.02-.017-.02-.018-.02-.017-.019-.017-.02-.017-.02-.016-.02-.016-.02-.016-.021-.016-.02-.016-.021-.015-.021-.015-.021-.014-.02-.015-.022-.014-.021-.014-.021-.014-.022-.013-.021-.014-.022-.013-.021-.012-.022-.013-.022-.012-.022-.012-.021-.011-.022-.012-.022-.011-.023-.011-.022-.01-.022-.011-.022-.01-.022-.01-.023-.01-.022-.01-.022-.008-.023-.009-.022-.009-.023-.008-.022-.008-.023-.008-.022-.008-.023-.007-.023-.007-.022-.007-.023-.006-.022-.007-.023-.006-.023-.005-.022-.006-.023-.005-.022-.005-.023-.005-.023-.005-.022-.004-.023-.004-.022-.004-.023-.004-.022-.003-.022-.003-.023-.003-.022-.003-.022-.002-.023-.002-.022-.002-.022-.002-.022-.001L16.92 15h-.065l-.022-.001h-.065l-.022.001h-.021l-.022.002-.021.001-.021.002-.022.001-.02.002-.022.002-.02.003-.022.002-.02.003-.021.003-.02.003-.021.004-.02.003-.02.004-.02.004-.02.004-.02.004-.02.005z" fill="#fff"/></svg>