<svg width="121" height="32" fill="none" xmlns="http://www.w3.org/2000/svg"><path d="M27.977 11.2c.33 0 .44.119.44.439v7.241h3.73c.321 0 .44.119.44.439v.64c0 .32-.119.439-.44.439h-4.913c-.32 0-.45-.12-.45-.44v-8.32c0-.32.13-.438.45-.438h.743zm7.865 3.19c0-2.111 1.338-3.382 3.666-3.382 2.329 0 3.667 1.27 3.667 3.383v2.816c0 2.112-1.348 3.383-3.667 3.383s-3.666-1.271-3.666-3.383V14.39zm5.793 0c0-1.188-.743-1.828-2.08-1.828-1.34 0-2.073.65-2.073 1.829v2.834c0 1.198.734 1.829 2.072 1.829s2.08-.659 2.08-1.829v-2.834zm12.458.97c.357 0 .44.119.44.439v1.737a2.737 2.737 0 01-.972 2.158 4.004 4.004 0 01-2.75.86c-2.374 0-3.667-1.272-3.667-3.384v-2.834c0-2.085 1.339-3.365 3.667-3.365 1.833 0 3.025.723 3.53 2.167a.39.39 0 01-.11.493.395.395 0 01-.166.074l-.715.247c-.312.11-.44.046-.55-.274a1.885 1.885 0 00-1.989-1.189c-1.347 0-2.08.65-2.08 1.829v2.907c0 1.198.742 1.829 2.08 1.829s2.163-.613 2.163-1.509v-.676h-1.989c-.33 0-.449-.128-.449-.448v-.622c0-.32.12-.439.45-.439h3.107zm4.225-.97c0-2.111 1.339-3.382 3.667-3.382s3.667 1.27 3.667 3.383v2.816c0 2.112-1.348 3.383-3.667 3.383-2.32 0-3.667-1.271-3.667-3.383V14.39zm5.785 0c0-1.188-.743-1.828-2.072-1.828-1.33 0-2.081.65-2.081 1.829v2.834c0 1.198.742 1.829 2.08 1.829 1.34 0 2.073-.659 2.073-1.829v-2.834zm5.867-2.925c0-.201.063-.265.265-.265h.422c.201 0 .247.064.247.265v8.668c0 .2 0 .265-.247.265h-.422c-.202 0-.266-.064-.266-.265v-8.668zm9.285-.265a2.88 2.88 0 012.035.84 2.867 2.867 0 010 4.06c-.54.54-1.272.842-2.035.842h-2.75v3.19c0 .202-.046.266-.238.266h-.431c-.193 0-.266-.064-.266-.265v-8.668c0-.201.073-.265.266-.265h3.42zm-.082 4.837a2.002 2.002 0 001.846-1.23 1.99 1.99 0 00-1.082-2.605 2.004 2.004 0 00-.764-.152h-2.75v3.986h2.75zm10.119-5.02a3.306 3.306 0 013.41 1.993c.074.147 0 .265-.146.339l-.404.182c-.165.064-.229.055-.33-.118a2.489 2.489 0 00-2.53-1.5c-1.549 0-2.392.613-2.392 1.71a1.387 1.387 0 001.164 1.408 6.21 6.21 0 001.522.292 6.35 6.35 0 011.833.375 2.061 2.061 0 011.43 2.167c0 1.71-1.247 2.743-3.538 2.743a3.316 3.316 0 01-2.15-.492 3.302 3.302 0 01-1.361-1.73.247.247 0 01.156-.347l.403-.146a.247.247 0 01.33.155 2.617 2.617 0 002.622 1.646c1.732 0 2.585-.604 2.585-1.829a1.366 1.366 0 00-1.073-1.399 6.434 6.434 0 00-1.457-.256l-.99-.128a8.714 8.714 0 01-.917-.247 2.412 2.412 0 01-.816-.43 2.23 2.23 0 01-.733-1.745c.064-1.6 1.265-2.643 3.382-2.643zm8.498 6.253a2.54 2.54 0 00.797 1.699 2.553 2.553 0 003.494 0 2.543 2.543 0 00.797-1.698v-5.806c0-.201.064-.265.265-.265h.422c.202 0 .266.064.266.265v5.797c0 2.075-1.228 3.328-3.493 3.328-2.264 0-3.492-1.253-3.492-3.328v-5.797c0-.201.064-.265.257-.265h.43c.193 0 .257.064.257.265v5.806zm18.691-6.07c.202 0 .266.064.266.265v8.668c0 .2-.064.265-.266.265h-.385c-.193 0-.257-.064-.257-.265v-5.276c0-.767.052-1.534.156-2.295h-.055a16.52 16.52 0 01-.999 2.02l-1.971 3.466a.32.32 0 01-.302.201h-.257a.342.342 0 01-.312-.201l-1.998-3.502a14.735 14.735 0 01-.917-1.993h-.055c.094.768.143 1.54.147 2.313v5.267c0 .2-.064.265-.266.265h-.357c-.202 0-.266-.064-.266-.265v-8.668c0-.201.064-.265.266-.265h.33a.366.366 0 01.366.21l3.209 5.687 3.19-5.632c.1-.192.155-.22.357-.22l.376-.045zM11.67 19.008v6.61a.954.954 0 01-.959.956.96.96 0 01-.958-.956v-6.6c.267.194.587.302.917.31.36.01.713-.103 1-.32zm8.158-1.91a.918.918 0 00-.917.914v1.151a.954.954 0 00.958.956.959.959 0 00.958-.956v-1.106a.911.911 0 00-.612-.912.92.92 0 00-.387-.048zM7.673 21.512c-.33-.01-.65-.118-.917-.31v6.628a.959.959 0 00.962.96.964.964 0 00.963-.96v-6.583a1.68 1.68 0 01-1.008.265zm9.166-6.4a.918.918 0 00-.962.915v5.092a.959.959 0 00.962.96.964.964 0 00.963-.96V16.09a.912.912 0 00-.618-.915.918.918 0 00-.39-.044l.045-.019zm-3.043 1.957a1.68 1.68 0 01-.963-.311v6.647a.959.959 0 00.963.96.963.963 0 00.962-.96v-6.638a1.62 1.62 0 01-1.008.32l.046-.018zm-8.204 5.092V3.593a.858.858 0 00-.862-.85h-.202a.863.863 0 00-.861.85v18.57a.858.858 0 00.861.859h.202a.863.863 0 00.862-.86zm2.181-1.353h-.201a.863.863 0 01-.862-.86V5.807a.858.858 0 01.862-.85h.201a.863.863 0 01.862.85v14.162a.858.858 0 01-.862.86v-.019zm3.035-2.176h-.211a.854.854 0 01-.853-.85V8a.85.85 0 01.853-.86h.21a.863.863 0 01.853.86v9.783a.85.85 0 01-.852.85zm3.034-2.24h-.193a.863.863 0 01-.861-.85v-5.266a.857.857 0 01.518-.844.863.863 0 01.343-.07h.202a.863.863 0 01.862.859v5.303a.857.857 0 01-.53.802.862.862 0 01-.332.066h-.01zm3.043-1.966h-.202a.863.863 0 01-.861-.859v-1.362a.858.858 0 01.861-.85h.202a.863.863 0 01.862.85v1.362a.858.858 0 01-.853.86h-.009z" fill="#fff"/></svg>