<svg width="136" height="32" fill="none" xmlns="http://www.w3.org/2000/svg"><g clip-path="url(#clip0_140_5099)" fill="#fff"><path d="M38.773 23.2h8.976v-2.586H41.51V8.538h-2.737V23.2zm14.371.306c1.087 0 2.043-.245 2.868-.734a5.157 5.157 0 001.942-2.046c.47-.876.705-1.884.705-3.024 0-1.134-.232-2.135-.694-3.004a5.14 5.14 0 00-1.943-2.056c-.825-.496-1.784-.744-2.878-.744-1.073 0-2.023.245-2.848.733a5.16 5.16 0 00-1.942 2.047c-.47.869-.705 1.877-.705 3.024 0 1.133.228 2.138.685 3.014a5.177 5.177 0 001.932 2.046c.825.496 1.785.744 2.878.744zm0-2.587c-.852 0-1.5-.288-1.942-.865-.436-.584-.654-1.368-.654-2.352 0-.957.208-1.731.624-2.322.422-.597 1.08-.896 1.972-.896.866 0 1.516.292 1.952.876.443.584.665 1.364.665 2.342 0 .943-.218 1.717-.655 2.321-.429.598-1.083.896-1.962.896zm10.928 2.587c.51 0 .98-.062 1.409-.184a4.483 4.483 0 001.187-.52v1.11c.013.408-.09.747-.312 1.019a1.91 1.91 0 01-.865.621 3.131 3.131 0 01-1.158.214c-.382 0-.738-.085-1.066-.255a1.758 1.758 0 01-.745-.743l-2.536 1.242c.416.713 1.01 1.287 1.781 1.72.772.442 1.62.663 2.546.663.799 0 1.54-.109 2.224-.326.684-.21 1.261-.533 1.731-.967.476-.435.802-.988.976-1.66a4.4 4.4 0 00.121-.723c.027-.237.04-.492.04-.764v-11.75H67.01v.612a4.086 4.086 0 00-1.258-.672 4.61 4.61 0 00-1.54-.245c-1.04 0-1.945.251-2.717.754-.771.502-1.372 1.19-1.801 2.067-.423.868-.634 1.863-.634 2.983 0 1.1.208 2.087.624 2.963.423.875 1.01 1.568 1.761 2.077.751.509 1.627.764 2.627.764zm.442-2.465c-.59 0-1.073-.149-1.449-.448-.375-.298-.654-.699-.835-1.201a5.013 5.013 0 01-.272-1.69c0-.611.094-1.168.282-1.67.188-.51.476-.913.865-1.212.396-.305.9-.458 1.51-.458.859 0 1.473.31 1.842.927.369.61.553 1.415.553 2.413 0 .998-.188 1.805-.563 2.423-.37.611-1.013.916-1.933.916zm11.393 2.465c1.087 0 2.043-.245 2.868-.734a5.154 5.154 0 001.942-2.046c.47-.876.704-1.884.704-3.024 0-1.134-.23-2.135-.694-3.004a5.136 5.136 0 00-1.942-2.056c-.825-.496-1.785-.744-2.878-.744-1.074 0-2.023.245-2.848.733a5.16 5.16 0 00-1.942 2.047c-.47.869-.705 1.877-.705 3.024 0 1.133.228 2.138.684 3.014a5.177 5.177 0 001.933 2.046c.825.496 1.784.744 2.878.744zm0-2.587c-.852 0-1.5-.288-1.942-.865-.437-.584-.655-1.368-.655-2.352 0-.957.208-1.731.624-2.322.423-.597 1.08-.896 1.973-.896.865 0 1.516.292 1.952.876.443.584.664 1.364.664 2.342 0 .943-.218 1.717-.654 2.321-.43.598-1.083.896-1.962.896zm6.721-10.243h2.737V8.233h-2.737v2.443zm0 12.524h2.737V12.204h-2.737V23.2zm4.527 4.887h2.757v-5.284a4.55 4.55 0 001.177.52c.437.121.91.183 1.42.183.999 0 1.875-.255 2.626-.764.751-.51 1.335-1.202 1.75-2.077.424-.876.635-1.863.635-2.963 0-1.12-.214-2.115-.644-2.983-.423-.876-1.02-1.565-1.791-2.067-.772-.503-1.677-.754-2.717-.754a4.7 4.7 0 00-1.55.245c-.463.156-.88.38-1.248.672v-.611h-2.415v15.883zm4.91-7.046c-.912 0-1.555-.305-1.932-.916-.375-.618-.563-1.425-.563-2.423s.185-1.802.554-2.413c.375-.618.989-.927 1.841-.927.61 0 1.11.153 1.5.458a2.6 2.6 0 01.875 1.212 4.73 4.73 0 01.282 1.67c0 .618-.09 1.18-.272 1.69-.18.502-.46.903-.835 1.201-.375.3-.859.448-1.45.448zm10.414 2.465c1.422 0 2.536-.323 3.341-.968.805-.645 1.207-1.53 1.207-2.657 0-.855-.261-1.53-.784-2.026-.517-.496-1.396-.907-2.637-1.232a33.788 33.788 0 01-1.892-.53c-.409-.136-.681-.268-.815-.397a.651.651 0 01-.191-.479c0-.319.15-.563.452-.733.31-.17.715-.237 1.218-.203 1.067.081 1.651.543 1.752 1.384l2.797-.509c-.141-.997-.624-1.788-1.449-2.372-.825-.59-1.878-.886-3.16-.886-1.315 0-2.365.312-3.15.937-.785.624-1.177 1.466-1.177 2.525 0 .842.272 1.507.815 1.996.543.482 1.479.896 2.808 1.242.785.21 1.361.38 1.73.509.376.129.618.261.725.397.107.129.161.302.161.52a.953.953 0 01-.403.814c-.268.19-.65.285-1.147.285-.604 0-1.104-.146-1.499-.438-.389-.292-.641-.696-.755-1.211l-2.798.427c.181 1.147.692 2.037 1.53 2.668.846.624 1.953.937 3.321.937zm9.597.02c.786 0 1.47-.133 2.054-.397a4.374 4.374 0 001.469-1.06V23.2h2.415V12.204h-2.757v5.58c0 .678-.078 1.228-.232 1.649-.147.414-.338.73-.573.947a1.89 1.89 0 01-.755.427c-.268.075-.52.112-.755.112-.583 0-1.036-.132-1.358-.397a2.256 2.256 0 01-.685-.987 4.364 4.364 0 01-.251-1.171 14.74 14.74 0 01-.041-.968v-5.192h-2.777v6.17c0 .183.013.475.04.876.027.4.104.845.232 1.333.127.482.338.947.634 1.395.302.448.721.818 1.258 1.11.536.292 1.231.438 2.082.438zm7.523-.326h2.757v-6.659c0-.631.171-1.144.513-1.537.349-.4.809-.601 1.379-.601.597 0 1.064.204 1.399.61.342.401.513.965.513 1.691V23.2h2.738v-6.659c0-.631.171-1.144.513-1.537.349-.4.808-.601 1.378-.601.598 0 1.064.204 1.399.61.342.401.514.965.514 1.691V23.2h2.736v-7.229c0-1.201-.318-2.172-.956-2.912-.63-.747-1.566-1.12-2.807-1.12a4.09 4.09 0 00-1.923.458 3.697 3.697 0 00-1.398 1.252 3.231 3.231 0 00-1.208-1.242c-.523-.312-1.174-.468-1.952-.468-.658 0-1.261.132-1.811.397a3.755 3.755 0 00-1.369 1.07v-1.202h-2.415V23.2zM15.814 0C7.08 0 0 7.163 0 16c8.734 0 15.814-7.163 15.814-16zm0 32c8.734 0 15.814-7.163 15.814-16-8.734 0-15.814 7.163-15.814 16zm0-32c8.734 0 15.814 7.163 15.814 16-8.734 0-15.814-7.163-15.814-16zm0 32C7.08 32 0 24.837 0 16c8.734 0 15.814 7.163 15.814 16z"/></g><defs><clipPath id="clip0_140_5099"><path fill="#fff" d="M0 0h136v32H0z"/></clipPath></defs></svg>