<svg width="130" height="32" fill="none" xmlns="http://www.w3.org/2000/svg"><g clip-path="url(#clip0_140_5116)" fill="#fff"><path d="M39.123 22.364h9.194v-2.742H42.39V9.29h-3.268v13.074zm14.641-1.828c-1.31 0-1.994-1.134-1.994-2.835 0-1.7.683-2.852 1.994-2.852 1.31 0 2.012 1.152 2.012 2.852 0 1.701-.701 2.835-2.012 2.835zm.019 2.12c3.046 0 5.04-2.139 5.04-4.954 0-2.817-1.994-4.956-5.04-4.956-3.028 0-5.059 2.14-5.059 4.955 0 2.816 2.03 4.956 5.059 4.956zM64.095 25.6c1.403 0 2.64-.31 3.47-1.041.758-.677 1.256-1.7 1.256-3.109v-8.448h-2.88v1.006h-.037c-.553-.786-1.403-1.28-2.658-1.28-2.345 0-3.97 1.938-3.97 4.68 0 2.872 1.976 4.444 4.1 4.444 1.144 0 1.864-.457 2.417-1.079h.074v.933c0 1.134-.535 1.792-1.809 1.792-.997 0-1.495-.42-1.661-.914H59.48c.295 1.956 2.012 3.017 4.615 3.017zm-.018-5.96c-1.127 0-1.865-.915-1.865-2.323 0-1.426.738-2.34 1.865-2.34 1.255 0 1.92 1.06 1.92 2.322 0 1.317-.61 2.34-1.92 2.34zm10.666.896c-1.31 0-1.994-1.134-1.994-2.835 0-1.7.683-2.852 1.994-2.852 1.31 0 2.012 1.152 2.012 2.852 0 1.701-.701 2.835-2.012 2.835zm.019 2.12c3.046 0 5.04-2.139 5.04-4.954 0-2.817-1.994-4.956-5.04-4.956-3.028 0-5.059 2.14-5.059 4.955 0 2.816 2.03 4.956 5.059 4.956zm5.918-.292h3.01v-9.362h-3.01v9.362zm0-10.66h3.01V9.29h-3.01v2.414zm4.315 13.751h3.01v-4.06h.037c.59.787 1.458 1.262 2.676 1.262 2.474 0 4.117-1.938 4.117-4.974 0-2.816-1.532-4.955-4.043-4.955-1.292 0-2.215.567-2.861 1.408h-.056v-1.134h-2.88v12.453zm4.948-5.102c-1.292 0-2.03-1.042-2.03-2.56s.664-2.67 1.975-2.67c1.292 0 1.901 1.06 1.901 2.67 0 1.59-.701 2.56-1.846 2.56zm9.792 2.304c2.473 0 4.301-1.06 4.301-3.109 0-2.395-1.957-2.816-3.618-3.09-1.2-.22-2.271-.31-2.271-.97 0-.584.572-.858 1.31-.858.831 0 1.404.255 1.515 1.097h2.769c-.148-1.847-1.588-3-4.265-3-2.234 0-4.08 1.025-4.08 3 0 2.194 1.754 2.633 3.397 2.907 1.255.22 2.4.31 2.4 1.152 0 .604-.572.933-1.477.933-.997 0-1.624-.457-1.735-1.39h-2.843c.092 2.066 1.827 3.328 4.597 3.328zm8.389-.018c1.311 0 2.141-.512 2.824-1.427h.056v1.152h2.88v-9.362h-3.009v5.23c0 1.115-.628 1.883-1.662 1.883-.96 0-1.421-.567-1.421-1.59v-5.523h-2.991v6.144c0 2.084 1.144 3.492 3.323 3.492zm7.068-.275h3.01v-5.248c0-1.115.553-1.901 1.495-1.901.905 0 1.329.585 1.329 1.59v5.56h3.009v-5.249c0-1.115.536-1.901 1.496-1.901.904 0 1.329.585 1.329 1.59v5.56h3.009v-6.09c0-2.103-1.07-3.547-3.212-3.547-1.218 0-2.234.512-2.972 1.646h-.037c-.48-1.006-1.422-1.646-2.659-1.646-1.366 0-2.27.64-2.861 1.609h-.056v-1.335h-2.88v9.362z"/><path fill-rule="evenodd" clip-rule="evenodd" d="M15.911.733c8.663 0 15.686 6.956 15.686 15.536 0 8.58-7.023 15.536-15.686 15.536S.225 24.85.225 16.27 7.248.733 15.911.733zm15.083 15.536c0-8.25-6.753-14.94-15.083-14.94-.672 0-1.334.044-1.982.128.419-.036.843-.055 1.271-.055 7.96 0 14.414 6.392 14.414 14.276 0 7.884-6.453 14.276-14.414 14.276-7.536 0-13.72-5.729-14.358-13.03.346 7.948 6.96 14.285 15.069 14.285 8.33 0 15.083-6.689 15.083-14.94zm-1.982-.59c0-7.556-6.184-13.68-13.812-13.68-.619 0-1.229.04-1.826.118.368-.03.74-.046 1.116-.046 7.257 0 13.14 5.827 13.14 13.015 0 7.188-5.883 13.016-13.14 13.016-6.862 0-12.495-5.21-13.089-11.854.302 7.29 6.365 13.11 13.8 13.11 7.627 0 13.81-6.125 13.81-13.68zM14.49 2.666c6.925 0 12.539 5.56 12.539 12.42 0 6.858-5.614 12.418-12.539 12.418-6.764 0-12.278-5.305-12.53-11.944.544 5.992 5.628 10.689 11.82 10.689 6.554 0 11.867-5.263 11.867-11.755 0-6.492-5.313-11.754-11.867-11.754-.34 0-.675.014-1.007.042a12.77 12.77 0 011.717-.116zm10.555 11.828c0-6.162-5.044-11.158-11.265-11.158-.526 0-1.043.036-1.55.105.277-.022.556-.033.839-.033 5.851 0 10.594 4.699 10.594 10.494 0 5.796-4.743 10.494-10.594 10.494-5.508 0-10.034-4.162-10.547-9.484.222 5.969 5.177 10.74 11.258 10.74 6.222 0 11.265-4.995 11.265-11.158zM13.07 4.005c5.518 0 9.992 4.432 9.992 9.898 0 5.467-4.474 9.898-9.992 9.898-5.41 0-9.816-4.258-9.988-9.576.463 4.67 4.44 8.32 9.277 8.32 5.149 0 9.322-4.134 9.322-9.233 0-5.1-4.173-9.234-9.322-9.234-.236 0-.47.009-.702.026a10.13 10.13 0 011.413-.098zm8.01 9.307c0-4.77-3.905-8.638-8.72-8.638-.44 0-.872.033-1.294.095a8.03 8.03 0 01.583-.02c4.445 0 8.049 3.569 8.049 7.971 0 4.403-3.604 7.973-8.05 7.973-4.165 0-7.591-3.134-8.006-7.152.123 4.664 3.979 8.408 8.717 8.408 4.816 0 8.72-3.867 8.72-8.637zm-9.431-7.968c4.113 0 7.447 3.303 7.447 7.376 0 4.074-3.334 7.376-7.447 7.376-4.06 0-7.362-3.218-7.445-7.22.375 3.355 3.247 5.965 6.734 5.965 3.743 0 6.777-3.005 6.777-6.712s-3.034-6.712-6.776-6.712c-.144 0-.286.004-.427.013.37-.056.75-.086 1.137-.086zm5.464 6.785c0-3.378-2.764-6.116-6.174-6.116-.343 0-.679.028-1.006.08a5.65 5.65 0 01.294-.007c3.04 0 5.504 2.44 5.504 5.452 0 3.01-2.464 5.451-5.504 5.451-2.81 0-5.129-2.087-5.462-4.781.042 3.34 2.79 6.036 6.173 6.036 3.41 0 6.175-2.738 6.175-6.115zm-6.886-5.447c2.708 0 4.902 2.174 4.902 4.856 0 2.681-2.194 4.855-4.902 4.855-2.707 0-4.902-2.174-4.902-4.855v-.02c.282 2.044 2.052 3.618 4.192 3.618 2.336 0 4.23-1.876 4.23-4.19 0-2.315-1.894-4.19-4.23-4.19-.053 0-.105 0-.158.002.282-.05.572-.076.868-.076zm2.919 4.264c0-1.985-1.625-3.594-3.629-3.594s-3.63 1.608-3.63 3.594c0 1.985 1.625 3.594 3.629 3.594s3.629-1.61 3.629-3.594z"/></g><defs><clipPath id="clip0_140_5116"><path fill="#fff" d="M0 0h130v32H0z"/></clipPath></defs></svg>