<svg width="105" height="32" fill="none" xmlns="http://www.w3.org/2000/svg"><path d="M18.479 9.112h1.59v11.136h4.773v1.6H18.48V9.112zm11.319 0c.944 0 1.867.282 2.651.809a4.794 4.794 0 011.758 2.154 4.825 4.825 0 01-1.034 5.231 4.748 4.748 0 01-5.201 1.04 4.78 4.78 0 01-2.143-1.767 4.82 4.82 0 01.594-6.061 4.77 4.77 0 013.375-1.406zm0 8a3.17 3.17 0 001.768-.54 3.196 3.196 0 001.171-1.435 3.216 3.216 0 00-.69-3.488 3.176 3.176 0 00-3.467-.693 3.185 3.185 0 00-1.428 1.178 3.214 3.214 0 00-.536 1.778 3.21 3.21 0 00.938 2.252 3.173 3.173 0 002.244.932v.016zm-3.182 3.152h6.364v1.6h-6.364v-1.6zm20.364 1.6h-1.591V20.72a6.093 6.093 0 01-3.5 1.112 6.334 6.334 0 01-3.06-.765 6.377 6.377 0 01-2.32-2.15 6.424 6.424 0 01-.458-6.128 6.393 6.393 0 011.973-2.474 6.33 6.33 0 016.048-.878c1 .375 1.891.998 2.59 1.811l-1.17 1.048a4.77 4.77 0 00-1.952-1.32 4.745 4.745 0 00-4.506.708 4.796 4.796 0 00-1.458 1.857 4.825 4.825 0 00.358 4.572 4.784 4.784 0 001.73 1.605c.7.38 1.484.58 2.28.578a4.569 4.569 0 003.484-1.6h-4.295v-1.6h5.863l-.016 4.768zm5.854-12.72c.944 0 1.867.282 2.652.809a4.795 4.795 0 011.758 2.154 4.825 4.825 0 01-1.035 5.231 4.747 4.747 0 01-5.201 1.04 4.78 4.78 0 01-2.142-1.767 4.82 4.82 0 01-.804-2.667 4.825 4.825 0 011.392-3.42 4.77 4.77 0 013.396-1.412l-.016.032zm0 8c.63 0 1.245-.188 1.768-.54a3.215 3.215 0 00.482-4.924 3.176 3.176 0 00-3.467-.692 3.185 3.185 0 00-1.428 1.178 3.214 3.214 0 00-.537 1.778 3.21 3.21 0 00.955 2.237 3.17 3.17 0 002.243.915l-.016.048zm-3.182 3.152h6.364v1.6h-6.364v-1.6zm9.65-11.184h1.59v12.72h-1.59V9.112zm3.794 0h1.59c.082-.009.165-.009.247 0a4.747 4.747 0 013.702 1.2 4.823 4.823 0 010 7.145 4.767 4.767 0 01-3.702 1.2h-.247v3.2h-1.59V9.111zm1.59 1.6v6.328h.247a3.165 3.165 0 002.516-.764 3.197 3.197 0 001.086-2.408 3.215 3.215 0 00-1.086-2.407 3.177 3.177 0 00-2.516-.765 1.156 1.156 0 00-.255.056l.008-.04zm11.463-.68l-1.177.936a1.54 1.54 0 00-2.65.904V12c0 .704.486 1.176 1.433 1.24 3.643.224 5.313 1.944 5.313 4.216v.144a4.735 4.735 0 01-1.005 2.458 4.694 4.694 0 01-2.166 1.522 4.669 4.669 0 01-4.919-1.244l1.218-.944a2.863 2.863 0 002.227.912 2.964 2.964 0 002.1-.722A2.997 2.997 0 0077.54 17.6v-.112c0-2.136-2.084-2.528-3.89-2.704-1.67-.16-2.871-1.208-2.871-2.72V12a3.086 3.086 0 01.998-2.051 3.052 3.052 0 012.128-.797 2.96 2.96 0 012.235.92l.008-.04zm9.148 10.176c1.98 0 3.547-2.152 3.547-4.8v-6.4h1.591v6.4c0 3.52-2.29 6.36-5.106 6.36s-5.107-2.84-5.107-6.36v-6.4h1.59v6.4c-.063 2.688 1.504 4.84 3.477 4.84l.008-.04zm17.349 1.6h-1.591v-7.92l-3.667 4.8-3.667-4.8v7.944H92.13V9.112l5.25 6.952 5.25-6.952.016 12.696zM10.842 7.2a4.364 4.364 0 00-1.267-3.077 4.315 4.315 0 00-3.06-1.275 4.315 4.315 0 00-3.06 1.275A4.365 4.365 0 002.187 7.2v13.16l3.564 2.568v6.256h1.527v-6.256l3.564-2.568V7.2zm-1.527 7.36l-2.037 2.048v-1.92l2.037-2.048v1.92zm-5.568-1.92l2.036 2.048v1.92L3.747 14.56v-1.92zm5.568-2.176l-2.8 2.816-2.8-2.88V8.48l2.8 2.816 2.8-2.816v1.984zm-2.8-6.08a2.806 2.806 0 011.702.585c.488.378.84.905 1.002 1.503L6.515 9.184 3.81 6.472a2.833 2.833 0 01.995-1.522 2.806 2.806 0 011.71-.598v.032zm-2.8 15.2v-2.88l2.036 2.048v2.288l-2.036-1.456zm3.563 1.464v-2.296l2.037-2.048v2.872l-2.037 1.472z" fill="#fff"/></svg>