<svg width="162" height="28" fill="none" xmlns="http://www.w3.org/2000/svg"><g clip-path="url(#clip0_140_5153)" fill="#fff"><path d="M24.355 21.461h8.41L11.932.921h-8.41l20.834 20.54zM16.252.922l20.084 19.8V.921h-5.435v6.25l-6.34-6.25h-8.309zM0 1.61v19.85h5.435v-6.25l6.34 6.25h8.362L0 1.61zm49.452 16.762h4.87v2.83h-8.588V6.155h3.718v12.216zm11.513 3.001c-1.189 0-2.261-.25-3.218-.75a5.629 5.629 0 01-2.24-2.143c-.535-.929-.803-2.015-.803-3.258 0-1.229.275-2.307.826-3.236a5.55 5.55 0 012.26-2.165c.957-.5 2.03-.75 3.218-.75 1.189 0 2.261.25 3.218.75a5.55 5.55 0 012.26 2.165c.552.928.827 2.007.827 3.236s-.283 2.315-.848 3.258a5.558 5.558 0 01-2.283 2.143c-.956.5-2.029.75-3.217.75zm0-3.172c.71 0 1.311-.257 1.804-.771.508-.515.761-1.25.761-2.208 0-.957-.246-1.693-.739-2.207a2.335 2.335 0 00-1.783-.772c-.724 0-1.326.257-1.804.772-.479.5-.718 1.236-.718 2.207 0 .957.232 1.693.696 2.208a2.335 2.335 0 001.783.771zm12.277-9.13c.855 0 1.601.171 2.239.514.652.343 1.152.793 1.5 1.35V9.243h3.718V21.18c0 1.1-.225 2.093-.674 2.98-.435.9-1.11 1.614-2.022 2.142-.899.53-2.022.794-3.37.794-1.797 0-3.254-.422-4.37-1.265-1.116-.829-1.753-1.957-1.913-3.386h3.674c.116.457.392.814.826 1.071.435.272.971.408 1.61.408.767 0 1.376-.222 1.825-.665.464-.429.696-1.122.696-2.079v-1.693c-.362.557-.862 1.015-1.5 1.372-.638.343-1.384.514-2.24.514-1 0-1.905-.25-2.717-.75-.811-.515-1.457-1.236-1.935-2.165-.463-.943-.695-2.029-.695-3.257 0-1.23.231-2.308.695-3.237.478-.928 1.124-1.643 1.935-2.143.812-.5 1.718-.75 2.718-.75zm3.739 6.151c0-.914-.26-1.636-.783-2.165a2.49 2.49 0 00-1.87-.793c-.739 0-1.369.265-1.89.793-.508.515-.762 1.23-.762 2.144 0 .914.254 1.643.761 2.186a2.56 2.56 0 001.892.793 2.49 2.49 0 001.87-.793c.521-.529.782-1.25.782-2.165zm11.277 6.151c-1.188 0-2.26-.25-3.218-.75a5.628 5.628 0 01-2.239-2.143c-.536-.929-.804-2.015-.804-3.258 0-1.229.275-2.307.826-3.236a5.55 5.55 0 012.261-2.165c.956-.5 2.03-.75 3.218-.75 1.188 0 2.26.25 3.217.75a5.55 5.55 0 012.261 2.165c.55.928.826 2.007.826 3.236s-.282 2.315-.848 3.258a5.558 5.558 0 01-2.282 2.143c-.957.5-2.03.75-3.218.75zm0-3.172c.71 0 1.312-.257 1.804-.771.508-.515.761-1.25.761-2.208 0-.957-.246-1.693-.739-2.207a2.335 2.335 0 00-1.782-.772c-.725 0-1.327.257-1.805.772-.478.5-.717 1.236-.717 2.207 0 .957.232 1.693.695 2.208a2.335 2.335 0 001.783.771zM97.796 8c-.652 0-1.189-.186-1.609-.558a1.877 1.877 0 01-.609-1.414c0-.572.203-1.043.609-1.415.42-.386.957-.579 1.609-.579.638 0 1.16.193 1.565.58.42.37.63.842.63 1.414 0 .557-.21 1.028-.63 1.414-.406.372-.927.557-1.565.557zm1.848 1.242v11.96h-3.718V9.241h3.718zm5.759 1.694a4.01 4.01 0 011.5-1.35c.638-.344 1.385-.515 2.24-.515 1 0 1.906.25 2.717.75.812.5 1.45 1.215 1.914 2.143.478.93.717 2.008.717 3.237 0 1.228-.239 2.314-.717 3.257-.464.93-1.102 1.65-1.914 2.165-.811.5-1.717.75-2.717.75-.841 0-1.588-.171-2.24-.514-.637-.343-1.137-.786-1.5-1.33v7.374h-3.717V9.243h3.717v1.693zm5.305 4.265c0-.915-.261-1.63-.783-2.144-.507-.528-1.138-.793-1.891-.793a2.56 2.56 0 00-1.891.793c-.507.53-.761 1.25-.761 2.165s.254 1.636.761 2.165a2.558 2.558 0 001.891.793c.74 0 1.37-.265 1.891-.793.522-.543.783-1.272.783-2.186zm10.016 6.172c-1.059 0-2-.178-2.826-.536-.827-.357-1.479-.843-1.957-1.457a3.886 3.886 0 01-.804-2.1h3.674c.043.414.239.75.587 1.007.347.257.775.386 1.282.386.464 0 .819-.086 1.066-.257.261-.186.391-.422.391-.708 0-.343-.182-.593-.543-.75-.363-.171-.95-.357-1.761-.557-.87-.2-1.595-.407-2.175-.622a3.915 3.915 0 01-1.5-1.05c-.42-.486-.63-1.136-.63-1.95 0-.686.188-1.307.565-1.865.391-.571.957-1.021 1.696-1.35.754-.329 1.645-.493 2.674-.493 1.522 0 2.718.372 3.587 1.114.885.743 1.392 1.73 1.522 2.958h-3.435a1.44 1.44 0 00-.566-.986c-.304-.243-.71-.364-1.217-.364-.434 0-.768.086-1 .257a.758.758 0 00-.347.664c0 .343.181.6.543.772.376.171.957.343 1.74.514.898.229 1.63.458 2.195.686a3.568 3.568 0 011.478 1.072c.435.486.66 1.143.674 1.972 0 .7-.203 1.328-.609 1.886-.391.543-.963.971-1.717 1.286-.739.314-1.602.471-2.587.471zm18.514-12.131v11.96h-3.718v-1.63c-.376.53-.891.958-1.543 1.287-.637.314-1.347.471-2.13.471-.928 0-1.747-.2-2.457-.6a4.209 4.209 0 01-1.652-1.779c-.391-.771-.587-1.679-.587-2.722V9.242h3.696v6.494c0 .8.21 1.422.63 1.865.421.443.985.664 1.695.664.725 0 1.298-.221 1.718-.664.421-.443.63-1.064.63-1.865V9.242h3.718zm17.497-.128c1.507 0 2.703.45 3.587 1.35.9.9 1.349 2.15 1.349 3.75v6.988h-3.697v-6.494c0-.772-.209-1.365-.63-1.78-.406-.428-.971-.642-1.696-.642-.724 0-1.297.214-1.718.643-.405.414-.608 1.007-.608 1.779v6.494h-3.696v-6.494c0-.772-.209-1.365-.63-1.78-.406-.428-.971-.642-1.696-.642s-1.297.214-1.718.643c-.405.414-.608 1.007-.608 1.779v6.494h-3.717V9.242h3.717v1.5c.377-.5.869-.892 1.478-1.178.609-.3 1.297-.45 2.065-.45.913 0 1.725.193 2.435.579.725.386 1.29.936 1.696 1.65a4.862 4.862 0 011.718-1.607 4.693 4.693 0 012.369-.622z"/></g><defs><clipPath id="clip0_140_5153"><path fill="#fff" d="M0 0h162v28H0z"/></clipPath></defs></svg>