<svg width="55" height="42" fill="none" xmlns="http://www.w3.org/2000/svg"><path d="M50.056 3.397C53.146 6.794 55 10.5 55 16.677 55 27.485 47.275 37.059 36.46 42l-2.78-4.015c10.196-5.559 12.36-12.662 12.977-17.294-1.545.927-3.708 1.236-5.87.927-5.562-.618-9.888-4.941-9.888-10.81 0-2.779 1.236-5.558 3.09-7.72C36.152.926 38.624 0 41.714 0c3.398 0 6.488 1.544 8.342 3.397zm-30.899 0c3.09 3.397 4.944 7.103 4.944 13.28 0 10.808-7.725 20.382-18.54 25.323l-2.78-4.015c10.197-5.559 12.36-12.662 12.977-17.294-1.544.927-3.707 1.236-5.87.927C4.326 21 0 16.368 0 10.808 0 8.03 1.236 5.25 3.09 3.089 5.253.926 7.725 0 10.815 0c3.399 0 6.488 1.544 8.342 3.397z" fill="#FFD358"/></svg>