<svg width="196" height="46" fill="none" xmlns="http://www.w3.org/2000/svg"><path d="M114.899 45.317c-2.29 0-4.215-.403-5.775-1.21a7.81 7.81 0 01-3.435-3.527c-.73-1.544-1.095-3.491-1.095-5.842v-9.895h-2.091c-.929 0-1.659-.264-2.19-.79-.498-.526-.747-1.246-.747-2.158 0-.982.249-1.72.747-2.21.531-.527 1.261-.79 2.19-.79h2.091v-4c0-1.334.332-2.334.995-3 .664-.702 1.593-1.053 2.788-1.053 1.228 0 2.157.35 2.788 1.053.63.666.946 1.666.946 3v4h4.729c.929 0 1.643.263 2.141.79.497.49.746 1.228.746 2.21 0 .912-.249 1.632-.746 2.158-.498.526-1.212.79-2.141.79h-4.729v9.579c0 1.474.315 2.579.946 3.316.663.737 1.709 1.105 3.136 1.105.498 0 .962-.053 1.394-.158a8.488 8.488 0 011.194-.21c.465-.035.847.123 1.145.473.299.316.448 1.036.448 2.158 0 .843-.132 1.58-.398 2.211-.265.632-.73 1.088-1.394 1.369-.431.175-1.028.315-1.792.42-.73.141-1.36.211-1.891.211zm-33.824-.578c-.73 0-1.344-.193-1.842-.58a3.029 3.029 0 01-.996-1.578c-.166-.632-.166-1.316 0-2.053.2-.737.58-1.421 1.145-2.053L91.58 23.001v1.842H80.776c-.896 0-1.593-.263-2.09-.79-.499-.526-.748-1.245-.748-2.157 0-.983.25-1.72.747-2.211.498-.526 1.195-.79 2.091-.79h14.387c.896 0 1.61.211 2.14.632.531.421.88.947 1.046 1.58.199.596.215 1.262.05 2-.133.701-.482 1.368-1.046 2l-12.495 15.79v-2.053h11.55c1.891 0 2.837.982 2.837 2.947 0 .948-.25 1.685-.747 2.211-.498.491-1.195.737-2.09.737H81.074zm-22.967.579c-2.124 0-3.999-.544-5.625-1.632-1.593-1.088-2.838-2.65-3.734-4.685-.896-2.035-1.344-4.438-1.344-7.21 0-2.773.448-5.159 1.344-7.159.896-2 2.141-3.544 3.734-4.632 1.626-1.087 3.501-1.631 5.625-1.631 1.925 0 3.618.491 5.078 1.474 1.493.982 2.506 2.263 3.037 3.842h-.548V11.21c0-1.334.315-2.334.946-3 .63-.702 1.56-1.053 2.788-1.053 1.194 0 2.123.35 2.787 1.052.664.667.996 1.667.996 3v29.95c0 1.298-.332 2.298-.996 3-.63.701-1.543 1.052-2.738 1.052-1.194 0-2.124-.35-2.787-1.053-.631-.701-.946-1.701-.946-3V37.58l.547 2.053c-.464 1.72-1.46 3.105-2.987 4.158-1.493 1.018-3.219 1.527-5.177 1.527zm2.24-5.948c1.096 0 2.041-.28 2.838-.842.796-.562 1.427-1.386 1.892-2.474.464-1.123.697-2.544.697-4.264 0-2.561-.498-4.438-1.494-5.631-.996-1.229-2.306-1.842-3.933-1.842-1.062 0-2.008.263-2.837.789-.797.526-1.427 1.35-1.892 2.474-.431 1.088-.647 2.491-.647 4.21 0 2.562.498 4.474 1.493 5.738.996 1.228 2.29 1.842 3.883 1.842zm-21.285 5.79c-1.227 0-2.173-.369-2.837-1.106-.63-.772-.946-1.842-.946-3.21V22.843c0-1.404.315-2.474.946-3.21.664-.773 1.61-1.159 2.837-1.159 1.195 0 2.108.386 2.738 1.158.664.737.996 1.807.996 3.21v18.002c0 1.368-.315 2.438-.946 3.21-.63.737-1.56 1.106-2.788 1.106zm0-31.002c-1.394 0-2.472-.333-3.235-1-.73-.702-1.096-1.684-1.096-2.947 0-1.299.365-2.281 1.096-2.948.763-.702 1.841-1.053 3.235-1.053s2.456.351 3.186 1.053c.73.667 1.096 1.65 1.096 2.948 0 1.263-.365 2.245-1.096 2.947-.73.667-1.792 1-3.186 1zM3.883 45.212c-1.261 0-2.224-.368-2.887-1.105C.332 43.37 0 42.335 0 41.002V11.316c0-1.334.332-2.351.996-3.053.663-.737 1.626-1.105 2.887-1.105 1.228 0 2.174.368 2.837 1.105.664.702.996 1.72.996 3.053V23.79h.1L21.057 9.158c.565-.632 1.145-1.105 1.743-1.421.63-.351 1.344-.527 2.14-.527 1.162 0 1.992.316 2.49.948.53.631.763 1.368.696 2.21-.066.842-.431 1.632-1.095 2.369L13.74 27.107l.05-3.527 13.938 15.737c.763.877 1.145 1.772 1.145 2.684.033.913-.249 1.685-.846 2.316-.564.597-1.41.895-2.539.895-.962 0-1.742-.21-2.34-.631-.564-.422-1.195-1.036-1.891-1.843L7.816 27.79h-.1v13.212c0 1.333-.332 2.368-.996 3.105-.63.737-1.576 1.105-2.837 1.105zm178.565.001c-1.261 0-2.224-.35-2.887-1.052-.664-.702-.996-1.702-.996-3V22.474c0-1.298.315-2.28.946-2.947.664-.702 1.576-1.053 2.738-1.053 1.194 0 2.107.351 2.738 1.053.63.667.946 1.649.946 2.947v2.737h-.498c.398-2.105 1.277-3.737 2.638-4.895 1.361-1.158 3.12-1.807 5.277-1.947.83-.07 1.46.158 1.892.684.464.491.713 1.316.746 2.474.067 1.088-.149 1.947-.647 2.579-.464.631-1.261 1.018-2.389 1.158l-1.145.105c-1.892.176-3.302.755-4.232 1.737-.896.983-1.344 2.404-1.344 4.263v9.79c0 1.299-.332 2.299-.995 3-.631.702-1.56 1.053-2.788 1.053z" fill="#fff"/><g clip-path="url(#clip0_132_5043)" fill="#FFD358"><path d="M160.611 20.146l11.81-7.805-13.28 2.068 2.408 3.233-.938 2.504z"/><path d="M175.677 44.58l-7.613-11.255-26.624-11.678.387-.92 17.861-2.843L147.068 0l-9.285 17.562-9.649 1.415 6.928 3.731-11.655 22.031 11.453-7.427 5.039-11.999 35.777 19.266h.001zm-32.17-27.857l4.003-9.53 5.409 8.151-9.412 1.379z"/></g><defs><clipPath id="clip0_132_5043"><path fill="#fff" transform="translate(123.407)" d="M0 0h52.27v44.739H0z"/></clipPath></defs></svg>