<svg width="173" height="40" fill="none" xmlns="http://www.w3.org/2000/svg"><path d="M101.416 40c-2.021 0-3.72-.356-5.097-1.069a6.896 6.896 0 01-3.032-3.113c-.644-1.362-.966-3.081-.966-5.156v-8.734h-1.846c-.82 0-1.464-.233-1.933-.697-.44-.465-.66-1.1-.66-1.905 0-.867.22-1.518.66-1.951.469-.465 1.113-.697 1.933-.697h1.846v-3.53c0-1.178.293-2.06.879-2.649.585-.62 1.406-.93 2.46-.93 1.084 0 1.904.31 2.46.93.557.588.836 1.471.836 2.648v3.53h4.174c.82 0 1.45.233 1.889.698.44.433.659 1.084.659 1.95 0 .806-.219 1.441-.659 1.906-.439.464-1.069.697-1.889.697h-4.174v8.455c0 1.3.278 2.276.834 2.927.586.65 1.509.975 2.769.975.439 0 .849-.046 1.23-.139a7.507 7.507 0 011.054-.186c.411-.03.747.108 1.011.418.264.279.396.914.396 1.905 0 .743-.118 1.394-.352 1.951-.234.558-.644.96-1.23 1.208-.381.155-.908.279-1.582.372-.645.124-1.201.186-1.67.186zm-29.855-.511c-.644 0-1.186-.17-1.626-.511a2.673 2.673 0 01-.878-1.394c-.147-.557-.147-1.161 0-1.812.175-.65.512-1.254 1.01-1.811L80.832 20.3v1.627h-9.534c-.791 0-1.407-.232-1.846-.697-.44-.465-.659-1.1-.659-1.905 0-.867.22-1.517.66-1.95.438-.466 1.054-.698 1.844-.698h12.699c.79 0 1.42.186 1.89.558.468.371.776.836.922 1.393.176.527.19 1.115.044 1.766-.117.62-.425 1.208-.923 1.765L74.901 36.097v-1.811h10.194c1.67 0 2.504.867 2.504 2.601 0 .837-.22 1.487-.659 1.952-.44.433-1.055.65-1.846.65H71.561zM51.289 40c-1.875 0-3.53-.48-4.965-1.44-1.406-.96-2.505-2.339-3.296-4.135-.79-1.797-1.186-3.918-1.186-6.365s.395-4.553 1.186-6.318c.791-1.766 1.89-3.128 3.296-4.088 1.435-.96 3.09-1.44 4.965-1.44 1.699 0 3.193.433 4.482 1.3 1.318.867 2.211 1.998 2.68 3.392h-.483V9.896c0-1.178.278-2.06.834-2.649.557-.62 1.377-.93 2.461-.93 1.055 0 1.875.31 2.46.93.587.588.88 1.471.88 2.648V36.33c0 1.146-.293 2.03-.88 2.649-.556.62-1.361.929-2.416.929s-1.875-.31-2.46-.93c-.557-.619-.836-1.502-.836-2.647v-3.16l.484 1.812c-.41 1.518-1.289 2.741-2.636 3.67-1.319.899-2.842 1.348-4.57 1.348zm1.977-5.25c.967 0 1.802-.248 2.505-.743.703-.496 1.26-1.224 1.67-2.184.41-.99.614-2.245.614-3.763 0-2.26-.439-3.918-1.318-4.97-.879-1.085-2.036-1.627-3.47-1.627-.938 0-1.773.232-2.506.697-.703.465-1.26 1.192-1.67 2.183-.38.96-.57 2.2-.57 3.717 0 2.261.439 3.949 1.318 5.064.879 1.084 2.021 1.626 3.427 1.626zm-18.787 5.11c-1.084 0-1.919-.325-2.505-.975-.556-.681-.834-1.626-.834-2.834V20.163c0-1.24.278-2.184.834-2.834.586-.682 1.421-1.022 2.505-1.022 1.054 0 1.86.34 2.417 1.022.585.65.879 1.595.879 2.834V36.05c0 1.208-.279 2.153-.835 2.834-.557.65-1.377.976-2.461.976zm0-27.363c-1.23 0-2.182-.294-2.856-.883-.645-.62-.967-1.486-.967-2.601 0-1.146.323-2.013.967-2.602.674-.62 1.626-.93 2.856-.93s2.168.31 2.812.93c.645.589.967 1.456.967 2.602 0 1.115-.322 1.982-.967 2.601-.644.589-1.582.883-2.812.883zM3.427 39.907c-1.113 0-1.962-.325-2.548-.976-.586-.65-.879-1.564-.879-2.74V9.987C0 8.81.293 7.912.879 7.292c.586-.65 1.435-.975 2.548-.975 1.084 0 1.919.325 2.505.975.586.62.879 1.518.879 2.695v11.01h.088L18.585 8.084c.498-.557 1.011-.975 1.538-1.254.557-.31 1.187-.465 1.89-.465 1.025 0 1.757.28 2.197.837.468.557.673 1.207.615 1.95-.059.744-.381 1.441-.967 2.091L12.127 23.925l.044-3.112 12.303 13.89c.674.775 1.01 1.565 1.01 2.37.03.805-.219 1.486-.746 2.044-.498.527-1.245.79-2.241.79-.85 0-1.538-.186-2.065-.558-.498-.371-1.055-.913-1.67-1.626L6.898 24.53h-.087v11.66c0 1.177-.293 2.09-.88 2.741-.556.65-1.39.976-2.504.976zm157.612 0c-1.114 0-1.963-.31-2.549-.929-.586-.62-.879-1.502-.879-2.648V19.838c0-1.146.279-2.013.835-2.602.586-.62 1.392-.929 2.417-.929 1.054 0 1.86.31 2.417.93.556.588.834 1.455.834 2.6v2.417h-.439c.351-1.859 1.128-3.299 2.329-4.321 1.201-1.022 2.753-1.595 4.657-1.719.733-.062 1.289.14 1.67.604.41.434.63 1.161.659 2.183.059.96-.132 1.72-.571 2.277-.41.557-1.113.898-2.109 1.022l-1.011.093c-1.669.155-2.914.666-3.735 1.533-.791.867-1.186 2.122-1.186 3.763v8.641c0 1.146-.293 2.029-.879 2.648-.556.62-1.377.93-2.46.93z" fill="#222443"/><g clip-path="url(#clip0_78_831)" fill="#FFD358"><path d="M141.764 17.782l10.424-6.89-11.721 1.826 2.125 2.854-.828 2.21z"/><path d="M155.062 39.348l-6.72-9.933-23.499-10.308.341-.813 15.766-2.509L129.81 0l-8.195 15.5-8.517 1.25 6.115 3.294-10.287 19.445 10.109-6.556 4.448-10.59 31.579 17.005zM126.668 14.76l3.533-8.412 4.773 7.195-8.306 1.217z"/></g><defs><clipPath id="clip0_78_831"><path fill="#fff" transform="translate(108.926)" d="M0 0h46.136v39.489H0z"/></clipPath></defs></svg>