<svg xmlns="http://www.w3.org/2000/svg" xmlns:xlink="http://www.w3.org/1999/xlink">
    <symbol id="teacher-bg-decor" viewBox="0 0 387 30">
        <g fill="none">
            <path
                d="M48.0491 10.4878L43.7388 7.28397C30.3825 -2.6439 11.7671 -1.28034 0 10.4878L0 30L387 30V10.4878C374.418 -1.24216 355.098 -1.85069 341.802 9.06423L340.068 10.4878L339.118 9.78158C323.408 -1.89595 301.824 -1.60663 286.432 10.4878C272.08 -1.29503 251.158 -1.40071 236.893 10.4878C224.072 -1.46549 204.646 -2.84856 190.26 7.16766L185.492 10.4878C173.254 -0.921579 154.053 -1.02556 141.912 10.4878C129.956 -1.05027 111.11 -1.36901 98.7697 9.75813L97.9605 10.4878C84.3271 -1.41539 64.1762 -2.00613 49.8689 9.07794L48.0491 10.4878Z"
                fill="currentColor" />
        </g>
    </symbol>
</svg>