<svg width="210" height="110" fill="none" xmlns="http://www.w3.org/2000/svg"><path d="M11.748 90.806L5.27 101.39c-2.307 3.77.405 8.61 4.824 8.61H193.69c7.799 0 13.12-7.891 10.197-15.12l-12.426-30.738c-5.541-13.707-21.707-19.633-34.794-12.755-29.107-26.923-75.411-21.324-97.263 11.76L42.778 88.321c-8.507-9.915-24.21-8.657-31.03 2.486z" fill="#AED032"/><path d="M78.427 55.58c.05 5.775-4.219 10.367-10.575 11.384-4.965.794-10.986-3.17-12.618-8.303-2.062-6.499.841-14.401 9.79-15.57 1.474-.19 2.821.203 4.15.654 5.116 1.716 9.202 6.988 9.246 11.841l.007-.006z" fill="#FFD358"/><path d="M129.09 59.125c7.201-.874 16.923 6.834 16.844 15.396-.069 7.787-7.477 17.969-17.615 17.556-8.911-.363-17.21-5.822-17.13-15.7.079-9.22 5.261-16.957 17.891-17.252h.01z" fill="#F73B50"/></svg>