<svg width="81" height="84" fill="none" xmlns="http://www.w3.org/2000/svg"><path d="M27.856 27.914c4.508-2.68 10.097-4.519 15.57-5.288 8.158-12.541-.298-20.622-14.65-17.28-3.038.738-5.782 2.15-8.11 3.9-1.512 1.353-2.44 3.397-3.167 5.152-1.292 6.497 3.833 11.751 10.357 13.516z" fill="#222443"/><path d="M13.857 26.178c2.082 2.752 5.328 4.575 8.983 5.366a29.442 29.442 0 013.865-2.67c4.255-2.506 9.375-4.292 14.507-5.213-.028.011-.037-.012-.065 0 5.186-13.774-5.712-19.634-19.668-13.342-3.844 1.975-7.801 4.576-8.688 8.38-1.075 2.744-.519 5.167 1.066 7.48z" fill="#fff"/><path d="M13.088 56.05c14.516 28.006 72.327.796 58.654-24.944-2.472-4.73-6.786-8.198-11.9-9.763-4.913-1.475-10.497-1.892-16.13-1.369-.686.059-1.409.131-2.08.226-6.698.896-13.325 3.148-18.662 6.57a31.847 31.847 0 00-4.84 3.733c-5.232 4.973-8.193 11.49-6.948 19.38.18 1.103.41 2.227.777 3.382.311 1.01.702 1.904 1.129 2.785z" fill="#FFD358"/><path d="M44.82 24.604c.941 8.6 10.185 46.146 21.716 31.515.623-.792.636-1.87.092-2.594C59.23 44.2 54.284 30.361 52.891 19.432a1.716 1.716 0 00-1.55-1.465c-4.335-.444-7.357 1.786-6.522 6.637z" fill="#222443"/><path d="M54.272 62.341c.009.024.009.024 0 0zM28.344 38.987c3.38 8.917 7.22 17.973 12.584 25.865 1.46 2.11 4.247 3.013 6.969 2.258 2.34-.678 4.693-1.691 6.599-3.177 1.774-1.225.552-2.693-.461-3.713-8.612-11.03-14.346-25.59-14.518-39.858-1.684-2.592-5.864.614-8.151 1.558-8.216 2.736-4.39 11.633-3.022 17.067zm-11.45 8.608c-1.67-5.103-5.61-14.938 1.026-18.19 1.055-.513 2.23.04 2.377 1.053 1.578 13.158 9.11 25.079 14.68 36.19.48.92-.173 2.137-1.308 2.436-9.133 2.495-14.464-15.533-16.774-21.489z" fill="#222443"/><path d="M63.117 31.143c1.13-1.237.863-3.417-.178-4.59-.24-.301-.786.008-.697.372.419 1.755 1.281 2.68-.47 3.172-1.154.323-1.916-2.133-2.804-3.128-3.185-1.763.978 6.789 4.15 4.174z" fill="#fff"/><path d="M13.072 55.785a15.65 15.65 0 01-1.07-2.584 26.53 26.53 0 01-.617-3.253c-.126.252-.29.52-.49.804-1.222 1.309-3.072 1.964-4.62 2.852a1.082 1.082 0 00-.504.65c-.251 1.342 6.571 1.677 7.301 1.53z" fill="#222443"/></svg>