<svg width="1440" height="283" fill="none" xmlns="http://www.w3.org/2000/svg"><path d="M168.5 114.255C122.533 37.327 88.5-13.332-10 5.689v317.302h1461V5.689c-102.41-20.023-144.64 20.759-179.5 108.566h-46.09c-42.5 0-83.89 13.537-118.18 38.649l-62.73 45.946-10.16-4.104c-65.752-26.555-140.692-15.818-196.34 28.132l-7.011-2.905a100.002 100.002 0 00-96.04 10.76L722 239.897l-11.596-8.655a100 100 0 00-94.249-13.74l-14.655 5.376c-54.944-43.881-129.339-54.576-194.418-27.948l-9.582 3.92-54.882-42.593a199.995 199.995 0 00-122.623-42.002H168.5z" fill="#fff"/></svg>