<svg width="1440" height="299" fill="none" xmlns="http://www.w3.org/2000/svg"><g clip-path="url(#clip0_139_2171)" fill="#fff"><path d="M178 164.775c3.436.589 6.826 1.918 10.312 1.842 4.099-.093 8.112-1.11 12.089-2.86.673-.294 1.354-.505 2.027-.757.018.429.059.85.055 1.279-.1 17.546.381 35.083.631 52.613.132 9.21.037 18.488.668 27.707.287 4.163.409 8.52-.399 12.701-.509 2.616-1.373 4.357-2.827 5.181-3.782 2.128-7.599 3.087-11.553 2.044-1.963-.521-3.968-.244-5.877-1.775-1.008-.807-1.913-1.791-2.731-3.061-.982-1.523-1.559-3.441-1.5-5.964.059-2.566-.022-5.139.009-7.713.255-19.262-.477-38.499-.622-57.753-.059-7.814-.259-15.653-.282-23.484z"/><path d="M100.26 77.124c1.539-19.422 9.862-38.053 24.221-52.235a87.185 87.185 0 0117.554-13.399c18.041-10.455 40.673-13.786 61.06-9.942 20.135 3.802 38.891 14.838 51.712 30.836 18.302 22.828 23.868 56.406 11.736 83.39-9.769 21.727-28.617 39.239-51.073 47.196-27.23 9.657-60.438 5.14-83.372-12.777-12.678-9.908-22.371-24.081-27.567-39.264a83.934 83.934 0 01-4.271-33.805z"/></g><path d="M0 296.811c299-122.162 755 2.189 1440 0V299H0v-2.189z" fill="#fff"/><g clip-path="url(#clip1_139_2171)" fill="#fff"><path d="M292.585 219.563c5.194.559 10.384 1.114 15.632.909 2.619-.105 5.185-.708 7.818-.586.893 1.289 2.438 20.131 2.249 24.524-.145 3.354-1.079 4.581-4.649 5.14-4.137.651-8.311.516-12.471.074-1.078-.113-2.165-.179-3.253-.253-2.456-.174-3.768-1.506-4.256-3.825-.722-3.415-.507-20.764-1.074-25.987l.004.004z"/><path d="M344.177 205.297c-3.574-5.861-6.669-12.035-10.697-17.612l.198-.048c-.114-.318.075-.463.352-.559 2.435-1.917 5.014-3.685 6.639-6.375 1.179-1.952.598-3.419-.529-5.253a75.269 75.269 0 00-7.184-9.782c-.449-.52-7.518-8.009-6.871-8.341 3.182-1.633 5.397-4.305 6.405-7.589 1.219-3.965-1.796-6.398-4.345-9.136-4.376-4.698-8.751-9.397-13.127-14.091-4.041-4.337-7.607-8.952-11.872-13.11-5.054-4.921-10.613 4.415-13.347 7.564a694.394 694.394 0 01-11.216 12.607c-3.082 3.38-7.255 6.838-8.593 11.271-1.426 4.305.678 7.056 3.557 10.104 1.105 1.171 2.826 1.821 4.27 2.703 2.262.411 2.262.411 0 0-.647-.118-4.486 6-4.992 6.695a177.664 177.664 0 01-5.754 7.48c-1.672 2.057-3.526 5.638-1.347 7.961 2.347 2.502 5.569 4.109 8.104 6.432.722.659-3.785 7.293-4.173 7.948a207.524 207.524 0 00-4.952 8.759c-1.607 3.009-3.979 7.031-1.866 10.332.761 1.193 1.897 2.123 3.055 2.983 7.659 5.685 17.075 9.044 26.707 10.415 11.044 1.572 23.458 1.471 33.935-2.55 4.459-1.712 8.623-4.118 12.229-7.136 3.314-2.773 8.201-7.113 5.418-11.672h-.004z"/></g><defs><clipPath id="clip0_139_2171"><path fill="#fff" transform="translate(100)" d="M0 0h173v265H0z"/></clipPath><clipPath id="clip1_139_2171"><path fill="#fff" transform="translate(262 112)" d="M0 0h83v138H0z"/></clipPath></defs></svg>