<svg width="24" height="302" viewBox="0 0 24 302" fill="none" xmlns="http://www.w3.org/2000/svg">
<path d="M15.6098 37.4957L18.123 34.1975C26.0456 23.8005 24.9672 9.12699 15.6098 0H1.90735e-06V302H15.6098C24.9354 292.243 25.416 277.028 16.7249 266.701L15.6098 265.376L16.1645 264.648C25.4641 252.444 25.2352 235.469 15.6098 223.521C24.9832 212.383 25.0656 195.93 15.6098 184.862C25.1194 174.912 26.2145 159.608 18.2183 148.405L15.6098 144.751C24.6768 135.264 24.7575 120.152 15.6098 110.743C24.7778 101.476 25.0292 86.6344 16.1802 77.0618L15.6098 76.4447C25.0777 65.8667 25.5448 50.0051 16.7157 38.8882L15.6098 37.4957Z" fill="white"/>
</svg>
