<svg width="88" height="20" viewBox="0 0 88 20" fill="none" xmlns="http://www.w3.org/2000/svg">
<path d="M51.5871 20C50.559 20 49.6948 19.8219 48.9945 19.4657C48.309 19.1096 47.795 18.5908 47.4523 17.9094C47.1245 17.228 46.9605 16.3686 46.9605 15.331V10.964H46.0218C45.6046 10.964 45.2768 10.8478 45.0384 10.6156C44.8149 10.3833 44.7031 10.0658 44.7031 9.66318C44.7031 9.22957 44.8149 8.90437 45.0384 8.68757C45.2768 8.45528 45.6046 8.33913 46.0218 8.33913H46.9605V6.57375C46.9605 5.98528 47.1096 5.54393 47.4076 5.2497C47.7056 4.93998 48.1228 4.78513 48.6592 4.78513C49.2105 4.78513 49.6277 4.93998 49.9108 5.2497C50.1939 5.54393 50.3355 5.98528 50.3355 6.57375V8.33913H52.4588C52.876 8.33913 53.1964 8.45528 53.4199 8.68757C53.6434 8.90437 53.7552 9.22957 53.7552 9.66318C53.7552 10.0658 53.6434 10.3833 53.4199 10.6156C53.1964 10.8478 52.876 10.964 52.4588 10.964H50.3355V15.1916C50.3355 15.842 50.4771 16.3298 50.7602 16.6551C51.0582 16.9803 51.5275 17.1429 52.1683 17.1429C52.3918 17.1429 52.6004 17.1196 52.7941 17.0732C52.9878 17.0267 53.1666 16.9957 53.3305 16.9803C53.5391 16.9648 53.7105 17.0345 53.8446 17.1893C53.9787 17.3287 54.0457 17.6461 54.0457 18.1417C54.0457 18.5134 53.9861 18.8386 53.8669 19.1173C53.7477 19.3961 53.5391 19.5974 53.2411 19.7213C53.0474 19.7987 52.7792 19.8606 52.4365 19.9071C52.1087 19.969 51.8256 20 51.5871 20Z" fill="#222443"/>
<path d="M36.4003 19.7445C36.0725 19.7445 35.7968 19.6593 35.5733 19.489C35.3498 19.3031 35.2008 19.0709 35.1263 18.7921C35.0518 18.5134 35.0518 18.2114 35.1263 17.8862C35.2157 17.561 35.387 17.259 35.6404 16.9803L41.1163 10.151V10.964H36.2662C35.8639 10.964 35.551 10.8479 35.3274 10.6156C35.1039 10.3833 34.9922 10.0658 34.9922 9.66318C34.9922 9.22958 35.1039 8.90438 35.3274 8.68757C35.551 8.45529 35.8639 8.33914 36.2662 8.33914H42.7255C43.1278 8.33914 43.4482 8.43206 43.6866 8.61789C43.925 8.80372 44.0815 9.03601 44.156 9.31475C44.2454 9.57801 44.2528 9.87224 44.1783 10.1974C44.1187 10.5072 43.9623 10.8014 43.709 11.0801L38.0989 18.0488V17.1429H43.2843C44.1336 17.1429 44.5583 17.5765 44.5583 18.4437C44.5583 18.8618 44.4465 19.187 44.223 19.4193C43.9995 19.6361 43.6866 19.7445 43.2843 19.7445H36.4003Z" fill="#222443"/>
<path d="M26.0886 19.9999C25.135 19.9999 24.2931 19.7599 23.563 19.2799C22.8478 18.7998 22.289 18.1107 21.8867 17.2125C21.4844 16.3143 21.2832 15.2535 21.2832 14.0301C21.2832 12.8068 21.4844 11.7537 21.8867 10.871C22.289 9.98833 22.8478 9.30695 23.563 8.82689C24.2931 8.34683 25.135 8.10679 26.0886 8.10679C26.9528 8.10679 27.7128 8.3236 28.3684 8.7572C29.0389 9.19081 29.4934 9.75604 29.7318 10.4529H29.4859V4.94768C29.4859 4.35921 29.6275 3.91787 29.9106 3.62363C30.1937 3.31392 30.6109 3.15906 31.1622 3.15906C31.6986 3.15906 32.1158 3.31392 32.4139 3.62363C32.7119 3.91787 32.8609 4.35921 32.8609 4.94768V18.1649C32.8609 18.7378 32.7119 19.1792 32.4139 19.4889C32.1307 19.7986 31.721 19.9535 31.1846 19.9535C30.6481 19.9535 30.2309 19.7986 29.9329 19.4889C29.6498 19.1792 29.5083 18.7378 29.5083 18.1649V16.5853L29.7541 17.4912C29.5455 18.25 29.0985 18.8617 28.4131 19.3263C27.7426 19.7754 26.9677 19.9999 26.0886 19.9999ZM27.0944 17.3751C27.5861 17.3751 28.0108 17.2512 28.3684 17.0034C28.726 16.7557 29.0091 16.3917 29.2177 15.9117C29.4263 15.4161 29.5306 14.7889 29.5306 14.0301C29.5306 12.8997 29.3071 12.0712 28.8601 11.5447C28.4131 11.0027 27.8245 10.7317 27.0944 10.7317C26.6176 10.7317 26.1929 10.8478 25.8204 11.0801C25.4628 11.3124 25.1797 11.6763 24.9711 12.1718C24.7774 12.6519 24.6805 13.2713 24.6805 14.0301C24.6805 15.1606 24.904 16.0046 25.351 16.5621C25.798 17.1041 26.3792 17.3751 27.0944 17.3751Z" fill="#222443"/>
<path d="M17.5383 19.9303C16.9869 19.9303 16.5623 19.7677 16.2643 19.4425C15.9812 19.1018 15.8396 18.6295 15.8396 18.0256V10.0813C15.8396 9.46187 15.9812 8.98955 16.2643 8.66434C16.5623 8.32366 16.9869 8.15331 17.5383 8.15331C18.0747 8.15331 18.4844 8.32366 18.7676 8.66434C19.0656 8.98955 19.2146 9.46187 19.2146 10.0813V18.0256C19.2146 18.6295 19.073 19.1018 18.7899 19.4425C18.5068 19.7677 18.0896 19.9303 17.5383 19.9303ZM17.5383 6.24855C16.9124 6.24855 16.4282 6.10143 16.0855 5.8072C15.7577 5.49748 15.5938 5.06388 15.5938 4.50639C15.5938 3.93341 15.7577 3.49981 16.0855 3.20557C16.4282 2.89586 16.9124 2.741 17.5383 2.741C18.1641 2.741 18.6409 2.89586 18.9687 3.20557C19.2965 3.49981 19.4604 3.93341 19.4604 4.50639C19.4604 5.06388 19.2965 5.49748 18.9687 5.8072C18.6409 6.10143 18.1641 6.24855 17.5383 6.24855Z" fill="#222443"/>
<path d="M1.74335 19.9535C1.17714 19.9535 0.745024 19.7909 0.447014 19.4657C0.149005 19.1405 0 18.6836 0 18.0952V4.99413C0 4.40567 0.149005 3.95658 0.447014 3.64686C0.745024 3.32166 1.17714 3.15906 1.74335 3.15906C2.29467 3.15906 2.71934 3.32166 3.01735 3.64686C3.31535 3.95658 3.46436 4.40567 3.46436 4.99413V10.4994H3.50906L9.45435 4.04175C9.70766 3.76301 9.96842 3.55395 10.2366 3.41457C10.5197 3.25972 10.8401 3.18229 11.1977 3.18229C11.7192 3.18229 12.0917 3.32166 12.3152 3.6004C12.5536 3.87915 12.658 4.20435 12.6281 4.57601C12.5983 4.94768 12.4344 5.29611 12.1364 5.62131L6.16879 11.9628L6.19115 10.4064L12.4493 17.3519C12.7921 17.739 12.9634 18.1339 12.9634 18.5365C12.9783 18.9392 12.8517 19.2799 12.5834 19.5586C12.3301 19.8219 11.9502 19.9535 11.4436 19.9535C11.0114 19.9535 10.6613 19.8606 10.3931 19.6747C10.1398 19.4889 9.85666 19.2179 9.54375 18.8617L3.50906 12.2648H3.46436V18.0952C3.46436 18.6836 3.31535 19.1405 3.01735 19.4657C2.73424 19.7909 2.30957 19.9535 1.74335 19.9535Z" fill="#222443"/>
<path d="M81.9152 19.9535C81.349 19.9535 80.9169 19.7987 80.6189 19.4889C80.3209 19.1792 80.1719 18.7379 80.1719 18.1649V9.91866C80.1719 9.34568 80.3134 8.91208 80.5965 8.61785C80.8945 8.30813 81.3043 8.15327 81.8258 8.15327C82.3622 8.15327 82.772 8.30813 83.0551 8.61785C83.3382 8.91208 83.4798 9.34568 83.4798 9.91866V11.1266H83.2563C83.4351 10.1974 83.8299 9.47731 84.4409 8.96628C85.0518 8.45525 85.8415 8.16876 86.81 8.10681C87.1825 8.07584 87.4657 8.1765 87.6594 8.40879C87.868 8.62559 87.9797 8.98951 87.9946 9.50054C88.0244 9.9806 87.9276 10.36 87.7041 10.6388C87.4955 10.9175 87.1378 11.0878 86.6312 11.1498L86.1172 11.1962C85.2678 11.2737 84.6346 11.5292 84.2174 11.9628C83.815 12.3964 83.6139 13.0236 83.6139 13.8443V18.1649C83.6139 18.7379 83.4649 19.1792 83.1669 19.4889C82.8838 19.7987 82.4665 19.9535 81.9152 19.9535Z" fill="#222443"/>
<g clip-path="url(#clip0_57_858)">
<path d="M72.1112 8.89108L77.4136 5.44632L71.4512 6.35895L72.5323 7.78606L72.1112 8.89108Z" fill="#FFD358"/>
<path d="M78.8755 19.6739L75.4572 14.7072L63.5036 9.55355L63.6774 9.14724L71.6968 7.89262L66.0304 0L61.8618 7.75037L57.5295 8.37496L60.6402 10.0217L55.4072 19.7445L60.5496 16.4665L62.812 11.1714L78.8752 19.6739H78.8755ZM64.432 7.38031L66.2291 3.17443L68.6574 6.7718L64.432 7.38031Z" fill="#FFD358"/>
</g>
<defs>
<clipPath id="clip0_57_858">
<rect width="23.4682" height="19.7445" fill="white" transform="translate(55.4072)"/>
</clipPath>
</defs>
</svg>
