<svg width="85" height="85" fill="none" xmlns="http://www.w3.org/2000/svg"><rect width="85" height="85" rx="42.5" fill="#F73B50"/><path d="M37.93 53.5c-.682 0-1.205-.181-1.568-.544-.362-.363-.544-.864-.544-1.504 0-.661.182-1.163.544-1.504.363-.341.886-.512 1.568-.512h3.232V35.004h2.336l-4.672 2.848c-.49.299-.95.416-1.376.352a1.874 1.874 0 01-1.056-.544 2.294 2.294 0 01-.608-1.056 2.09 2.09 0 01.128-1.248c.17-.427.49-.79.96-1.088l4.448-2.688a7.907 7.907 0 011.344-.672 4.03 4.03 0 011.376-.256c.64 0 1.142.17 1.504.512.384.32.576.821.576 1.504v16.768h2.912c.662 0 1.174.17 1.536.512.363.341.544.843.544 1.504s-.181 1.173-.544 1.536c-.362.341-.874.512-1.536.512H37.93z" fill="#fff"/></svg>