<svg width="208" height="120" fill="none" xmlns="http://www.w3.org/2000/svg"><path d="M-26.94 85.074c.268-3.795 1.44-7.59 3.66-11.158.423-.69 9.623-9.239 10.442-6.686-3.942-12.44-3.83-26.279 1.173-38.325 5.003-12.06 15.036-22.117 27.4-26.349C24.23-.35 33.457-.49 42.36.708c22.483 3.033 45.192 16.673 51.508 38.424 4.904-6.22 14.994-6.827 21.423-2.186 6.43 4.64 9.143 13.315 7.9 21.144 4.267-7.787 8.634-15.7 14.979-21.92 8.111-7.956 20.434-10.876 31.202-7.222 10.796 3.653 20.151 13.654 23.203 24.642 2.431 8.746.806 18.775-5.214 25.588 4.14-2.92 9.991-3.146 14.357-.579 13.665 8.069 2.12 24.812-7.066 31.145-8.309 5.727-18.215 6.517-28.008 6.545-7.518.014-16.081-1.185-20.335-7.377-4.96 5.403-12.562 8.252-19.854 7.448-7.292-.804-14.089-5.262-17.749-11.609-12.534 11.482-30.424 15.319-47.438 15.248-12.252-.042-25.79-2.595-33.28-12.3-10.174 3.724-20.942 7.025-31.682 5.614-13.368-1.777-24.207-14.74-23.246-28.24z" fill="#fff"/></svg>