<svg width="252" height="155" fill="none" xmlns="http://www.w3.org/2000/svg"><path d="M302.923 109.887c-.346-4.901-1.858-9.802-4.719-14.412-.546-.893-12.408-11.934-13.464-8.636 5.083-16.07 4.937-33.943-1.513-49.503-6.45-15.578-19.386-28.568-35.329-34.034C236.948-.451 225.05-.634 213.571.915c-28.988 3.917-58.268 21.536-66.413 49.63-6.322-8.035-19.331-8.818-27.622-2.824-8.29 5.995-11.788 17.2-10.185 27.312-5.502-10.058-11.132-20.279-19.313-28.314-10.459-10.276-26.347-14.047-40.23-9.328C35.886 42.11 23.824 55.028 19.89 69.22c-3.134 11.296-1.039 24.25 6.723 33.05-5.339-3.771-12.882-4.063-18.512-.747-17.619 10.422-2.733 32.048 9.11 40.229 10.714 7.397 23.486 8.418 36.113 8.454 9.693.018 20.734-1.53 26.219-9.529 6.395 6.978 16.198 10.659 25.599 9.62 9.402-1.038 18.166-6.796 22.885-14.995 16.161 14.831 39.228 19.787 61.165 19.696 15.797-.055 33.252-3.353 42.909-15.888 13.119 4.81 27.003 9.074 40.85 7.252 17.237-2.296 31.211-19.04 29.972-36.476z" fill="#fff"/></svg>