<svg width="72" height="72" fill="none" xmlns="http://www.w3.org/2000/svg"><g clip-path="url(#clip0_170_1613)"><path d="M13.777 34.986l23.237 23.237a3.716 3.716 0 006.344-2.629V43.508l22.298-22.299 1.858 1.859a2.629 2.629 0 003.717-3.717L52.649.77a2.629 2.629 0 00-3.717 3.717l1.859 1.858-22.299 22.298H16.406a3.716 3.716 0 00-2.63 6.344z" fill="#AED032"/><path d="M27.253 48.463L8.566 67.15A18.439 18.439 0 010 72a18.439 18.439 0 014.85-8.566l18.687-18.687 3.716 3.716z" fill="#FFD358"/></g><defs><clipPath id="clip0_170_1613"><path fill="#fff" d="M0 0h72v72H0z"/></clipPath></defs></svg>