<svg width="300" height="241" fill="none" xmlns="http://www.w3.org/2000/svg"><path d="M290.315 108.93c-9.196 7.926-22.336 41.109-31.491 32.004l3.689 23.332c.861 5.423 21.891-5.725 23.871-7.441 7.849-6.826 14.688-25.061 13.476-35.148-1.75-14.607-5.21-16.48-9.545-12.747z" fill="#222443"/><path d="M286.208 188.214c7.149-3.865 6.772-16.847-3.555-17.974a11.091 11.091 0 00-1.979-.039 6.66 6.66 0 00.471-1.795c.027-.262.068-.524.068-.786 0 .301.094-1.507-.081-2.109-.121-.433-.215-.76-.296-1.035 1.4-1.127 2.369-2.751 2.585-4.611.444-3.826-2.464-7.376-6.395-7.808 3.002.327 5.789-1.847 6.125-4.769l.149-1.244c.282-2.398-1.172-4.664-3.38-5.581 1.724-5.004-.309-11.384-6.88-12.642 3.622-2.436 3.232-9.301-2.41-9.916a5.755 5.755 0 00-2.315.209.772.772 0 00-.027-.17c1.79-1.703 2.248-4.638 1.09-6.799 1.966-1.533 3.339-3.773 3.635-6.354.593-5.174-3.338-9.982-8.67-10.559l-2.545-.275c-3.419-.38-6.677 1.088-8.737 3.55-.122-.052-.243-.104-.377-.157.525-1.663.242-3.55-.943-4.991l-1.131-1.375c-1.548-1.887-4.214-2.49-6.435-1.625a5.564 5.564 0 00-1.845-2.541c-.121-2.594-2.194-4.834-4.914-5.136a5.623 5.623 0 00-4.201 1.284c-.727-1.834-2.45-3.262-4.564-3.484a5.454 5.454 0 00-2.356.248c-.444-3.93-3.11-7.532-8.347-8.109-5.52-.602-9.034 2.712-10.179 6.734-.78-.8-1.871-1.362-3.312-1.52-2.585-.275-4.389.957-5.304 2.673-.081-2.384-1.589-4.677-4.739-5.03-2.707-.302-4.565 1.087-5.44 2.947-.686-3.629-3.339-6.825-8.239-7.363-7.23-.786-11.027 5.149-10.556 10.599-.956-3.197-3.541-5.856-7.97-6.341-4.349-.472-7.459 1.48-9.142 4.31-.215-4.166-2.894-8.135-8.388-8.725-6.758-.733-10.501 4.389-10.595 9.511-1.36-1.31-3.245-2.24-5.682-2.502-5.129-.564-8.536 2.266-9.909 5.908-.889-3.314-3.501-6.118-8.051-6.616-7.217-.786-11.013 5.123-10.569 10.572a5.658 5.658 0 00-4.74 2.188 6.242 6.242 0 00-1.588-.38c-4.308-.471-6.462 3.288-5.897 6.498a5.439 5.439 0 00-.633 1.965 5.607 5.607 0 00-2.1-.616c-3.42-.38-5.48 1.913-5.91 4.48a5.422 5.422 0 00-3.434-1.729c-2.921-.314-5.91 1.834-6.139 4.769-.094 1.231.013 2.541.62 3.655.174.327.363.629.565.904.579 2.096 2.316 3.759 4.712 4.021.337.04.673.04.996 0-3.15 1.415-3.998 5.817-1.979 8.398-4.672 1.729-4.752 9.772 1.373 10.441.135.013.256.013.378.026-3.178 1.31-5.601 4.205-6.005 7.729-.418 3.602 1.373 7.035 4.308 8.974-4.995 2.908-6.112 10.349-2.49 14.672-1.36-.105-2.76.262-3.892 1.14-2.37 1.834-2.76 5.292-.875 7.585l1.131 1.375a5.46 5.46 0 002.181 1.585c-.538 1.677-.269 3.577.93 5.031l1.13 1.375a5.415 5.415 0 002.249 1.612c-.216 2.633 1.252 5.384 4.725 5.751.93.104 1.75 0 2.477-.249.176 2.305 1.684 4.454 4.74 4.794 2.76.302 4.631-1.139 5.48-3.052.269.472.538.943.82 1.402-2.073 1.532-3.554 3.838-3.85 6.511-.525 4.545 2.45 8.803 6.786 10.165-.943 2.948-.431 6.288 1.656 8.843l1.13 1.376c2.397 2.921 6.301 4.087 9.869 3.327 3.487 3.052 8.94 3.314 12.71.393l1.414-1.1c.121-.092.242-.197.363-.302-.229 2.856 1.966 5.463 4.914 5.791.821.091 1.629-.027 2.37-.262-.364 2.711 1.09 5.659 4.699 6.052 2.719.301 4.577-1.087 5.439-2.948.673 3.629 3.325 6.839 8.239 7.363 3.595.393 6.342-.878 8.132-2.922 1.266.957 2.882 1.625 4.874 1.834 4.228.459 7.27-1.375 8.98-4.074.741.616 1.724 1.061 2.949 1.192 2.908.315 4.82-1.283 5.601-3.34.781.956 1.965 1.663 3.594 1.834 2.518.275 4.268-.891 5.211-2.555-.404 2.738 1.05 5.738 4.685 6.131 3.393.367 5.439-1.873 5.897-4.402.714.786 1.723 1.376 3.056 1.599.283.524.593 1.022.97 1.493a9.432 9.432 0 002.76 2.28c.175.157.35.327.538.51 1.441 1.337 3.797 1.979 5.682 2.254 2.423.353 4.779-.341 6.678-1.677 1.306 2.306 3.662 4.061 7.176 4.441 5.52.603 9.034-2.712 10.178-6.734.781.799 1.872 1.363 3.312 1.52 4.699.511 6.826-3.996 5.695-7.336.512-.157.97-.38 1.387-.655 1.225 2.567 3.662 4.559 7.445 4.978 8.388.917 12.158-7.218 10.004-13.153.175.026.35.066.525.079 4.295.471 6.449-3.262 5.91-6.472 6.395.695 9.155-5.724 7.23-10.126a7.266 7.266 0 003.218-2.555c1.858.21 3.81-.262 5.358-1.467 3.083-2.397 3.609-6.917 1.145-9.93l-.727-.878v.014zM79.933 130.638c-.242 0-.484.013-.727.039.283-.183.552-.38.795-.615-.027.196-.054.379-.068.576zm1.185-7.323a4.154 4.154 0 00-.498-.76c.27-.105.525-.21.768-.354-.095.38-.189.747-.27 1.114zm2.464-8.135a4.84 4.84 0 00-.686-1.166 4.74 4.74 0 001.575-.957c-.31.695-.62 1.402-.902 2.123h.013zm151.693 111.954c-.08-.17-.161-.353-.255-.524l.848-.196a5.149 5.149 0 00-.593.72zm40.458-75.208c-.148-.013-.296-.013-.444-.026-.027-.118-.041-.236-.068-.341a5.473 5.473 0 001.764.511l-1.265-.144h.013z" fill="#fff"/><path d="M135.188 40.31c-7.755 6.014-16.789 23.306-28.219 24.027.081-2.529-.068-5.005-.552-7.363-4.093-20.292-21.044-20.528-36.971-14.62C72.96 27.133 86.383 6.264 68.8.761 53.734-3.955 47.595 14.372 48.43 24.67c.875 10.952 4.254 16.258 10.541 22.467a91.47 91.47 0 00-9.357 5.803C44.741 56.412 38.911 60.722 33 65.66 11.432 83.7-11.348 110.084 6.316 134.385c27.506 37.859 68.044-.079 83.029-24.93 5.466-9.079 12.481-21.51 15.779-33.694 15.012 7.192 38.896 3.275 44.457-13.834 3.083-9.458-2.235-31.034-14.393-21.615z" fill="#222443"/><path d="M61.678 64.73c-3.42 1.612-7.256 3.119-11.08 2.07-3.864-1.047-5.534-6.025-6.543-9.261-1.158-3.681-7.096-2.11-5.938 1.585 1.656 5.292 4.362 11.083 10.07 13.166 5.615 2.056 11.458 0 16.588-2.398 3.568-1.676.444-6.838-3.11-5.174l.013.013zM92.75 91.258c-4.577-.065-9.545-.55-12.816-4.021-2.922-3.092-1.805-8.385-.822-11.948 1.037-3.734-4.9-5.319-5.937-1.585-1.589 5.738-2.087 12.301 1.952 17.227 4.2 5.109 11.27 6.236 17.624 6.314 3.971.052 3.958-5.934 0-5.987z" fill="#fff"/></svg>