<svg width="387" height="162" fill="none" xmlns="http://www.w3.org/2000/svg"><path d="M-94.494 154.626c5.79 4.408 12.513 6.335 19.646 7.045 4.813.481 9.602.234 14.386-.402 2.769-.367 3.038-.188 3.78 2.509 2.17 7.888 6.546 14.196 13.617 18.381 9.92 5.87 20.203 5.992 30.65 1.411 4.334-1.901 7.937-4.764 10.918-8.429 1.455-1.789 1.482-1.825 3.652-1.001 5.371 2.037 10.805 2.714 16.413 1.044 1.914-.568 3.677-1.411 5.357-2.482 1.594-1.02 1.787-.952 2.17.835.778 3.624 1.814 7.17 3.294 10.566 6.151 14.125 16.47 23.32 31.796 26.273 10.789 2.077 21.221.568 31.21-3.97 1.218-.554 2.216-1.065 3.432.215 6.872 7.227 15.596 11.134 25.066 13.546 9.556 2.436 19.241 2.885 28.86.574a60.404 60.404 0 003.888-1.071c3.12-.974 6.019-2.173 8.7-3.587l.019-.008c12.29-6.485 20.054-17.502 23.973-32.28.353-1.329.563-2.694.906-4.024.38-1.479.511-1.56 1.941-.938 3.408 1.485 6.908 2.548 10.612 3.054 5.681.78 11.134-.112 16.494-1.89 2.306-.764 2.328-.818 3.571 1.34 3.146 5.46 7.429 9.707 13.352 12.002 9.198 3.559 17.699 2.357 25.276-4.163.13-.111.247-.242.372-.356 1.578-1.438 1.608-1.471 3.112-.052 1.634 1.547 3.421 2.866 5.409 3.921 7.451 3.951 15.245 4.413 23.279 2.268 7.454-1.991 13.712-5.979 18.591-11.909 1.93-2.347 3.853-2.719 6.521-1.751 6.309 2.284 12.717 4.255 19.35 5.38 7.938 1.349 15.873 1.828 23.785-.222a23.855 23.855 0 007.054-3.089c2.412-1.564 4.15-3.679 4.737-6.496.055-.266.126-.511.207-.729.452-1.204 1.308-1.718 2.687-1.946 2.839-.473 5.431-1.615 7.751-3.331 6.779-5.011 6.913-13.674.299-18.894-2.056-1.623-4.349-2.755-6.897-3.22a14.439 14.439 0 00-.816-.125c-1.234-.152-1.808-.636-1.922-1.906-.705-7.893-7.319-15.269-17.498-17.203-1.594-.301-3.214-.603-4.873-.524-6.707.383-12.82 2.36-17.917 6.9-1.998 1.779-1.699 1.917-3.948.014-3.729-3.154-7.863-5.519-12.578-6.855-6.029-1.704-11.904-1.093-17.683 1.113-1.283.489-2.556 1.022-3.861 1.446-1.773.574-2.296.411-3.016-1.33-1.085-2.618-1.972-5.315-2.981-7.966-2.121-5.585-4.835-10.849-8.893-15.292-6.519-7.134-14.503-11.172-24.315-11.088-4.678.038-9.007 1.43-12.874 4.005-1.997 1.33-3.658 1.311-5.695.115-6.037-3.551-12.42-6.238-19.382-7.464-6.524-1.147-12.861-.886-19.015.992a39.777 39.777 0 00-4.678 1.757c-.234.106-.478.201-.699.332-.073.04-.141.078-.212.114-1.003.516-1.754.359-2.148-.933-.15-.49-.395-.951-.62-1.414-7.713-15.732-20.435-24.628-37.606-27.236a32.064 32.064 0 00-12.306.522c-.419.101-.84.182-1.256.297-1.21.334-1.695-.106-1.809-1.37-.245-2.739-.353-5.485-.81-8.204-1.975-11.724-6.834-22.121-14.468-31.195C108.236 11.244 91.835 3.18 72.61.651A73.593 73.593 0 0059.146.096 67.537 67.537 0 0046.525 1.96a68.222 68.222 0 00-12.66 4.492 57.797 57.797 0 00-7.582 4.266 54.937 54.937 0 00-4.84 3.632c-5.573 4.682-10.147 10.43-13.75 17.16C3.384 39.556.966 48.18-.068 57.216l-.008.06c-.26 2.284-.234 2.273-2.45 1.892h-.005c-5.486-.94-10.78-.666-15.711 2.295-2.255 1.352-4.112 3.122-5.736 5.128-.962 1.191-2.053 1.615-3.546 1.642-3.88.068-7.729.503-11.373 1.96-9.371 3.75-14.868 10.496-15.866 20.676-.22 2.243-.204 2.243-2.553 2.635-10.509 1.748-18.327 6.846-23.606 15.106-1.286 2.01-2.418 4.204-3.405 6.586-.13.315-.269.628-.397.946a8.773 8.773 0 00-.264.734c-.37 1.226-1.163 1.74-2.445 1.879-9.469 1.022-14.157 8.336-15.259 15.465-1.283 8.372 1.428 15.256 8.197 20.406z" fill="#AED032"/></svg>