<?xml version="1.0" encoding="UTF-8"?><!DOCTYPE svg PUBLIC "-//W3C//DTD SVG 1.1//EN" "http://www.w3.org/Graphics/SVG/1.1/DTD/svg11.dtd"><svg xmlns="http://www.w3.org/2000/svg" xmlns:xlink="http://www.w3.org/1999/xlink"><defs>
<clipPath id="clip0_74_1192">
<rect width="28" height="28" fill="white"/>
</clipPath>
</defs><symbol id="comments-arrow-next" viewBox="0 0 48 48"><g fill="none">
<rect width="48" height="48" rx="24" transform="matrix(-1 0 0 1 47.999 0)" fill="white"/>
<path d="M28.4991 24C28.4991 23.8082 28.4258 23.6162 28.2793 23.4698L20.7793 15.9698C20.4863 15.6767 20.0117 15.6767 19.7188 15.9698C19.4259 16.2629 19.4258 16.7374 19.7188 17.0303L26.6886 24L19.7188 30.9698C19.4258 31.2629 19.4258 31.7374 19.7188 32.0303C20.0119 32.3232 20.4864 32.3234 20.7793 32.0303L28.2793 24.5303C28.4258 24.3839 28.4991 24.1919 28.4991 24Z" fill="#222443"/>
</g></symbol><symbol id="comments-arrow-prev" viewBox="0 0 48 48"><g fill="none">
<rect x="-0.000976562" width="48" height="48" rx="24" fill="white"/>
<path d="M19.499 24C19.499 23.8082 19.5723 23.6162 19.7187 23.4698L27.2187 15.9698C27.5118 15.6767 27.9864 15.6767 28.2792 15.9698C28.5721 16.2629 28.5723 16.7374 28.2792 17.0303L21.3095 24L28.2792 30.9698C28.5723 31.2629 28.5723 31.7374 28.2792 32.0303C27.9862 32.3232 27.5116 32.3234 27.2187 32.0303L19.7187 24.5303C19.5723 24.3839 19.499 24.1919 19.499 24Z" fill="#222443"/>
</g></symbol><symbol id="explore-section-pencil" viewBox="0 0 28 28"><g fill="none">
<g clip-path="url(#clip0_74_1192)">
<path d="M8.05903 25.3829L2.31689 19.6985C2.31689 19.6985 16.459 6.07841 22.1585 0.464338C24.2479 -1.604 29.1798 3.78494 27.7301 5.19198C21.8458 11.003 8.05903 25.3829 8.05903 25.3829Z" fill="#F73B50"/>
<path d="M6.5096 21.2462C4.76138 19.7548 2.89945 19.0794 2.34514 19.7126C1.79082 20.3457 2.52991 22.3578 4.27813 23.8492C6.02635 25.3407 7.63244 25.9176 8.18676 25.2703C8.74107 24.6231 8.25783 22.7236 6.5096 21.2462Z" fill="#FFD358"/>
<path d="M10.3188 16.8844C9.48021 16.0402 8.51372 15.2944 7.46194 14.7316C6.65179 15.5196 5.89849 16.2372 5.23047 16.8844C5.71372 17.0814 6.18275 17.3206 6.62336 17.5879C7.36245 18.0382 8.0589 18.5869 8.67006 19.1919C9.28123 19.797 9.83555 20.4864 10.2904 21.204C10.532 21.5698 10.7452 21.9638 10.93 22.3578C11.5269 21.7387 12.1807 21.0492 12.9056 20.3176C12.5929 19.7829 12.2376 19.2482 11.868 18.7417C11.4132 18.0944 10.8873 17.4613 10.3188 16.8844Z" fill="#FFD358"/>
<path d="M24.8448 2.99698C23.9068 2.13869 22.7981 1.46331 21.6042 1.01306C20.8509 1.74472 19.9981 2.58894 19.0601 3.50351C19.5007 3.64422 19.9271 3.82713 20.3392 4.05226C21.7037 4.81206 22.7981 5.97989 23.6367 7.28844C23.9068 7.71055 24.1484 8.13266 24.3758 8.58291C25.3423 7.59799 26.2519 6.69748 27.0479 5.89547C26.4936 4.79799 25.7545 3.81306 24.8448 2.99698Z" fill="#FFD358"/>
<path d="M7.00706 23.5256C6.68016 22.597 5.88422 21.9357 5.05986 21.3869C4.77559 21.204 4.47711 21.0211 4.136 20.9367C3.80909 20.8523 3.42534 20.8663 3.14107 21.0492C2.91366 21.1899 2.75732 21.4291 2.61519 21.6402C1.9898 22.597 1.35021 23.5538 0.724831 24.5105C0.369501 25.0452 0.0141706 25.6221 -4.25644e-05 26.2553C-0.0142558 26.8322 0.312648 27.4231 0.81011 27.7186C1.30757 28.0141 1.94717 28.0985 2.6294 27.6623L2.85681 27.5216C3.95123 26.7055 5.08828 25.9317 6.25376 25.2C6.55224 25.0171 6.85072 24.8201 7.00706 24.5105C7.16341 24.2291 7.12077 23.8633 7.00706 23.5256Z" fill="#F73B50"/>
</g>

</g></symbol><symbol id="plans-icon" viewBox="0 0 20 20"><g fill="none">
<path d="M10 0C4.48622 0 0 4.48622 0 10C0 15.5138 4.48622 20 10 20C15.5138 20 20 15.5138 20 10C20 4.48622 15.5138 0 10 0ZM15.589 7.36842L9.198 13.7093C8.82206 14.0852 8.22055 14.1103 7.81955 13.7343L4.43609 10.6516C4.03509 10.2757 4.01003 9.64912 4.3609 9.24812C4.73684 8.84712 5.36341 8.82206 5.76441 9.198L8.44612 11.6541L14.1604 5.93985C14.5614 5.53885 15.188 5.53885 15.589 5.93985C15.99 6.34085 15.99 6.96742 15.589 7.36842Z" fill="#AED032"/>
</g></symbol><symbol id="reviews-swiper-arrow-left" viewBox="0 0 24 24"><g fill="none">
<path d="M7.49995 12C7.49995 11.8082 7.57327 11.6162 7.7197 11.4698L15.2197 3.9698C15.5128 3.67673 15.9873 3.67673 16.2802 3.9698C16.5731 4.26286 16.5733 4.73742 16.2802 5.0303L9.31045 12L16.2802 18.9698C16.5733 19.2629 16.5733 19.7374 16.2802 20.0303C15.9871 20.3232 15.5126 20.3234 15.2197 20.0303L7.7197 12.5303C7.57327 12.3839 7.49995 12.1919 7.49995 12Z" fill="white"/>
</g></symbol><symbol id="reviews-swiper-arrow-right" viewBox="0 0 24 24"><g fill="none">
<path d="M16.5 12C16.5 11.8082 16.4267 11.6162 16.2803 11.4698L8.7803 3.9698C8.48723 3.67673 8.01267 3.67673 7.7198 3.9698C7.42692 4.26286 7.42673 4.73742 7.7198 5.0303L14.6895 12L7.7198 18.9698C7.42673 19.2629 7.42673 19.7374 7.7198 20.0303C8.01286 20.3232 8.48742 20.3234 8.7803 20.0303L16.2803 12.5303C16.4267 12.3839 16.5 12.1919 16.5 12Z" fill="white"/>
</g></symbol><symbol id="teacher-bg-decor-wave" viewBox="0 0 387 30"><g fill="none">
<path d="M48.0491 10.4878L43.7388 7.28397C30.3825 -2.6439 11.7671 -1.28034 0 10.4878L0 30L387 30V10.4878C374.418 -1.24216 355.098 -1.85069 341.802 9.06423L340.068 10.4878L339.118 9.78158C323.408 -1.89595 301.824 -1.60663 286.432 10.4878C272.08 -1.29503 251.158 -1.40071 236.893 10.4878C224.072 -1.46549 204.646 -2.84856 190.26 7.16766L185.492 10.4878C173.254 -0.921579 154.053 -1.02556 141.912 10.4878C129.956 -1.05027 111.11 -1.36901 98.7697 9.75813L97.9605 10.4878C84.3271 -1.41539 64.1762 -2.00613 49.8689 9.07794L48.0491 10.4878Z" fill="#FFF6F1"/>
</g></symbol></svg>