<?xml version="1.0" encoding="UTF-8"?><!DOCTYPE svg PUBLIC "-//W3C//DTD SVG 1.1//EN" "http://www.w3.org/Graphics/SVG/1.1/DTD/svg11.dtd"><svg xmlns="http://www.w3.org/2000/svg" xmlns:xlink="http://www.w3.org/1999/xlink"><symbol id="comments-arrow-next" viewBox="0 0 48 48"><g fill="none">
<rect width="48" height="48" rx="24" transform="matrix(-1 0 0 1 47.999 0)" fill="white"/>
<path d="M28.4991 24C28.4991 23.8082 28.4258 23.6162 28.2793 23.4698L20.7793 15.9698C20.4863 15.6767 20.0117 15.6767 19.7188 15.9698C19.4259 16.2629 19.4258 16.7374 19.7188 17.0303L26.6886 24L19.7188 30.9698C19.4258 31.2629 19.4258 31.7374 19.7188 32.0303C20.0119 32.3232 20.4864 32.3234 20.7793 32.0303L28.2793 24.5303C28.4258 24.3839 28.4991 24.1919 28.4991 24Z" fill="#222443"/>
</g></symbol><symbol id="comments-arrow-prev" viewBox="0 0 48 48"><g fill="none">
<rect x="-0.000976562" width="48" height="48" rx="24" fill="white"/>
<path d="M19.499 24C19.499 23.8082 19.5723 23.6162 19.7187 23.4698L27.2187 15.9698C27.5118 15.6767 27.9864 15.6767 28.2792 15.9698C28.5721 16.2629 28.5723 16.7374 28.2792 17.0303L21.3095 24L28.2792 30.9698C28.5723 31.2629 28.5723 31.7374 28.2792 32.0303C27.9862 32.3232 27.5116 32.3234 27.2187 32.0303L19.7187 24.5303C19.5723 24.3839 19.499 24.1919 19.499 24Z" fill="#222443"/>
</g></symbol><symbol id="teacher-bg-decor-wave" viewBox="0 0 387 30"><g fill="none">
<path d="M48.0491 10.4878L43.7388 7.28397C30.3825 -2.6439 11.7671 -1.28034 0 10.4878L0 30L387 30V10.4878C374.418 -1.24216 355.098 -1.85069 341.802 9.06423L340.068 10.4878L339.118 9.78158C323.408 -1.89595 301.824 -1.60663 286.432 10.4878C272.08 -1.29503 251.158 -1.40071 236.893 10.4878C224.072 -1.46549 204.646 -2.84856 190.26 7.16766L185.492 10.4878C173.254 -0.921579 154.053 -1.02556 141.912 10.4878C129.956 -1.05027 111.11 -1.36901 98.7697 9.75813L97.9605 10.4878C84.3271 -1.41539 64.1762 -2.00613 49.8689 9.07794L48.0491 10.4878Z" fill="#FFF6F1"/>
</g></symbol></svg>