<svg width="126" height="64" viewBox="0 0 126 64" fill="none" xmlns="http://www.w3.org/2000/svg">
<path d="M9.82462 13.7577C9.04746 11.7705 9.38484 9.48555 10.1007 7.56382C10.8539 5.54167 12.1654 3.52506 14.1256 2.46155C14.2229 4.5925 13.5758 6.69786 12.8689 8.59632C12.2332 10.3039 11.4531 12.1231 10.1649 13.5353C9.96701 14.6053 9.81532 15.6724 9.70865 16.7345C10.1356 15.6124 10.8278 14.5897 11.6916 13.7673C12.8037 12.7083 14.458 11.8912 16.0108 12.3744C15.556 14.1014 14.5193 15.7569 13.2914 16.9183C12.325 17.8324 11.0493 19.0037 9.54656 19.0497C9.48466 20.6128 9.51965 22.1616 9.64748 23.6894C9.85948 22.5713 10.3137 21.5185 10.97 20.7345C11.8716 19.6572 13.2084 18.3411 14.9156 18.5612C14.8224 20.3092 14.1294 22.1001 13.1643 23.4458C12.3974 24.5152 11.3851 25.8782 9.94805 26.2303C10.1782 27.7315 10.4987 29.2078 10.9053 30.6523C10.9092 29.5462 11.152 28.4606 11.6338 27.5898C12.3127 26.3619 13.3701 24.8305 15.0793 24.7108C15.3298 26.4256 14.9903 28.3002 14.3055 29.7911C13.7582 30.9829 13.0285 32.5027 11.6985 33.1315C12.257 34.6857 12.918 36.1964 13.6758 37.6547C13.4097 36.3978 13.4204 35.0734 13.7352 33.8817C14.1691 32.2389 15.2463 30.5132 16.9755 30.0124C17.5868 31.8261 17.5025 33.8502 17.1474 35.6937C16.8551 37.2115 16.2809 38.9941 14.9938 39.9801C15.8353 41.3463 16.7662 42.6576 17.7814 43.9052C17.236 42.6816 16.9649 41.3434 17.1103 40.1182C17.3222 38.3333 17.8207 36.4239 19.6328 35.4723C20.6608 37.2569 20.899 39.259 20.9864 41.2364C21.0569 42.8351 20.8281 44.8069 19.7245 46.1075C20.9384 47.3772 22.2482 48.5657 23.6472 49.6615C22.744 48.4959 22.1116 47.128 21.9776 45.7753C21.7885 43.864 21.881 41.76 23.5668 40.3574C25.0086 41.8725 25.8689 44.1038 26.2906 46.0417C26.6635 47.7552 27.0527 49.7833 26.165 51.4696C27.9454 52.6388 29.846 53.6689 31.8555 54.5413C30.4415 53.5275 29.284 52.1366 28.7325 50.7006C28.0099 48.8181 27.5629 46.575 28.9706 44.6897C30.8566 45.9051 32.2427 47.9787 33.3347 49.8699C34.2718 51.4927 35.2417 53.7324 34.7605 55.6651C35.8731 56.0449 37.0144 56.3785 38.183 56.663L38.1135 56.9516C36.9405 56.666 35.7948 56.3313 34.6777 55.9504C33.895 58.2774 31.3311 59.0462 29.2576 59.3856C26.3032 59.8692 22.7853 58.9322 20.2631 57.0447C21.5943 55.1519 24.3104 54.9599 26.3585 54.815L26.3852 54.8132C28.6288 54.6545 31.0555 54.8665 33.3117 55.4563C30.7052 54.458 28.2663 53.2028 26.0174 51.7273L25.9843 51.78C24.7519 53.7904 22.2777 53.8688 20.3356 53.7417C17.7002 53.5691 14.6576 51.9569 12.8967 49.7284C14.553 48.2662 16.9995 48.6755 18.8951 48.9925L18.9043 48.994C21.02 49.3478 23.3319 50.1198 25.2726 51.3083C25.0877 51.1619 24.9068 51.0069 24.731 50.8444C22.8442 49.491 21.1037 47.977 19.5243 46.3263C19.5059 46.3447 19.4873 46.3631 19.4686 46.3813C17.9329 47.9356 15.6962 47.5286 13.9507 47.0228C11.6148 46.3459 9.1923 44.3036 8.03138 41.9591C9.83037 40.945 11.9812 41.7807 13.6541 42.4417C15.4903 43.1673 17.433 44.3279 18.9268 45.8074C18.7728 45.6119 18.6259 45.4078 18.487 45.1964C17.0986 43.6198 15.8496 41.9316 14.7516 40.1505L14.6965 40.1852C12.9592 41.3132 10.9908 40.4964 9.43072 39.6931C7.31551 38.6039 5.61573 36.2104 4.88126 33.8564C6.75768 33.2517 8.61159 34.4385 10.0528 35.3785C11.629 36.4064 13.2256 37.8725 14.3216 39.5539C14.2411 39.3882 14.1661 39.2188 14.097 39.0463C13.044 37.1979 12.1494 35.2575 11.4252 33.2446L11.3879 33.2574L11.3848 33.2585C9.80517 33.8627 8.04606 32.9233 6.89922 31.8932C5.30526 30.4615 4.18178 28.2606 3.9184 26.1103C5.56533 25.8956 7.11696 27.1776 8.17781 28.271C9.39891 29.5295 10.4949 31.0169 11.1687 32.6689C11.1195 32.4895 11.0773 32.3072 11.0418 32.1231C10.4287 30.2315 9.9642 28.2807 9.65801 26.2864L9.63415 26.2894L9.62608 26.2907C7.95603 26.5712 6.41198 25.2938 5.48949 24.054C4.19523 22.3143 3.52804 19.9066 3.69527 17.7243C5.35884 17.8414 6.62556 19.4336 7.44701 20.7216C8.39776 22.2127 9.18618 23.9002 9.53152 25.6656C9.521 25.5252 9.51476 25.3839 9.51256 25.2422C9.25897 23.2124 9.16856 21.1411 9.25126 19.0441L9.24649 19.0438C7.54855 18.9823 6.29368 17.3962 5.64582 15.9893C4.71881 13.976 4.56956 11.4311 5.18831 9.28641C6.80661 9.74339 7.7088 11.6111 8.2413 13.0487C8.85528 14.7063 9.2838 16.5142 9.28722 18.3116C9.37555 16.8037 9.55341 15.2838 9.82462 13.7577Z" fill="#222443"/>
<path d="M43.2663 10.0375V17.2372C43.2663 20.4039 40.4157 21.9274 36.0954 21.9274C32.0572 21.9274 29.1621 20.4189 29.1621 16.8638V10.0375H33.1855V16.8638C33.1855 18.1335 34.2693 18.9251 36.2587 18.9251C38.1591 18.9251 39.2875 18.1036 39.2875 16.8787V10.0375H43.2663Z" fill="#222443"/>
<path d="M56.6659 18.6413V21.7631H45.5459V10.0375H49.5693V18.6413H56.6659Z" fill="#222443"/>
<path d="M68.6232 12.9801V10.0375H54.7119V12.9801H59.6262V21.7631H63.6941V12.9801H68.6232Z" fill="#222443"/>
<path fill-rule="evenodd" clip-rule="evenodd" d="M82.895 11.2326C83.4295 11.7852 83.6828 12.547 83.6828 13.6074C83.6828 14.5187 83.4601 15.2954 83.0882 15.8182C82.6723 16.3858 82.0338 16.8638 81.2472 16.9833L84.7666 21.7631H80.3419L77.4464 17.6255H73.8391V21.7631H69.875V10.0375H79.1541C80.9952 10.0375 82.1977 10.4856 82.895 11.2326ZM79.6887 14.5934C79.7927 14.4141 79.822 14.1751 79.822 13.981C79.822 13.7569 79.7927 13.5178 79.6887 13.3686C79.4807 12.9801 79.0648 12.8756 78.4409 12.8756H73.8539V15.0116H78.5155C79.1541 15.0116 79.5407 14.8921 79.6887 14.5934Z" fill="#222443"/>
<path fill-rule="evenodd" clip-rule="evenodd" d="M90.1216 19.5974H96.4167L97.4406 21.7631H101.732L95.8527 10.0375H91.0574L84.8369 21.7631H89.0377L90.1216 19.5974ZM95.1542 16.9683H91.4281L92.8985 14.1453L93.3438 13.0697L93.7597 14.1303L95.1542 16.9683Z" fill="#222443"/>
<path fill-rule="evenodd" clip-rule="evenodd" d="M82.4697 23.9714C79.9791 23.9714 78.6689 25.1591 78.6689 26.9044C78.6689 28.8742 80.0439 29.8735 82.4697 29.8735C85.1402 29.8735 86.2632 28.7148 86.2632 26.9044C86.2632 25.065 84.9959 23.9714 82.4697 23.9714ZM82.4697 28.418C81.0519 28.418 80.6409 27.8314 80.6409 26.9261C80.6409 26.0354 81.0874 25.4489 82.4624 25.4489C83.9671 25.4489 84.3047 26.1078 84.3047 26.9261C84.3047 27.7952 83.8949 28.418 82.4697 28.418Z" fill="#222443"/>
<path d="M74.9781 29.7866V26.4192H71.2208V27.6431H73.229C73.2147 27.7372 73.1426 27.9183 73.049 28.0268C72.8403 28.2731 72.2861 28.4903 71.5663 28.4903C70.8177 28.4903 70.3355 28.2948 70.0764 27.9906C69.9037 27.7661 69.8029 27.4475 69.8029 26.9696C69.8029 26.4699 69.9037 26.1296 70.0979 25.9051C70.3787 25.5865 70.8537 25.4489 71.552 25.4489C72.1782 25.4489 72.61 25.5936 72.8116 25.7746C72.9411 25.8833 73.0418 26.0354 73.0635 26.1367H74.9277C74.9206 25.9557 74.8629 25.6661 74.7621 25.4561C74.3159 24.5436 73.2794 24.0005 71.516 24.0005C69.9828 24.0005 68.9535 24.4711 68.385 25.1809C68.0106 25.6661 67.8379 26.2743 67.8379 26.9551C67.8379 27.7083 68.0394 28.3527 68.3705 28.7801C68.9319 29.5115 69.9324 29.8735 71.1344 29.8735C72.1926 29.8735 72.9195 29.6201 73.3802 29.2363L73.4306 29.7866H74.9781Z" fill="#222443"/>
<path d="M55.3707 26.3468C56.8318 26.5061 57.458 27.0276 57.458 28.0197C57.458 29.2218 56.292 29.8735 53.9958 29.8735C51.8581 29.8735 50.9368 29.2652 50.584 28.4687C50.5049 28.2804 50.4689 28.0486 50.4473 27.9038H52.5203C52.5347 27.9906 52.5851 28.121 52.657 28.2079C52.8298 28.418 53.312 28.541 54.1326 28.541C55.1907 28.541 55.4426 28.3889 55.4426 28.1066C55.4426 27.8023 55.1835 27.7372 54.2262 27.6358C53.8447 27.5996 53.2401 27.5417 52.9882 27.52C51.16 27.3534 50.4834 26.7813 50.4834 25.8037C50.4834 24.7898 51.6782 24.015 53.8591 24.015C55.7953 24.015 56.695 24.5943 57.0694 25.3185C57.1845 25.5358 57.2564 25.7819 57.2781 25.9557H55.2051C55.1978 25.8761 55.1691 25.7964 55.0899 25.695C54.9315 25.485 54.5284 25.3474 53.8087 25.3474C52.7938 25.3474 52.5275 25.4705 52.5275 25.7312C52.5275 26.0209 52.8659 26.0862 53.9958 26.2092C54.4349 26.2454 55.1331 26.3178 55.3707 26.3468Z" fill="#222443"/>
<path fill-rule="evenodd" clip-rule="evenodd" d="M34.7061 24.5871C35.0875 24.8912 35.3034 25.4054 35.3034 26.1513C35.3034 26.7597 35.1524 27.2158 34.8644 27.5344C34.4758 27.9834 33.8351 28.1862 33.0002 28.1935C32.741 28.2008 30.5241 28.1935 30.5241 28.1935V29.7866H28.5879V24.1019H32.9713C33.7488 24.1019 34.339 24.2612 34.7061 24.5871ZM33.2737 26.593C33.3312 26.4917 33.3601 26.3613 33.3601 26.1802C33.3601 25.992 33.324 25.8326 33.2593 25.7457C33.137 25.5647 32.9066 25.4778 32.5323 25.4778H30.5097V26.8682H32.5179C32.9209 26.8682 33.1585 26.7741 33.2737 26.593Z" fill="#222443"/>
<path fill-rule="evenodd" clip-rule="evenodd" d="M42.3857 24.6813C42.6449 24.9492 42.7673 25.3185 42.7673 25.8326C42.7673 26.2744 42.6592 26.651 42.4793 26.9044C42.2778 27.1796 41.9683 27.4113 41.5868 27.4693L43.2927 29.7866H41.1477L39.7441 27.7807H37.995V29.7866H36.0732V24.1019H40.5719C41.4645 24.1019 42.0475 24.3192 42.3857 24.6813ZM40.831 26.3107C40.8814 26.2238 40.8957 26.1078 40.8957 26.0137C40.8957 25.9051 40.8814 25.7892 40.831 25.7168C40.7302 25.5285 40.5287 25.4778 40.2265 25.4778H38.0023V26.5134H40.2624C40.5719 26.5134 40.7591 26.4554 40.831 26.3107Z" fill="#222443"/>
<path d="M49.8637 29.7866V28.3745H45.8114V27.6358H49.6982V26.2527H45.8114V25.5213H49.8133V24.1019H43.9111V29.7866H49.8637Z" fill="#222443"/>
<path d="M64.4621 25.5285V24.1019H57.7178V25.5285H60.1002V29.7866H62.0724V25.5285H64.4621Z" fill="#222443"/>
<path d="M67.0556 24.1019V29.7866H65.0762V24.1019H67.0556Z" fill="#222443"/>
<path d="M77.888 24.1019V29.7866H75.9082V24.1019H77.888Z" fill="#222443"/>
<path d="M93.9008 24.1019V27.5924C93.9008 29.1277 92.5184 29.8664 90.4241 29.8664C88.4669 29.8664 87.0625 29.1349 87.0625 27.4113V24.1019H89.0137V27.4113C89.0137 28.0269 89.5385 28.4107 90.5036 28.4107C91.4248 28.4107 91.9716 28.0125 91.9716 27.4186V24.1019H93.9008Z" fill="#222443"/>
<path d="M101.671 28.0197C101.671 27.0276 101.045 26.5061 99.5839 26.3468C99.3454 26.3178 98.6481 26.2454 98.209 26.2092C97.0786 26.0862 96.7398 26.0209 96.7398 25.7312C96.7398 25.4705 97.0064 25.3474 98.0218 25.3474C98.7411 25.3474 99.1448 25.485 99.3026 25.695C99.3821 25.7964 99.4102 25.8761 99.4176 25.9557H101.491C101.469 25.7819 101.397 25.5358 101.282 25.3185C100.908 24.5943 100.008 24.015 98.0719 24.015C95.8908 24.015 94.6956 24.7898 94.6956 25.8037C94.6956 26.7813 95.3733 27.3534 97.201 27.52L97.3184 27.5305L97.5141 27.5484L98.4389 27.6358C99.3968 27.7372 99.6549 27.8023 99.6549 28.1066C99.6549 28.3889 99.4041 28.541 98.346 28.541C97.5251 28.541 97.0431 28.418 96.8694 28.2079C96.7985 28.121 96.7471 27.9906 96.7337 27.9038H94.6602C94.6822 28.0486 94.7177 28.2804 94.7972 28.4687C95.1495 29.2652 96.0706 29.8735 98.209 29.8735C100.505 29.8735 101.671 29.2218 101.671 28.0197Z" fill="#222443"/>
<path fill-rule="evenodd" clip-rule="evenodd" d="M51.3381 31.9633C49.7196 31.9633 48.8682 32.7352 48.8682 33.8695C48.8682 35.1496 49.7617 35.7991 51.3381 35.7991C53.0738 35.7991 53.8035 35.0461 53.8035 33.8695C53.8035 32.674 52.9802 31.9633 51.3381 31.9633ZM51.3381 34.8531C50.4166 34.8531 50.1499 34.4718 50.1499 33.8835C50.1499 33.3047 50.44 32.9234 51.3335 32.9234C52.3111 32.9234 52.5311 33.3517 52.5311 33.8835C52.5311 34.4483 52.2644 34.8531 51.3381 34.8531Z" fill="#222443"/>
<path d="M42.3367 34.5942C42.3367 33.9494 41.9297 33.6104 40.9801 33.5069C40.8257 33.4881 40.372 33.4411 40.0866 33.4175C39.3521 33.3374 39.1323 33.2951 39.1323 33.1069C39.1323 32.9374 39.3054 32.8574 39.965 32.8574C40.4328 32.8574 40.6947 32.9468 40.7977 33.0833C40.849 33.1492 40.8678 33.2009 40.8725 33.2527H42.2198C42.2057 33.1398 42.159 32.9798 42.0841 32.8386C41.8408 32.3679 41.256 31.9915 39.9976 31.9915C38.5803 31.9915 37.8038 32.495 37.8038 33.1539C37.8038 33.7894 38.2434 34.1612 39.4316 34.2694C39.5954 34.2835 39.9883 34.3212 40.2363 34.3447C40.8585 34.4105 41.0268 34.453 41.0268 34.6507C41.0268 34.8342 40.8631 34.933 40.1755 34.933C39.6421 34.933 39.3287 34.853 39.2164 34.7165C39.1697 34.66 39.1369 34.5753 39.1276 34.5188H37.7803C37.7943 34.613 37.8177 34.7635 37.8692 34.886C38.0985 35.4036 38.6973 35.799 40.0866 35.799C41.5789 35.799 42.3367 35.3755 42.3367 34.5942Z" fill="#222443"/>
<path fill-rule="evenodd" clip-rule="evenodd" d="M32.9965 34.6977C32.9965 34.9519 32.9263 35.2013 32.786 35.366C32.5708 35.6296 32.1684 35.7425 31.6493 35.7425H28.3887V32.0479H31.5603C32.0655 32.0479 32.3884 32.1703 32.5661 32.3538C32.7252 32.5138 32.7954 32.7256 32.7954 32.9656C32.7954 33.2058 32.7392 33.4034 32.6176 33.5493C32.5193 33.6717 32.3509 33.7658 32.1732 33.7894C32.4351 33.8223 32.6831 33.9541 32.8234 34.1376C32.9403 34.2741 32.9965 34.4812 32.9965 34.6977ZM31.42 33.4034C31.4667 33.3516 31.4949 33.2763 31.4949 33.1869C31.4949 33.0975 31.4667 33.0221 31.4059 32.9704C31.3405 32.9091 31.2188 32.8856 31.041 32.8856H29.6143V33.4881H31.0738C31.2328 33.4881 31.3546 33.4646 31.42 33.4034ZM31.2095 34.9048C31.4293 34.9048 31.5603 34.8765 31.6352 34.806C31.6819 34.7589 31.7006 34.6883 31.7006 34.5989C31.7006 34.5047 31.6773 34.4342 31.6211 34.3777C31.551 34.3165 31.4293 34.2882 31.2235 34.2882H29.6143V34.9048H31.2095Z" fill="#222443"/>
<path d="M37.4009 34.8248V35.7425H33.5322V32.0479H37.3681V32.9704H34.7671V33.4458H37.2933V34.3447H34.7671V34.8248H37.4009Z" fill="#222443"/>
<path d="M46.8891 32.0479V32.9751H45.336V35.7425H44.0543V32.9751H42.5059V32.0479H46.8891Z" fill="#222443"/>
<path d="M58.0838 32.0479V32.9845H55.5904V33.5069H57.9668V34.4342H55.5904V35.7425H54.332V32.0479H58.0838Z" fill="#222443"/>
<path d="M64.4223 32.9751V32.0479H60.0391V32.9751H61.5875V35.7425H62.8693V32.9751H64.4223Z" fill="#222443"/>
<path d="M69.2044 32.0479V35.7425H67.9506V34.4012H66.07V35.7425H64.8164V32.0479H66.07V33.3939H67.9506V32.0479H69.2044Z" fill="#222443"/>
<path d="M73.815 35.7425V34.8248H71.1812V34.3447H73.7073V33.4458H71.1812V32.9704H73.7822V32.0479H69.9463V35.7425H73.815Z" fill="#222443"/>
<path d="M81.5711 32.0479H82.7822L81.4402 35.7425H80.0653C80.0653 35.7425 79.3301 33.5352 79.3252 33.4739C79.3215 33.5352 78.5814 35.7425 78.5814 35.7425H77.2113L75.8359 32.0479H77.1966C77.1966 32.0479 77.993 34.3729 77.993 34.4294C77.993 34.3729 78.727 32.0479 78.727 32.0479H80.042C80.042 32.0479 80.7809 34.3729 80.7809 34.4294C80.7809 34.3729 81.5711 32.0479 81.5711 32.0479Z" fill="#222443"/>
<path fill-rule="evenodd" clip-rule="evenodd" d="M85.1847 31.9633C83.5663 31.9633 82.7148 32.7352 82.7148 33.8695C82.7148 35.1496 83.6079 35.7991 85.1847 35.7991C86.9206 35.7991 87.6496 35.0461 87.6496 33.8695C87.6496 32.674 86.8264 31.9633 85.1847 31.9633ZM85.1847 34.8531C84.2635 34.8531 83.9969 34.4718 83.9969 33.8835C83.9969 33.3047 84.2868 32.9234 85.1798 32.9234C86.1584 32.9234 86.3774 33.3517 86.3774 33.8835C86.3774 34.4483 86.1107 34.8531 85.1847 34.8531Z" fill="#222443"/>
<path fill-rule="evenodd" clip-rule="evenodd" d="M92.2826 32.4245C92.4502 32.5986 92.5297 32.8386 92.5297 33.1728C92.5297 33.4599 92.46 33.7046 92.3426 33.8694C92.2117 34.0482 92.0111 34.1989 91.7627 34.2364L92.871 35.7425H91.4777L90.5651 34.4389H89.4287V35.7425H88.1797V32.0479H91.1034C91.6832 32.0479 92.0624 32.1891 92.2826 32.4245ZM91.2722 33.4834C91.304 33.4269 91.3138 33.3516 91.3138 33.2904C91.3138 33.2198 91.304 33.1446 91.2722 33.0975C91.2061 32.9751 91.0752 32.9421 90.8783 32.9421H89.4336V33.6152H90.9015C91.1034 33.6152 91.2245 33.5776 91.2722 33.4834Z" fill="#222443"/>
<path d="M96.777 35.7425V34.7589H94.5408V32.0479H93.2734V35.7425H96.777Z" fill="#222443"/>
<path fill-rule="evenodd" clip-rule="evenodd" d="M101.737 33.8269C101.737 34.4012 101.681 34.7119 101.513 35.0037C101.26 35.4695 100.76 35.7425 99.8752 35.7425H97.2744V32.0479H99.847C100.727 32.0479 101.246 32.2973 101.503 32.7256C101.686 33.0128 101.737 33.3186 101.737 33.8269ZM99.6366 34.8342C100.034 34.8342 100.259 34.74 100.395 34.533C100.479 34.4059 100.503 34.1094 100.503 33.8506C100.498 33.6152 100.47 33.3658 100.395 33.2528C100.249 33.0316 100.031 32.9516 99.6464 32.9516H98.5283V34.8342H99.6366Z" fill="#222443"/>
<path d="M51.5561 53.7114H49.6176C49.6176 53.7114 48.3527 57.4314 48.3527 57.5218C48.3527 57.4314 47.1702 53.7114 47.1702 53.7114H45.067C45.067 53.7114 43.8918 57.4314 43.8918 57.5218C43.8918 57.4314 42.6195 53.7114 42.6195 53.7114H40.4414L42.6419 59.6227H44.8349C44.8349 59.6227 46.0175 56.091 46.0249 55.9931C46.0325 56.091 47.2075 59.6227 47.2075 59.6227H49.408L51.5561 53.7114Z" fill="#222443"/>
<path d="M54.2087 59.6227V53.7114H52.1504V59.6227H54.2087Z" fill="#222443"/>
<path d="M62.2146 53.7114V59.6227H60.2086L57.2972 56.332V59.6227H55.3662V53.7114H57.4768L60.2984 56.9269V53.7114H62.2146Z" fill="#222443"/>
<path d="M70.2322 59.6227V53.7114H68.3161V56.9269L65.4945 53.7114H63.3838V59.6227H65.3148V56.332L68.2264 59.6227H70.2322Z" fill="#222443"/>
<path d="M77.5927 58.1543V59.6227H71.4023V53.7114H77.5401V55.1874H73.3783V55.948H77.4202V57.3863H73.3783V58.1543H77.5927Z" fill="#222443"/>
<path fill-rule="evenodd" clip-rule="evenodd" d="M85.5036 55.5112C85.5036 54.9765 85.3763 54.5925 85.1072 54.3139C84.7549 53.9374 84.1494 53.7114 83.2209 53.7114H78.543V59.6227H80.5418V57.5368H82.3609L83.8203 59.6227H86.0504L84.2766 57.2131C84.6729 57.1528 84.9947 56.9118 85.2051 56.6256C85.391 56.3621 85.5036 55.9705 85.5036 55.5112ZM83.5573 55.6995C83.5573 55.7973 83.5426 55.9178 83.49 56.0082C83.4154 56.1588 83.2209 56.219 82.8991 56.219H80.5492V55.1422H82.8612C83.1756 55.1422 83.386 55.1949 83.49 55.3907C83.5426 55.466 83.5573 55.5865 83.5573 55.6995Z" fill="#222443"/>
<path d="M45.5793 43.2823L44.7677 40.7688L43.9559 43.2823H41.3291L43.4542 44.8356L42.6426 47.3491L44.7677 45.7958L46.8927 47.3491L46.081 44.8356L48.2061 43.2823H45.5793Z" fill="#222443"/>
<path d="M54.1386 40.7672L54.9669 43.2807H57.6472L55.4788 44.8342L56.3071 47.3475L54.1386 45.7942L51.9701 47.3475L52.7984 44.8342L50.6299 43.2807H53.3103L54.1386 40.7672Z" fill="#222443"/>
<path d="M64.2637 43.2807L63.4355 40.7672L62.6073 43.2807H59.9268L62.0953 44.8342L61.267 47.3475L63.4355 45.7942L65.604 47.3475L64.7757 44.8342L66.9442 43.2807H64.2637Z" fill="#222443"/>
<path d="M72.7323 40.7672L73.5606 43.2807H76.241L74.0726 44.8342L74.9008 47.3475L72.7323 45.7942L70.5639 47.3475L71.3922 44.8342L69.2236 43.2807H71.9041L72.7323 40.7672Z" fill="#222443"/>
<path d="M82.915 43.2807L82.1028 40.7672L81.2905 43.2807H78.6641L80.7889 44.8342L79.9779 47.3475L82.1028 45.7942L84.2276 47.3475L83.4166 44.8342L85.5415 43.2807H82.915Z" fill="#222443"/>
<path d="M116.994 13.8122C117.771 11.8252 117.433 9.53999 116.718 7.61827C115.964 5.59624 114.653 3.57938 112.693 2.51587C112.595 4.64695 113.242 6.75218 113.95 8.65064C114.586 10.3581 115.365 12.1772 116.653 13.5892C116.851 14.659 117.003 15.7258 117.109 16.7877C116.682 15.6661 115.991 14.6439 115.128 13.8217C114.016 12.7626 112.36 11.9457 110.808 12.4289C111.263 14.1557 112.299 15.8114 113.527 16.9727C114.494 17.8868 115.77 19.058 117.272 19.1042C117.334 20.6674 117.299 22.2163 117.17 23.7442C116.959 22.6261 116.505 21.5733 115.848 20.7893C114.946 19.7119 113.609 18.3959 111.903 18.6161C111.996 20.364 112.69 22.1549 113.655 23.5006C114.42 24.57 115.433 25.9331 116.871 26.2852C116.641 27.7861 116.32 29.2622 115.913 30.7066C115.909 29.6007 115.667 28.515 115.185 27.6442C114.506 26.4164 113.448 24.885 111.739 24.7652C111.488 26.4801 111.828 28.3546 112.513 29.8456C113.06 31.0373 113.79 32.5571 115.12 33.1859C114.561 34.7404 113.901 36.2515 113.142 37.7098C113.409 36.4527 113.398 35.1281 113.083 33.9361C112.649 32.2932 111.573 30.5674 109.843 30.0668C109.231 31.8807 109.316 33.9045 109.672 35.748C109.964 37.2659 110.538 39.0485 111.825 40.0345C110.983 41.4015 110.052 42.7134 109.036 43.9616C109.582 42.7375 109.853 41.3986 109.707 40.1729C109.495 38.3877 108.998 36.4785 107.186 35.5271C106.157 37.3117 105.919 39.3138 105.832 41.2913C105.761 42.89 105.989 44.862 107.094 46.1626C105.879 47.432 104.57 48.6201 103.172 49.7157C104.075 48.5501 104.707 47.1823 104.841 45.8297C105.03 43.9184 104.939 41.8146 103.252 40.4119C101.811 41.9269 100.949 44.1582 100.529 46.0962C100.156 47.8095 99.7666 49.8377 100.653 51.524C98.8735 52.6935 96.9725 53.7237 94.9627 54.5964C96.3768 53.5825 97.534 52.1913 98.0857 50.755C98.8087 48.8727 99.2552 46.6295 97.8484 44.7442C95.9621 45.9596 94.5761 48.033 93.4837 49.9244C92.5466 51.5472 91.5766 53.7871 92.0585 55.7198C90.9453 56.0996 89.804 56.4332 88.6357 56.7177L88.7055 57.0063C89.8774 56.7207 91.0236 56.386 92.1405 56.0051C92.9234 58.332 95.4874 59.101 97.5609 59.4403C100.515 59.9239 104.033 58.987 106.556 57.0994C105.224 55.2066 102.508 55.0146 100.46 54.8697L100.433 54.8679C98.1897 54.7092 95.7627 54.9212 93.5069 55.5111C96.1126 54.5128 98.5518 53.2574 100.801 51.7817L100.832 51.8309C102.064 53.8447 104.54 53.9235 106.482 53.7962C109.119 53.6237 112.161 52.0115 113.921 49.7829C112.265 48.321 109.82 48.73 107.924 49.0469L107.914 49.0487C105.799 49.4024 103.488 50.174 101.548 51.3621C101.732 51.2158 101.912 51.0611 102.088 50.8988C103.975 49.5455 105.714 48.0318 107.294 46.3813C107.316 46.4034 107.338 46.425 107.36 46.4466C108.896 47.9888 111.126 47.582 112.868 47.0772C115.205 46.4003 117.627 44.3581 118.788 42.0136C116.988 40.9994 114.838 41.835 113.165 42.4962C111.327 43.2223 109.383 44.3843 107.888 45.8658C108.042 45.6701 108.19 45.4655 108.33 45.2538C109.718 43.6764 110.968 41.9871 112.067 40.205L112.115 40.2346L112.127 40.2424C113.863 41.3663 115.83 40.5502 117.388 39.7475C119.503 38.6584 121.204 36.2648 121.938 33.9108C120.061 33.3061 118.208 34.493 116.767 35.4329C115.189 36.4615 113.591 37.9285 112.495 39.6111C112.576 39.4451 112.652 39.2752 112.721 39.1023C113.775 37.2533 114.669 35.3124 115.393 33.299L115.431 33.3118L115.437 33.3143C117.016 33.9157 118.774 32.977 119.92 31.9476C121.513 30.516 122.637 28.315 122.9 26.1647C121.254 25.9501 119.701 27.2321 118.641 28.3253C117.42 29.5847 116.323 31.073 115.649 32.7265C115.699 32.546 115.742 32.3628 115.777 32.1775C116.39 30.2861 116.855 28.3354 117.161 26.3413L117.207 26.3475C118.871 26.6185 120.41 25.3448 121.33 24.1085C122.624 22.3688 123.291 19.961 123.123 17.7786C121.461 17.8958 120.193 19.4879 119.372 20.7761C118.421 22.2679 117.632 23.9564 117.287 25.7229C117.298 25.5816 117.304 25.4396 117.306 25.297C117.559 23.2671 117.65 21.1956 117.567 19.0986C119.266 19.0387 120.525 17.4515 121.173 16.044C122.099 14.0308 122.248 11.4858 121.631 9.34122C120.012 9.79821 119.109 11.6657 118.577 13.1033C117.963 14.7609 117.535 16.569 117.531 18.3665C117.443 16.8585 117.265 15.3385 116.994 13.8122Z" fill="#222443"/>
</svg>
