<svg width="88" height="72" viewBox="0 0 88 72" fill="none" xmlns="http://www.w3.org/2000/svg">
<path d="M29.19 24.7453C29.19 24.5624 29.19 21.9016 29.19 21.9016H27.6231C27.6231 21.9016 27.6231 24.5211 27.6231 24.6038C27.6231 25.0875 27.1788 25.412 26.4305 25.412C25.647 25.412 25.2202 25.0993 25.2202 24.5978C25.2202 24.5152 25.2202 21.9016 25.2202 21.9016H23.6357C23.6357 21.9016 23.6357 24.3854 23.6357 24.5978C23.6357 26.0019 24.7758 26.5978 26.3661 26.5978C28.0675 26.5978 29.19 25.996 29.19 24.7453Z" fill="#222443"/>
<path d="M34.467 26.5329V25.2999H31.6724V21.9016H30.0879V26.5329H34.467Z" fill="#222443"/>
<path d="M39.1755 23.0639V21.9016H33.6973V23.0639H35.6324V26.5329H37.2344V23.0639H39.1755Z" fill="#222443"/>
<path d="M41.2816 26.5329V21.9016H39.6738V26.5329H41.2816Z" fill="#222443"/>
<path d="M48.6587 26.5329V21.9016H46.6767L45.4255 24.6804L44.2329 21.9016H42.1865V26.5329H43.6774V24.0315L44.7531 26.5329H46.0862L47.1736 24.0315V26.5329H48.6587Z" fill="#222443"/>
<path d="M51.1419 25.6774H53.6209L54.0243 26.5329H55.7139L53.3987 21.9016H51.5103L49.0605 26.5329H50.7151L51.1419 25.6774ZM53.1239 24.639H51.6564L52.2352 23.524L52.4106 23.0993L52.5744 23.5181L53.1239 24.639Z" fill="#222443"/>
<path d="M60.6831 23.0639V21.9016H55.2051V23.0639H57.1402V26.5329H58.7423V23.0639H60.6831Z" fill="#222443"/>
<path d="M66.0108 26.5329V25.3825H62.7203V24.7806H65.8764V23.6539H62.7203V23.0579H65.9704V21.9016H61.1768V26.5329H66.0108Z" fill="#222443"/>
<path d="M35.5846 28.9948H34.0703C34.0703 28.9948 33.0822 31.9092 33.0822 31.98C33.0822 31.9092 32.1584 28.9948 32.1584 28.9948H30.5156C30.5156 28.9948 29.5976 31.9092 29.5976 31.98C29.5976 31.9092 28.6037 28.9948 28.6037 28.9948H26.9023L28.6213 33.626H30.3343C30.3343 33.626 31.2581 30.8591 31.2639 30.7824C31.2698 30.8591 32.1877 33.626 32.1877 33.626H33.9065L35.5846 28.9948Z" fill="#222443"/>
<path d="M37.6566 33.626V28.9948H36.0488V33.626H37.6566Z" fill="#222443"/>
<path d="M43.9102 33.626V28.9948H42.4135V31.5139L40.2094 28.9948H38.5605V33.626H40.069V31.0478L42.3434 33.626H43.9102Z" fill="#222443"/>
<path d="M50.1738 33.626V28.9948H48.6771V31.5139L46.4729 28.9948H44.8242V33.626H46.3326V31.0478L48.6069 33.626H50.1738Z" fill="#222443"/>
<path d="M55.922 33.626V32.4756H52.6305V31.8738H55.7875V30.747H52.6305V30.1511H55.8811V28.9948H51.0869V33.626H55.922Z" fill="#222443"/>
<path d="M62.1035 30.4048C62.1035 29.986 62.0036 29.685 61.7931 29.4667C61.5184 29.1717 61.0451 28.9948 60.3197 28.9948H56.666V33.626H58.2271V31.9919H59.6478L60.7882 33.626H62.5304L61.145 31.7381C61.4542 31.6909 61.7063 31.5022 61.8692 31.278C62.0155 31.0715 62.1035 30.7646 62.1035 30.4048ZM60.5837 30.5522C60.5837 30.629 60.5718 30.7234 60.5302 30.7942C60.4719 30.9121 60.3197 30.9594 60.0688 30.9594H58.2329V30.1157H60.039C60.2852 30.1157 60.4493 30.157 60.5302 30.3104C60.5718 30.3694 60.5837 30.4638 60.5837 30.5522Z" fill="#222443"/>
<path d="M29.8492 38.1824C29.8492 38.1067 29.8492 35.9193 29.8492 35.9193H29.3018C29.3018 35.9193 29.3018 38.0977 29.3018 38.1468C29.3018 38.6724 28.8117 38.9709 28.1053 38.9709C27.271 38.9709 26.8604 38.6502 26.8604 38.1423C26.8604 38.0932 26.8604 35.9193 26.8604 35.9193H26.3086C26.3086 35.9193 26.3086 38.0398 26.3086 38.1244C26.3086 39.0511 27.0238 39.4609 28.0833 39.4609C29.1781 39.4609 29.8492 39.0243 29.8492 38.1824Z" fill="#222443"/>
<path d="M33.7771 39.4164V38.9041H31.3887V35.9193H30.8369V39.4164H33.7771Z" fill="#222443"/>
<path d="M36.9124 36.4272V35.9193H33.2305V36.4272H34.7933V39.4164H35.3496V36.4272H36.9124Z" fill="#222443"/>
<path d="M40.8363 36.9082C40.8363 36.6588 40.7833 36.4761 40.6906 36.3291C40.5272 36.0841 40.2138 35.9193 39.6929 35.9193H37.4502V39.4164H37.9932V37.9418H39.5736L40.5404 39.4164H41.1762L40.1299 37.8482C40.3947 37.8171 40.6023 37.6656 40.7126 37.4696C40.7922 37.3359 40.8363 37.14 40.8363 36.9082ZM40.2888 36.9528C40.2888 37.0508 40.2668 37.1712 40.2271 37.2513C40.1564 37.3804 39.993 37.4473 39.7282 37.4517H37.9976C37.9976 37.4428 37.9976 36.4183 37.9976 36.4183H39.6266C39.9577 36.4183 40.1343 36.4984 40.2271 36.6499C40.2668 36.7212 40.2888 36.8414 40.2888 36.9528Z" fill="#222443"/>
<path d="M42.4076 38.5521H44.5664L45.0078 39.4164H45.5995L43.8423 35.9193H43.1934L41.3789 39.4164H41.9572L42.4076 38.5521ZM44.3368 38.0576H42.646L43.3478 36.7167L43.5024 36.3915L43.6569 36.7167L44.3368 38.0576Z" fill="#222443"/>
<path d="M51.1986 39.0823C51.3354 38.9218 51.3973 38.6947 51.3973 38.4496C51.3973 38.218 51.331 37.9863 51.1942 37.8438C51.0573 37.7102 50.8366 37.5988 50.5937 37.5765C50.735 37.5542 50.8454 37.4652 50.9204 37.3716C51.0397 37.2334 51.1102 37.0107 51.1102 36.788C51.1102 36.5518 51.0397 36.338 50.8895 36.191C50.7262 36.0262 50.4481 35.9193 50.0596 35.9193H47.7285V39.4164H50.2318C50.6997 39.4164 51.0264 39.2961 51.1986 39.0823ZM50.5407 36.8994C50.5407 37.0552 50.4922 37.1934 50.4084 37.2735C50.3244 37.3671 50.1831 37.4072 50.033 37.4072H48.2671V36.4004H49.9315C50.1346 36.4004 50.2891 36.4405 50.395 36.5385C50.4878 36.6276 50.5407 36.7568 50.5407 36.8994ZM50.7173 38.7436C50.607 38.8684 50.4172 38.9308 50.139 38.9308H48.2671V37.8928H50.1523C50.4084 37.8928 50.5849 37.9462 50.6909 38.0487C50.7879 38.1423 50.8278 38.2625 50.8278 38.4007C50.8278 38.5432 50.7969 38.6635 50.7173 38.7436Z" fill="#222443"/>
<path d="M55.4045 39.4164V38.9041H52.7116V37.9062H55.2985V37.3983H52.7116V36.4272H55.3736V35.9193H52.1729V39.4164H55.4045Z" fill="#222443"/>
<path d="M59.7177 38.3828C59.7177 37.8126 59.3431 37.5186 58.4202 37.4117C58.2653 37.3895 57.9297 37.3538 57.7487 37.3315C56.8923 37.229 56.6318 37.1132 56.6318 36.8148C56.6318 36.5252 56.9188 36.3604 57.784 36.3604C58.4547 36.3604 58.7996 36.494 58.972 36.7345C59.0208 36.8014 59.047 36.8816 59.06 36.9439H59.6511C59.6344 36.8414 59.594 36.6989 59.5321 36.5831C59.2943 36.1688 58.8044 35.8703 57.784 35.8703C56.5656 35.8658 56.0623 36.3114 56.0623 36.8638C56.0623 37.4161 56.4552 37.6968 57.4751 37.8172C57.6517 37.8394 57.965 37.875 58.1196 37.8929C58.9102 37.9908 59.1575 38.1112 59.1575 38.4452C59.1575 38.7527 58.8745 38.9754 57.9694 38.9754C57.2278 38.9754 56.8304 38.8417 56.6715 38.5834C56.623 38.5121 56.5921 38.4007 56.5877 38.325H56.0049C56.0182 38.4853 56.0623 38.6591 56.1418 38.7972C56.3714 39.2204 56.91 39.4655 57.9518 39.4655C59.1968 39.4655 59.7177 39.06 59.7177 38.3828Z" fill="#222443"/>
<path d="M63.6759 36.4272V35.9193H59.9941V36.4272H61.5567V39.4164H62.1133V36.4272H63.6759Z" fill="#222443"/>
<path d="M24.7453 42.456C24.7453 42.0996 24.6747 41.859 24.5554 41.6763C24.3877 41.4134 24.0609 41.2754 23.4914 41.2754H21.3018V44.7724H21.8491V43.632C21.8491 43.632 23.3944 43.632 23.4694 43.632C24.0036 43.6275 24.37 43.5028 24.5643 43.2177C24.6879 43.044 24.7453 42.7945 24.7453 42.456ZM24.189 42.456C24.189 42.634 24.1713 42.7677 24.114 42.8569C24.0124 43.0216 23.8049 43.1241 23.3767 43.1241C23.3369 43.1241 21.8491 43.1241 21.8491 43.1241V41.7744H23.3944C23.7961 41.7744 24.0036 41.8678 24.114 42.0505C24.1669 42.1306 24.189 42.2778 24.189 42.456Z" fill="#222443"/>
<path d="M28.7414 44.7724V44.2602H26.0483V43.2622H28.6354V42.7544H26.0483V41.7832H28.7105V41.2754H25.5098V44.7724H28.7414Z" fill="#222443"/>
<path d="M32.9525 42.2643C32.9525 42.0148 32.8996 41.8322 32.8068 41.6852C32.6434 41.4402 32.3301 41.2754 31.8091 41.2754H29.5664V44.7724H30.1094V43.2979H31.6899L32.6568 44.7724H33.2925L32.2461 43.2043C32.5111 43.1732 32.7186 43.0216 32.8289 42.8257C32.9084 42.692 32.9525 42.496 32.9525 42.2643ZM32.4051 42.3088C32.4051 42.4069 32.383 42.5272 32.3433 42.6074C32.2726 42.7365 32.1092 42.8034 31.8444 42.8078H30.1138C30.1138 42.7989 30.1138 41.7744 30.1138 41.7744H31.7429C32.0739 41.7744 32.2505 41.8545 32.3433 42.006C32.383 42.0772 32.4051 42.1975 32.4051 42.3088Z" fill="#222443"/>
<path d="M37.0454 41.7832V41.2754H33.9639V44.7724H34.5113V43.2846H36.9307V42.7633H34.5113V41.7832H37.0454Z" fill="#222443"/>
<path d="M39.5587 41.213C38.8214 41.213 38.3138 41.3957 37.9517 41.7788C37.6471 42.0773 37.5146 42.4916 37.5146 43.0128C37.5146 43.583 37.6868 44.0107 38.0047 44.3003C38.3447 44.6433 38.8656 44.8214 39.5587 44.8214C40.2739 44.8214 40.8301 44.6433 41.1613 44.2824C41.4483 43.9884 41.5983 43.5697 41.5983 43.0083C41.5983 42.4649 41.4703 42.0505 41.1657 41.7565C40.8169 41.3912 40.2959 41.213 39.5587 41.213ZM39.5587 44.3226C39.0731 44.3226 38.7287 44.2157 38.4683 44.0018C38.2034 43.7835 38.0754 43.4493 38.0754 43.0217C38.0754 42.6207 38.1857 42.2867 38.3976 42.0861C38.6405 41.8545 39.0112 41.7164 39.5543 41.7164C40.1149 41.7164 40.4637 41.8501 40.7241 42.0817C40.945 42.2778 41.042 42.6252 41.042 43.0172C41.042 43.4137 40.9406 43.7523 40.7154 43.9572C40.4549 44.2022 40.0885 44.3226 39.5587 44.3226Z" fill="#222443"/>
<path d="M45.7406 42.2643C45.7406 42.0148 45.6876 41.8322 45.5949 41.6852C45.4315 41.4402 45.118 41.2754 44.5972 41.2754H42.3545V44.7724H42.8975V43.2979H44.4779L45.4448 44.7724H46.0805L45.0342 43.2043C45.299 43.1732 45.5066 43.0216 45.6169 42.8257C45.6965 42.692 45.7406 42.496 45.7406 42.2643ZM45.1931 42.3088C45.1931 42.4069 45.1711 42.5272 45.1314 42.6074C45.0607 42.7365 44.8973 42.8034 44.6325 42.8078H42.9019C42.9019 42.7989 42.9019 41.7744 42.9019 41.7744H44.5309C44.862 41.7744 45.0386 41.8545 45.1314 42.006C45.1711 42.0772 45.1931 42.1975 45.1931 42.3088Z" fill="#222443"/>
<path d="M51.021 44.7724V41.2754H50.3058L48.8799 44.1532L47.4803 41.2754H46.752V44.7724H47.2773V42.0817L48.584 44.7724H49.1579L50.4956 42.0817V44.7724H51.021Z" fill="#222443"/>
<path d="M52.5706 43.9082H54.7295L55.1709 44.7724H55.7625L54.0054 41.2754H53.3565L51.542 44.7724H52.1203L52.5706 43.9082ZM54.4999 43.4137H52.8091L53.5109 42.0728L53.6655 41.7476L53.82 42.0728L54.4999 43.4137Z" fill="#222443"/>
<path d="M59.7402 44.7724V41.2754H59.2145V43.9928L56.9194 41.2754H56.2969V44.7724H56.8311V42.0372L59.1444 44.7724H59.7402Z" fill="#222443"/>
<path d="M64.5026 43.4672H63.9283C63.9104 43.6275 63.8486 43.788 63.738 43.9082C63.5002 44.1889 63.1208 44.3091 62.5381 44.3091C62.0482 44.3091 61.5225 44.171 61.2704 43.8102C61.1384 43.641 61.054 43.3915 61.054 43.0172C61.054 42.6831 61.1123 42.4337 61.2395 42.2643C61.4512 41.9214 61.8971 41.7432 62.525 41.7432C63.1339 41.7432 63.518 41.9124 63.7213 42.1485C63.8355 42.2732 63.9021 42.4203 63.9235 42.594H64.4979C64.4801 42.398 64.4182 42.1663 64.2862 41.9703C64.0032 41.5471 63.4823 41.213 62.5286 41.213C61.6201 41.213 61.0766 41.507 60.7757 41.948C60.5819 42.2019 60.4844 42.5583 60.4844 43.0128C60.4844 43.5206 60.6045 43.8949 60.8114 44.1577C61.1123 44.5721 61.6902 44.8214 62.5643 44.8214C63.4609 44.8214 63.9949 44.5497 64.26 44.1176C64.4099 43.9082 64.4848 43.6587 64.5026 43.4672Z" fill="#222443"/>
<path d="M68.4529 44.7724V44.2602H65.7594V43.2622H68.3471V42.7544H65.7594V41.7832H68.422V41.2754H65.2207V44.7724H68.4529Z" fill="#222443"/>
<path d="M28.0791 48.2465L28.7393 50.297H30.8759L29.1474 51.5643L29.8077 53.6148L28.0791 52.3476L26.3505 53.6148L27.0108 51.5643L25.2822 50.297H27.4188L28.0791 48.2465Z" fill="#222443"/>
<path d="M35.7016 48.2466L36.3753 50.297H38.5555L36.7917 51.5643L37.4654 53.6149L35.7016 52.3476L33.9378 53.6149L34.6115 51.5643L32.8477 50.297H35.0279L35.7016 48.2466Z" fill="#222443"/>
<path d="M43.2631 48.2466L43.9369 50.297H46.1171L44.3532 51.5643L45.027 53.6149L43.2631 52.3476L41.4993 53.6149L42.173 51.5643L40.4092 50.297H42.5894L43.2631 48.2466Z" fill="#222443"/>
<path d="M50.8256 48.2466L51.4993 50.297H53.6796L51.9157 51.5643L52.5894 53.6149L50.8256 52.3476L49.0618 53.6149L49.7355 51.5643L47.9717 50.297H50.1519L50.8256 48.2466Z" fill="#222443"/>
<path d="M58.4474 48.2466L59.1074 50.297H61.2443L59.5153 51.5643L60.1753 53.6149L58.4474 52.3476L56.7186 53.6149L57.379 51.5643L55.6504 50.297H57.787L58.4474 48.2466Z" fill="#222443"/>
<path d="M31.7826 13.6515L32.2818 15.2019H33.8973L32.5904 16.1601L33.0896 17.7104L31.7826 16.7523L30.4757 17.7104L30.9749 16.1601L29.668 15.2019H31.2835L31.7826 13.6515Z" fill="#222443"/>
<path d="M37.5456 13.6493L38.055 15.1997H39.7034L38.3698 16.1579L38.8792 17.7082L37.5456 16.75L36.2119 17.7082L36.7214 16.1579L35.3877 15.1997H37.0361L37.5456 13.6493Z" fill="#222443"/>
<path d="M43.2624 13.6493L43.7717 15.1997H45.4202L44.0866 16.1579L44.596 17.7082L43.2624 16.75L41.9287 17.7082L42.4382 16.1579L41.1045 15.1997H42.7529L43.2624 13.6493Z" fill="#222443"/>
<path d="M48.9811 13.6493L49.4905 15.1997H51.1389L49.8054 16.1579L50.3147 17.7082L48.9811 16.75L47.6475 17.7082L48.1569 16.1579L46.8232 15.1997H48.4717L48.9811 13.6493Z" fill="#222443"/>
<path d="M54.7435 13.6493L55.2427 15.1997H56.8583L55.5513 16.1579L56.0506 17.7082L54.7435 16.75L53.4366 17.7082L53.9358 16.1579L52.6289 15.1997H54.2443L54.7435 13.6493Z" fill="#222443"/>
<path fill-rule="evenodd" clip-rule="evenodd" d="M8.77204 41.5565C6.56895 27.6474 12.9987 13.8861 25.8706 7.97656L25.9894 8.24008C13.247 14.0901 6.87041 27.7168 9.05531 41.5108C11.4726 56.7716 23.6729 65.924 38.6133 66.3652L38.6049 66.6546C23.5481 66.2099 11.2142 56.9747 8.77204 41.5565Z" fill="#222443"/>
<path d="M23.0799 11.5262C20.7012 11.5809 17.9172 12.9345 16.2744 14.9006C17.5918 16.135 19.7114 15.6787 21.2368 15.4262C23.4138 15.066 25.7289 14.368 27.7833 13.3801C26.9386 11.5657 24.6632 11.4898 23.0799 11.5262Z" fill="#222443"/>
<path d="M21.2092 8.56517C19.8003 10.7799 18.1211 12.981 16.2938 14.9194C14.765 13.4712 15.6878 11.0613 16.3118 9.56261C17.4421 6.84701 20.1522 4.50521 22.9854 3.30701C23.763 5.09225 22.074 7.20581 21.2092 8.56517Z" fill="#222443"/>
<path d="M16.1961 17.7368C13.9687 18.5358 12.0547 20.7848 11.0938 23.0427C12.6953 23.7942 14.5161 22.709 15.8481 21.9865C17.6771 20.9943 19.5431 19.6254 21.0112 18.0411C19.6847 16.6287 17.6704 17.2081 16.1961 17.7368Z" fill="#222443"/>
<path d="M13.4958 15.5238C13.0082 18.0498 12.1908 20.668 11.1172 23.0543C9.24326 22.1624 9.31461 19.6081 9.39488 17.9826C9.53188 15.2081 11.0701 12.0442 13.2117 10.0334C14.5228 11.4518 13.8064 13.9147 13.4958 15.5238Z" fill="#222443"/>
<path d="M11.9104 25.755C10.0545 27.2325 8.9295 29.9705 8.66895 32.4155C10.4247 32.6189 11.828 31.0066 12.8723 29.9004C14.2939 28.3943 15.6397 26.5053 16.4944 24.529C14.8207 23.6076 13.1194 24.7926 11.9104 25.755Z" fill="#222443"/>
<path d="M8.69511 24.5078C9.02606 27.0586 9.02678 29.8182 8.69571 32.4189C6.65387 32.1658 5.97663 29.6919 5.57658 28.1399C4.8859 25.461 5.34897 22.0007 6.69442 19.3965C8.37581 20.3357 8.48367 22.8773 8.69511 24.5078Z" fill="#222443"/>
<path d="M10.4535 34.5071C8.98485 36.6781 8.46839 40.0802 9.12886 42.8147C11.0696 42.3511 12.0317 40.1338 12.8042 38.5679C13.8308 36.4868 14.6986 34.0588 15.0092 31.6767C12.9042 31.2346 11.4209 33.077 10.4535 34.5071Z" fill="#222443"/>
<path d="M6.59832 34.2877C7.74256 36.9609 8.63553 39.9032 9.15806 42.8081C6.93225 43.2907 5.33029 40.9322 4.39963 39.3683C2.74274 36.5846 2.26004 32.7255 2.86701 29.3953C4.90421 29.8075 5.9011 32.6593 6.59832 34.2877Z" fill="#222443"/>
<path d="M11.4807 43.9525C10.6921 46.586 11.2402 50.1662 12.8368 52.642C14.5914 51.4893 14.8342 48.9523 15.0829 47.1332C15.4107 44.7327 15.5651 42.0735 15.1578 39.5844C12.9137 39.8734 12.0074 42.1932 11.4807 43.9525Z" fill="#222443"/>
<path d="M7.58087 45.08C9.54969 47.3596 11.3658 49.9588 12.8636 52.6251C10.8322 53.9048 8.4485 52.1565 7.00281 50.9193C4.43808 48.7246 2.77274 44.9944 2.37793 41.4777C4.51229 41.1882 6.39323 43.7046 7.58087 45.08Z" fill="#222443"/>
<path d="M15.6189 52.916C15.7881 55.9814 17.7658 59.198 20.3992 61.0288C21.6709 59.2719 20.8738 56.58 20.44 54.7009C19.8559 52.1709 19.0477 49.5365 17.8465 47.1989C15.7518 48.3158 15.5074 50.8972 15.6189 52.916Z" fill="#222443"/>
<path d="M12.0773 55.5054C14.9303 57.1052 17.775 58.9929 20.42 61.0015C18.836 63.1063 15.6699 62.2671 13.7073 61.5905C10.2487 60.3983 7.16521 57.2555 5.55469 53.7639C7.59664 52.7025 10.392 54.5604 12.0773 55.5054Z" fill="#222443"/>
<path d="M23.7445 60.4049C25.4568 63.5582 29.3589 65.6154 33.0335 66.1106C33.429 63.8181 30.9708 61.5483 29.6313 60.0635C27.7242 57.9494 25.737 55.7556 23.5089 53.9277C21.8396 55.8835 22.7221 58.5222 23.7445 60.4049Z" fill="#222443"/>
<path d="M21.2994 64.4013C25.1917 64.8097 29.1501 65.3976 33.0401 66.0754C32.6688 68.9679 28.12 69.4347 26.055 69.6055C21.8209 69.9556 17.1107 68.2382 13.8311 65.3469C15.46 63.4128 19.226 64.1839 21.2994 64.4013Z" fill="#222443"/>
<path d="M28.7965 5.5488C26.1832 6.30108 23.1244 7.72824 21.6133 10.3627C24.3561 10.061 27.0519 9.0762 29.6882 8.32584C32.6412 7.48524 35.7506 6.85656 38.6096 5.69628C35.4785 4.4322 31.7875 4.68768 28.7965 5.5488Z" fill="#222443"/>
<path fill-rule="evenodd" clip-rule="evenodd" d="M79.3527 41.5108C81.5372 27.7168 75.1608 14.0903 62.4186 8.24008L62.5376 7.97656C75.4093 13.8862 81.8393 27.6474 79.6357 41.5565C77.1943 56.9747 64.86 66.2099 49.8032 66.6546L49.7949 66.3652C64.7352 65.924 76.9351 56.7716 79.3527 41.5108Z" fill="#222443"/>
<path d="M65.3282 11.5262C67.7066 11.5809 70.4905 12.9345 72.134 14.9006C70.8164 16.135 68.696 15.6787 67.1715 15.4262C64.9941 15.066 62.6787 14.368 60.625 13.3801C61.4693 11.5657 63.7442 11.4898 65.3282 11.5262Z" fill="#222443"/>
<path d="M67.1986 8.56517C68.6078 10.7799 70.287 12.981 72.1136 14.9194C73.6429 13.4712 72.72 11.0613 72.0957 9.56261C70.966 6.84701 68.2558 4.50521 65.422 3.30701C64.6443 5.09225 66.3341 7.20581 67.1986 8.56517Z" fill="#222443"/>
<path d="M72.2125 17.7368C74.4398 18.5358 76.3532 20.7848 77.3141 23.0427C75.7123 23.7942 73.8916 22.709 72.5597 21.9865C70.7308 20.9943 68.8649 19.6254 67.3975 18.0411C68.7234 16.6287 70.7379 17.2081 72.2125 17.7368Z" fill="#222443"/>
<path d="M74.9119 15.5238C75.3995 18.0498 76.2164 20.668 77.2903 23.0543C79.1644 22.1624 79.0931 19.6081 79.0122 17.9826C78.8755 15.2081 77.3379 12.0442 75.1961 10.0334C73.8844 11.4518 74.6015 13.9147 74.9119 15.5238Z" fill="#222443"/>
<path d="M76.4972 25.755C78.3535 27.2325 79.4785 29.9705 79.7389 32.4155C77.9837 32.6189 76.5804 31.0066 75.5363 29.9004C74.1141 28.3943 72.7679 26.5053 71.9141 24.529C73.5873 23.6076 75.289 24.7926 76.4972 25.755Z" fill="#222443"/>
<path d="M79.7138 24.5078C79.382 27.0584 79.382 29.8182 79.7126 32.4189C81.7545 32.1658 82.4323 29.6919 82.8319 28.1399C83.5228 25.461 83.059 22.0007 81.714 19.3965C80.0325 20.3357 79.9243 22.8773 79.7138 24.5078Z" fill="#222443"/>
<path d="M77.9532 34.5071C79.4219 36.6781 79.938 40.0802 79.278 42.8147C77.3372 42.3511 76.3752 40.1339 75.6022 38.5679C74.5759 36.4868 73.7078 34.0588 73.3975 31.6767C75.5023 31.2346 76.9864 33.077 77.9532 34.5071Z" fill="#222443"/>
<path d="M81.8091 34.2877C80.6651 36.9609 79.7721 39.9032 79.25 42.8081C81.475 43.2907 83.0768 40.9322 84.0079 39.3683C85.6645 36.5846 86.1473 32.7255 85.5408 29.3953C83.5037 29.8075 82.506 32.6593 81.8091 34.2877Z" fill="#222443"/>
<path d="M76.9261 43.9525C77.7145 46.586 77.1675 50.1662 75.5704 52.642C73.8164 51.4893 73.5726 48.9523 73.324 47.1332C72.997 44.7327 72.8424 42.0735 73.2491 39.5844C75.4931 39.8734 76.3993 42.1932 76.9261 43.9525Z" fill="#222443"/>
<path d="M80.8253 45.08C78.8572 47.3597 77.0413 49.9588 75.543 52.6251C77.5741 53.9048 79.9584 52.1565 81.4045 50.9193C83.9684 48.7246 85.6344 44.9944 86.0292 41.4777C83.8946 41.1882 82.0133 43.7046 80.8253 45.08Z" fill="#222443"/>
<path d="M72.7877 52.916C72.6189 55.9814 70.6412 59.198 68.0084 61.0288C66.7359 59.2719 67.5339 56.5801 67.9667 54.7009C68.5506 52.1709 69.3593 49.5365 70.5604 47.1989C72.6557 48.3158 72.8995 50.8972 72.7877 52.916Z" fill="#222443"/>
<path d="M76.3304 55.5054C73.4776 57.1052 70.633 58.9929 67.9883 61.0015C69.5723 63.1063 72.7379 62.2671 74.7001 61.5905C78.1594 60.3983 81.243 57.2555 82.8531 53.7639C80.8113 52.7025 78.0155 54.5604 76.3304 55.5054Z" fill="#222443"/>
<path d="M64.6638 60.4049C62.9514 63.5582 59.0496 65.6154 55.3746 66.1106C54.9791 63.8181 57.4371 61.5483 58.7773 60.0635C60.6836 57.9494 62.6707 55.7556 64.8993 53.9277C66.5689 55.8835 65.6853 58.5222 64.6638 60.4049Z" fill="#222443"/>
<path d="M67.1088 64.4013C63.2166 64.8097 59.259 65.3976 55.3682 66.0754C55.7397 68.9679 60.2888 69.4347 62.3532 69.6055C66.5879 69.9556 71.2983 68.2382 74.5769 65.3469C72.9489 63.4128 69.1827 64.1839 67.1088 64.4013Z" fill="#222443"/>
<path d="M59.6121 5.5488C62.2248 6.30108 65.2846 7.72824 66.7948 10.3627C64.0526 10.061 61.3567 9.0762 58.7202 8.32584C55.7672 7.48524 52.6579 6.85656 49.7988 5.69628C52.9301 4.4322 56.621 4.68768 59.6121 5.5488Z" fill="#222443"/>
<path d="M45.9036 4.18543L44.5628 1.19995L43.2472 4.12987L40.1875 2.21563L42.1536 6.38479H47.0431L48.9381 2.21563L45.9036 4.18543Z" fill="#222443"/>
<path d="M47.0115 7.03271H42.1143V7.76195H47.0115V7.03271Z" fill="#222443"/>
<path d="M44.9129 63.4462L45.702 65.8968H48.2556L46.1897 67.4113L46.9787 69.862L44.9129 68.3474L42.847 69.862L43.6362 67.4113L41.5703 65.8968H44.1239L44.9129 63.4462Z" fill="#222443"/>
</svg>
