<svg width="118" height="64" viewBox="0 0 118 64" fill="none" xmlns="http://www.w3.org/2000/svg">
<path d="M106.989 4.51862C108.094 6.37911 109.155 8.67423 108.633 11.1338C106.833 9.97317 105.385 8.07815 104.237 6.20737C103.08 4.32402 101.88 2.32133 101.468 0C103.739 0.654236 105.772 2.47035 106.989 4.51862Z" fill="#222443"/>
<path d="M9.38557 11.1308C8.86524 8.67075 9.92821 6.37653 11.0354 4.5171C12.2542 2.47004 14.2877 0.655593 16.5589 0.00317383C16.1462 2.32405 14.9437 4.32598 13.7863 6.20812C12.6366 8.078 11.1865 9.9718 9.38557 11.1308Z" fill="#222443"/>
<path d="M7.80074 15.8487C8.20691 13.9005 8.19791 11.7677 7.81123 9.94039C7.4712 8.33448 6.97643 6.06434 5.34797 5.29834C4.16427 7.43703 3.68846 10.3494 4.37832 12.5317C4.87713 14.1102 5.77418 16.1973 7.63456 16.5203C9.34167 16.9636 11.0679 15.9379 12.4312 15.091C13.9471 14.1495 15.432 12.6515 16.3341 10.8707C14.6792 9.92979 12.7945 10.6934 11.3766 11.4251C9.84815 12.214 8.44408 13.9065 7.80074 15.8487Z" fill="#222443"/>
<path d="M40.9309 17.7201V7.93896H37.9662V11.5026H33.5193V7.93896H30.5547V17.7201H33.5193V14.1691H37.9662V17.7201H40.9309Z" fill="#222443"/>
<path d="M50.7612 7.93896H54.0355L49.3895 14.493V17.7201H46.4139V14.5054L41.8232 7.93896H45.197L47.9404 11.8514L50.7612 7.93896Z" fill="#222443"/>
<path fill-rule="evenodd" clip-rule="evenodd" d="M64.3601 8.77372C64.9465 9.29711 65.2783 10.1818 65.2783 11.4652C65.2783 12.5118 65.046 13.2967 64.6035 13.8451C64.0061 14.6176 63.0217 14.9664 61.7385 14.979C61.3403 14.9914 57.9332 14.979 57.9332 14.979V17.7201H54.9575V7.93896H61.6943C62.8889 7.93896 63.796 8.21307 64.3601 8.77372ZM62.1588 12.2253C62.2474 12.0508 62.2916 11.8265 62.2916 11.515C62.2916 11.1911 62.2362 10.9169 62.1367 10.7675C61.9486 10.456 61.5946 10.3063 61.0195 10.3063H57.9111V12.6987H60.9973C61.6168 12.6987 61.9819 12.5368 62.1588 12.2253Z" fill="#222443"/>
<path d="M75.6107 15.2903V17.7201H66.4629V7.93896H75.5341V10.3811H69.3832V11.6396H75.3566V14.0194H69.3832V15.2903H75.6107Z" fill="#222443"/>
<path fill-rule="evenodd" clip-rule="evenodd" d="M86.7177 8.93577C87.117 9.39676 87.3039 10.0322 87.3039 10.917C87.3039 11.677 87.1385 12.3249 86.8615 12.7611C86.5523 13.2345 86.0763 13.6332 85.4901 13.7329L88.1119 17.7201H84.8152L82.6586 14.2687H79.971V17.7201H77.0171V7.93896H83.9305C85.3019 7.93896 86.1987 8.31273 86.7177 8.93577ZM84.3285 11.7393C84.4065 11.5898 84.428 11.3904 84.428 11.2285C84.428 11.0416 84.4065 10.8421 84.3285 10.7175C84.1739 10.3936 83.8646 10.3063 83.3994 10.3063H79.9817V12.0882H83.4546C83.9305 12.0882 84.2182 11.9886 84.3285 11.7393Z" fill="#222443"/>
<path d="M74.0271 29.9891C74.0271 27.7533 72.7661 26.5783 69.8249 26.2192C69.3468 26.1539 67.9413 25.9907 67.0575 25.9091C64.7827 25.6316 64.1019 25.4849 64.1019 24.832C64.1019 24.2445 64.6379 23.9671 66.6807 23.9671C68.1297 23.9671 68.9411 24.2771 69.2598 24.7504C69.4192 24.9789 69.4772 25.1583 69.4917 25.338H73.6645C73.6209 24.9462 73.4761 24.3913 73.2442 23.9018C72.4909 22.2697 70.6797 20.9641 66.7823 20.9641C62.3921 20.9641 59.987 22.7104 59.987 24.9952C59.987 27.1984 61.3489 28.4877 65.029 28.8631C65.4452 28.9032 66.3388 28.9983 67.0705 29.0762L67.1157 29.081L67.1239 29.0819L67.1271 29.0822L67.5212 29.1242C69.4481 29.3527 69.9698 29.4995 69.9698 30.1851C69.9698 30.8214 69.4627 31.1641 67.3328 31.1641C65.6811 31.1641 64.7104 30.8867 64.3626 30.4134C64.2178 30.2176 64.1162 29.9238 64.0873 29.728H59.9146C59.958 30.0544 60.0304 30.5767 60.1898 31.001C60.8998 32.7962 62.7544 34.1671 67.0575 34.1671C71.6795 34.1671 74.0271 32.6983 74.0271 29.9891Z" fill="#222443"/>
<path fill-rule="evenodd" clip-rule="evenodd" d="M44.4452 32.6652C44.8799 32.094 45.0971 31.2289 45.0971 30.3477C45.0971 29.597 44.9233 28.8788 44.5611 28.4055C44.1264 27.769 43.3584 27.3121 42.5472 27.1979C43.0977 27.1163 43.6193 26.7899 43.9235 26.3656C44.3003 25.8596 44.4741 25.1742 44.4741 24.3419C44.4741 23.5095 44.2568 22.7752 43.7642 22.2203C43.2136 21.5838 42.2139 21.1594 40.6491 21.1594H30.8257V33.9708H40.9244C42.5326 33.9708 43.7787 33.579 44.4452 32.6652ZM40.4463 25.1089C40.4463 25.4191 40.3593 25.6802 40.2145 25.8596C40.0116 26.0718 39.6348 26.1534 39.1422 26.1534H34.6217V24.0644H39.0408C39.5914 24.0644 39.9681 24.146 40.1709 24.3582C40.3593 24.5377 40.4463 24.7988 40.4463 25.1089ZM40.8809 30.7231C40.6491 30.9678 40.2434 31.0658 39.5624 31.0658H34.6217V28.9279H39.6059C40.2434 28.9279 40.6201 29.0257 40.8374 29.2379C41.0113 29.4337 41.0837 29.6786 41.0837 30.0049C41.0837 30.3151 41.0257 30.5598 40.8809 30.7231Z" fill="#222443"/>
<path d="M58.7395 30.7884V33.9708H46.7573V21.1594H58.6381V24.3582H50.5823V26.0065H58.4063V29.1237H50.5823V30.7884H58.7395Z" fill="#222443"/>
<path d="M88.1252 24.3746V21.1594H74.5498V24.3746H79.3456V33.9708H83.3146V24.3746H88.1252Z" fill="#222443"/>
<path d="M87.7813 45.3078H87.1427L87.097 44.6151C86.902 44.9657 86.4892 45.3865 85.618 45.3865C84.1458 45.3865 83.4614 44.387 83.4614 41.835C83.4614 39.862 83.897 38.2749 85.6946 38.2749C87.2529 38.2749 87.7275 39.4238 87.7504 40.6601H86.9719C86.9491 39.8534 86.6291 39.108 85.7108 39.108C84.6056 39.108 84.2856 39.8534 84.2856 41.8615C84.2856 43.9574 84.6836 44.6151 85.7269 44.6151C86.4583 44.6151 86.8859 44.1591 87.027 43.6154V42.3088H85.454V41.5106H87.7732V43.5277C87.7732 44.1303 87.7786 44.7735 87.78 45.0968L87.7813 45.2507V45.3078Z" fill="#222443"/>
<path fill-rule="evenodd" clip-rule="evenodd" d="M30.9727 43.5625H33.1525L33.604 45.3076H34.4292L32.623 38.3625H31.6188L29.688 45.3076H30.5054L30.9727 43.5625ZM32.9578 42.7821H31.1828C31.1828 42.7821 31.9535 39.976 31.9691 39.9147C31.9769 39.8708 32.1015 39.2482 32.1015 39.2482L32.1877 39.7087L32.226 39.9147C32.2338 39.9585 32.9578 42.7821 32.9578 42.7821Z" fill="#222443"/>
<path d="M40.3383 38.3625H41.0857L39.6299 45.3076H38.7034C38.7034 45.3076 37.668 39.9059 37.668 39.6778C37.6602 39.9059 36.6014 45.3076 36.6014 45.3076H35.6751L34.2192 38.3625H35.06C35.06 38.3625 36.1888 43.8607 36.1888 44.08C36.1888 43.8607 37.2243 38.3625 37.2243 38.3625H38.1507C38.1507 38.3625 39.1861 43.8695 39.1861 44.08C39.1861 43.8695 40.3383 38.3625 40.3383 38.3625Z" fill="#222443"/>
<path fill-rule="evenodd" clip-rule="evenodd" d="M44.2827 43.5625H42.1029L41.6358 45.3076H40.8184L42.7491 38.3625H43.7534L45.5596 45.3076H44.7344L44.2827 43.5625ZM42.3132 42.7821H44.0882C44.0882 42.7821 43.3642 39.9585 43.3564 39.9147L43.2975 39.5986L43.2317 39.2482C43.2317 39.2482 43.1072 39.8708 43.0994 39.9147C43.0838 39.976 42.3132 42.7821 42.3132 42.7821Z" fill="#222443"/>
<path fill-rule="evenodd" clip-rule="evenodd" d="M48.5599 38.3625C49.5096 38.3625 50.0235 38.8623 50.0235 40.318C50.0235 41.5545 49.6108 41.9666 49.1826 42.1068L50.3661 45.3076H49.5096L48.412 42.2824H46.9173V45.3076H46.1387V38.3625H48.5599ZM48.4432 41.493C49.0581 41.493 49.206 41.1335 49.206 40.3443C49.206 39.4499 48.9725 39.1781 48.4042 39.1781H46.9249V41.493H48.4432Z" fill="#222443"/>
<path fill-rule="evenodd" clip-rule="evenodd" d="M55.2066 41.7211C55.2066 43.3609 55.0976 44.0273 54.7863 44.5272C54.4749 45.0096 53.9844 45.3076 53.1902 45.3076H51.0728V38.3625H53.1358C53.9144 38.3625 54.5215 38.6256 54.8019 39.0992C55.1133 39.6077 55.2066 40.2391 55.2066 41.7211ZM53.0268 44.4833C53.5017 44.4833 53.8988 44.3431 54.1011 44.0361C54.3192 43.7029 54.3814 43.0276 54.3814 41.7211C54.3814 40.625 54.3269 40.0374 54.1011 39.6603C53.891 39.3359 53.4861 39.1955 53.0113 39.1955H51.859V44.4833H53.0268Z" fill="#222443"/>
<path d="M63.4199 38.3625H64.1673L62.7115 45.3076H61.785C61.785 45.3076 60.7496 39.9059 60.7496 39.6778C60.7418 39.9059 59.683 45.3076 59.683 45.3076H58.7566L57.3008 38.3625H58.1415C58.1415 38.3625 59.2703 43.8607 59.2703 44.08C59.2703 43.8607 60.3057 38.3625 60.3057 38.3625H61.2322C61.2322 38.3625 62.2676 43.8695 62.2676 44.08C62.2676 43.8695 63.4199 38.3625 63.4199 38.3625Z" fill="#222443"/>
<path d="M65.544 38.3625V45.3076H64.7344V38.3625H65.544Z" fill="#222443"/>
<path d="M70.6122 38.3625V45.3076H69.7169L67.4202 39.9233V45.3076H66.665V38.3625H67.6071L69.8492 43.6678V38.3625H70.6122Z" fill="#222443"/>
<path d="M75.6603 38.3625V45.3076H74.7649L72.4686 39.9233V45.3076H71.7134V38.3625H72.6555L74.898 43.6678V38.3625H75.6603Z" fill="#222443"/>
<path d="M77.5706 38.3625V45.3076H76.7612V38.3625H77.5706Z" fill="#222443"/>
<path d="M82.6398 38.3625V45.3076H81.7444L79.448 39.9233V45.3076H78.6924V38.3625H79.6349L81.8775 43.6678V38.3625H82.6398Z" fill="#222443"/>
<path d="M39.7371 58.9959L38.845 55.9031L37.9528 58.9959H35.0659L37.4014 60.9074L36.5094 64.0002L38.845 62.0886L41.1807 64.0002L40.2885 60.9074L42.6242 58.9959H39.7371Z" fill="#222443"/>
<path d="M50.0542 58.9959L49.1439 55.9031L48.2335 58.9959H45.2876L47.671 60.9072L46.7606 64L49.1439 62.0886L51.5273 64L50.6169 60.9072L53.0002 58.9959H50.0542Z" fill="#222443"/>
<path d="M60.2725 58.9959L59.3622 55.9031L58.4518 58.9959H55.5059L57.8891 60.9072L56.9788 64L59.3622 62.0886L61.7454 64L60.8351 60.9072L63.2185 58.9959H60.2725Z" fill="#222443"/>
<path d="M70.4903 58.9959L69.5799 55.9031L68.6696 58.9959H65.7236L68.1069 60.9072L67.1965 64L69.5799 62.0886L71.9632 64L71.0528 60.9072L73.4362 58.9959H70.4903Z" fill="#222443"/>
<path d="M80.7709 58.9959L79.8795 55.9031L78.9867 58.9959H76.1001L78.4355 60.9072L77.5441 64L79.8795 62.0886L82.2149 64L81.3221 60.9072L83.6589 58.9959H80.7709Z" fill="#222443"/>
<path d="M2.54417 21.1063C3.38367 22.549 4.68273 24.356 6.57686 24.3045C8.2993 24.4014 9.78739 23.0774 10.9593 21.9723C12.2213 20.7821 13.3605 19.0415 13.8415 17.1598C12.0798 16.5825 10.3931 17.652 9.13531 18.6608C7.82187 19.7144 6.81174 21.6426 6.59474 23.6224C6.57847 21.6389 6.10185 19.5904 5.33347 17.9401C4.63097 16.4314 3.65204 14.3921 1.90553 13.9844C1.21742 16.3319 1.43697 19.2042 2.54417 21.1063Z" fill="#222443"/>
<path d="M7.13715 32.0748C5.37922 32.4066 3.66444 31.1934 2.55079 29.7664C1.11702 27.929 0.263931 25.4643 0.437909 22.9968C2.24384 23.0485 3.6116 24.8069 4.62253 26.1366C5.71131 27.5686 6.60338 29.4527 7.03134 31.3963C6.84311 29.4594 7.42044 27.3678 8.49214 26.0754C9.5266 24.8278 10.9757 23.4681 12.7787 23.6863C12.7398 25.6504 11.8658 27.5217 10.9643 28.9231C10.124 30.2292 8.82947 31.8446 7.13715 32.0748Z" fill="#222443"/>
<path d="M3.88977 38.6006C5.50882 39.7879 7.47246 40.9631 9.53613 40.0737C11.2291 39.399 12.3055 37.4794 12.9676 35.7175C13.6689 33.8507 14.1373 31.6981 13.813 29.6548C11.9526 29.8408 10.4099 31.3401 9.59059 33.1702C8.73401 35.0836 8.56971 37.361 9.22771 39.367C8.2555 37.3033 6.83369 35.6335 5.32758 34.0906C3.95848 32.6881 1.98636 31.2106 0 31.4885C0.377939 34.2546 1.87652 37.1243 3.88977 38.6006Z" fill="#222443"/>
<path d="M13.7063 47.551C15.2996 46.4781 15.9407 44.2207 16.2028 42.2863C16.4853 40.2002 16.4732 37.8995 15.704 35.9204C13.8556 36.502 12.5868 38.3759 12.1678 40.4284C11.7252 42.597 12.0987 44.9081 13.1754 46.7545C11.7442 44.9049 9.84102 43.3778 8.0172 42.3069C6.25551 41.2726 4.09422 40.025 1.97852 40.7784C2.99872 43.583 5.18111 46.1942 7.59987 47.2743C9.47303 48.1106 11.7518 48.9376 13.7063 47.551Z" fill="#222443"/>
<path d="M21.2598 48.2768C21.4936 50.2904 21.487 52.8444 20.0991 54.3942C18.3647 56.3939 15.6805 56.008 13.6103 55.5681C10.8309 54.977 7.70225 52.8418 6.02539 49.9987C8.07333 48.7286 10.578 49.5411 12.6055 50.1988L12.7213 50.2362C14.9845 50.9696 17.3962 52.1509 19.4132 53.765C17.8036 52.1267 16.6308 49.7221 16.5734 47.2983C16.5218 45.1306 17.3571 42.8114 19.1547 41.7781C20.4097 43.6334 20.9973 46.0155 21.2598 48.2768Z" fill="#222443"/>
<path d="M29.3148 60.0961C30.3369 57.9046 29.3242 55.3324 28.5172 53.4314C27.5632 51.1839 26.2597 48.8935 24.3942 47.2485C22.6029 48.9874 22.7732 51.4755 23.3058 53.6378C23.9391 56.2088 26.1345 58.4005 28.4079 59.6495C25.775 58.5435 22.8995 57.8797 20.1637 57.6838L19.8866 57.6636C17.6887 57.5023 14.8275 57.2924 13.0762 59.1041C15.7242 61.6398 19.4854 63.1027 22.8004 63.0267C25.0219 62.9758 28.0699 62.6797 29.3148 60.0961Z" fill="#222443"/>
<path d="M110.214 15.8553C109.573 13.9118 108.169 12.2172 106.642 11.4268C105.223 10.6938 103.34 9.92887 101.685 10.8681C102.585 12.6497 104.068 14.1488 105.584 15.0917C106.946 15.9395 108.671 16.9666 110.378 16.5251C112.239 16.2041 113.138 14.1175 113.639 12.539C114.331 10.3578 113.858 7.44474 112.676 5.30469C111.046 6.06963 110.549 8.33916 110.209 9.94492C109.82 11.7727 109.809 13.9062 110.214 15.8553Z" fill="#222443"/>
<path d="M108.876 18.6646C110.189 19.7187 111.196 21.6458 111.412 23.6243C111.431 21.6419 111.909 19.5952 112.679 17.9466C113.382 16.4384 114.363 14.4 116.11 13.9937C116.795 16.3419 116.574 19.2141 115.464 21.1151C114.625 22.5552 113.327 24.3585 111.436 24.3101C109.711 24.4093 108.222 23.0821 107.049 21.9747C105.788 20.7833 104.651 19.0419 104.172 17.1599C105.933 16.5838 107.619 17.6548 108.876 18.6646Z" fill="#222443"/>
<path d="M110.968 31.409C111.16 29.4704 110.585 27.3744 109.512 26.0794C108.48 24.8309 107.031 23.47 105.229 23.6867C105.265 25.6508 106.137 27.523 107.038 28.9252C107.877 30.2314 109.169 31.8468 110.861 32.0796C112.619 32.415 114.336 31.2024 115.452 29.7755C116.887 27.9396 117.742 25.4756 117.571 23.0078C115.764 23.0581 114.395 24.8151 113.383 26.1439C112.291 27.5769 111.397 29.4631 110.968 31.409Z" fill="#222443"/>
<path d="M108.408 33.1739C109.264 35.0883 109.426 37.3661 108.766 39.3716C109.74 37.3081 111.163 35.6394 112.671 34.0975C114.041 32.6961 116.014 31.2206 118 31.5C117.621 34.2659 116.119 37.1344 114.105 38.6089C112.486 39.7932 110.525 40.966 108.464 40.0802C106.768 39.4067 105.691 37.4832 105.03 35.7183C104.329 33.8508 103.863 31.6979 104.189 29.6548C106.049 29.8424 107.591 31.3431 108.408 33.1739Z" fill="#222443"/>
<path d="M104.815 46.7507C105.89 44.9061 106.265 42.5972 105.826 40.4297C105.409 38.3768 104.141 36.5018 102.292 35.9187C101.522 37.8969 101.508 40.1974 101.788 42.284C102.049 44.2146 102.686 46.4675 104.27 47.5443C106.226 48.9418 108.511 48.1152 110.386 47.2792C112.806 46.2011 114.991 43.5917 116.013 40.7878C113.898 40.0328 111.736 41.2786 109.973 42.3114C108.15 43.3802 106.246 44.9042 104.815 46.7507Z" fill="#222443"/>
<path d="M96.7263 48.2721C96.491 50.2853 96.495 52.8391 97.8825 54.3903C99.6143 56.3915 102.299 56.0077 104.37 55.5693C107.15 54.9806 110.28 52.8477 111.959 50.0063C109.913 48.7346 107.407 49.5447 105.379 50.2006L105.263 50.2382C103 50.9693 100.588 52.1482 98.5696 53.7599C100.18 52.1229 101.354 49.7202 101.413 47.2974C101.467 45.1298 100.633 42.8099 98.8371 41.7749C97.58 43.6292 96.9911 46.0109 96.7263 48.2721Z" fill="#222443"/>
<path d="M95.1733 63.0199C92.9522 62.9671 89.9042 62.6686 88.6618 60.0837L88.6444 60.0483C87.6521 57.8634 88.6605 55.3098 89.4645 53.4199C90.4205 51.1733 91.726 48.8839 93.5921 47.2407C95.383 48.981 95.2096 51.4689 94.6758 53.6306C94.0398 56.2012 91.8429 58.3914 89.568 59.6382C92.2019 58.5345 95.0778 57.8731 97.8139 57.6793L98.0922 57.6593C100.29 57.5 103.152 57.2928 104.901 59.1056C102.251 61.6386 98.4888 63.0987 95.1733 63.0199Z" fill="#222443"/>
</svg>
