<svg width="56" height="56" viewBox="0 0 56 56" fill="none" xmlns="http://www.w3.org/2000/svg">
<g clip-path="url(#clip0_197_1234)">
<path d="M36.5737 54.4719C35.0057 53.1514 33.4306 51.5725 31.9068 49.8224C30.55 48.264 29.234 46.57 28 44.8022L41.2526 31.5496C43.4685 33.0961 45.5682 34.7717 47.4304 36.4948C48.7224 37.6904 49.8999 38.909 50.9225 40.1232C52.3592 41.8293 52.2475 44.352 50.6703 45.9292L42.3796 54.2198C40.8025 55.7968 38.2797 55.9086 36.5737 54.4719Z" fill="#222443"/>
<path d="M47.4303 36.4948C45.5681 34.7717 43.4685 33.0961 41.2525 31.5496L28 44.8021C29.234 46.5699 30.55 48.264 31.9068 49.8223C32.2322 50.196 32.5602 50.56 32.8896 50.9172C35.0987 50.4257 37.216 49.5134 39.2168 48.1852C41.6882 46.5447 44.2426 44.3238 46.2252 42.0922C47.4194 40.7479 48.385 39.424 49.1148 38.1358C48.579 37.5859 48.0172 37.0379 47.4303 36.4948Z" fill="white"/>
<path d="M45.6503 29.616C44.2545 28.2202 41.9917 28.2202 40.596 29.616C41.9917 28.2202 41.9917 25.9574 40.596 24.5616C39.2002 23.1659 36.9374 23.1659 35.5416 24.5616C36.9374 23.1659 36.9374 20.903 35.5416 19.5073C34.1459 18.1116 31.883 18.1116 30.4873 19.5073C31.883 18.1116 31.883 15.8487 30.4873 14.453C28.7696 12.7352 26.6843 13.2516 24.4813 14.6843C23.3562 15.416 22.2003 16.3867 21.0469 17.421C22.0653 22.6549 17.1453 24.271 15.2036 23.0669C13.1768 26.1199 12.4879 29.3422 12.7555 32.3955C12.8075 32.9885 12.5668 33.5684 12.1018 33.94C10.9833 34.8337 9.91605 35.7531 8.91953 36.6855C7.70733 37.8197 6.59958 38.9732 5.63128 40.1231C4.19453 41.8291 4.30631 44.3518 5.8835 45.929L14.1741 54.2196C15.7568 55.8023 18.2845 55.9015 19.9956 54.4587C21.1768 53.4628 22.3617 52.3198 23.5256 51.0678C24.4207 50.1047 25.3035 49.0773 26.1624 48.0022C26.5343 47.5368 27.1142 47.2957 27.7075 47.3476C30.7608 47.6154 33.9831 46.9263 37.0361 44.8996C38.9548 43.6258 41.3394 41.6543 43.2772 39.4729C44.6376 37.9417 45.7777 36.3071 46.3821 34.738C47.1157 32.8337 47.0599 31.0257 45.6503 29.616Z" fill="#222443"/>
<path d="M21.4417 21.6573L20.7107 20.9636C19.5598 23.3351 16.6055 23.9364 15.2036 23.067C13.1768 26.12 12.4879 29.3423 12.7555 32.3956C12.8075 32.9886 12.5668 33.5685 12.1018 33.9401C10.9833 34.8338 9.91616 35.7532 8.91953 36.6856C7.70733 37.8198 6.59958 38.9734 5.63128 40.1232C4.19453 41.8292 4.30631 44.3519 5.8835 45.929L14.1741 54.2196C15.7568 55.8023 18.2845 55.9015 19.9956 54.4587C21.1768 53.4628 22.3617 52.3198 23.5256 51.0678C24.4207 50.1047 25.3035 49.0773 26.1624 48.0022C26.5343 47.5369 27.1142 47.2957 27.7075 47.3476C28.2173 47.3923 28.7319 47.4096 29.2496 47.3992C22.0484 44.4239 18.2364 29.7912 21.4417 21.6573Z" fill="#222443"/>
<path d="M7.67212 28.3669C6.44132 29.5977 6.44132 31.5932 7.67212 32.824L9.07628 34.2281C10.3071 35.4589 12.3025 35.4589 13.5333 34.2281C14.7641 32.9973 14.7641 31.0019 13.5333 29.7711L12.1292 28.3669C10.8985 27.1361 8.90292 27.1361 7.67212 28.3669Z" fill="white"/>
<path d="M11.4876 23.2686C10.2568 24.4994 10.2568 26.4948 11.4876 27.7256L12.8917 29.1297C14.1225 30.3605 16.1179 30.3605 17.3487 29.1297C18.5795 27.8989 18.5795 25.9035 17.3487 24.6727L15.9446 23.2686C14.7138 22.0378 12.7183 22.0378 11.4876 23.2686Z" fill="white"/>
<path d="M15.9446 18.8115C14.7138 20.0423 14.7138 22.0378 15.9446 23.2686L17.3487 24.6727C18.5795 25.9035 20.575 25.9035 21.8058 24.6727C23.0366 23.4419 23.0366 21.4465 21.8058 20.2157L20.4016 18.8115C19.1708 17.5807 17.1754 17.5807 15.9446 18.8115Z" fill="white"/>
<path d="M20.4016 14.3545C19.1708 15.5853 19.1708 17.5807 20.4016 18.8115L21.8058 20.2157C23.0366 21.4465 25.032 21.4465 26.2628 20.2157C27.4936 18.9849 27.4936 16.9894 26.2628 15.7587L24.8586 14.3545C23.6278 13.1237 21.6324 13.1237 20.4016 14.3545Z" fill="white"/>
<path d="M11.8629 2.84311C11.3279 2.40364 10.6461 1.98758 10.0018 1.66328C9.13384 1.22622 8.08329 1.7615 7.92667 2.72061C7.81062 3.43122 7.74642 4.22572 7.78711 4.91599C7.80023 5.13889 7.69468 5.35381 7.50656 5.47402C6.92261 5.8471 6.31525 6.36772 5.80698 6.88091C5.12306 7.57139 5.30747 8.7358 6.17131 9.18117C6.81345 9.51225 7.55206 9.81981 8.22286 9.99416C8.43723 10.0498 8.60425 10.217 8.66003 10.4312C8.83437 11.102 9.14194 11.8406 9.4729 12.4828C9.91828 13.3466 11.0827 13.531 11.7733 12.8471C12.2865 12.3388 12.8071 11.7315 13.1802 11.1475C13.3004 10.9594 13.5153 10.8538 13.7382 10.867C14.4284 10.9077 15.223 10.8435 15.9336 10.7274C16.8927 10.5708 17.428 9.52035 16.9909 8.65224C16.6665 8.00802 16.2505 7.32617 15.8111 6.79122C15.6699 6.61928 15.6324 6.38227 15.7135 6.17511C15.9662 5.53056 16.1511 4.75346 16.2605 4.04055C16.4079 3.07991 15.5743 2.24625 14.6136 2.39369C13.9007 2.50306 13.1236 2.68802 12.4791 2.94067C12.2717 3.02194 12.0347 2.98431 11.8629 2.84311Z" fill="#FFD358"/>
<path d="M17.143 9.28085C11.0899 9.90921 8.75125 4.61393 9.27133 1.51392C8.62656 1.55285 8.04042 2.02371 7.92667 2.72065C7.81062 3.43126 7.74642 4.22576 7.78711 4.91603C7.80023 5.13893 7.69468 5.35385 7.50656 5.47406C6.92261 5.84714 6.31525 6.36776 5.80698 6.88095C5.12306 7.57143 5.30747 8.73595 6.17131 9.18132C6.81345 9.5124 7.55206 9.81996 8.22286 9.9942C8.43723 10.0499 8.60425 10.217 8.66003 10.4313C8.83437 11.1021 9.14194 11.8407 9.47301 12.4828C9.91839 13.3467 11.0828 13.5311 11.7733 12.8471C12.2865 12.3389 12.8071 11.7315 13.1802 11.1476C13.3004 10.9594 13.5153 10.8539 13.7382 10.867C14.4284 10.9076 15.223 10.8435 15.9336 10.7274C16.6669 10.6076 17.1507 9.96488 17.143 9.28085Z" fill="#FFD358"/>
<path d="M27.9997 8.14543C26.5787 8.14543 25.4268 6.99349 25.4268 5.57249V3.09296C25.4268 1.67196 26.5787 0.52002 27.9997 0.52002C29.4207 0.52002 30.5726 1.67196 30.5726 3.09296V5.57249C30.5726 6.99338 29.4207 8.14543 27.9997 8.14543Z" fill="#AED032"/>
<path d="M30.4516 6.35347C28.4512 5.82727 26.5655 2.99172 27.3364 0.606689C26.237 0.899268 25.4268 1.90136 25.4268 3.09289V5.57242C25.4268 6.99342 26.5787 8.14536 27.9997 8.14536C29.1484 8.14547 30.1208 7.39253 30.4516 6.35347Z" fill="#AED032"/>
<path d="M4.96573 21.6577H2.57294C1.15194 21.6577 0 20.5057 0 19.0847C0 17.6637 1.15194 16.5117 2.57294 16.5117H4.96563C6.38663 16.5117 7.53856 17.6637 7.53856 19.0847C7.53856 20.5057 6.38673 21.6577 4.96573 21.6577Z" fill="#D7F6FF"/>
<path d="M3.55797 16.5117H2.57294C1.15194 16.5117 0 17.6637 0 19.0847C0 20.5057 1.15194 21.6576 2.57294 21.6576H4.96563C5.22638 21.6576 5.47794 21.6184 5.71517 21.5464C4.2817 20.824 2.88258 18.4652 3.55797 16.5117Z" fill="#D7F6FF"/>
<path d="M44.1377 2.84311C44.6726 2.40364 45.3545 1.98758 45.9987 1.66328C46.8667 1.22622 47.9172 1.7615 48.0739 2.72061C48.1899 3.43122 48.2541 4.22572 48.2134 4.91599C48.2003 5.13889 48.3058 5.35381 48.494 5.47402C49.0779 5.8471 49.6853 6.36772 50.1935 6.88091C50.8775 7.57139 50.6931 8.7358 49.8292 9.18117C49.1872 9.51225 48.4485 9.81981 47.7777 9.99416C47.5633 10.0498 47.3963 10.217 47.3405 10.4312C47.1662 11.102 46.8586 11.8406 46.5276 12.4828C46.0823 13.3466 44.9178 13.531 44.2274 12.8471C43.7142 12.3388 43.1935 11.7315 42.8205 11.1475C42.7003 10.9594 42.4853 10.8538 42.2624 10.867C41.5722 10.9077 40.7777 10.8435 40.0671 10.7274C39.1078 10.5708 38.5727 9.52035 39.0097 8.65224C39.3341 8.00802 39.7501 7.32617 40.1896 6.79122C40.3308 6.61928 40.3683 6.38227 40.2871 6.17511C40.0345 5.53056 39.8495 4.75346 39.7401 4.04055C39.5927 3.07991 40.4264 2.24625 41.387 2.39369C42.0999 2.50306 42.877 2.68802 43.5216 2.94067C43.7287 3.02194 43.9657 2.98431 44.1377 2.84311Z" fill="#FFD358"/>
<path d="M46.5276 12.4828C46.8587 11.8406 47.1663 11.102 47.3405 10.4312C47.3962 10.217 47.5633 10.0498 47.7777 9.99418C48.3455 9.84663 48.9615 9.60316 49.5269 9.33115C44.8156 9.33913 42.6519 5.53922 42.5413 2.62985C42.1579 2.53097 41.7637 2.45157 41.387 2.39371C40.4263 2.24627 39.5927 3.07993 39.7401 4.04057C39.8495 4.75347 40.0345 5.53058 40.2871 6.17513C40.3683 6.38229 40.3308 6.6193 40.1895 6.79113C39.7501 7.32608 39.334 8.00793 39.0097 8.65214C38.5727 9.52014 39.1079 10.5707 40.067 10.7273C40.7777 10.8434 41.5722 10.9076 42.2624 10.8669C42.4853 10.8538 42.7002 10.9593 42.8205 11.1474C43.1935 11.7314 43.7142 12.3387 44.2273 12.847C44.9178 13.531 46.0822 13.3466 46.5276 12.4828Z" fill="#FFD358"/>
<path d="M53.4275 21.6576H51.0349C49.6139 21.6576 48.4619 20.5057 48.4619 19.0847C48.4619 17.6637 49.6139 16.5117 51.0349 16.5117H53.4275C54.8485 16.5117 56.0005 17.6637 56.0005 19.0847C56.0005 20.5057 54.8485 21.6576 53.4275 21.6576Z" fill="#F73B50"/>
<path d="M52.0189 16.5117H51.0339C49.6129 16.5117 48.4609 17.6637 48.4609 19.0847C48.4609 20.5057 49.6129 21.6576 51.0339 21.6576H53.4266C53.6873 21.6576 53.9389 21.6184 54.1761 21.5464C52.7426 20.824 51.3435 18.4652 52.0189 16.5117Z" fill="#F73B50"/>
</g>
<defs>
<clipPath id="clip0_197_1234">
<rect width="56" height="56" fill="white"/>
</clipPath>
</defs>
</svg>
