<svg width="64" height="64" viewBox="0 0 64 64" fill="none" xmlns="http://www.w3.org/2000/svg">
<g clip-path="url(#clip0_197_1085)">
<path d="M22.2582 27.9771C20.4654 28.2483 18.8003 27.1326 18.5392 25.485L17.0894 15.784C16.8282 14.1365 18.0699 12.581 19.8628 12.3099C21.6556 12.0387 23.3206 13.1544 23.5817 14.802L25.0315 24.503C25.2927 26.1505 24.051 27.7059 22.2582 27.9771Z" fill="#D7F6FF"/>
<path d="M41.1939 28.6276C42.9709 28.7955 44.5736 27.6046 44.7734 25.9675L45.8635 16.3333C46.0634 14.6963 44.7847 13.2331 43.0076 13.0651C41.2306 12.8972 39.6279 14.0881 39.4281 15.7251L38.338 25.3594C38.1381 26.9964 39.4168 28.4595 41.1939 28.6276Z" fill="#F73B50"/>
<path d="M49.3531 34.5494C50.9822 34.9234 52.5495 34.1525 52.8537 32.8274L54.5647 25.0179C54.8689 23.693 53.7947 22.3156 52.1656 21.9416C50.5364 21.5675 48.9691 22.3384 48.6649 23.6635L46.9538 31.473C46.6497 32.798 47.7239 34.1753 49.3531 34.5494Z" fill="#AED032"/>
<path d="M32.2099 25.3028C30.3966 25.3299 28.9047 23.8819 28.8776 22.0686L28.6039 10.9699C28.5768 9.1566 30.0247 7.66469 31.838 7.63758C33.6513 7.61048 35.1433 9.05843 35.1704 10.8717L35.444 21.9705C35.471 23.7838 34.0231 25.2757 32.2099 25.3028Z" fill="#FFD358"/>
<path d="M36.3528 59.0162L23.8646 58.1459C20.421 57.9059 17.8458 54.5993 17.6621 50.619C17.6089 49.4646 18.2822 48.4007 19.3332 47.9201C20.5878 47.3465 36.9639 55.8621 37.7125 45.1313C37.8982 42.4703 31.1251 40.426 29.0339 40.1124C23.8278 39.3314 21.4565 35.5271 26.3464 33.7087L39.1582 34.7543C42.8908 35.059 45.6293 38.9888 45.2728 43.529L44.7458 50.239C44.3408 55.3973 40.5975 59.312 36.3528 59.0162Z" fill="#222443"/>
<path d="M16.9664 40.0548L15.5565 41.5438C14.3076 42.8625 12.2263 42.9192 10.9074 41.6705L6.86625 37.8436C5.54753 36.5947 5.49079 34.5133 6.73954 33.1945L8.14948 31.7056C9.39835 30.3869 11.4797 30.3301 12.7984 31.579L16.8396 35.4058C18.1584 36.6546 18.2152 38.7361 16.9664 40.0548Z" fill="#AED032"/>
<path d="M4.74328 11.8919L5.73565 14.6823C5.77817 14.8017 5.86224 14.8965 5.96834 14.9443L8.44755 16.0613C8.79781 16.2191 8.79781 16.7771 8.44755 16.935L5.96834 18.052C5.86213 18.0998 5.77806 18.1944 5.73565 18.314L4.74328 21.1044C4.60313 21.4987 4.10722 21.4987 3.96708 21.1044L2.97471 18.314C2.93218 18.1944 2.84811 18.0998 2.7419 18.052L0.262691 16.935C-0.0875635 16.7772 -0.0875635 16.2192 0.262691 16.0613L2.7419 14.9443C2.84811 14.8965 2.93218 14.8019 2.97471 14.6823L3.96708 11.8919C4.10733 11.4976 4.60313 11.4976 4.74328 11.8919Z" fill="#FFD358"/>
<path d="M53.0575 5.18741L53.7936 7.25731C53.8251 7.34589 53.8875 7.41619 53.9663 7.45166L55.8053 8.2802C56.0651 8.39721 56.0651 8.81125 55.8053 8.92826L53.9663 9.7568C53.8875 9.79227 53.8251 9.86246 53.7936 9.95115L53.0575 12.0211C52.9535 12.3135 52.5857 12.3135 52.4817 12.0211L51.7456 9.95115C51.7141 9.86257 51.6517 9.79227 51.573 9.7568L49.7339 8.92826C49.4741 8.81125 49.4741 8.39721 49.7339 8.2802L51.573 7.45166C51.6518 7.41619 51.7141 7.346 51.7456 7.25731L52.4817 5.18741C52.5856 4.89489 52.9535 4.89489 53.0575 5.18741Z" fill="#FFD358"/>
<path d="M55.763 47.5203C56.0366 46.3629 55.3201 45.2028 54.1627 44.9292C53.0052 44.6556 51.8452 45.3721 51.5716 46.5295C51.298 47.687 52.0145 48.847 53.1719 49.1206C54.3293 49.3942 55.4894 48.6777 55.763 47.5203Z" fill="#FFD358"/>
<path d="M11.4281 9.34556C11.9413 9.34556 12.3573 8.92957 12.3573 8.41643C12.3573 7.90329 11.9413 7.4873 11.4281 7.4873C10.915 7.4873 10.499 7.90329 10.499 8.41643C10.499 8.92957 10.915 9.34556 11.4281 9.34556Z" fill="#FFD358"/>
</g>
<defs>
<clipPath id="clip0_197_1085">
<rect width="56" height="56" fill="white" transform="translate(0 4)"/>
</clipPath>
</defs>
</svg>
