<svg width="64" height="64" viewBox="0 0 64 64" fill="none" xmlns="http://www.w3.org/2000/svg">
<g clip-path="url(#clip0_197_655)">
<path d="M34.9331 24.1785L37.5788 29.7505C37.8533 30.3498 38.4091 30.7723 39.0599 30.8766L44.9287 31.7633C45.6905 31.9145 46.3074 32.4724 46.5342 33.2152C46.761 33.958 46.5609 34.7654 46.0136 35.3163L41.7998 39.583C41.3237 40.0738 41.1099 40.7621 41.2242 41.4362L42.2274 47.4906C42.389 48.2411 42.1053 49.0177 41.4978 49.4872C40.8904 49.9567 40.0673 50.0355 39.3818 49.6899L34.0787 46.7931C33.5142 46.483 32.8303 46.483 32.2658 46.7931L26.9636 49.6908C26.2779 50.0371 25.4541 49.9585 24.8463 49.4887C24.2384 49.0189 23.9547 48.2415 24.1171 47.4906L25.1158 41.4362C25.2301 40.7621 25.0163 40.0738 24.5402 39.583L20.3264 35.3163C19.7791 34.7654 19.579 33.958 19.8058 33.2152C20.0326 32.4724 20.6495 31.9145 21.4113 31.7633L27.2801 30.8766C27.9309 30.7723 28.4867 30.3498 28.7612 29.7505L31.4069 24.1785C31.7137 23.4784 32.4056 23.0261 33.17 23.0261C33.9344 23.0261 34.6263 23.4784 34.9331 24.1785Z" fill="#FFD358"/>
<path d="M41.8059 39.5812C41.3292 40.0729 41.1131 40.7611 41.2231 41.4371L42.2273 47.4888C42.3889 48.2407 42.1046 49.0187 41.4962 49.4893C40.8879 49.9599 40.0635 50.0396 39.3762 49.6943L34.0776 46.7931C33.5124 46.4883 32.8318 46.4883 32.2666 46.7931L26.968 49.6979C26.2807 50.0432 25.4563 49.9635 24.848 49.4929C24.2396 49.0223 23.9554 48.2443 24.1169 47.4924L24.3411 46.1565C37.6549 38.1055 35.5838 27.1944 34.3735 23.4558C34.6101 23.6539 34.8 23.9019 34.9293 24.182L37.5742 29.7586C37.8563 30.3538 38.4125 30.7726 39.0625 30.8793L44.9259 31.7668C45.6873 31.9176 46.3041 32.475 46.5309 33.2173C46.7578 33.9597 46.5579 34.7666 46.0107 35.3172L41.8059 39.5812Z" fill="#FFD358"/>
<path d="M19.3377 6.91714L21.4544 11.3793C21.6757 11.8564 22.1195 12.1924 22.6388 12.2758L27.3331 12.985C27.9425 13.1059 28.436 13.5521 28.6176 14.1462C28.7992 14.7403 28.6395 15.3861 28.2019 15.8271L24.8344 19.2394C24.4536 19.6321 24.2828 20.1829 24.3745 20.7222L25.1733 25.5636C25.302 26.1638 25.0747 26.7846 24.589 27.1599C24.1033 27.5352 23.4453 27.5985 22.897 27.3227L18.6545 25.0069C18.2034 24.7577 17.6559 24.7577 17.2048 25.0069L12.9632 27.3245C12.4149 27.6003 11.7569 27.537 11.2712 27.1617C10.7855 26.7864 10.5582 26.1656 10.6869 25.5654L11.4857 20.724C11.5774 20.1847 11.4066 19.6339 11.0257 19.2411L7.6574 15.8271C7.2198 15.3861 7.06007 14.7403 7.24168 14.1462C7.42328 13.5521 7.91681 13.1059 8.52616 12.985L13.2205 12.2758C13.7397 12.1924 14.1836 11.8564 14.4049 11.3793L16.5216 6.92163C16.7671 6.3637 17.3186 6.00317 17.9282 6.0022C18.5377 6.00123 19.0904 6.36001 19.3377 6.91714Z" fill="#F73B50"/>
<path d="M24.8347 19.2385C24.4533 19.6319 24.2804 20.1825 24.3684 20.7232L25.1753 25.5646C25.3045 26.166 25.0772 26.7881 24.5908 27.1645C24.1044 27.5409 23.4451 27.6049 22.8954 27.329L18.6538 25.007C18.202 24.7631 17.6577 24.7631 17.2059 25.007L12.967 27.3308C12.4173 27.6067 11.758 27.5427 11.2716 27.1663C10.7852 26.7899 10.5579 26.1677 10.6871 25.5664L10.8664 24.4977C21.5174 18.0551 19.8588 9.32805 18.8905 6.33716C19.0811 6.49521 19.2343 6.69365 19.3388 6.91812L21.4511 11.3794C21.6768 11.8555 22.1218 12.1905 22.6417 12.2759L27.3316 12.986C27.9408 13.1065 28.4343 13.5524 28.6158 14.1463C28.7972 14.7402 28.6372 15.3858 28.1994 15.8263L24.8347 19.2385Z" fill="#F73B50"/>
<path d="M40.829 45.4125L47.5352 39.8001C48.6417 38.8708 50.2831 38.9749 51.2633 40.0366C52.2435 41.0983 52.2166 42.7428 51.2021 43.7718L40.0131 55.167C39.3815 55.8075 38.5274 56.18 37.6283 56.2069H21.4366C20.291 56.2087 19.1563 56.4277 18.0924 56.8525L15.2414 58.0001H0V56.2069C0 56.2069 4.48276 52.6207 6.27586 50.8276C13.4483 43.6552 18.8007 42.7587 22.3869 42.7587C23.8397 42.7535 25.2483 43.2579 26.3676 44.1842C26.6754 44.4292 27.0591 44.5592 27.4524 44.5518H36.6869C37.2262 44.6283 37.748 44.7982 38.229 45.0538C38.3681 45.1517 38.5 45.2596 38.6235 45.3766C38.9703 45.7299 39.223 46.1646 39.3586 46.6407L40.829 45.4125Z" fill="#222443"/>
<path d="M41.2323 47.0441C41.3025 48.0283 40.9579 48.997 40.282 49.7158C39.5946 50.4291 38.6457 50.8307 37.6551 50.8275H27.793C27.2979 50.8275 26.8965 50.4261 26.8965 49.931C26.8965 49.4358 27.2979 49.0344 27.793 49.0344H37.6551C38.1551 49.04 38.6352 48.8388 38.982 48.4786C39.3155 48.1206 39.4845 47.6396 39.4482 47.1517C39.4322 46.9792 39.4022 46.8083 39.3586 46.6406C39.3496 46.6406 40.8289 45.4124 40.8289 45.4124C41.0656 45.9258 41.2025 46.4795 41.2323 47.0441Z" fill="white"/>
<path d="M41.1651 8.33111L42.3996 10.9311C42.5283 11.2103 42.7874 11.4072 43.0909 11.4565L45.8298 11.8707C46.184 11.9431 46.4702 12.2034 46.5756 12.5492C46.6811 12.8949 46.5889 13.2707 46.3355 13.5284L44.3711 15.5188C44.1486 15.7477 44.0486 16.0692 44.1022 16.3839L44.5675 19.209C44.6425 19.5591 44.51 19.9212 44.2267 20.1402C43.9435 20.3592 43.5596 20.3963 43.2397 20.2355L40.7661 18.8826C40.5028 18.7383 40.184 18.7383 39.9207 18.8826L37.4462 20.2355C37.1262 20.3963 36.7424 20.3592 36.4591 20.1402C36.1759 19.9212 36.0433 19.5591 36.1184 19.209L36.5846 16.3839C36.6377 16.0692 36.5378 15.7479 36.3156 15.5188L34.3513 13.5284C34.0978 13.2706 34.0058 12.8947 34.1114 12.5489C34.2171 12.2031 34.5035 11.9428 34.8578 11.8707L37.5959 11.4565C37.8995 11.4075 38.1587 11.2105 38.2871 10.9311L39.5217 8.33111C39.6643 8.0044 39.9869 7.79321 40.3434 7.79321C40.6999 7.79321 41.0225 8.0044 41.1651 8.33111Z" fill="#AED032"/>
<path d="M44.3731 15.5161C44.1516 15.7456 44.0518 16.0665 44.1042 16.3812L44.5731 19.2054C44.6486 19.5563 44.516 19.9195 44.2321 20.1391C43.9481 20.3588 43.5633 20.3959 43.2426 20.2346L40.7663 18.879C40.5028 18.7365 40.1852 18.7365 39.9217 18.879L37.4491 20.2346C37.1284 20.3959 36.7435 20.3588 36.4596 20.1391C36.1756 19.9195 36.043 19.5563 36.1186 19.2054L36.2235 18.5823C42.4357 14.8257 41.4692 9.73419 40.9044 7.9895C41.0148 8.08212 41.1035 8.1978 41.1644 8.3284L42.398 10.9311C42.5299 11.2087 42.7895 11.4041 43.0929 11.4538L45.8282 11.868C46.1822 11.9403 46.4682 12.2004 46.5739 12.5459C46.6795 12.8913 46.5878 13.2669 46.3348 13.5248L44.3731 15.5161Z" fill="#AED032"/>
<path d="M8.93079 39.3086C10.6846 38.3675 11.736 36.9143 11.2791 36.0628C10.8222 35.2114 9.02999 35.284 7.27617 36.2252C5.52234 37.1663 4.47099 38.6195 4.9279 39.4709C5.38481 40.3224 7.17696 40.2498 8.93079 39.3086Z" fill="#D7F6FF"/>
<path d="M51.5546 27.3354C51.7996 26.2989 51.158 25.26 50.1215 25.015C49.085 24.77 48.0461 25.4116 47.8011 26.4482C47.556 27.4847 48.1977 28.5236 49.2342 28.7686C50.2707 29.0136 51.3096 28.372 51.5546 27.3354Z" fill="#FFD358"/>
</g>
<defs>
<clipPath id="clip0_197_655">
<rect width="52" height="52" fill="white" transform="translate(0 6)"/>
</clipPath>
</defs>
</svg>
