<svg width="111" height="32" viewBox="0 0 111 32" fill="none" xmlns="http://www.w3.org/2000/svg">
<path d="M37.0762 20.3635V7.91846H35.0537V20.3635H37.0762Z" fill="white"/>
<path d="M38.314 16.2153C38.314 18.7578 40.0049 20.5644 42.5745 20.5644C45.1441 20.5644 46.835 18.7578 46.835 16.2153C46.835 13.6728 45.1441 11.8662 42.5745 11.8662C40.0049 11.8662 38.314 13.6728 38.314 16.2153ZM40.3531 16.2153C40.3531 14.7266 41.2317 13.6895 42.5745 13.6895C43.9173 13.6895 44.7959 14.7266 44.7959 16.2153C44.7959 17.6873 43.9173 18.7411 42.5745 18.7411C41.2317 18.7411 40.3531 17.6873 40.3531 16.2153Z" fill="white"/>
<path d="M47.5154 16.048C47.5154 18.4568 49.0571 20.1964 51.3615 20.1964C52.5551 20.1964 53.5829 19.7113 54.0968 18.9084V20.3135C54.0968 21.6684 53.2513 22.5717 51.8422 22.5717C50.5823 22.5717 49.7202 21.9528 49.6042 20.8655H47.5651C47.8304 23.0233 49.4716 24.4284 51.7262 24.4284C54.3786 24.4284 56.0696 22.672 56.0696 19.9455V12.1004H54.2792L54.1631 13.2211C53.6658 12.3513 52.638 11.8328 51.4278 11.8328C49.0903 11.8328 47.5154 13.6226 47.5154 16.048ZM49.571 15.9979C49.571 14.6262 50.4331 13.6226 51.7096 13.6226C53.1021 13.6226 54.0305 14.6429 54.0305 15.9979C54.0305 17.3695 53.1021 18.4233 51.7096 18.4233C50.4497 18.4233 49.571 17.3862 49.571 15.9979Z" fill="white"/>
<path d="M57.0703 16.2153C57.0703 18.7578 58.7613 20.5644 61.3308 20.5644C63.9004 20.5644 65.5914 18.7578 65.5914 16.2153C65.5914 13.6728 63.9004 11.8662 61.3308 11.8662C58.7613 11.8662 57.0703 13.6728 57.0703 16.2153ZM59.1094 16.2153C59.1094 14.7266 59.988 13.6895 61.3308 13.6895C62.6736 13.6895 63.5523 14.7266 63.5523 16.2153C63.5523 17.6873 62.6736 18.7411 61.3308 18.7411C59.988 18.7411 59.1094 17.6873 59.1094 16.2153Z" fill="white"/>
<path d="M67.7803 10.4108C68.4434 10.4108 68.9905 9.87553 68.9905 9.18972C68.9905 8.52062 68.4434 7.98535 67.7803 7.98535C67.1006 7.98535 66.5867 8.52062 66.5867 9.18972C66.5867 9.87553 67.1006 10.4108 67.7803 10.4108ZM66.769 20.3635H68.7915V12.1003H66.769V20.3635Z" fill="white"/>
<path d="M70.5635 24.1941H72.5364V19.2261C73.0503 20.0792 74.161 20.581 75.3878 20.581C77.8082 20.581 79.2504 18.7075 79.2173 16.1315C79.1676 13.5388 77.6921 11.8494 75.3712 11.8494C74.1279 11.8494 73.0006 12.4014 72.5032 13.3548L72.3872 12.1003H70.5635V24.1941ZM72.6193 16.2319C72.6193 14.7432 73.5145 13.7061 74.9236 13.7061C76.3327 13.7061 77.1782 14.7599 77.1782 16.2319C77.1782 17.7039 76.3327 18.741 74.9236 18.741C73.5145 18.741 72.6193 17.7206 72.6193 16.2319Z" fill="white"/>
<path d="M79.7305 17.8879C79.7968 19.5272 81.0567 20.581 83.0129 20.581C84.9359 20.581 86.2456 19.5439 86.2456 17.9381C86.2456 16.7505 85.5162 15.9475 84.1734 15.613L82.7311 15.2617C82.1177 15.0945 81.7032 14.877 81.7032 14.3417C81.7032 13.773 82.1508 13.3715 82.8803 13.3715C83.6429 13.3715 84.1402 13.8065 84.1402 14.5257H85.9803C85.914 12.8865 84.7038 11.8494 82.93 11.8494C81.1728 11.8494 79.8631 12.8865 79.8631 14.4588C79.8631 15.5294 80.4765 16.4159 82.0514 16.8341L83.4771 17.2021C84.0076 17.3526 84.3391 17.6035 84.3391 18.0719C84.3391 18.7243 83.7257 19.0254 82.9797 19.0254C82.0845 19.0254 81.5706 18.6072 81.5706 17.8879H79.7305Z" fill="white"/>
<path d="M90.4413 20.5811C91.552 20.5811 92.613 20.0625 93.0937 19.2931L93.2264 20.3636H95.1162V12.1003H93.0937V16.4327C93.0937 17.9214 92.5301 18.7578 91.2039 18.7578C90.176 18.7578 89.4632 18.256 89.4632 16.5498V12.1003H87.4407V17.2691C87.4407 19.2429 88.5017 20.5811 90.4413 20.5811Z" fill="white"/>
<path d="M98.9234 20.3635V15.613C98.9234 14.2748 99.7026 13.6392 100.664 13.6392C101.626 13.6392 102.256 14.2581 102.256 15.429V20.3635H104.228V15.6297C104.228 14.2748 104.991 13.6392 105.952 13.6392C106.931 13.6392 107.56 14.2581 107.56 15.429V20.3635H109.517V14.9606C109.517 13.0537 108.472 11.8494 106.483 11.8494C105.24 11.8494 104.261 12.4515 103.864 13.4217C103.416 12.4515 102.521 11.8494 101.161 11.8494C100.2 11.8494 99.3378 12.301 98.8571 13.037L98.7576 12.1003H96.9009V20.3635H98.9234Z" fill="white"/>
<path d="M94.0748 27.7484C94.3761 27.7484 94.6377 27.4924 94.6377 27.1884C94.6377 26.8764 94.3761 26.6204 94.0748 26.6204C93.7656 26.6204 93.5039 26.8764 93.5039 27.1884C93.5039 27.4924 93.7656 27.7484 94.0748 27.7484Z" fill="white"/>
<path d="M95.2192 25.6843C95.2192 26.9083 95.9645 27.7323 97.0507 27.7323C97.9863 27.7323 98.6999 27.1643 98.8505 26.3163H98.137C98.0022 26.7883 97.5899 27.0683 97.0983 27.0683C96.4006 27.0683 95.9566 26.5243 95.9566 25.6763C95.9566 24.8123 96.4244 24.2843 97.1142 24.2843C97.5899 24.2843 98.0022 24.5403 98.129 25.0443H98.8426C98.7157 24.1883 98.0497 23.6123 97.1221 23.6123C95.9962 23.6123 95.2192 24.4523 95.2192 25.6843Z" fill="white"/>
<path d="M99.1316 25.6764C99.1316 26.8524 99.9244 27.7324 101.114 27.7324C102.303 27.7324 103.096 26.8524 103.096 25.6764C103.096 24.5004 102.303 23.6204 101.114 23.6204C99.9244 23.6204 99.1316 24.5004 99.1316 25.6764ZM99.8848 25.6764C99.8848 24.8764 100.368 24.2924 101.114 24.2924C101.859 24.2924 102.343 24.8764 102.343 25.6764C102.343 26.4764 101.859 27.0604 101.114 27.0604C100.368 27.0604 99.8848 26.4764 99.8848 25.6764Z" fill="white"/>
<path d="M104.478 27.6444V25.2924C104.478 24.6764 104.858 24.2764 105.413 24.2764C105.944 24.2764 106.277 24.6204 106.277 25.2364V27.6444H107.007V25.3004C107.007 24.6764 107.38 24.2764 107.942 24.2764C108.466 24.2764 108.799 24.6204 108.799 25.2364V27.6444H109.52V25.0764C109.52 24.1724 108.997 23.6204 108.109 23.6204C107.506 23.6204 107.039 23.9164 106.848 24.3964C106.65 23.9164 106.214 23.6204 105.58 23.6204C105.096 23.6204 104.668 23.8444 104.454 24.2284L104.398 23.7324H103.732V27.6444H104.478Z" fill="white"/>
<path fill-rule="evenodd" clip-rule="evenodd" d="M1.44165 16.3166L1.44304 16.1709L1.44591 16.0251L1.45026 15.8792L1.45609 15.7334L1.46342 15.5876L1.47222 15.4418L1.48251 15.296L1.49428 15.1503L1.50754 15.0046L1.52229 14.859L1.53852 14.7135L1.55623 14.568L1.57543 14.4227L1.59612 14.2776L1.61828 14.1326L1.64193 13.9878L1.66707 13.843L1.69367 13.6986L1.72176 13.5543L1.75133 13.4102L1.78237 13.2664L1.81488 13.1228L1.84887 12.9795L1.88432 12.8365L1.92124 12.6938L1.95962 12.5513L1.99948 12.4092L2.04078 12.2675L2.08355 12.1261L2.12776 11.9851L2.17343 11.8444L2.22055 11.7041L2.2691 11.5643L2.3191 11.4248L2.37053 11.2859L2.4234 11.1473L2.47769 11.0093L2.53341 10.8717L2.59054 10.7347L2.64909 10.5981L2.70905 10.462L2.77042 10.3265L2.83319 10.1916L2.89735 10.0572L2.96291 9.92339L3.02984 9.79023L3.09816 9.65764L3.16785 9.52564L3.23891 9.39437L3.31132 9.26368L3.3851 9.13364L3.46022 9.00434L3.53669 8.87568L3.61449 8.74775L3.69362 8.62055L3.77408 8.49408L3.85585 8.36841L3.93893 8.24339L4.02332 8.11925L4.10899 7.99583L4.19596 7.87321L4.28419 7.75146L4.37371 7.63045L4.46448 7.51037L4.55652 7.3911L4.6498 7.27266L4.74431 7.15513L4.84006 7.03849L4.93703 6.92275L5.03521 6.80792L5.1346 6.69402L5.23518 6.58107L5.33694 6.46906L5.43989 6.35802L5.544 6.24796L5.64927 6.13888L5.75569 6.0308L5.86324 5.92373L5.97193 5.81769L6.08173 5.71268L6.19265 5.60872L6.30465 5.50581L6.41775 5.40398L6.53193 5.30322L6.64718 5.20355L6.76347 5.10499L6.88082 5.00754L6.9992 4.91122L7.1186 4.81602L7.23902 4.72197L7.3604 4.62908L7.48286 4.53735L7.60626 4.44681L7.73059 4.35745L7.85587 4.26928L7.98215 4.18232L8.10929 4.09657L8.23737 4.01205L8.36639 3.92876L8.49635 3.84673L8.6271 3.76594L8.75879 3.68642L8.89126 3.60817L9.02461 3.5312L9.15882 3.45552L9.29382 3.38114L9.42961 3.30807L9.5662 3.23631L9.70358 3.16588L9.84176 3.09678L9.98065 3.02902L10.1203 2.9626L10.2607 2.89755L10.4018 2.83386L10.5436 2.77154L10.6861 2.7106L10.8292 2.65106L10.973 2.5929L11.1175 2.53613L11.2626 2.48079L11.4082 2.42684L11.5545 2.37434L11.7014 2.32324L11.8489 2.27359L11.9969 2.22538L12.1454 2.1786L12.2946 2.13329L12.4442 2.08943L12.5943 2.04704L12.7449 2.00611L12.896 1.96666L13.0475 1.92868L13.1994 1.8922L13.3519 1.8572L13.5047 1.8237L13.6579 1.7917L13.8114 1.76119L13.9654 1.7322L14.1197 1.70472L14.2744 1.67876L14.4294 1.65431L14.5846 1.63139L14.7402 1.61L14.896 1.59014L15.0521 1.57181L15.2085 1.55501L15.365 1.53977L15.5218 1.52606L15.6788 1.51389L15.8359 1.50328L16.6809 1.45459L16.7292 5.56271L16.7568 5.56239L16.8735 5.56223L16.9902 5.56322L17.1068 5.56536L17.2237 5.56867L17.3405 5.57314L17.4573 5.57875L17.5741 5.58554L17.691 5.59348L17.8077 5.60258L17.9246 5.61285L18.0413 5.62428L18.158 5.63688L18.2745 5.65063L18.3911 5.66555L18.5075 5.68163L18.6238 5.69887L18.74 5.71727L18.8561 5.73684L18.972 5.75756L19.0878 5.77944L19.2035 5.80248L19.3188 5.82668L19.4342 5.85204L19.5492 5.87855L19.664 5.9062L19.7787 5.93502L19.8931 5.96499L20.0072 5.9961L20.1211 6.02836L20.2347 6.06177L20.348 6.09631L20.4611 6.132L20.5738 6.16883L20.6862 6.20679L20.7983 6.24588L20.91 6.28611L21.0215 6.32746L21.1325 6.36994L21.2431 6.41353L21.3534 6.45825L21.4632 6.50408L21.5727 6.55102L21.6817 6.59907L21.7903 6.64823L21.8984 6.69848L22.0061 6.74983L22.1134 6.80227L22.2201 6.8558L22.3264 6.91042L22.4321 6.96612L22.5373 7.02289L22.6421 7.08074L22.7462 7.13964L22.8499 7.19962L22.9529 7.26064L23.0554 7.32274L23.1574 7.38586L23.2587 7.45001L23.3594 7.51524L23.4595 7.58143L23.559 7.6487L23.6579 7.71699L23.756 7.78623L23.8536 7.85655L23.9505 7.92783L24.0467 8.00012L24.1422 8.07343L24.237 8.14768L24.3311 8.22295L24.4245 8.2991L24.5172 8.37626L24.6091 8.45444L24.7003 8.5335L24.7907 8.6135L24.8804 8.69444L24.9692 8.77634L25.0573 8.85917L25.1445 8.94288L25.231 9.02746L25.3167 9.11299L25.4015 9.19939L25.4855 9.28674L25.5687 9.37488L25.6509 9.4639L25.7323 9.55379L25.8129 9.64455L25.8925 9.73612L25.9713 9.82855L26.0491 9.92179L26.1261 10.0158L26.2021 10.1107L26.2773 10.2064L26.3514 10.3028L26.4247 10.4L26.4969 10.4981L26.5682 10.5968L26.6386 10.6964L26.7079 10.7967L26.7763 10.8976L26.8437 10.9994L26.9101 11.1019L26.9755 11.2051L27.0398 11.3089L27.1031 11.4134L27.1654 11.5187L27.2267 11.6246L27.2868 11.7311L27.346 11.8383L27.4041 11.9462L27.4611 12.0546L27.5171 12.1637L27.5719 12.2734L27.6257 12.3836L27.6784 12.4945L27.73 12.6059L27.7804 12.7179L27.8298 12.8305L27.878 12.9436L27.9251 13.0573L27.9711 13.1714L28.0159 13.2861L28.0596 13.4012L28.1021 13.5169L28.1435 13.633L28.1837 13.7496L28.2228 13.8667L28.2607 13.9842L28.2974 14.1021L28.3329 14.2204L28.3672 14.3392L28.4004 14.4583L28.4323 14.5779L28.4631 14.6978L28.4926 14.818L28.521 14.9387L28.5481 15.0596L28.5739 15.1809L28.5987 15.3024L28.6221 15.4244L28.6443 15.5466L28.6653 15.6691L28.6851 15.7918L28.7036 15.9147L28.7209 16.038L28.7369 16.1614L28.7517 16.2851L28.7652 16.409L28.7775 16.5331L28.7885 16.6573L28.7983 16.7817L28.8068 16.9063L28.814 17.031L28.82 17.1558L28.8248 17.2808L28.8282 17.4059L28.8304 17.531L28.8313 17.6563L28.8309 17.7816L28.8292 17.907L28.8263 18.0324L28.8221 18.1578L28.8166 18.2832L28.8099 18.4087L28.8019 18.5342L28.7926 18.6596L28.782 18.785L28.7701 18.9104L28.7569 19.0357L28.7425 19.1608L28.7267 19.286L28.7098 19.411L28.6915 19.536L28.672 19.6608L28.6511 19.7854L28.629 19.9099L28.6057 20.0343L28.581 20.1585L28.5551 20.2825L28.5278 20.4063L28.4993 20.5299L28.4696 20.6533L28.4386 20.7764L28.4063 20.8992L28.3728 21.0219L28.338 21.1442L28.3019 21.2662L28.2646 21.388L28.226 21.5094L28.1862 21.6306L28.1451 21.7513L28.1027 21.8718L28.0592 21.9918L28.0143 22.1115L27.9683 22.2307L27.921 22.3496L27.8725 22.4681L27.8227 22.5862L27.7718 22.7038L27.7196 22.8209L27.6662 22.9376L27.6116 23.0539L27.5558 23.1696L27.4987 23.2848L27.4405 23.3995L27.3811 23.5138L27.3205 23.6274L27.2587 23.7406L27.1957 23.8531L27.1316 23.9651L27.0663 24.0765L26.9998 24.1872L26.9322 24.2975L26.8634 24.407L26.7935 24.516L26.7225 24.6243L26.6503 24.7319L26.577 24.8389L26.5025 24.9452L26.427 25.0508L26.3503 25.1558L26.2725 25.26L26.1936 25.3635L26.1137 25.4662L26.0327 25.5682L25.9506 25.6694L25.8674 25.7699L25.7832 25.8696L25.6979 25.9685L25.6115 26.0666L25.5242 26.1639L25.4358 26.2604L25.3464 26.356L25.256 26.4509L25.1646 26.5448L25.0721 26.6379L24.9787 26.7301L24.8843 26.8214L24.789 26.9119L24.6927 27.0014L24.5954 27.0901L24.4971 27.1777L24.398 27.2645L24.2979 27.3504L24.1969 27.4352L24.095 27.5191L23.9922 27.6021L23.8885 27.684L23.7839 27.765L23.6785 27.8449L23.5722 27.9239L23.4651 28.0019L23.357 28.0787L23.2482 28.1547L23.1385 28.2295L23.0281 28.3032L22.9168 28.376L22.8048 28.4477L22.692 28.5182L22.5784 28.5878L22.464 28.6561L22.3489 28.7235L22.2332 28.7896L22.1166 28.8547L21.9994 28.9187L21.8814 28.9814L21.7627 29.0431L21.6434 29.1037L21.5234 29.163L21.4027 29.2212L21.2814 29.2783L21.1594 29.3342L21.0369 29.3888L20.9137 29.4423L20.79 29.4946L20.6656 29.5457L20.5407 29.5956L20.4152 29.6443L20.2892 29.6918L20.1626 29.7379L20.0354 29.783L19.9079 29.8267L19.7798 29.8692L19.6511 29.9104L19.522 29.9504L19.3925 29.9892L19.2626 30.0267L19.1321 30.0629L19.0013 30.0979L18.8699 30.1315L18.7383 30.1638L18.6063 30.195L18.4738 30.2247L18.341 30.2532L18.2079 30.2804L18.0744 30.3063L17.9406 30.3309L17.8066 30.3541L17.6722 30.376L17.5375 30.3967L17.4025 30.416L17.2674 30.4339L17.1319 30.4506L16.9962 30.4659L16.8603 30.4798L16.7243 30.4925L16.588 30.5038L16.4516 30.5137L16.315 30.5223L16.1782 30.5296L16.0413 30.5355L15.9044 30.54L15.7672 30.5432L15.63 30.545L15.4927 30.5455L15.3554 30.5446L15.218 30.5424L15.0806 30.5388L14.9431 30.5338L14.8057 30.5275L14.6682 30.5198L14.5309 30.5107L14.3934 30.5003L14.2561 30.4886L14.1188 30.4754L13.9816 30.4609L13.8445 30.4451L13.7074 30.4278L13.5705 30.4092L13.4338 30.3892L13.2971 30.3679L13.1607 30.3452L13.0244 30.3212L12.8882 30.2958L12.7523 30.269L12.6166 30.2409L12.4812 30.2114L12.3459 30.1806L12.211 30.1484L12.0762 30.1149L11.9418 30.08L11.8077 30.0438L11.6739 30.0062L11.5404 29.9673L11.4072 29.9271L11.2744 29.8855L11.142 29.8426L11.01 29.7984L10.8783 29.7528L10.7471 29.7059L10.6162 29.6577L10.4858 29.6082L10.3559 29.5574L10.2264 29.5052L10.0974 29.4518L9.9689 29.397L9.84089 29.341L9.71338 29.2837L9.58638 29.2251L9.45996 29.1651L9.33411 29.104L9.20884 29.0415L9.08407 28.9778L8.95995 28.9128L8.83648 28.8466L8.71352 28.7792L8.59128 28.7104L8.46968 28.6405L8.34873 28.5693L8.22844 28.4968L8.10886 28.4232L7.98993 28.3483L7.87172 28.2723L7.75431 28.195L7.63754 28.1166L7.52157 28.0369L7.40639 27.9561L7.29193 27.8742L7.17827 27.791L7.06541 27.7067L6.95336 27.6211L6.84213 27.5345L6.73174 27.4468L6.62219 27.3579L6.5135 27.2679L6.40568 27.1768L6.29874 27.0846L6.19269 26.9912L6.08755 26.8968L5.98332 26.8013L5.88003 26.7048L5.77766 26.6071L5.67626 26.5085L5.57581 26.4087L5.47633 26.308L5.37783 26.2062L5.28033 26.1034L5.18384 25.9996L5.08835 25.8948L4.9939 25.789L4.90048 25.6822L4.80811 25.5745L4.71679 25.4658L4.62654 25.3562L4.53738 25.2456L4.44929 25.1341L4.36231 25.0216L4.27642 24.9083L4.19166 24.7941L4.10802 24.679L4.02552 24.563L3.94416 24.4461L3.86396 24.3284L3.78492 24.2099L3.70705 24.0904L3.63037 23.9703L3.55487 23.8493L3.48057 23.7275L3.40748 23.6049L3.33561 23.4815L3.26496 23.3574L3.19554 23.2326L3.12737 23.107L3.06044 22.9806L2.99476 22.8535L2.93036 22.7258L2.86722 22.5974L2.80537 22.4683L2.7448 22.3384L2.68553 22.208L2.62756 22.0769L2.57089 21.9453L2.51554 21.8129L2.46152 21.68L2.40881 21.5465L2.35745 21.4124L2.30744 21.2778L2.25876 21.1426L2.21144 21.0069L2.16548 20.8707L2.12088 20.7339L2.07767 20.5966L2.03582 20.4589L1.99536 20.3207L1.95629 20.182L1.9186 20.0429L1.88232 19.9034L1.84744 19.7635L1.81397 19.6231L1.78192 19.4824L1.75128 19.3412L1.72206 19.1998L1.69426 19.0579L1.6679 18.9158L1.64296 18.7734L1.61947 18.6306L1.59742 18.4875L1.57681 18.3442L1.55765 18.2006L1.53995 18.0567L1.5237 17.9126L1.5089 17.7683L1.49556 17.6239L1.48369 17.4792L1.47329 17.3343L1.46435 17.1893L1.45688 17.0441L1.45088 16.8988L1.44636 16.7534L1.44331 16.6079L1.44174 16.4623L1.44165 16.3166ZM15.409 5.64876L15.3761 2.84862L15.3449 2.85166L15.2016 2.86705L15.0587 2.88383L14.9158 2.90204L14.7735 2.92161L14.6314 2.9426L14.4894 2.96499L14.3479 2.98876L14.2064 3.01394L14.0657 3.04044L13.9248 3.06842L13.7849 3.09765L13.6448 3.12836L13.5054 3.16038L13.3661 3.19382L13.2275 3.22854L13.0893 3.26466L12.9514 3.30212L12.814 3.34093L12.6772 3.38105L12.5406 3.42255L12.4047 3.46533L12.2692 3.50948L12.1344 3.55484L11.9998 3.60164L11.866 3.6497L11.7328 3.69902L11.6 3.74969L11.4678 3.80159L11.3364 3.85475L11.2054 3.90927L11.075 3.96503L10.9453 4.02207L10.8162 4.0803L10.6879 4.1398L10.5602 4.2005L10.433 4.26253L10.3067 4.3257L10.1811 4.3901L10.0562 4.45572L9.932 4.52255L9.80867 4.59052L9.68585 4.65975L9.56382 4.73018L9.44288 4.80161L9.32229 4.87444L9.20286 4.94823L9.08422 5.02318L8.96615 5.09935L8.84903 5.17664L8.73276 5.25506L8.61758 5.33439L8.50284 5.41514L8.38924 5.49674L8.27651 5.57948L8.16457 5.66335L8.05365 5.74821L7.94373 5.8341L7.83446 5.92119L7.72641 6.00911L7.61916 6.09818L7.51292 6.18823L7.40761 6.27932L7.30339 6.37128L7.19994 6.46441L7.09768 6.55836L6.99629 6.6534L6.89607 6.74924L6.79677 6.84612L6.69857 6.94388L6.60137 7.0426L6.50512 7.14234L6.41013 7.24276L6.3162 7.34404L6.22311 7.44652L6.13131 7.54964L6.04064 7.6535L5.9509 7.75844L5.86246 7.86404L5.775 7.97059L5.68871 8.07786L5.60356 8.18601L5.51952 8.29488L5.43671 8.40448L5.35499 8.51488L5.27439 8.62615L5.19509 8.73794L5.11685 8.85066L5.03986 8.96397L4.96406 9.07801L4.88939 9.19277L4.81599 9.30819L4.74379 9.42419L4.6728 9.54092L4.60307 9.65823L4.5345 9.77626L4.46716 9.89495L4.40114 10.0141L4.33631 10.1339L4.27271 10.2543L4.21041 10.3752L4.14933 10.4968L4.08956 10.6187L4.03104 10.7413L3.97381 10.8643L3.91783 10.988L3.86317 11.112L3.80976 11.2366L3.75764 11.3616L3.70687 11.487L3.65735 11.6128L3.60914 11.7392L3.56226 11.8659L3.51667 11.993L3.47242 12.1204L3.42946 12.2483L3.38783 12.3766L3.34753 12.5051L3.30856 12.6339L3.27089 12.7632L3.23459 12.8927L3.19961 13.0225L3.16596 13.1526L3.13364 13.283L3.10268 13.4135L3.07305 13.5443L3.04477 13.6754L3.01784 13.8067L2.99225 13.9381L2.968 14.0697L2.94511 14.2015L2.92357 14.3335L2.90338 14.4656L2.88454 14.5978L2.86705 14.7302L2.85091 14.8626L2.83613 14.9951L2.8227 15.1278L2.81063 15.2604L2.7999 15.3931L2.79053 15.5259L2.78252 15.6587L2.77585 15.7914L2.77054 15.9242L2.76657 16.0569L2.76396 16.1896L2.76269 16.3223L2.76278 16.455L2.76421 16.5875L2.76698 16.72L2.7711 16.8523L2.77656 16.9846L2.78336 17.1167L2.79149 17.2486L2.80096 17.3805L2.81177 17.5121L2.8239 17.6436L2.83736 17.775L2.85215 17.906L2.86826 18.0369L2.88569 18.1675L2.90444 18.2979L2.9245 18.4281L2.94587 18.5579L2.96855 18.6875L2.99253 18.8168L3.01781 18.9458L3.04438 19.0745L3.07225 19.2028L3.1014 19.3308L3.13184 19.4584L3.16356 19.5857L3.19655 19.7126L3.2308 19.839L3.26634 19.9651L3.30313 20.0908L3.34117 20.216L3.38047 20.3408L3.421 20.4651L3.46277 20.589L3.50579 20.7123L3.55003 20.8352L3.59548 20.9576L3.64218 21.0795L3.69006 21.2008L3.73916 21.3216L3.78946 21.4418L3.84094 21.5614L3.89363 21.6806L3.94748 21.7991L4.00251 21.917L4.05871 22.0343L4.11607 22.151L4.17457 22.267L4.23423 22.3824L4.29502 22.4972L4.35695 22.6113L4.42 22.7247L4.48416 22.8374L4.54943 22.9495L4.61582 23.0608L4.68326 23.1714L4.75184 23.2813L4.82146 23.3904L4.89216 23.4988L4.96393 23.6064L5.03674 23.7133L5.11059 23.8194L5.1855 23.9247L5.26141 24.0292L5.33837 24.1329L5.4163 24.2358L5.49528 24.3378L5.5752 24.439L5.65613 24.5393L5.73805 24.6389L5.82089 24.7375L5.90472 24.8352L5.98947 24.9321L6.07519 25.0281L6.16182 25.1232L6.24934 25.2174L6.3378 25.3106L6.42714 25.403L6.51739 25.4944L6.6085 25.5848L6.7005 25.6743L6.79332 25.7628L6.887 25.8504L6.98154 25.9371L7.0769 26.0227L7.17301 26.1072L7.27002 26.1909L7.36783 26.2735L7.46628 26.3551L7.56568 26.4358L7.66572 26.5152L7.76656 26.5938L7.86812 26.6713L7.97047 26.7478L8.07347 26.8231L8.17719 26.8974L8.28156 26.9707L8.38672 27.0429L8.49246 27.1139L8.59899 27.184L8.70602 27.2529L8.81378 27.3207L8.92219 27.3875L9.0311 27.4531L9.14073 27.5176L9.25086 27.5809L9.36164 27.6432L9.47293 27.7043L9.58487 27.7643L9.69724 27.8231L9.81019 27.8808L9.92371 27.9374L10.0377 27.9928L10.1522 28.047L10.2672 28.1001L10.3826 28.152L10.4985 28.2027L10.6149 28.2523L10.7317 28.3007L10.8489 28.3479L10.9665 28.3939L11.0846 28.4387L11.2029 28.4824L11.3217 28.5248L11.4409 28.566L11.5605 28.6061L11.6803 28.6449L11.8004 28.6825L11.921 28.719L12.0417 28.7542L12.1628 28.7881L12.2842 28.8209L12.4058 28.8525L12.5277 28.8828L12.6497 28.9119L12.7721 28.9398L12.8946 28.9664L13.0173 28.9919L13.1403 29.0161L13.2634 29.0391L13.3866 29.0608L13.51 29.0814L13.6336 29.1006L13.7572 29.1187L13.8811 29.1355L14.0049 29.1511L14.1289 29.1654L14.2529 29.1785L14.377 29.1904L14.5012 29.2011L14.6254 29.2105L14.7496 29.2187L14.8739 29.2256L14.9981 29.2313L15.1223 29.2358L15.2464 29.2391L15.3706 29.2411L15.4947 29.2419L15.6187 29.2414L15.7427 29.2398L15.8665 29.2369L15.9903 29.2328L16.114 29.2275L16.2375 29.2209L16.3608 29.2131L16.4841 29.2042L16.6072 29.194L16.7301 29.1826L16.8528 29.1699L16.9753 29.1561L17.0976 29.1411L17.2197 29.1249L17.3415 29.1075L17.4631 29.0888L17.5844 29.0691L17.7055 29.048L17.8263 29.0259L17.9467 29.0025L18.0669 28.978L18.1867 28.9523L18.3062 28.9254L18.4254 28.8974L18.5442 28.8681L18.6627 28.8378L18.7807 28.8062L18.8983 28.7736L19.0157 28.7398L19.1325 28.7048L19.249 28.6687L19.365 28.6315L19.4806 28.5931L19.5957 28.5537L19.7102 28.5131L19.8245 28.4714L19.9381 28.4286L20.0513 28.3847L20.164 28.3398L20.276 28.2937L20.3876 28.2465L20.4987 28.1983L20.6092 28.149L20.719 28.0987L20.8284 28.0472L20.9372 27.9947L21.0453 27.9413L21.1529 27.8867L21.2598 27.8311L21.3661 27.7745L21.4719 27.7168L21.5768 27.6582L21.6812 27.5986L21.7849 27.538L21.888 27.4763L21.9902 27.4138L22.092 27.3502L22.1928 27.2856L22.293 27.2201L22.3925 27.1536L22.4914 27.0862L22.5892 27.0179L22.6865 26.9486L22.783 26.8784L22.8787 26.8074L22.9737 26.7353L23.0678 26.6625L23.1613 26.5886L23.2537 26.514L23.3454 26.4385L23.4364 26.3621L23.5265 26.2848L23.6157 26.2067L23.7041 26.1278L23.7916 26.048L23.8784 25.9675L23.9642 25.8861L24.049 25.804L24.1332 25.7209L24.2163 25.6371L24.2986 25.5526L24.3799 25.4673L24.4603 25.3814L24.5397 25.2947L24.6185 25.207L24.696 25.1188L24.7728 25.0298L24.8485 24.9402L24.9233 24.8498L24.9971 24.7588L25.0699 24.6671L25.1418 24.5747L25.2127 24.4817L25.2826 24.388L25.3515 24.2937L25.4195 24.1987L25.4865 24.1031L25.5522 24.0071L25.6172 23.9103L25.681 23.8131L25.7438 23.7151L25.8057 23.6166L25.8664 23.5176L25.9261 23.4182L25.9848 23.3179L26.0423 23.2174L26.0989 23.1163L26.1545 23.0146L26.2088 22.9126L26.2623 22.8099L26.3146 22.7068L26.3657 22.6036L26.4159 22.4995L26.4649 22.3951L26.5129 22.2904L26.5597 22.1852L26.6055 22.0796L26.6501 21.9737L26.6937 21.8672L26.7362 21.7605L26.7775 21.6536L26.8177 21.546L26.8568 21.4384L26.8948 21.3302L26.9317 21.2219L26.9675 21.1131L27.002 21.0044L27.0356 20.8949L27.0679 20.7855L27.0991 20.6758L27.1292 20.5659L27.1582 20.4555L27.1859 20.3452L27.2127 20.2345L27.2382 20.1236L27.2626 20.0126L27.2859 19.9014L27.308 19.7902L27.3289 19.6784L27.3488 19.567L27.3674 19.4552L27.3849 19.3432L27.4013 19.2313L27.4166 19.1192L27.4306 19.0072L27.4436 18.8947L27.4554 18.7826L27.466 18.6702L27.4755 18.5579L27.4838 18.4454L27.491 18.3332L27.4971 18.2207L27.502 18.1081L27.5057 17.9958L27.5084 17.8838L27.5099 17.7712L27.5102 17.659L27.5094 17.5468L27.5075 17.4347L27.5044 17.3227L27.5001 17.211L27.4948 17.099L27.4883 16.9874L27.4807 16.8758L27.4719 16.7646L27.4621 16.6532L27.4511 16.5423L27.439 16.4313L27.4257 16.3207L27.4114 16.2102L27.396 16.1L27.3793 15.9897L27.3617 15.88L27.3429 15.7706L27.323 15.6611L27.302 15.552L27.2799 15.4434L27.2567 15.3347L27.2326 15.2267L27.2071 15.1187L27.1808 15.0113L27.1532 14.9038L27.1247 14.7971L27.095 14.6906L27.0643 14.5843L27.0326 14.4786L26.9998 14.3733L26.9659 14.268L26.9311 14.1636L26.895 14.0592L26.8581 13.9555L26.8201 13.852L26.7811 13.7493L26.7409 13.6467L26.6998 13.5446L26.6578 13.4432L26.6148 13.3423L26.5705 13.2415L26.5256 13.1416L26.4794 13.0419L26.4324 12.943L26.3844 12.8446L26.3353 12.7464L26.2855 12.6491L26.2345 12.5523L26.1825 12.4558L26.1299 12.3603L26.0761 12.2651L26.0214 12.1706L25.9657 12.0766L25.9094 11.9835L25.8518 11.8906L25.7935 11.7986L25.7342 11.707L25.6741 11.6163L25.6132 11.5263L25.5512 11.4367L25.4884 11.3479L25.4249 11.2598L25.3603 11.1724L25.295 11.0856L25.2289 10.9996L25.1619 10.9142L25.0941 10.8296L25.0255 10.7458L24.956 10.6626L24.8857 10.5802L24.8147 10.4985L24.743 10.4176L24.6704 10.3375L24.5969 10.258L24.523 10.1796L24.4479 10.1016L24.3724 10.0248L24.2961 9.94848L24.2191 9.87314L24.1412 9.79837L24.0629 9.72477L23.9836 9.65175L23.9037 9.57961L23.8233 9.50841L23.7421 9.43801L23.66 9.36826L23.5775 9.29954L23.4944 9.23168L23.4106 9.1647L23.3261 9.09852L23.2412 9.03343L23.1553 8.96884L23.0692 8.9055L22.9824 8.84295L22.8949 8.78121L22.807 8.72048L22.7182 8.66048L22.6294 8.60172L22.5396 8.54361L22.4495 8.48652L22.3587 8.4303L22.2675 8.37503L22.1758 8.32077L22.0838 8.26754L21.9909 8.21495L21.8979 8.16361L21.8042 8.11306L21.7102 8.06354L21.6158 8.01503L21.5208 7.96739L21.4254 7.9207L21.3297 7.8751L21.2335 7.83037L21.137 7.78674L21.0401 7.74397L20.9397 7.70092L20.8452 7.66157L20.747 7.62172L20.6489 7.5831L20.55 7.54521L20.4511 7.50855L20.3518 7.47277L20.2523 7.43808L20.1523 7.40426L20.0522 7.37161L19.9518 7.3399L19.8511 7.30921L19.7503 7.27961L19.6491 7.25092L19.5476 7.22323L19.4461 7.19666L19.3445 7.17111L19.2422 7.14649L19.1403 7.123L19.0379 7.10046L18.9355 7.079L18.8327 7.05852L18.73 7.03912L18.6271 7.02072L18.5243 7.00339L18.4209 6.98703L18.3178 6.97175L18.2145 6.95748L18.1111 6.94423L18.0077 6.93203L17.9042 6.92087L17.8007 6.91074L17.6972 6.90163L17.5935 6.89355L17.4898 6.8865L17.3864 6.88049L17.2829 6.87551L17.179 6.87154L17.0757 6.86862L16.9722 6.86671L16.8688 6.86584L16.7652 6.86599L16.7444 6.86623L16.7771 9.64601L16.8358 9.64572L16.9114 9.64615L16.9871 9.64732L17.0627 9.64928L17.1385 9.65197L17.2142 9.65546L17.29 9.65968L17.3658 9.66463L17.4417 9.67037L17.5175 9.67684L17.5933 9.68412L17.6691 9.69212L17.7449 9.70092L17.8206 9.71044L17.8963 9.7207L17.972 9.73183L18.0476 9.74361L18.1231 9.75619L18.1987 9.76957L18.2741 9.78368L18.3494 9.79859L18.4247 9.81423L18.4998 9.83059L18.5749 9.84775L18.6497 9.86572L18.7246 9.88441L18.7992 9.90383L18.8737 9.92404L18.9481 9.94499L19.0223 9.96674L19.0964 9.98921L19.1703 10.0124L19.244 10.0364L19.3175 10.0611L19.3909 10.0867L19.4639 10.1129L19.5369 10.1399L19.6095 10.1676L19.6821 10.1961L19.7543 10.2254L19.8263 10.2553L19.898 10.2861L19.9695 10.3175L20.0407 10.3497L20.1116 10.3826L20.1823 10.4163L20.2527 10.4507L20.3228 10.4858L20.3925 10.5216L20.462 10.5582L20.5311 10.5955L20.6 10.6335L20.6684 10.6722L20.7366 10.7116L20.8044 10.7518L20.8718 10.7926L20.9389 10.8342L21.0055 10.8764L21.0719 10.9194L21.1378 10.963L21.2033 11.0073L21.2685 11.0523L21.3332 11.0981L21.3975 11.1444L21.4614 11.1915L21.5248 11.2392L21.5879 11.2876L21.6504 11.3367L21.7125 11.3864L21.7741 11.4368L21.8353 11.4878L21.896 11.5395L21.9563 11.5918L22.016 11.6448L22.0753 11.6984L22.134 11.7526L22.1922 11.8075L22.2499 11.863L22.3071 11.919L22.3637 11.9758L22.4199 12.0331L22.4754 12.091L22.5305 12.1495L22.5849 12.2086L22.6388 12.2683L22.6922 12.3286L22.7449 12.3894L22.7971 12.4509L22.8487 12.5128L22.8998 12.5754L22.9501 12.6385L22.9999 12.7022L23.0491 12.7664L23.0977 12.8311L23.1456 12.8964L23.1929 12.9622L23.2396 13.0285L23.2856 13.0953L23.331 13.1627L23.3757 13.2305L23.4197 13.2988L23.4631 13.3677L23.5059 13.437L23.5479 13.5067L23.5893 13.577L23.63 13.6478L23.67 13.7189L23.7093 13.7905L23.7478 13.8626L23.7857 13.9351L23.8229 14.008L23.8593 14.0814L23.8951 14.1552L23.9301 14.2294L23.9643 14.304L23.9979 14.379L24.0307 14.4544L24.0627 14.5302L24.094 14.6063L24.1246 14.6828L24.1543 14.7597L24.1833 14.8368L24.2116 14.9144L24.239 14.9923L24.2658 15.0706L24.2917 15.1491L24.3168 15.228L24.3412 15.3072L24.3647 15.3867L24.3875 15.4664L24.4095 15.5465L24.4306 15.6269L24.451 15.7075L24.4705 15.7883L24.4893 15.8694L24.5072 15.9508L24.5243 16.0324L24.5406 16.1142L24.556 16.1963L24.5707 16.2786L24.5845 16.3611L24.5975 16.4437L24.6096 16.5266L24.6209 16.6096L24.6314 16.6928L24.641 16.7762L24.6497 16.8598L24.6577 16.9434L24.6648 17.0272L24.671 17.1112L24.6764 17.1952L24.6809 17.2794L24.6845 17.3637L24.6874 17.4481L24.6893 17.5326L24.6904 17.6171L24.6906 17.7018L24.69 17.7864L24.6884 17.8712L24.6861 17.956L24.6828 18.0408L24.6787 18.1256L24.6737 18.2105L24.6679 18.2955L24.6612 18.3803L24.6536 18.4652L24.6451 18.5501L24.6357 18.6349L24.6256 18.7198L24.6145 18.8045L24.6025 18.8892L24.5897 18.9739L24.576 19.0584L24.5614 19.143L24.5459 19.2274L24.5297 19.3118L24.5124 19.396L24.4943 19.4801L24.4754 19.5641L24.4556 19.648L24.4349 19.7317L24.4134 19.8153L24.391 19.8987L24.3677 19.982L24.3435 20.0651L24.3185 20.148L24.2927 20.2307L24.2658 20.3133L24.2382 20.3955L24.2098 20.4776L24.1805 20.5595L24.1503 20.6411L24.1192 20.7225L24.0874 20.8037L24.0547 20.8846L24.0211 20.9652L23.9866 21.0455L23.9514 21.1256L23.9153 21.2054L23.8783 21.2848L23.8405 21.3639L23.8019 21.4427L23.7624 21.5212L23.7221 21.5994L23.681 21.6771L23.6391 21.7546L23.5963 21.8317L23.5528 21.9084L23.5084 21.9847L23.4632 22.0607L23.4172 22.1362L23.3704 22.2114L23.3228 22.2861L23.2744 22.3604L23.2252 22.4342L23.1752 22.5077L23.1245 22.5807L23.073 22.6532L23.0206 22.7253L22.9676 22.7969L22.9137 22.868L22.8591 22.9387L22.8037 23.0088L22.7476 23.0784L22.6907 23.1475L22.6331 23.2162L22.5748 23.2843L22.5156 23.3518L22.4558 23.4188L22.3953 23.4853L22.334 23.5512L22.2721 23.6166L22.2094 23.6813L22.146 23.7455L22.0819 23.8091L22.0172 23.8721L21.9516 23.9345L21.8855 23.9963L21.8187 24.0575L21.7512 24.118L21.6831 24.1779L21.6142 24.2373L21.5448 24.2959L21.4747 24.3539L21.404 24.4112L21.3326 24.4679L21.2606 24.5239L21.188 24.5792L21.1147 24.6339L21.0409 24.6878L20.9665 24.7411L20.8914 24.7936L20.8158 24.8455L20.7396 24.8966L20.6628 24.947L20.5855 24.9967L20.5076 25.0456L20.4291 25.0938L20.3502 25.1413L20.2706 25.188L20.1906 25.2339L20.11 25.279L20.029 25.3235L19.9474 25.3671L19.8653 25.4099L19.7827 25.452L19.6996 25.4932L19.6161 25.5337L19.5321 25.5734L19.4476 25.6122L19.3627 25.6502L19.2773 25.6875L19.1915 25.7238L19.1053 25.7594L19.0186 25.7942L18.9316 25.828L18.8441 25.8611L18.7563 25.8934L18.6681 25.9247L18.5794 25.9552L18.4905 25.9848L18.4011 26.0136L18.3114 26.0415L18.2214 26.0686L18.131 26.0947L18.0403 26.12L17.9493 26.1443L17.858 26.1678L17.7664 26.1904L17.6745 26.2122L17.5822 26.233L17.4898 26.2529L17.397 26.2719L17.3041 26.29L17.2109 26.3072L17.1174 26.3235L17.0237 26.3389L16.9298 26.3533L16.8357 26.3668L16.7413 26.3794L16.6468 26.3911L16.5522 26.4018L16.4574 26.4116L16.3624 26.4205L16.2672 26.4284L16.1719 26.4354L16.0765 26.4414L15.9809 26.4465L15.8853 26.4507L15.7895 26.4539L15.6936 26.4561L15.5977 26.4574L15.5016 26.4578L15.4055 26.4572L15.3094 26.4556L15.2132 26.4531L15.117 26.4496L15.0208 26.4452L14.9245 26.4398L14.8282 26.4335L14.732 26.4262L14.6357 26.4179L14.5395 26.4087L14.4433 26.3985L14.3471 26.3874L14.2511 26.3753L14.155 26.3622L14.059 26.3482L13.9632 26.3332L13.8674 26.3173L13.7717 26.3003L13.6761 26.2825L13.5807 26.2637L13.4854 26.2438L13.3902 26.2231L13.2952 26.2014L13.2003 26.1787L13.1056 26.1551L13.0111 26.1305L12.9167 26.105L12.8226 26.0785L12.7288 26.0511L12.6351 26.0227L12.5416 25.9934L12.4484 25.9631L12.3555 25.9319L12.2627 25.8998L12.1703 25.8667L12.0782 25.8326L11.9863 25.7976L11.8948 25.7617L11.8035 25.7249L11.7125 25.6871L11.6219 25.6484L11.5317 25.6088L11.4418 25.5683L11.3522 25.5268L11.2631 25.4845L11.1743 25.4412L11.0858 25.397L10.9977 25.3519L10.9102 25.3059L10.823 25.259L10.7362 25.2112L10.6498 25.1626L10.5639 25.113L10.4784 25.0626L10.3934 25.0112L10.3089 24.959L10.2249 24.906L10.1413 24.852L10.0583 24.7973L9.97575 24.7416L9.89372 24.6851L9.8122 24.6278L9.73126 24.5696L9.65082 24.5105L9.57096 24.4507L9.4916 24.3899L9.41289 24.3284L9.33476 24.2661L9.2572 24.2029L9.18022 24.139L9.10382 24.0742L9.02807 24.0086L8.95296 23.9422L8.87843 23.8751L8.80455 23.8072L8.7314 23.7385L8.65881 23.6691L8.58688 23.5988L8.51567 23.5278L8.44517 23.4561L8.37533 23.3836L8.30614 23.3104L8.23766 23.2365L8.16998 23.1619L8.10295 23.0864L8.03664 23.0104L7.97112 22.9336L7.90625 22.8561L7.84224 22.7779L7.77889 22.699L7.71639 22.6195L7.65462 22.5393L7.59365 22.4584L7.53346 22.3769L7.474 22.2948L7.4154 22.212L7.35766 22.1286L7.30065 22.0445L7.2445 21.9598L7.18919 21.8746L7.1347 21.7887L7.08106 21.7022L7.02827 21.6152L6.97633 21.5275L6.92525 21.4394L6.87504 21.3506L6.82571 21.2614L6.77725 21.1715L6.72969 21.0811L6.68301 20.9902L6.63724 20.8988L6.59237 20.8069L6.54841 20.7144L6.50536 20.6216L6.46324 20.5281L6.42204 20.4343L6.38178 20.34L6.34245 20.2451L6.30406 20.1499L6.26663 20.0543L6.23015 19.9582L6.19462 19.8616L6.16005 19.7648L6.12646 19.6674L6.09383 19.5697L6.06218 19.4716L6.03151 19.3731L6.00183 19.2744L5.97314 19.1752L5.94544 19.0757L5.91873 18.9758L5.89304 18.8756L5.86834 18.7752L5.84465 18.6744L5.82198 18.5733L5.80032 18.4719L5.77969 18.3703L5.76008 18.2684L5.74149 18.1662L5.72393 18.0638L5.70741 17.9612L5.69192 17.8584L5.67747 17.7553L5.66406 17.652L5.6517 17.5486L5.64038 17.4449L5.63011 17.3411L5.62089 17.2371L5.61273 17.133L5.60563 17.0288L5.59957 16.9243L5.59459 16.8198L5.59066 16.7152L5.5878 16.6105L5.58599 16.5057L5.58526 16.4008L5.5856 16.2958L5.587 16.1908L5.58948 16.0858L5.59301 15.9807L5.59763 15.8755L5.60333 15.7704L5.61009 15.6653L5.61793 15.5602L5.62684 15.455L5.63683 15.35L5.6479 15.2449L5.66004 15.14L5.67326 15.035L5.68755 14.9302L5.70292 14.8254L5.71937 14.7207L5.73688 14.6161L5.75548 14.5117L5.77515 14.4073L5.79589 14.3031L5.8177 14.1991L5.84059 14.0952L5.86455 13.9915L5.88958 13.8879L5.91567 13.7846L5.94284 13.6814L5.97106 13.5784L6.00036 13.4758L6.03071 13.3733L6.06213 13.271L6.0946 13.169L6.12814 13.0673L6.16272 12.9659L6.19836 12.8647L6.23505 12.7638L6.27278 12.6632L6.31156 12.563L6.35138 12.4631L6.39224 12.3635L6.43414 12.2643L6.47707 12.1654L6.52104 12.067L6.56602 11.9688L6.61204 11.8711L6.65907 11.7738L6.70712 11.6769L6.75619 11.5804L6.80626 11.4844L6.85733 11.3888L6.90942 11.2936L6.96249 11.199L7.01656 11.1047L7.07162 11.011L7.12767 10.9178L7.18469 10.8251L7.2427 10.7328L7.30166 10.6411L7.36163 10.55L7.42246 10.4594L7.48438 10.3694L7.54716 10.2798L7.61087 10.1909L7.6756 10.1026L7.74119 10.0148L7.80779 9.92768L7.87525 9.84114L7.94366 9.75524L8.01292 9.67001L8.08313 9.58535L8.15427 9.50135L8.22627 9.41801L8.29914 9.33539L8.37295 9.25343L8.44755 9.17212L8.52309 9.09154L8.59949 9.01161L8.67669 8.93248L8.75475 8.85401L8.83367 8.77626L8.91346 8.69932L8.99405 8.62303L9.07542 8.54761L9.15766 8.47284L9.2407 8.39895L9.32445 8.32579L9.40907 8.25343L9.49448 8.18186L9.58062 8.1111L9.66754 8.04114L9.75526 7.97204L9.8437 7.90375L9.93286 7.83634L10.0228 7.76972L10.1134 7.70397L10.2047 7.6391L10.2969 7.5751L10.3896 7.51197L10.483 7.44979L10.5772 7.38841L10.672 7.32797L10.7675 7.26844L10.8637 7.20981L10.9605 7.15211L11.0579 7.09534L11.156 7.0395L11.2546 6.9846L11.3539 6.93066L11.4538 6.87767L11.5543 6.82564L11.6553 6.77458L11.7569 6.72449L11.8591 6.67538L11.9619 6.62727L12.0652 6.58014L12.1691 6.53401L12.2734 6.48889L12.3783 6.44478L12.4837 6.40168L12.5895 6.35961L12.6959 6.31856L12.8027 6.27855L12.91 6.23957L13.0178 6.20164L13.126 6.16475L13.2346 6.12892L13.3436 6.09415L13.4531 6.06043L13.5629 6.02778L13.6732 5.99621L13.7838 5.96571L13.8948 5.93629L14.0061 5.90796L14.1179 5.88071L14.2299 5.85457L14.3422 5.82951L14.4549 5.80555L14.5678 5.7827L14.6811 5.76096L14.7947 5.74033L14.9085 5.72081L15.0226 5.70241L15.1369 5.68513L15.2514 5.66898L15.3662 5.65394L15.409 5.64876ZM15.4574 9.77175L15.4244 6.96142L15.3303 6.97468L15.2292 6.98998L15.128 7.00629L15.0275 7.02354L14.9268 7.04183L14.8266 7.06107L14.7266 7.0813L14.627 7.10247L14.5276 7.12464L14.4284 7.1478L14.3295 7.17191L14.2311 7.19697L14.1327 7.22303L14.0382 7.24906L13.9375 7.27794L13.8403 7.30681L13.7435 7.33663L13.6472 7.36732L13.5511 7.39903L13.4554 7.43168L13.3601 7.46521L13.2653 7.49961L13.1709 7.53503L13.0769 7.57124L12.9833 7.60848L12.8904 7.64652L12.7975 7.68557L12.7053 7.72543L12.6135 7.76615L12.5224 7.80775L12.4315 7.8503L12.3411 7.89372L12.2515 7.93786L12.1621 7.98303L12.0736 8.02892L11.9852 8.07583L11.8977 8.12332L11.8103 8.17197L11.7239 8.22114L11.6379 8.27124L11.5525 8.32223L11.4676 8.37394L11.3832 8.42659L11.2997 8.47983L11.2165 8.53401L11.1341 8.58892L11.0523 8.64455L10.9711 8.70106L10.8903 8.75837L10.8106 8.81619L10.7312 8.87503L10.6525 8.93452L10.5745 8.99474L10.4972 9.05561L10.4205 9.11735L10.3446 9.17968L10.2693 9.24274L10.1946 9.30666L10.1209 9.37103L10.0477 9.43626L9.97517 9.50215L9.90345 9.56863L9.83253 9.63575L9.76211 9.70368L9.6927 9.77204L9.62394 9.84114L9.55582 9.91095L9.48857 9.98128L9.42205 10.0523L9.35631 10.1239L9.29137 10.196L9.22715 10.2688L9.16365 10.3423L9.10123 10.4161L9.03938 10.4907L8.97833 10.5658L8.91815 10.6414L8.85883 10.7174L8.80016 10.7942L8.74242 10.8714L8.68548 10.9491L8.62941 11.0274L8.57412 11.1062L8.51977 11.1853L8.46622 11.265L8.41346 11.3452L8.36156 11.4259L8.3106 11.5069L8.26051 11.5884L8.21121 11.6705L8.16277 11.7528L8.11527 11.8357L8.06857 11.919L8.02287 12.0024L7.97797 12.0865L7.93385 12.171L7.89082 12.2557L7.84858 12.3409L7.80728 12.4264L7.76685 12.5122L7.72735 12.5984L7.68872 12.6849L7.65102 12.7718L7.61419 12.8589L7.57836 12.9463L7.54341 13.034L7.50931 13.1221L7.47616 13.2104L7.44401 13.2989L7.41266 13.3878L7.38238 13.4767L7.3529 13.566L7.32443 13.6555L7.29683 13.7453L7.27023 13.8352L7.2445 13.9253L7.21978 14.0155L7.19593 14.1061L7.17303 14.1967L7.15109 14.2875L7.13008 14.3785L7.11001 14.4696L7.09087 14.5608L7.0727 14.6522L7.05545 14.7436L7.03915 14.8352L7.0238 14.9269L7.00938 15.0187L6.99592 15.1104L6.98339 15.2023L6.97181 15.2942L6.96118 15.3862L6.95148 15.4782L6.94273 15.5703L6.93493 15.6624L6.92806 15.7544L6.92214 15.8465L6.91715 15.9386L6.91311 16.0306L6.91001 16.1226L6.90784 16.2145L6.90661 16.3064L6.90632 16.3984L6.90696 16.4902L6.90854 16.5819L6.91105 16.6735L6.91448 16.765L6.91885 16.8565L6.92414 16.9478L6.93035 17.039L6.93749 17.1301L6.94555 17.221L6.95453 17.3118L6.96443 17.4024L6.97523 17.4928L6.98696 17.5832L6.99959 17.6732L7.01313 17.7632L7.02757 17.8528L7.04291 17.9423L7.05916 18.0316L7.07629 18.1206L7.09433 18.2094L7.11324 18.2979L7.13305 18.3863L7.15373 18.4742L7.1753 18.562L7.19775 18.6495L7.22107 18.7367L7.24522 18.8235L7.2703 18.9102L7.29618 18.9964L7.32299 19.0824L7.3506 19.168L7.37907 19.2533L7.40841 19.3382L7.43853 19.4227L7.46953 19.507L7.50139 19.5908L7.53404 19.6742L7.56748 19.7573L7.60179 19.84L7.63689 19.9222L7.67286 20.004L7.70955 20.0855L7.7471 20.1664L7.78544 20.247L7.82451 20.3272L7.86444 20.4068L7.90509 20.4861L7.94654 20.5648L7.98878 20.6431L8.03173 20.7209L8.07549 20.7982L8.11996 20.875L8.16522 20.9513L8.21121 21.0272L8.25792 21.1024L8.30534 21.1772L8.35356 21.2515L8.40236 21.3251L8.45202 21.3984L8.50226 21.471L8.55329 21.543L8.60497 21.6145L8.65737 21.6854L8.71042 21.7558L8.76419 21.8256L8.81854 21.8947L8.87361 21.9633L8.92932 22.0313L8.98569 22.0987L9.0427 22.1654L9.10036 22.2317L9.1586 22.2971L9.21749 22.3621L9.27695 22.4263L9.33707 22.4899L9.39776 22.5529L9.45909 22.6152L9.52094 22.6769L9.58343 22.7379L9.6465 22.7983L9.71 22.8579L9.77422 22.917L9.83887 22.9752L9.9041 23.0328L9.96991 23.0898L10.0362 23.146L10.103 23.2016L10.1704 23.2563L10.2382 23.3104L10.3065 23.3638L10.3753 23.4166L10.4447 23.4685L10.5144 23.5197L10.5846 23.5702L10.6553 23.6199L10.7264 23.6689L10.7981 23.7172L10.8701 23.7647L10.9425 23.8115L11.0154 23.8575L11.0886 23.9027L11.1623 23.9472L11.2364 23.991L11.3108 24.0339L11.3857 24.076L11.4608 24.1174L11.5364 24.1581L11.6123 24.1979L11.6885 24.2369L11.7651 24.2752L11.8421 24.3127L11.9193 24.3494L11.9967 24.3853L12.0747 24.4204L12.1527 24.4547L12.2311 24.4881L12.3098 24.5208L12.3888 24.5527L12.468 24.5838L12.5475 24.614L12.6272 24.6435L12.7071 24.6721L12.7873 24.6999L12.8677 24.727L12.9483 24.7531L13.0291 24.7784L13.1101 24.803L13.1913 24.8267L13.2726 24.8496L13.3541 24.8716L13.4358 24.8929L13.5176 24.9133L13.5995 24.9328L13.6816 24.9516L13.7639 24.9696L13.8462 24.9867L13.9286 25.0029L14.0112 25.0183L14.0937 25.0329L14.1765 25.0467L14.2592 25.0596L14.342 25.0718L14.4249 25.083L14.5078 25.0935L14.5908 25.1031L14.6737 25.1119L14.7567 25.1198L14.8398 25.127L14.9228 25.1332L15.0059 25.1387L15.0888 25.1433L15.1718 25.1472L15.2548 25.1502L15.3377 25.1523L15.4205 25.1536L15.5033 25.1542L15.5861 25.1539L15.6688 25.1527L15.7514 25.1508L15.8338 25.148L15.9163 25.1445L15.9985 25.14L16.0807 25.1349L16.1627 25.1288L16.2447 25.122L16.3264 25.1144L16.4081 25.1059L16.4896 25.0967L16.5709 25.0867L16.652 25.0758L16.733 25.0643L16.8138 25.0518L16.8944 25.0386L16.9747 25.0246L17.0549 25.0098L17.1348 24.9942L17.2145 24.9779L17.2941 24.9608L17.3733 24.9429L17.4522 24.9243L17.531 24.9048L17.6094 24.8846L17.6877 24.8637L17.7656 24.8419L17.8432 24.8195L17.9205 24.7963L17.9975 24.7723L18.0742 24.7476L18.1507 24.7222L18.2267 24.696L18.3025 24.6691L18.3779 24.6414L18.4529 24.6131L18.5276 24.584L18.6019 24.5542L18.6759 24.5236L18.7495 24.4924L18.8227 24.4605L18.8955 24.4279L18.9679 24.3946L19.04 24.3606L19.1116 24.3259L19.1827 24.2906L19.2536 24.2544L19.3239 24.2178L19.3939 24.1803L19.4632 24.1424L19.5323 24.1037L19.6009 24.0643L19.6689 24.0243L19.7366 23.9837L19.8038 23.9424L19.8704 23.9006L19.9367 23.858L20.0023 23.815L20.0675 23.7712L20.1323 23.7267L20.1965 23.6818L20.26 23.6363L20.3233 23.5901L20.3859 23.5435L20.448 23.4961L20.5096 23.4482L20.5705 23.3998L20.6311 23.3507L20.6911 23.3011L20.7502 23.2511L20.8092 23.2003L20.8674 23.1491L20.925 23.0975L20.9822 23.0451L21.0386 22.9924L21.0945 22.9391L21.1498 22.8853L21.2045 22.831L21.2586 22.7762L21.3122 22.7209L21.3651 22.6651L21.4173 22.6089L21.4689 22.5522L21.52 22.495L21.5703 22.4375L21.6202 22.3793L21.6693 22.3208L21.7177 22.2619L21.7657 22.2024L21.8128 22.1428L21.8594 22.0825L21.9053 22.0219L21.9506 21.9608L21.9951 21.8995L22.0389 21.8378L22.0822 21.7755L22.1248 21.713L22.1666 21.6501L22.2079 21.5867L22.2483 21.5232L22.2882 21.4592L22.3274 21.3949L22.3659 21.3303L22.4036 21.2654L22.4408 21.2L22.477 21.1346L22.5128 21.0686L22.5477 21.0024L22.5819 20.936L22.6155 20.8691L22.6483 20.8024L22.6805 20.7349L22.7118 20.6676L22.7426 20.5996L22.7725 20.5318L22.8018 20.4633L22.8303 20.395L22.8581 20.3263L22.8852 20.2574L22.9116 20.1882L22.9371 20.119L22.9621 20.0494L22.9862 19.9798L23.0096 19.9099L23.0323 19.8399L23.0543 19.7696L23.0756 19.6993L23.096 19.6289L23.1158 19.5582L23.1347 19.4875L23.153 19.4166L23.1705 19.3456L23.1873 19.2747L23.2034 19.2033L23.2187 19.132L23.2333 19.0607L23.2471 18.9894L23.2602 18.9179L23.2725 18.8461L23.2841 18.7746L23.295 18.7029L23.3051 18.6311L23.3145 18.5595L23.3231 18.4877L23.3311 18.4157L23.3382 18.3442L23.3447 18.2721L23.3504 18.2003L23.3553 18.1287L23.3595 18.0568L23.363 17.9851L23.3657 17.9135L23.3678 17.8416L23.369 17.7702L23.3696 17.6985L23.3693 17.627L23.3685 17.5555L23.3668 17.4843L23.3644 17.413L23.3613 17.3418L23.3575 17.2709L23.353 17.1998L23.3477 17.1288L23.3418 17.0583L23.3351 16.9875L23.3277 16.9172L23.3195 16.8467L23.3107 16.7766L23.3012 16.7066L23.291 16.6366L23.28 16.567L23.2684 16.4975L23.2561 16.4282L23.2431 16.3591L23.2293 16.2899L23.2149 16.2213L23.1998 16.1528L23.184 16.0845L23.1675 16.0163L23.1504 15.9486L23.1326 15.8808L23.1141 15.8135L23.0949 15.7463L23.0751 15.6795L23.0546 15.6128L23.0335 15.5464L23.0117 15.4805L22.9893 15.4147L22.9661 15.3491L22.9424 15.284L22.918 15.219L22.893 15.1545L22.8673 15.0902L22.841 15.0261L22.8141 14.9626L22.7865 14.8992L22.7584 14.8363L22.7296 14.7737L22.7002 14.7113L22.6702 14.6493L22.6397 14.5878L22.6084 14.5265L22.5767 14.4658L22.5443 14.4054L22.5113 14.3451L22.4779 14.2856L22.4437 14.2262L22.409 14.1674L22.3737 14.1088L22.338 14.0508L22.3016 13.993L22.2647 13.9358L22.2273 13.879L22.1893 13.8227L22.1506 13.7666L22.1116 13.7111L22.0721 13.6561L22.0319 13.6014L21.9913 13.5472L21.9501 13.4935L21.9085 13.4403L21.8663 13.3875L21.8236 13.3352L21.7805 13.2833L21.7368 13.2319L21.6928 13.1811L21.6481 13.1307L21.6031 13.0808L21.5576 13.0314L21.5117 12.9827L21.4652 12.9342L21.4184 12.8864L21.371 12.8389L21.3233 12.7921L21.2752 12.7459L21.2266 12.7L21.1775 12.6547L21.1281 12.6101L21.0783 12.5659L21.0279 12.5222L20.9775 12.4792L20.9264 12.4366L20.875 12.3946L20.8233 12.3532L20.7711 12.3122L20.7186 12.2719L20.6659 12.2323L20.6126 12.193L20.5589 12.1542L20.5052 12.1163L20.4508 12.0787L20.3964 12.042L20.3416 12.0056L20.2864 11.9699L20.2308 11.9347L20.1751 11.9002L20.1189 11.8662L20.0626 11.8328L20.0058 11.8L19.9491 11.7679L19.8919 11.7363L19.8344 11.7053L19.7766 11.6749L19.7187 11.6452L19.6605 11.616L19.602 11.5874L19.5434 11.5595L19.4846 11.5322L19.4252 11.5054L19.3661 11.4793L19.3066 11.4539L19.2468 11.4289L19.1869 11.4047L19.1269 11.3811L19.0666 11.3582L19.006 11.3357L18.9456 11.314L18.8847 11.2928L18.8237 11.2723L18.7628 11.2525L18.7016 11.2333L18.6405 11.2147L18.5788 11.1966L18.5173 11.1793L18.4556 11.1626L18.3939 11.1465L18.332 11.131L18.2699 11.1162L18.2079 11.102L18.1459 11.0885L18.0837 11.0755L18.0212 11.0632L17.9592 11.0516L17.8967 11.0406L17.8343 11.0302L17.7717 11.0203L17.7094 11.0112L17.6466 11.0027L17.5843 10.9949L17.5217 10.9876L17.4592 10.981L17.3967 10.975L17.334 10.9696L17.2717 10.9649L17.209 10.9608L17.1466 10.9574L17.0843 10.9545L17.0216 10.9523L16.9594 10.9507L16.8971 10.9497L16.8349 10.9494L16.7924 10.9495L16.8246 13.6952L16.8438 13.6953L16.8796 13.6958L16.9154 13.6967L16.9513 13.6979L16.9872 13.6995L17.0232 13.7015L17.0591 13.7038L17.0952 13.7066L17.1312 13.7097L17.1673 13.7132L17.2034 13.7171L17.2395 13.7213L17.2757 13.7259L17.3118 13.731L17.348 13.7363L17.3842 13.7422L17.4204 13.7483L17.4565 13.7549L17.4927 13.7619L17.5288 13.7691L17.5649 13.7769L17.601 13.785L17.6371 13.7935L17.6731 13.8024L17.7091 13.8116L17.7451 13.8213L17.781 13.8313L17.8169 13.8417L17.8527 13.8526L17.8885 13.8638L17.9241 13.8754L17.9598 13.8874L17.9954 13.8998L18.0309 13.9125L18.0663 13.9256L18.1016 13.9392L18.1368 13.9531L18.172 13.9674L18.207 13.9821L18.242 13.9971L18.2769 14.0126L18.3116 14.0285L18.3463 14.0447L18.3808 14.0614L18.4152 14.0783L18.4495 14.0957L18.4836 14.1135L18.5176 14.1316L18.5515 14.1502L18.5852 14.1691L18.6188 14.1883L18.6523 14.208L18.6855 14.228L18.7187 14.2484L18.7516 14.2692L18.7844 14.2904L18.817 14.3118L18.8494 14.3337L18.8817 14.356L18.9138 14.3787L18.9456 14.4016L18.9773 14.425L19.0088 14.4487L19.0401 14.4728L19.0712 14.4972L19.1021 14.522L19.1327 14.5472L19.1632 14.5726L19.1934 14.5985L19.2234 14.6247L19.2532 14.6512L19.2827 14.6782L19.312 14.7054L19.341 14.733L19.3698 14.7609L19.3984 14.7892L19.4267 14.8178L19.4547 14.8467L19.4825 14.876L19.51 14.9056L19.5372 14.9355L19.5642 14.9658L19.5909 14.9963L19.6173 15.0272L19.6434 15.0584L19.6693 15.0899L19.6948 15.1218L19.72 15.1539L19.745 15.1864L19.7696 15.2192L19.794 15.2522L19.818 15.2856L19.8416 15.3192L19.8651 15.3531L19.8881 15.3874L19.9108 15.4219L19.9332 15.4567L19.9554 15.4918L19.9771 15.5272L19.9985 15.5628L20.0195 15.5987L20.0402 15.6349L20.0606 15.6713L20.0806 15.708L20.1002 15.745L20.1196 15.7822L20.1384 15.8197L20.157 15.8574L20.1752 15.8953L20.193 15.9336L20.2105 15.972L20.2275 16.0107L20.2443 16.0496L20.2605 16.0887L20.2765 16.128L20.292 16.1676L20.3071 16.2074L20.3219 16.2474L20.3362 16.2876L20.3501 16.328L20.3637 16.3686L20.3768 16.4094L20.3895 16.4504L20.4018 16.4916L20.4137 16.533L20.4252 16.5746L20.4363 16.6163L20.4469 16.6582L20.4571 16.7003L20.4669 16.7425L20.4763 16.7848L20.4852 16.8275L20.4937 16.8702L20.5017 16.9129L20.5094 16.956L20.5166 16.9991L20.5233 17.0423L20.5296 17.0857L20.5355 17.1292L20.5409 17.1728L20.5458 17.2166L20.5504 17.2605L20.5544 17.3044L20.558 17.3485L20.5612 17.3927L20.5639 17.4369L20.5661 17.4813L20.5678 17.5257L20.5692 17.5702L20.57 17.6148L20.5704 17.6595L20.5703 17.7041L20.5698 17.7489L20.5688 17.7938L20.5672 17.8387L20.5653 17.8836L20.5628 17.9286L20.56 17.9736L20.5566 18.0186L20.5527 18.0637L20.5484 18.1088L20.5436 18.1539L20.5383 18.199L20.5325 18.2441L20.5263 18.2893L20.5196 18.3344L20.5124 18.3795L20.5047 18.4246L20.4965 18.4696L20.4879 18.5147L20.4788 18.5598L20.4691 18.6048L20.4591 18.6497L20.4485 18.6947L20.4374 18.7395L20.4259 18.7844L20.4139 18.8291L20.4014 18.8739L20.3884 18.9184L20.3749 18.963L20.361 19.0075L20.3466 19.0519L20.3317 19.0963L20.3163 19.1405L20.3004 19.1846L20.284 19.2286L20.2673 19.2725L20.25 19.3163L20.2321 19.36L20.2139 19.4035L20.1952 19.447L20.1759 19.4903L20.1562 19.5334L20.1361 19.5764L20.1154 19.6193L20.0943 19.662L20.0727 19.7046L20.0507 19.747L20.0281 19.7891L20.0051 19.8312L19.9817 19.8731L19.9577 19.9147L19.9333 19.9563L19.9085 19.9975L19.8831 20.0387L19.8574 20.0795L19.8312 20.1202L19.8044 20.1607L19.7773 20.2009L19.7497 20.241L19.7217 20.2808L19.6931 20.3203L19.6642 20.3597L19.6348 20.3987L19.605 20.4376L19.5747 20.4762L19.544 20.5145L19.5129 20.5526L19.4813 20.5904L19.4493 20.6279L19.4168 20.6651L19.3839 20.7021L19.3506 20.7388L19.3169 20.7752L19.2828 20.8112L19.2482 20.8471L19.2133 20.8826L19.1779 20.9177L19.1421 20.9526L19.1059 20.9872L19.0692 21.0214L19.0323 21.0552L18.9949 21.0888L18.9571 21.1221L18.9189 21.155L18.8803 21.1875L18.8413 21.2197L18.802 21.2515L18.7623 21.283L18.7222 21.3141L18.6818 21.3448L18.6409 21.3752L18.5997 21.4052L18.5581 21.4348L18.5163 21.4641L18.474 21.4929L18.4314 21.5214L18.3884 21.5494L18.3451 21.5771L18.3014 21.6044L18.2574 21.6312L18.2131 21.6576L18.1685 21.6837L18.1235 21.7093L18.0782 21.7344L18.0326 21.7592L17.9867 21.7835L17.9405 21.8075L17.8939 21.8309L17.8472 21.8539L17.8 21.8765L17.7526 21.8986L17.705 21.9203L17.6569 21.9414L17.6087 21.9622L17.5602 21.9825L17.5114 22.0023L17.4623 22.0216L17.413 22.0406L17.3634 22.059L17.3136 22.0769L17.2636 22.0944L17.2133 22.1113L17.1628 22.1278L17.112 22.1438L17.0611 22.1592L17.0098 22.1743L16.9584 22.1888L16.9068 22.2028L16.855 22.2163L16.803 22.2293L16.7507 22.2417L16.6983 22.2537L16.6457 22.2651L16.5929 22.2761L16.54 22.2865L16.4868 22.2964L16.4336 22.3058L16.3801 22.3147L16.3265 22.323L16.2728 22.3307L16.2189 22.338L16.1649 22.3448L16.1107 22.351L16.0565 22.3566L16.002 22.3617L15.9475 22.3662L15.8929 22.3703L15.8381 22.3737L15.7834 22.3767L15.7284 22.3791L15.6734 22.3809L15.6183 22.3822L15.5632 22.3829L15.5079 22.3831L15.4527 22.3827L15.3973 22.3818L15.3419 22.3803L15.2864 22.3782L15.231 22.3756L15.1754 22.3724L15.1198 22.3687L15.0642 22.3644L15.0087 22.3595L14.953 22.3541L14.8974 22.3481L14.8418 22.3415L14.7862 22.3344L14.7306 22.3267L14.675 22.3184L14.6194 22.3096L14.5639 22.3002L14.5084 22.2902L14.453 22.2797L14.3976 22.2686L14.3422 22.2569L14.2869 22.2447L14.2317 22.2318L14.1766 22.2184L14.1215 22.2046L14.0665 22.19L14.0116 22.1749L13.9568 22.1592L13.9021 22.143L13.8475 22.1262L13.793 22.1088L13.7386 22.091L13.6844 22.0725L13.6303 22.0534L13.5763 22.0338L13.5225 22.0136L13.4689 21.9928L13.4153 21.9715L13.362 21.9496L13.3088 21.9272L13.2558 21.9043L13.203 21.8807L13.1503 21.8566L13.0979 21.832L13.0455 21.8067L12.9935 21.781L12.9417 21.7547L12.8901 21.7278L12.8387 21.7004L12.7875 21.6725L12.7365 21.644L12.6859 21.615L12.6354 21.5854L12.5852 21.5552L12.5352 21.5246L12.4856 21.4934L12.4361 21.4617L12.387 21.4295L12.3381 21.3967L12.2895 21.3634L12.2413 21.3296L12.1933 21.2952L12.1456 21.2604L12.0982 21.225L12.0512 21.1891L12.0045 21.1528L11.958 21.1158L11.912 21.0784L11.8662 21.0406L11.8208 21.0022L11.7758 20.9632L11.7311 20.9238L11.6867 20.884L11.6428 20.8436L11.5992 20.8027L11.5559 20.7614L11.5131 20.7196L11.4706 20.6774L11.4286 20.6346L11.3869 20.5914L11.3456 20.5477L11.3047 20.5036L11.2643 20.459L11.2243 20.4139L11.1846 20.3685L11.1455 20.3225L11.1067 20.2762L11.0684 20.2294L11.0305 20.1821L10.9931 20.1344L10.9562 20.0864L10.9196 20.0379L10.8836 19.9889L10.848 19.9396L10.8129 19.8899L10.7783 19.8397L10.7441 19.7891L10.7104 19.7382L10.6773 19.6869L10.6446 19.6352L10.6124 19.5831L10.5808 19.5307L10.5496 19.4778L10.5189 19.4246L10.4888 19.371L10.4592 19.3171L10.4301 19.2629L10.4015 19.2083L10.3735 19.1533L10.3459 19.098L10.319 19.0424L10.2926 18.9864L10.2667 18.9302L10.2414 18.8736L10.2167 18.8168L10.1925 18.7595L10.1688 18.7021L10.1458 18.6443L10.1233 18.5862L10.1014 18.5278L10.0801 18.4692L10.0594 18.4103L10.0392 18.3512L10.0196 18.2918L10.0006 18.232L9.98224 18.1721L9.96443 18.112L9.94721 18.0515L9.93063 17.9909L9.9147 17.93L9.89927 17.8689L9.88457 17.8076L9.87044 17.7462L9.85689 17.6844L9.84399 17.6225L9.83174 17.5604L9.82006 17.4982L9.80903 17.4357L9.79865 17.3731L9.78892 17.3103L9.77977 17.2473L9.77126 17.1843L9.76348 17.121L9.75627 17.0576L9.74971 16.9941L9.7438 16.9304L9.73854 16.8667L9.73393 16.8028L9.72996 16.7388L9.72665 16.6747L9.72398 16.6106L9.72196 16.5463L9.72066 16.4819L9.72002 16.4176L9.71994 16.3531L9.72059 16.2885L9.72196 16.2239L9.72391 16.1592L9.72657 16.0945L9.72989 16.0298L9.73386 15.9651L9.73847 15.9003L9.7438 15.8355L9.74978 15.7707L9.75642 15.7059L9.76377 15.6411L9.77177 15.5763L9.78042 15.5115L9.78979 15.4468L9.79981 15.3821L9.81055 15.3174L9.82186 15.2528L9.8339 15.1882L9.84666 15.1237L9.86006 15.0592L9.87412 14.9949L9.88882 14.9306L9.90425 14.8664L9.92032 14.8023L9.93711 14.7383L9.95456 14.6744L9.97265 14.6107L9.99139 14.547L10.0108 14.4835L10.031 14.42L10.0517 14.3568L10.0732 14.2937L10.0953 14.2307L10.1181 14.168L10.1415 14.1054L10.1657 14.043L10.1905 13.9807L10.2159 13.9186L10.242 13.8568L10.2687 13.7951L10.2962 13.7336L10.3242 13.6724L10.353 13.6114L10.3823 13.5507L10.4124 13.4901L10.443 13.4298L10.4744 13.3698L10.5063 13.31L10.539 13.2505L10.5722 13.1912L10.6061 13.1323L10.6406 13.0736L10.6758 13.0152L10.7115 12.9571L10.748 12.8994L10.785 12.8419L10.8227 12.7847L10.8609 12.7279L10.8999 12.6714L10.9394 12.6152L10.9795 12.5595L11.0202 12.504L11.0615 12.4488L11.1035 12.3942L11.146 12.3398L11.1892 12.2858L11.2329 12.2321L11.2772 12.179L11.3221 12.1261L11.3676 12.0736L11.4136 12.0216L11.4603 11.97L11.5075 11.9189L11.5553 11.8681L11.6036 11.8178L11.6525 11.7679L11.7019 11.7184L11.752 11.6694L11.8025 11.6209L11.8536 11.5728L11.9052 11.5252L11.9573 11.4781L12.01 11.4314L12.0633 11.3853L12.117 11.3395L12.1712 11.2944L12.2259 11.2497L12.2812 11.2055L12.3369 11.1619L12.3932 11.1187L12.45 11.0761L12.5072 11.034L12.5649 10.9925L12.6231 10.9515L12.6818 10.911L12.7409 10.871L12.8005 10.8317L12.8605 10.7929L12.9211 10.7547L12.982 10.717L13.0434 10.6799L13.1052 10.6434L13.1674 10.6075L13.2301 10.5721L13.2931 10.5374L13.3566 10.5032L13.4205 10.4697L13.4848 10.4368L13.5494 10.4045L13.6145 10.3728L13.68 10.3417L13.7458 10.3112L13.812 10.2814L13.8785 10.2523L13.9454 10.2237L14.0127 10.1958L14.0802 10.1686L14.1482 10.1419L14.2165 10.116L14.285 10.0907L14.3539 10.0661L14.4232 10.0421L14.4927 10.0188L14.5625 9.99619L14.6326 9.97423L14.703 9.95299L14.7736 9.93241L14.8445 9.91255L14.9158 9.89335L14.9872 9.87481L15.0589 9.85699L15.1308 9.8399L15.2031 9.82354L15.2754 9.80783L15.3481 9.79284L15.4209 9.77859L15.4574 9.77175ZM16.3526 15.052L15.5218 15.2523L15.473 11.0999L15.4338 11.1088L15.3749 11.1228L15.316 11.1374L15.2575 11.1526L15.1992 11.1683L15.1411 11.1846L15.0831 11.2015L15.0257 11.2188L14.9681 11.2368L14.9112 11.2552L14.8542 11.2744L14.7975 11.294L14.7412 11.3142L14.685 11.3348L14.6294 11.356L14.5738 11.3778L14.5185 11.4L14.4636 11.4228L14.4088 11.4462L14.3546 11.4699L14.3005 11.4944L14.2469 11.5192L14.1933 11.5446L14.1403 11.5704L14.0874 11.5968L14.035 11.6237L13.9829 11.651L13.9312 11.6789L13.8798 11.7072L13.8287 11.736L13.7779 11.7653L13.7278 11.795L13.6775 11.8253L13.6279 11.8559L13.5788 11.887L13.5299 11.9186L13.4813 11.9507L13.4333 11.9832L13.3855 12.0161L13.3382 12.0494L13.2913 12.0832L13.2447 12.1174L13.1986 12.1521L13.1529 12.1872L13.1075 12.2227L13.0627 12.2584L13.0183 12.2947L12.9742 12.3315L12.9305 12.3686L12.8874 12.406L12.8447 12.4439L12.8024 12.4821L12.7605 12.5207L12.719 12.5598L12.6781 12.5991L12.6376 12.6387L12.5974 12.6789L12.5579 12.7192L12.5187 12.76L12.4801 12.8011L12.4418 12.8427L12.4041 12.8843L12.3668 12.9264L12.33 12.9689L12.2937 13.0115L12.2578 13.0547L12.2226 13.0979L12.1876 13.1416L12.1533 13.1855L12.1193 13.2298L12.086 13.2744L12.0531 13.3191L12.0207 13.3641L11.9888 13.4094L11.9574 13.4551L11.9265 13.5009L11.8961 13.5471L11.8663 13.5934L11.8369 13.6399L11.808 13.6868L11.7798 13.7338L11.7519 13.7812L11.7246 13.8286L11.6978 13.8763L11.6715 13.9243L11.6459 13.9723L11.6206 14.0206L11.596 14.0691L11.5718 14.1179L11.5482 14.1667L11.5251 14.2158L11.5025 14.265L11.4805 14.3144L11.459 14.3639L11.438 14.4136L11.4176 14.4634L11.3977 14.5134L11.3784 14.5635L11.3595 14.6138L11.3413 14.664L11.3235 14.7146L11.3063 14.7652L11.2897 14.8159L11.2735 14.8667L11.2579 14.9176L11.2429 14.9686L11.2285 15.0196L11.2145 15.0708L11.201 15.1221L11.1882 15.1734L11.1758 15.2247L11.164 15.2761L11.1528 15.3276L11.1421 15.3792L11.132 15.4307L11.1223 15.4822L11.1132 15.5339L11.1047 15.5855L11.0967 15.6371L11.0892 15.6889L11.0823 15.7405L11.0759 15.7923L11.0701 15.8438L11.0648 15.8955L11.06 15.9473L11.0558 15.9989L11.0521 16.0505L11.0489 16.1022L11.0463 16.1536L11.0442 16.2051L11.0426 16.2566L11.0416 16.308L11.041 16.3594L11.0411 16.4107L11.0416 16.4619L11.0426 16.5131L11.0442 16.5641L11.0463 16.6151L11.0489 16.666L11.0521 16.7168L11.0558 16.7675L11.0599 16.8181L11.0646 16.8686L11.0698 16.919L11.0755 16.9691L11.0817 17.0194L11.0884 17.0693L11.0957 17.1192L11.1034 17.1689L11.1116 17.2185L11.1203 17.268L11.1296 17.3173L11.1393 17.3664L11.1495 17.4153L11.1602 17.4642L11.1714 17.5128L11.1831 17.5613L11.1952 17.6094L11.2078 17.6576L11.2209 17.7054L11.2344 17.7532L11.2485 17.8006L11.263 17.848L11.278 17.895L11.2934 17.9418L11.3093 17.9886L11.3257 18.035L11.3425 18.0811L11.3597 18.1271L11.3774 18.1728L11.3956 18.2183L11.4142 18.2635L11.4332 18.3085L11.4527 18.3533L11.4726 18.3978L11.4929 18.442L11.5137 18.4859L11.5348 18.5296L11.5565 18.5731L11.5784 18.6162L11.6008 18.659L11.6237 18.7016L11.6469 18.7439L11.6706 18.7859L11.6946 18.8277L11.719 18.869L11.7439 18.9102L11.769 18.951L11.7946 18.9914L11.8207 19.0316L11.847 19.0715L11.8737 19.1111L11.9007 19.1502L11.9282 19.1891L11.956 19.2277L11.9841 19.2659L12.0127 19.3038L12.0416 19.3414L12.0708 19.3785L12.1003 19.4154L12.1302 19.452L12.1604 19.488L12.191 19.5239L12.2218 19.5594L12.253 19.5944L12.2846 19.6292L12.3163 19.6635L12.3485 19.6976L12.3809 19.7312L12.4136 19.7644L12.4467 19.7973L12.48 19.8298L12.5135 19.8619L12.5474 19.8936L12.5816 19.925L12.616 19.956L12.6507 19.9865L12.6857 20.0167L12.7208 20.0465L12.7563 20.0759L12.792 20.1049L12.8281 20.1335L12.8642 20.1616L12.9007 20.1894L12.9374 20.2168L12.9743 20.2438L13.0114 20.2704L13.0487 20.2966L13.0863 20.3223L13.124 20.3476L13.162 20.3725L13.2001 20.397L13.2386 20.4211L13.2771 20.4447L13.3158 20.468L13.3548 20.4908L13.3938 20.5131L13.433 20.5351L13.4725 20.5567L13.5121 20.5778L13.5518 20.5984L13.5917 20.6187L13.6318 20.6385L13.6719 20.6579L13.7123 20.6768L13.7528 20.6954L13.7933 20.7134L13.8341 20.7311L13.8749 20.7483L13.9158 20.7651L13.9569 20.7815L13.9981 20.7974L14.0394 20.8128L14.0807 20.8279L14.1222 20.8425L14.1637 20.8566L14.2053 20.8704L14.247 20.8837L14.2888 20.8966L14.3306 20.9089L14.3725 20.9209L14.4145 20.9324L14.4565 20.9435L14.4986 20.9542L14.5407 20.9644L14.5828 20.9742L14.6249 20.9835L14.6672 20.9924L14.7094 21.0008L14.7516 21.0089L14.7939 21.0165L14.8362 21.0237L14.8785 21.0304L14.9208 21.0367L14.963 21.0425L15.0053 21.0479L15.0475 21.0529L15.0898 21.0575L15.1321 21.0616L15.1743 21.0653L15.2165 21.0686L15.2586 21.0714L15.3007 21.0738L15.3427 21.0758L15.3847 21.0774L15.4268 21.0784L15.4686 21.0792L15.5104 21.0795L15.5522 21.0793L15.5939 21.0788L15.6356 21.0778L15.6772 21.0764L15.7186 21.0747L15.7599 21.0724L15.8014 21.0698L15.8425 21.0667L15.8836 21.0633L15.9246 21.0595L15.9655 21.0552L16.0063 21.0505L16.0469 21.0455L16.0875 21.04L16.1279 21.0342L16.1681 21.0279L16.2084 21.0213L16.2484 21.0142L16.2883 21.0068L16.328 20.999L16.3677 20.9907L16.407 20.9822L16.4463 20.9732L16.4855 20.9638L16.5245 20.9541L16.5632 20.944L16.6019 20.9336L16.6403 20.9227L16.6787 20.9115L16.7168 20.8999L16.7545 20.888L16.7924 20.8756L16.8299 20.863L16.8673 20.85L16.9044 20.8366L16.9413 20.8229L16.9781 20.8088L17.0147 20.7944L17.0509 20.7796L17.087 20.7646L17.1229 20.7491L17.1587 20.7333L17.194 20.7172L17.2293 20.7008L17.2643 20.684L17.2989 20.667L17.3335 20.6496L17.3677 20.6319L17.4018 20.6139L17.4356 20.5955L17.4691 20.5768L17.5023 20.5579L17.5354 20.5387L17.5682 20.5191L17.6007 20.4992L17.6329 20.4791L17.6649 20.4587L17.6966 20.438L17.7281 20.417L17.7592 20.3958L17.7901 20.3742L17.8208 20.3523L17.8511 20.3303L17.8811 20.3079L17.9109 20.2853L17.9404 20.2624L17.9696 20.2392L17.9985 20.2158L18.0271 20.1923L18.0554 20.1684L18.0834 20.1443L18.111 20.1199L18.1385 20.0953L18.1656 20.0704L18.1924 20.0454L18.2188 20.0202L18.245 19.9947L18.2709 19.9689L18.2965 19.943L18.3217 19.9169L18.3466 19.8905L18.3712 19.864L18.3955 19.8372L18.4194 19.8104L18.4431 19.7832L18.4664 19.7558L18.4893 19.7284L18.5121 19.7006L18.5343 19.6728L18.5563 19.6448L18.578 19.6166L18.5993 19.5883L18.6203 19.5597L18.641 19.5311L18.6613 19.5022L18.6813 19.4731L18.7009 19.4441L18.7202 19.4147L18.7393 19.3854L18.7578 19.3558L18.7761 19.3262L18.7941 19.2963L18.8116 19.2664L18.8289 19.2363L18.8458 19.2062L18.8624 19.1759L18.8786 19.1454L18.8945 19.115L18.91 19.0844L18.9252 19.0537L18.94 19.023L18.9545 18.992L18.9686 18.9611L18.9824 18.93L18.9958 18.899L19.0089 18.8677L19.0216 18.8365L19.0341 18.805L19.046 18.7738L19.0578 18.7421L19.069 18.7109L19.0801 18.6792L19.0907 18.6475L19.101 18.6159L19.1109 18.5842L19.1205 18.5526L19.1298 18.5206L19.1386 18.489L19.1472 18.4569L19.1554 18.4254L19.1632 18.3934L19.1707 18.3614L19.1779 18.3296L19.1846 18.2979L19.1911 18.2657L19.1973 18.2339L19.203 18.2019L19.2084 18.1702L19.2135 18.1383L19.2183 18.1064L19.2227 18.0744L19.2267 18.0426L19.2305 18.0109L19.2339 17.9792L19.2369 17.9473L19.2396 17.9157L19.242 17.884L19.244 17.8523L19.2458 17.8208L19.2471 17.7893L19.2481 17.7579L19.2489 17.7264L19.2493 17.6949L19.2494 17.6637L19.2491 17.6325L19.2485 17.6014L19.2476 17.5703L19.2463 17.5391L19.2448 17.5085L19.2429 17.4772L19.2407 17.4467L19.2382 17.4161L19.2354 17.3853L19.2322 17.3548L19.2288 17.3246L19.225 17.294L19.221 17.264L19.2166 17.2339L19.212 17.2041L19.2069 17.1741L19.2017 17.1443L19.1961 17.1147L19.1903 17.0853L19.1841 17.0558L19.1776 17.0266L19.1709 16.9974L19.1638 16.9685L19.1565 16.9398L19.1488 16.9108L19.141 16.8824L19.1328 16.8538L19.1244 16.8256L19.1157 16.7975L19.1067 16.7696L19.0974 16.7417L19.0878 16.7139L19.078 16.6866L19.0679 16.6593L19.0576 16.632L19.047 16.6051L19.0361 16.578L19.0251 16.5516L19.0136 16.5249L19.0021 16.4987L18.9902 16.4726L18.9781 16.4466L18.9657 16.4208L18.9531 16.3952L18.9403 16.3698L18.9272 16.3446L18.9139 16.3196L18.9004 16.2948L18.8867 16.2702L18.8726 16.2457L18.8585 16.2215L18.8441 16.1975L18.8294 16.1736L18.8145 16.1501L18.7995 16.1267L18.7842 16.1035L18.7687 16.0804L18.753 16.0577L18.7371 16.0351L18.721 16.0128L18.7047 15.9907L18.6882 15.9688L18.6717 15.9471L18.6547 15.9256L18.6377 15.9044L18.6205 15.8834L18.6031 15.8626L18.5855 15.842L18.5679 15.8217L18.5499 15.8016L18.5318 15.7818L18.5136 15.7621L18.4952 15.7427L18.4766 15.7236L18.4579 15.7046L18.4391 15.686L18.42 15.6676L18.4009 15.6494L18.3815 15.6314L18.3622 15.6137L18.3426 15.5962L18.3229 15.579L18.303 15.562L18.283 15.5454L18.2629 15.5288L18.2427 15.5126L18.2224 15.4966L18.2019 15.4808L18.1814 15.4654L18.1607 15.4502L18.1399 15.4352L18.119 15.4205L18.0981 15.4059L18.077 15.3918L18.0558 15.3778L18.0345 15.364L18.0132 15.3506L17.9917 15.3374L17.9702 15.3244L17.9486 15.3118L17.927 15.2993L17.9051 15.2871L17.8833 15.2752L17.8615 15.2635L17.8395 15.252L17.8176 15.2409L17.7954 15.2299L17.7734 15.2193L17.7512 15.209L17.729 15.1988L17.7067 15.1889L17.6843 15.1792L17.6621 15.1699L17.6396 15.1608L17.6171 15.152L17.5947 15.1434L17.5722 15.135L17.5497 15.127L17.5271 15.1191L17.5046 15.1115L17.4821 15.1042L17.4595 15.0971L17.4368 15.0902L17.4143 15.0837L17.3916 15.0774L17.3691 15.0713L17.3464 15.0655L17.3238 15.0599L17.3012 15.0546L17.2786 15.0495L17.256 15.0447L17.2334 15.0401L17.2109 15.0358L17.1884 15.0317L17.1658 15.0278L17.1435 15.0243L17.1208 15.0209L17.0986 15.0178L17.0761 15.0149L17.0537 15.0123L17.0315 15.0099L17.0092 15.0078L16.987 15.0058L16.9648 15.0041L16.9427 15.0027L16.9205 15.0014L16.8985 15.0005L16.8766 14.9998L16.8546 14.9992L16.8328 14.9989L16.811 14.9988L16.7893 14.999L16.7676 14.9994L16.746 15L16.7245 15.0008L16.7031 15.0019L16.6817 15.0032L16.6605 15.0046L16.6393 15.0063L16.6182 15.0083L16.5972 15.0104L16.5761 15.0127L16.5554 15.0152L16.5346 15.018L16.514 15.021L16.4934 15.0242L16.473 15.0275L16.4526 15.0311L16.4325 15.0349L16.4122 15.0389L16.3923 15.043L16.3723 15.0474L16.3526 15.052Z" fill="white"/>
</svg>
