<svg width="121" height="32" viewBox="0 0 121 32" fill="none" xmlns="http://www.w3.org/2000/svg">
<path d="M27.9766 11.2C28.3066 11.2 28.4166 11.3188 28.4166 11.6388V18.88H32.1474C32.4682 18.88 32.5874 18.9988 32.5874 19.3188V19.9588C32.5874 20.2788 32.4682 20.3977 32.1474 20.3977H27.2341C26.9132 20.3977 26.7849 20.2788 26.7849 19.9588V11.6388C26.7849 11.3188 26.9132 11.2 27.2341 11.2H27.9766Z" fill="white"/>
<path d="M35.8416 14.3909C35.8416 12.2789 37.1799 11.0081 39.5082 11.0081C41.8366 11.0081 43.1749 12.2789 43.1749 14.3909V17.2069C43.1749 19.3189 41.8274 20.5898 39.5082 20.5898C37.1891 20.5898 35.8416 19.3189 35.8416 17.2069V14.3909ZM41.6349 14.3909C41.6349 13.2023 40.8924 12.5623 39.5541 12.5623C38.2157 12.5623 37.4824 13.2115 37.4824 14.3909V17.2252C37.4824 18.4229 38.2157 19.0538 39.5541 19.0538C40.8924 19.0538 41.6349 18.3955 41.6349 17.2252V14.3909Z" fill="white"/>
<path d="M54.0926 15.36C54.4501 15.36 54.5326 15.4789 54.5326 15.7989V17.536C54.5423 17.9452 54.4601 18.3514 54.292 18.7247C54.1238 19.0981 53.8741 19.4291 53.561 19.6937C52.7833 20.3113 51.8029 20.6177 50.811 20.5531C48.4368 20.5531 47.1443 19.2823 47.1443 17.1703V14.336C47.1443 12.2514 48.4826 10.9714 50.811 10.9714C52.6443 10.9714 53.836 11.6937 54.3401 13.1383C54.3684 13.1926 54.3835 13.2527 54.3843 13.3137C54.3851 13.3749 54.3717 13.4354 54.345 13.4904C54.3183 13.5454 54.2791 13.5935 54.2305 13.6308C54.1819 13.668 54.1253 13.6935 54.0651 13.7051L53.3501 13.952C53.0385 14.0617 52.9101 13.9977 52.8001 13.6777C52.6482 13.2872 52.3702 12.9583 52.01 12.743C51.6497 12.5278 51.2279 12.4384 50.811 12.4891C49.4635 12.4891 48.7301 13.1383 48.7301 14.3177V17.2252C48.7301 18.4229 49.4726 19.0537 50.811 19.0537C52.1493 19.0537 52.9743 18.4412 52.9743 17.5452V16.8686H50.9851C50.6551 16.8686 50.536 16.7406 50.536 16.4206V15.7989C50.536 15.4789 50.6551 15.36 50.9851 15.36H54.0926Z" fill="white"/>
<path d="M58.3184 14.3909C58.3184 12.2789 59.6567 11.0081 61.985 11.0081C64.3134 11.0081 65.6517 12.2789 65.6517 14.3909V17.2069C65.6517 19.3189 64.3042 20.5898 61.985 20.5898C59.6659 20.5898 58.3184 19.3189 58.3184 17.2069V14.3909ZM64.1025 14.3909C64.1025 13.2023 63.36 12.5623 62.0309 12.5623C60.7017 12.5623 59.95 13.2115 59.95 14.3909V17.2252C59.95 18.4229 60.6925 19.0538 62.0309 19.0538C63.3692 19.0538 64.1025 18.3955 64.1025 17.2252V14.3909Z" fill="white"/>
<path d="M69.9692 11.4651C69.9692 11.264 70.0334 11.2 70.2351 11.2H70.6567C70.8584 11.2 70.9042 11.264 70.9042 11.4651V20.1325C70.9042 20.3337 70.9042 20.3977 70.6567 20.3977H70.2351C70.0334 20.3977 69.9692 20.3337 69.9692 20.1325V11.4651Z" fill="white"/>
<path d="M79.2551 11.2C80.0185 11.2 80.7505 11.5024 81.2903 12.0408C81.8302 12.5792 82.1334 13.3094 82.1334 14.0708C82.1334 14.8322 81.8302 15.5625 81.2903 16.1008C80.7505 16.6392 80.0185 16.9417 79.2551 16.9417H76.5051V20.1325C76.5051 20.3337 76.4592 20.3977 76.2667 20.3977H75.8359C75.6434 20.3977 75.5701 20.3337 75.5701 20.1325V11.4651C75.5701 11.264 75.6434 11.2 75.8359 11.2H79.2551ZM79.1726 16.0365C79.435 16.0365 79.6949 15.985 79.9373 15.8848C80.1797 15.7846 80.4001 15.6378 80.5856 15.4528C80.7711 15.2677 80.9184 15.0479 81.0188 14.8062C81.1192 14.5643 81.1709 14.3051 81.1709 14.0434C81.1709 13.7816 81.1192 13.5224 81.0188 13.2806C80.9184 13.0389 80.7711 12.8191 80.5856 12.634C80.4001 12.449 80.1797 12.3021 79.9373 12.2019C79.6949 12.1018 79.435 12.0502 79.1726 12.0502H76.4226V16.0365H79.1726Z" fill="white"/>
<path d="M89.2924 11.0172C90.0001 10.9393 90.7141 11.0912 91.3285 11.4502C91.9425 11.8094 92.4246 12.3565 92.7024 13.0104C92.7757 13.1567 92.7024 13.2755 92.5557 13.3487L92.1524 13.5315C91.9874 13.5955 91.9232 13.5864 91.8224 13.4127C91.6147 12.9274 91.2576 12.5205 90.8028 12.251C90.348 11.9814 89.819 11.8631 89.2924 11.9132C87.7432 11.9132 86.8999 12.5258 86.8999 13.6229C86.8909 13.9582 87.0037 14.2855 87.2178 14.5443C87.4317 14.803 87.7323 14.9759 88.0641 15.0309C88.557 15.1913 89.0683 15.2896 89.5857 15.3235C90.2121 15.3568 90.83 15.4832 91.4191 15.6984C91.871 15.8409 92.2596 16.134 92.52 16.5286C92.7803 16.9232 92.8967 17.3952 92.8491 17.8652C92.8491 19.5749 91.6024 20.6081 89.3107 20.6081C88.5591 20.6939 87.8006 20.5201 87.1618 20.1158C86.523 19.7116 86.0423 19.1012 85.7999 18.3864C85.7837 18.3538 85.775 18.3181 85.7742 18.2817C85.7735 18.2453 85.7809 18.2093 85.7958 18.1761C85.8106 18.1429 85.8327 18.1134 85.8604 18.0897C85.888 18.0659 85.9205 18.0486 85.9557 18.0389L86.3591 17.8927C86.3908 17.8797 86.425 17.8735 86.4592 17.8744C86.4935 17.8753 86.5273 17.8833 86.5583 17.898C86.5893 17.9126 86.617 17.9334 86.6395 17.9593C86.662 17.9852 86.6789 18.0154 86.6891 18.0481C86.8941 18.5646 87.2588 19.0025 87.7301 19.2985C88.2015 19.5943 88.7551 19.7328 89.3107 19.6938C91.0432 19.6938 91.8957 19.0904 91.8957 17.8652C91.9122 17.5432 91.8132 17.2259 91.6165 16.9697C91.4202 16.7136 91.139 16.5352 90.8232 16.4664C90.3489 16.3253 89.8598 16.2394 89.3657 16.2104L88.3757 16.0824C88.0659 16.0168 87.7599 15.9344 87.4591 15.8355C87.1619 15.746 86.8849 15.6001 86.6432 15.4058C86.4 15.1862 86.2084 14.9159 86.0816 14.6141C85.9549 14.3123 85.8962 13.9865 85.9099 13.6595C85.9741 12.0595 87.1749 11.0172 89.2924 11.0172Z" fill="white"/>
<path d="M97.7901 17.2708C97.8286 17.9174 98.1137 18.5248 98.5867 18.9688C99.0597 19.4129 99.6849 19.6601 100.334 19.6601C100.983 19.6601 101.608 19.4129 102.081 18.9688C102.554 18.5248 102.838 17.9174 102.878 17.2708V11.4651C102.878 11.264 102.942 11.2 103.143 11.2H103.565C103.767 11.2 103.831 11.264 103.831 11.4651V17.2617C103.831 19.3371 102.603 20.5897 100.338 20.5897C98.0743 20.5897 96.8459 19.3371 96.8459 17.2617V11.4651C96.8459 11.264 96.9101 11.2 97.1026 11.2H97.5334C97.7259 11.2 97.7901 11.264 97.7901 11.4651V17.2708Z" fill="white"/>
<path d="M116.481 11.2C116.683 11.2 116.747 11.264 116.747 11.4652V20.1326C116.747 20.3338 116.683 20.3978 116.481 20.3978H116.096C115.903 20.3978 115.839 20.3338 115.839 20.1326V14.8572C115.839 14.0896 115.891 13.3229 115.995 12.5623H115.94C115.654 13.2578 115.319 13.9329 114.941 14.5829L112.97 18.048C112.946 18.1082 112.904 18.1596 112.85 18.1955C112.796 18.2314 112.733 18.2501 112.668 18.2492H112.411C112.345 18.2496 112.281 18.2306 112.225 18.195C112.17 18.1592 112.126 18.1082 112.099 18.048L110.101 14.5463C109.746 13.9057 109.44 13.2395 109.184 12.5532H109.129C109.223 13.3207 109.272 14.0931 109.276 14.8663V20.1326C109.276 20.3338 109.212 20.3978 109.01 20.3978H108.653C108.451 20.3978 108.387 20.3338 108.387 20.1326V11.4652C108.387 11.264 108.451 11.2 108.653 11.2H108.983C109.058 11.1931 109.134 11.2095 109.199 11.2471C109.265 11.2848 109.317 11.3419 109.349 11.4103L112.558 17.0972L115.748 11.4652C115.848 11.2732 115.903 11.2458 116.105 11.2458L116.481 11.2Z" fill="white"/>
<path d="M11.6692 19.0081V25.6183C11.6692 25.8718 11.5683 26.1148 11.3887 26.2939C11.2091 26.4731 10.9654 26.5738 10.7113 26.5738C10.4573 26.5738 10.2137 26.4731 10.034 26.2939C9.85434 26.1148 9.75341 25.8718 9.75341 25.6183V19.0172C10.0202 19.2115 10.3399 19.3199 10.6701 19.3281C11.03 19.3383 11.3826 19.2254 11.6692 19.0081ZM19.8276 17.0972C19.5845 17.0972 19.3513 17.1936 19.1794 17.365C19.0075 17.5364 18.9109 17.769 18.9109 18.0115V19.1635C18.9109 19.4169 19.0118 19.6599 19.1915 19.8391C19.3711 20.0183 19.6147 20.1189 19.8688 20.1189C20.1229 20.1189 20.3666 20.0183 20.5462 19.8391C20.7258 19.6599 20.8267 19.4169 20.8267 19.1635V18.0572C20.8339 17.9261 20.8126 17.795 20.7644 17.6728C20.7162 17.5507 20.6422 17.4402 20.5473 17.3492C20.4526 17.2581 20.3392 17.1885 20.2151 17.1449C20.0908 17.1015 19.9587 17.0852 19.8276 17.0972ZM7.67258 21.5132C7.34274 21.5033 7.02343 21.3951 6.75591 21.2023V27.8309C6.75591 28.0855 6.85732 28.3298 7.03783 28.5098C7.21833 28.6898 7.46314 28.7909 7.71841 28.7909C7.97369 28.7909 8.2185 28.6898 8.399 28.5098C8.57951 28.3298 8.68091 28.0855 8.68091 27.8309V21.2481C8.38158 21.4411 8.02839 21.534 7.67258 21.5132ZM16.8392 15.1132C16.715 15.107 16.5909 15.1261 16.4743 15.1693C16.3578 15.2124 16.2513 15.2788 16.1612 15.3643C16.0712 15.4498 15.9996 15.5527 15.9506 15.6667C15.9018 15.7807 15.8766 15.9035 15.8767 16.0275V21.1201C15.8767 21.3747 15.9781 21.6189 16.1586 21.7989C16.3392 21.9789 16.584 22.0801 16.8392 22.0801C17.0945 22.0801 17.3394 21.9789 17.5199 21.7989C17.7004 21.6189 17.8017 21.3747 17.8017 21.1201V16.0915C17.8091 15.9596 17.7876 15.8276 17.7389 15.7047C17.6901 15.5819 17.6153 15.471 17.5194 15.3797C17.4235 15.2885 17.309 15.219 17.1837 15.1762C17.0584 15.1333 16.9252 15.1181 16.7934 15.1315L16.8392 15.1132ZM13.7959 17.0698C13.4506 17.0674 13.1146 16.9589 12.8334 16.7589V23.4058C12.8334 23.6604 12.9348 23.9046 13.1153 24.0846C13.2959 24.2647 13.5406 24.3658 13.7959 24.3658C14.0512 24.3658 14.296 24.2647 14.4765 24.0846C14.657 23.9046 14.7584 23.6604 14.7584 23.4058V16.7681C14.4676 16.9841 14.1126 17.0967 13.7501 17.0881L13.7959 17.0698ZM5.59175 22.1623V3.59321C5.58934 3.36686 5.49749 3.15061 5.33615 2.9914C5.17482 2.8322 4.95703 2.74291 4.73008 2.74292H4.52841C4.30147 2.74291 4.08368 2.8322 3.92234 2.9914C3.76101 3.15061 3.66916 3.36686 3.66675 3.59321V22.1623C3.66675 22.3903 3.75753 22.6089 3.91912 22.7701C4.08071 22.9313 4.29989 23.0218 4.52841 23.0218H4.73008C4.95862 23.0218 5.17778 22.9313 5.33937 22.7701C5.50097 22.6089 5.59175 22.3903 5.59175 22.1623ZM7.77341 20.8092H7.57175C7.34322 20.8092 7.12405 20.7187 6.96246 20.5575C6.80087 20.3963 6.71008 20.1777 6.71008 19.9498V5.80578C6.7125 5.57944 6.80434 5.36317 6.96568 5.20398C7.12701 5.04477 7.3448 4.95548 7.57175 4.95549H7.77341C8.00036 4.95548 8.21815 5.04477 8.37949 5.20398C8.54082 5.36317 8.63267 5.57944 8.63508 5.80578V19.9681C8.63508 20.196 8.54429 20.4146 8.3827 20.5758C8.22111 20.737 8.00194 20.8275 7.77341 20.8275V20.8092ZM10.8076 18.6332H10.5967C10.3707 18.6332 10.1538 18.5436 9.99395 18.3842C9.83408 18.2247 9.74425 18.0085 9.74425 17.7829V8.00006C9.74306 7.88763 9.76423 7.77608 9.80649 7.67186C9.84875 7.56764 9.91136 7.47283 9.99065 7.3929C10.0699 7.31298 10.1644 7.24953 10.2684 7.20623C10.3724 7.16292 10.484 7.14062 10.5967 7.14063H10.8076C11.0345 7.14305 11.2513 7.23465 11.4109 7.39556C11.5706 7.55648 11.6601 7.7737 11.6601 8.00006V17.7829C11.6601 18.0085 11.5702 18.2247 11.4104 18.3842C11.2505 18.5436 11.0337 18.6332 10.8076 18.6332ZM13.8417 16.3932H13.6492C13.4223 16.3932 13.2045 16.304 13.0431 16.1447C12.8818 15.9855 12.79 15.7693 12.7876 15.5429V10.2766C12.7801 10.1592 12.7967 10.0416 12.8367 9.93085C12.8766 9.82022 12.9389 9.71883 13.0197 9.63316C13.1004 9.5474 13.198 9.47919 13.3063 9.43257C13.4146 9.38603 13.5313 9.36207 13.6492 9.36235H13.8509C14.0794 9.36235 14.2986 9.45286 14.4602 9.61405C14.6218 9.77524 14.7126 9.99385 14.7126 10.2218V15.5246C14.7138 15.6383 14.6924 15.751 14.6496 15.8563C14.6069 15.9617 14.5436 16.0575 14.4634 16.1383C14.3833 16.219 14.288 16.2831 14.1827 16.3269C14.0776 16.3707 13.9649 16.3932 13.8509 16.3932H13.8417ZM16.8851 14.4275H16.6834C16.4549 14.4275 16.2357 14.337 16.0741 14.1758C15.9125 14.0146 15.8217 13.796 15.8217 13.5681V12.2058C15.8241 11.9794 15.916 11.7632 16.0773 11.604C16.2386 11.4447 16.4564 11.3555 16.6834 11.3555H16.8851C17.112 11.3555 17.3298 11.4447 17.4912 11.604C17.6525 11.7632 17.7444 11.9794 17.7467 12.2058V13.5681C17.7467 13.7944 17.6573 14.0117 17.4976 14.1726C17.338 14.3335 17.1212 14.4251 16.8942 14.4275H16.8851Z" fill="white"/>
</svg>
