<svg width="130" height="32" viewBox="0 0 130 32" fill="none" xmlns="http://www.w3.org/2000/svg">
<g clip-path="url(#clip0_140_5116)">
<path d="M39.123 22.3643H48.3169V19.6215H42.3907V9.29004H39.123V22.3643Z" fill="white"/>
<path d="M53.7641 20.5358C52.4534 20.5358 51.7703 19.4021 51.7703 17.7015C51.7703 16.001 52.4534 14.849 53.7641 14.849C55.0749 14.849 55.7764 16.001 55.7764 17.7015C55.7764 19.4021 55.0749 20.5358 53.7641 20.5358ZM53.7826 22.6569C56.8287 22.6569 58.8226 20.5175 58.8226 17.7015C58.8226 14.8855 56.8287 12.7461 53.7826 12.7461C50.7549 12.7461 48.7241 14.8855 48.7241 17.7015C48.7241 20.5175 50.7549 22.6569 53.7826 22.6569Z" fill="white"/>
<path d="M64.0951 25.6009C65.4982 25.6009 66.7351 25.2901 67.5658 24.5586C68.3228 23.8821 68.8212 22.8581 68.8212 21.4501V13.0021H65.9412V14.0078H65.9043C65.3505 13.2215 64.5012 12.7278 63.2458 12.7278C60.9012 12.7278 59.2766 14.6661 59.2766 17.4089C59.2766 20.2798 61.252 21.8524 63.3751 21.8524C64.5197 21.8524 65.2397 21.3952 65.7935 20.7735H65.8674V21.7061C65.8674 22.8398 65.332 23.4981 64.0582 23.4981C63.0612 23.4981 62.5628 23.0775 62.3966 22.5838H59.4797C59.7751 24.5404 61.492 25.6009 64.0951 25.6009ZM64.0766 19.6398C62.9505 19.6398 62.212 18.7255 62.212 17.3175C62.212 15.8912 62.9505 14.9769 64.0766 14.9769C65.332 14.9769 65.9966 16.0375 65.9966 17.2992C65.9966 18.6158 65.3874 19.6398 64.0766 19.6398Z" fill="white"/>
<path d="M74.7431 20.5358C73.4324 20.5358 72.7493 19.4021 72.7493 17.7015C72.7493 16.001 73.4324 14.849 74.7431 14.849C76.0539 14.849 76.7554 16.001 76.7554 17.7015C76.7554 19.4021 76.0539 20.5358 74.7431 20.5358ZM74.7616 22.6569C77.8077 22.6569 79.8016 20.5175 79.8016 17.7015C79.8016 14.8855 77.8077 12.7461 74.7616 12.7461C71.7339 12.7461 69.7031 14.8855 69.7031 17.7015C69.7031 20.5175 71.7339 22.6569 74.7616 22.6569Z" fill="white"/>
<path d="M80.6799 22.3643H83.6892V13.002H80.6799V22.3643ZM80.6799 11.7038H83.6892V9.29004H80.6799V11.7038Z" fill="white"/>
<path d="M84.9954 25.4546H88.0046V21.3952H88.0415C88.6323 22.1815 89.5 22.6569 90.7184 22.6569C93.1923 22.6569 94.8354 20.7186 94.8354 17.6832C94.8354 14.8672 93.3031 12.7278 90.7923 12.7278C89.5 12.7278 88.5769 13.2946 87.9307 14.1358H87.8754V13.0021H84.9954V25.4546ZM89.9431 20.3529C88.6507 20.3529 87.9123 19.3106 87.9123 17.7929C87.9123 16.2752 88.5769 15.1232 89.8877 15.1232C91.18 15.1232 91.7892 16.1838 91.7892 17.7929C91.7892 19.3838 91.0877 20.3529 89.9431 20.3529Z" fill="white"/>
<path d="M99.7346 22.6569C102.208 22.6569 104.036 21.5964 104.036 19.5484C104.036 17.1529 102.079 16.7324 100.418 16.4581C99.2177 16.2386 98.1469 16.1472 98.1469 15.4889C98.1469 14.9038 98.7192 14.6295 99.4577 14.6295C100.288 14.6295 100.861 14.8855 100.972 15.7266H103.741C103.593 13.8798 102.153 12.7278 99.4762 12.7278C97.2423 12.7278 95.3962 13.7518 95.3962 15.7266C95.3962 17.9209 97.15 18.3598 98.7931 18.6341C100.048 18.8535 101.193 18.9449 101.193 19.7861C101.193 20.3895 100.621 20.7186 99.7162 20.7186C98.7192 20.7186 98.0915 20.2615 97.9808 19.3289H95.1377C95.23 21.3952 96.9654 22.6569 99.7346 22.6569Z" fill="white"/>
<path d="M108.124 22.6385C109.435 22.6385 110.265 22.1265 110.948 21.2122H111.004V22.3642H113.884V13.002H110.875V18.2317C110.875 19.3471 110.247 20.1151 109.213 20.1151C108.253 20.1151 107.792 19.5482 107.792 18.5242V13.002H104.801V19.146C104.801 21.2305 105.945 22.6385 108.124 22.6385Z" fill="white"/>
<path d="M115.192 22.3644H118.202V17.1164C118.202 16.0009 118.755 15.2146 119.697 15.2146C120.602 15.2146 121.026 15.7998 121.026 16.8055V22.3644H124.035V17.1164C124.035 16.0009 124.571 15.2146 125.531 15.2146C126.435 15.2146 126.86 15.7998 126.86 16.8055V22.3644H129.869V16.2752C129.869 14.1724 128.799 12.7278 126.657 12.7278C125.439 12.7278 124.423 13.2398 123.685 14.3735H123.648C123.168 13.3678 122.226 12.7278 120.989 12.7278C119.623 12.7278 118.719 13.3678 118.128 14.3369H118.072V13.0021H115.192V22.3644Z" fill="white"/>
<path fill-rule="evenodd" clip-rule="evenodd" d="M15.911 0.73291C24.5739 0.73291 31.5966 7.6887 31.5966 16.2691C31.5966 24.8496 24.5739 31.8054 15.911 31.8054C7.24803 31.8054 0.225342 24.8496 0.225342 16.2691C0.225342 7.6887 7.24803 0.73291 15.911 0.73291ZM30.9945 16.2691C30.9945 8.01807 24.2414 1.32919 15.911 1.32919C15.239 1.32919 14.5774 1.37271 13.9286 1.45706C14.3478 1.42077 14.7719 1.40224 15.2005 1.40224C23.1607 1.40224 29.6137 7.79376 29.6137 15.6781C29.6137 23.5624 23.1607 29.9539 15.2005 29.9539C7.66443 29.9539 1.47918 24.2252 0.841621 16.9246C1.18797 24.8716 7.80223 31.2091 15.911 31.2091C24.2414 31.2091 30.9945 24.5202 30.9945 16.2691ZM29.0116 15.6781C29.0116 8.12306 22.8282 1.99853 15.2005 1.99853C14.5812 1.99853 13.9714 2.03891 13.3736 2.11715C13.7417 2.08647 14.1141 2.07082 14.4902 2.07082C21.7475 2.07082 27.6308 7.89807 27.6308 15.0863C27.6308 22.2745 21.7475 28.1017 14.4902 28.1017C7.62814 28.1017 1.99459 22.892 1.40123 16.2481C1.70291 23.5388 7.76569 29.3576 15.2005 29.3576C22.8282 29.3576 29.0116 23.2331 29.0116 15.6781ZM14.4902 2.66711C21.415 2.66711 27.0288 8.22736 27.0288 15.0863C27.0288 21.9452 21.415 27.5054 14.4902 27.5054C7.72577 27.5054 2.2124 22.1998 1.96059 15.5608C2.50424 21.5532 7.58831 26.2495 13.7798 26.2495C20.3339 26.2495 25.6472 20.9869 25.6472 14.4952C25.6472 8.00344 20.3339 2.7409 13.7798 2.7409C13.4408 2.7409 13.105 2.75498 12.7732 2.78259C13.3345 2.70645 13.9077 2.66711 14.4902 2.66711ZM25.0451 14.4952C25.0451 8.33281 20.0015 3.33719 13.7798 3.33719C13.2542 3.33719 12.7368 3.37284 12.2304 3.44186C12.5069 3.42042 12.7865 3.4095 13.0686 3.4095C18.92 3.4095 23.6635 8.10774 23.6635 13.9034C23.6635 19.699 18.92 24.3973 13.0686 24.3973C7.56121 24.3973 3.03527 20.2351 2.52227 14.9132C2.74421 20.8819 7.69946 25.6532 13.7798 25.6532C20.0015 25.6532 25.0451 20.6576 25.0451 14.4952ZM13.0686 4.00578C18.5875 4.00578 23.0614 8.43712 23.0614 13.9034C23.0614 19.3697 18.5875 23.801 13.0686 23.801C7.65849 23.801 3.25254 19.5426 3.08104 14.2252C3.54422 18.8959 7.52098 22.5451 12.3582 22.5451C17.5068 22.5451 21.6805 18.4111 21.6805 13.3116C21.6805 8.21205 17.5068 4.07808 12.3582 4.07808C12.1222 4.07808 11.8881 4.08677 11.6564 4.10385C12.1178 4.03921 12.5892 4.00578 13.0686 4.00578ZM21.0785 13.3116C21.0785 8.54134 17.1743 4.67437 12.3582 4.67437C11.9186 4.67437 11.4866 4.70659 11.0645 4.76877C11.2572 4.75511 11.4517 4.74815 11.6479 4.74815C16.0932 4.74815 19.6969 8.3175 19.6969 12.7205C19.6969 17.1235 16.0932 20.6928 11.6479 20.6928C7.48236 20.6928 4.0559 17.5587 3.64103 13.5413C3.76402 18.2053 7.61977 21.9488 12.3582 21.9488C17.1743 21.9488 21.0785 18.0818 21.0785 13.3116ZM11.6479 5.34444C15.7608 5.34444 19.0948 8.64679 19.0948 12.7205C19.0948 16.7942 15.7608 20.0965 11.6479 20.0965C7.58737 20.0965 4.28589 16.8777 4.20251 12.8757C4.57761 16.231 7.44988 18.8406 10.9375 18.8406C14.6801 18.8406 17.714 15.8356 17.714 12.1287C17.714 8.4218 14.6801 5.41674 10.9375 5.41674C10.7944 5.41674 10.6523 5.42113 10.5114 5.42979C10.8819 5.37359 11.2615 5.34444 11.6479 5.34444ZM17.112 12.1287C17.112 8.7511 14.3476 6.01303 10.9375 6.01303C10.5951 6.01303 10.2592 6.04064 9.93184 6.09373C10.0294 6.08864 10.1275 6.08607 10.2264 6.08607C13.2661 6.08607 15.7303 8.52679 15.7303 11.5376C15.7303 14.5484 13.2661 16.9892 10.2264 16.9892C7.41564 16.9892 5.097 14.9023 4.76355 12.2076C4.80624 15.5489 7.55408 18.2444 10.9375 18.2444C14.3476 18.2444 17.112 15.5063 17.112 12.1287ZM10.2264 6.68235C12.9336 6.68235 15.1283 8.85609 15.1283 11.5376C15.1283 14.2191 12.9336 16.3928 10.2264 16.3928C7.51908 16.3928 5.32441 14.2191 5.32441 11.5376C5.32441 11.5312 5.32442 11.5247 5.32444 11.5183C5.60631 13.5618 7.37551 15.1362 9.516 15.1362C11.8525 15.1362 13.7467 13.2601 13.7467 10.9458C13.7467 8.63148 11.8525 6.75541 9.516 6.75541C9.46315 6.75541 9.41054 6.75636 9.35815 6.75827C9.63992 6.70838 9.93008 6.68235 10.2264 6.68235ZM13.1446 10.9458C13.1446 8.96085 11.5201 7.35169 9.516 7.35169C7.51192 7.35169 5.88731 8.96085 5.88731 10.9458C5.88731 12.9308 7.51192 14.5399 9.516 14.5399C11.5201 14.5399 13.1446 12.9308 13.1446 10.9458Z" fill="white"/>
</g>
<defs>
<clipPath id="clip0_140_5116">
<rect width="130" height="32" fill="white"/>
</clipPath>
</defs>
</svg>
