<svg width="55" height="42" viewBox="0 0 55 42" fill="none" xmlns="http://www.w3.org/2000/svg">
<path d="M50.0562 3.39706C53.1461 6.79412 55 10.5 55 16.6765C55 27.4853 47.2753 37.0588 36.4607 42L33.6798 37.9853C43.8764 32.4265 46.0393 25.3235 46.6573 20.6912C45.1124 21.6176 42.9494 21.9265 40.7865 21.6176C35.2247 21 30.8989 16.6765 30.8989 10.8088C30.8989 8.02941 32.1348 5.25 33.9888 3.08824C36.1517 0.926471 38.6236 0 41.7135 0C45.1124 0 48.2022 1.54412 50.0562 3.39706ZM19.1573 3.39706C22.2472 6.79412 24.1011 10.5 24.1011 16.6765C24.1011 27.4853 16.3764 37.0588 5.5618 42L2.7809 37.9853C12.9775 32.4265 15.1405 25.3235 15.7584 20.6912C14.2135 21.6176 12.0506 21.9265 9.88764 21.6176C4.32584 21 0 16.3676 0 10.8088C0 8.02941 1.23596 5.25 3.08989 3.08824C5.25281 0.926471 7.72472 0 10.8146 0C14.2135 0 17.3034 1.54412 19.1573 3.39706Z" fill="#FFD358"/>
</svg>
