<svg width="196" height="46" viewBox="0 0 196 46" fill="none" xmlns="http://www.w3.org/2000/svg">
<path d="M114.899 45.3172C112.609 45.3172 110.684 44.9137 109.124 44.1066C107.597 43.2995 106.452 42.124 105.689 40.5801C104.959 39.0362 104.594 37.0887 104.594 34.7377V24.8425H102.503C101.574 24.8425 100.844 24.5793 100.313 24.053C99.8148 23.5266 99.5659 22.8073 99.5659 21.895C99.5659 20.9125 99.8148 20.1756 100.313 19.6843C100.844 19.158 101.574 18.8948 102.503 18.8948H104.594V14.8946C104.594 13.5612 104.926 12.5612 105.589 11.8945C106.253 11.1927 107.182 10.8418 108.377 10.8418C109.605 10.8418 110.534 11.1927 111.165 11.8945C111.795 12.5612 112.111 13.5612 112.111 14.8946V18.8948H116.84C117.769 18.8948 118.483 19.158 118.981 19.6843C119.478 20.1756 119.727 20.9125 119.727 21.895C119.727 22.8073 119.478 23.5266 118.981 24.053C118.483 24.5793 117.769 24.8425 116.84 24.8425H112.111V34.4219C112.111 35.8957 112.426 37.001 113.057 37.7379C113.72 38.4747 114.766 38.8432 116.193 38.8432C116.691 38.8432 117.155 38.7905 117.587 38.6853C118.018 38.58 118.416 38.5098 118.781 38.4747C119.246 38.4397 119.628 38.5976 119.926 38.9484C120.225 39.2643 120.374 39.9836 120.374 41.1064C120.374 41.9486 120.242 42.6855 119.976 43.3171C119.711 43.9487 119.246 44.4049 118.582 44.6856C118.151 44.861 117.554 45.0014 116.79 45.1066C116.06 45.247 115.43 45.3172 114.899 45.3172Z" fill="white"/>
<path d="M81.0747 44.7389C80.3446 44.7389 79.7306 44.5459 79.2328 44.1599C78.735 43.7388 78.4031 43.2125 78.2372 42.5809C78.0712 41.9493 78.0712 41.265 78.2372 40.5282C78.4363 39.7913 78.8179 39.107 79.3821 38.4754L91.5785 23.001V24.8432H80.776C79.8799 24.8432 79.183 24.58 78.6852 24.0537C78.1874 23.5273 77.9385 22.808 77.9385 21.8957C77.9385 20.9132 78.1874 20.1763 78.6852 19.685C79.183 19.1587 79.8799 18.8955 80.776 18.8955H95.1628C96.0588 18.8955 96.7724 19.106 97.3034 19.5271C97.8344 19.9482 98.1828 20.4745 98.3488 21.1061C98.5479 21.7027 98.5645 22.3694 98.3985 23.1062C98.2658 23.808 97.9173 24.4747 97.3531 25.1063L84.8581 40.8966V38.8439H96.4073C98.299 38.8439 99.2448 39.8264 99.2448 41.7914C99.2448 42.7388 98.9959 43.4757 98.4981 44.002C98.0003 44.4933 97.3034 44.7389 96.4073 44.7389H81.0747Z" fill="white"/>
<path d="M58.1082 45.3175C55.9842 45.3175 54.1091 44.7736 52.483 43.6858C50.89 42.598 49.6454 41.0366 48.7494 39.0014C47.8533 36.9662 47.4053 34.5626 47.4053 31.7905C47.4053 29.0184 47.8533 26.6324 48.7494 24.6323C49.6454 22.6322 50.89 21.0882 52.483 20.0005C54.1091 18.9127 55.9842 18.3688 58.1082 18.3688C60.0331 18.3688 61.7257 18.86 63.1859 19.8425C64.6793 20.8251 65.6916 22.1058 66.2226 23.6848H65.675V11.2105C65.675 9.87715 65.9902 8.8771 66.6208 8.2104C67.2514 7.50861 68.1806 7.15771 69.4086 7.15771C70.6033 7.15771 71.5325 7.50861 72.1963 8.2104C72.86 8.8771 73.1919 9.87715 73.1919 11.2105V41.1594C73.1919 42.4577 72.86 43.4577 72.1963 44.1595C71.5657 44.8613 70.6531 45.2122 69.4583 45.2122C68.2636 45.2122 67.3343 44.8613 66.6706 44.1595C66.04 43.4577 65.7247 42.4577 65.7247 41.1594V37.5803L66.2723 39.633C65.8077 41.3524 64.8121 42.7384 63.2855 43.7911C61.792 44.8087 60.0663 45.3175 58.1082 45.3175ZM60.3484 39.3698C61.4436 39.3698 62.3894 39.0891 63.1859 38.5277C63.9824 37.9662 64.613 37.1416 65.0776 36.0539C65.5422 34.931 65.7745 33.5099 65.7745 31.7905C65.7745 29.229 65.2767 27.3517 64.2811 26.1586C63.2855 24.9305 61.9746 24.3165 60.3484 24.3165C59.2864 24.3165 58.3405 24.5796 57.5109 25.106C56.7144 25.6323 56.0838 26.4569 55.6192 27.5798C55.1877 28.6675 54.972 30.0711 54.972 31.7905C54.972 34.352 55.4698 36.2644 56.4654 37.5276C57.4611 38.7558 58.7554 39.3698 60.3484 39.3698Z" fill="white"/>
<path d="M39.0634 45.1597C37.8355 45.1597 36.8896 44.7913 36.2259 44.0544C35.5953 43.2824 35.28 42.2122 35.28 40.8437V22.8428C35.28 21.4393 35.5953 20.369 36.2259 19.6322C36.8896 18.8602 37.8355 18.4742 39.0634 18.4742C40.2581 18.4742 41.1708 18.8602 41.8014 19.6322C42.4651 20.369 42.797 21.4393 42.797 22.8428V40.8437C42.797 42.2122 42.4817 43.2824 41.8511 44.0544C41.2206 44.7913 40.2913 45.1597 39.0634 45.1597ZM39.0634 14.1582C37.6695 14.1582 36.5909 13.8249 35.8276 13.1582C35.0975 12.4564 34.7324 11.4739 34.7324 10.2106C34.7324 8.91234 35.0975 7.92983 35.8276 7.26314C36.5909 6.56134 37.6695 6.21045 39.0634 6.21045C40.4573 6.21045 41.5193 6.56134 42.2494 7.26314C42.9795 7.92983 43.3446 8.91234 43.3446 10.2106C43.3446 11.4739 42.9795 12.4564 42.2494 13.1582C41.5193 13.8249 40.4573 14.1582 39.0634 14.1582Z" fill="white"/>
<path d="M3.88293 45.2122C2.62181 45.2122 1.65937 44.8438 0.995624 44.1069C0.331875 43.37 0 42.3349 0 41.0015V11.3158C0 9.98242 0.331875 8.96482 0.995624 8.26303C1.65937 7.52615 2.62181 7.15771 3.88293 7.15771C5.11087 7.15771 6.05671 7.52615 6.72046 8.26303C7.38421 8.96482 7.71608 9.98242 7.71608 11.3158V23.7901H7.81565L21.0574 9.15781C21.6216 8.5262 22.2024 8.0525 22.7998 7.73669C23.4303 7.3858 24.1439 7.21035 24.9404 7.21035C26.1019 7.21035 26.9316 7.52615 27.4294 8.15776C27.9604 8.78937 28.1927 9.52625 28.1264 10.3684C28.06 11.2105 27.6949 12.0001 27.0312 12.7369L13.7396 27.1061L13.7894 23.5796L27.7281 39.3172C28.4914 40.1944 28.8731 41.0892 28.8731 42.0015C28.9063 42.9139 28.6242 43.6858 28.0268 44.3174C27.4626 44.914 26.6163 45.2122 25.488 45.2122C24.5255 45.2122 23.7456 45.0017 23.1482 44.5806C22.5841 44.1595 21.9535 43.5455 21.2566 42.7384L7.81565 27.7903H7.71608V41.0015C7.71608 42.3349 7.38421 43.37 6.72046 44.1069C6.0899 44.8438 5.14406 45.2122 3.88293 45.2122Z" fill="white"/>
<path d="M182.448 45.2132C181.187 45.2132 180.224 44.8623 179.561 44.1606C178.897 43.4588 178.565 42.4587 178.565 41.1604V22.4753C178.565 21.177 178.88 20.1945 179.511 19.5278C180.175 18.826 181.087 18.4751 182.249 18.4751C183.443 18.4751 184.356 18.826 184.987 19.5278C185.617 20.1945 185.933 21.177 185.933 22.4753V25.2122H185.435C185.833 23.1069 186.712 21.4752 188.073 20.3173C189.434 19.1593 191.193 18.5102 193.35 18.3698C194.18 18.2996 194.81 18.5277 195.242 19.0541C195.706 19.5453 195.955 20.3699 195.988 21.5279C196.055 22.6156 195.839 23.4753 195.341 24.1069C194.877 24.7385 194.08 25.1245 192.952 25.2649L191.807 25.3702C189.915 25.5456 188.505 26.1246 187.575 27.1071C186.679 28.0896 186.231 29.5107 186.231 31.3704V41.1604C186.231 42.4587 185.899 43.4588 185.236 44.1606C184.605 44.8623 183.676 45.2132 182.448 45.2132Z" fill="white"/>
<g clip-path="url(#clip0_132_5043)">
<path d="M160.611 20.1463L172.421 12.3408L159.141 14.4087L161.549 17.6424L160.611 20.1463Z" fill="#FFD358"/>
<path d="M175.677 44.5791L168.064 33.325L141.44 21.6474L141.827 20.7267L159.688 17.8839L147.068 0L137.783 17.5616L128.134 18.9768L135.062 22.7082L123.407 44.739L134.86 37.3115L139.899 25.3133L175.676 44.5791H175.677ZM143.507 16.723L147.51 7.19295L152.919 15.3442L143.507 16.723Z" fill="#FFD358"/>
</g>
<defs>
<clipPath id="clip0_132_5043">
<rect width="52.2702" height="44.739" fill="white" transform="translate(123.407)"/>
</clipPath>
</defs>
</svg>
