<svg width="173" height="40" viewBox="0 0 173 40" fill="none" xmlns="http://www.w3.org/2000/svg">
<path d="M101.416 39.9996C99.395 39.9996 97.696 39.6435 96.3192 38.9311C94.9717 38.2188 93.9611 37.1812 93.2874 35.8184C92.6429 34.4557 92.3207 32.7367 92.3207 30.6616V21.9276H90.4752C89.655 21.9276 89.0106 21.6953 88.5419 21.2307C88.1025 20.7661 87.8828 20.1312 87.8828 19.3259C87.8828 18.4587 88.1025 17.8083 88.5419 17.3747C89.0106 16.9101 89.655 16.6779 90.4752 16.6779H92.3207V13.1471C92.3207 11.9701 92.6136 11.0874 93.1995 10.499C93.7854 9.87954 94.6056 9.56982 95.6601 9.56982C96.7439 9.56982 97.5642 9.87954 98.1207 10.499C98.6773 11.0874 98.9556 11.9701 98.9556 13.1471V16.6779H103.13C103.95 16.6779 104.58 16.9101 105.019 17.3747C105.459 17.8083 105.678 18.4587 105.678 19.3259C105.678 20.1312 105.459 20.7661 105.019 21.2307C104.58 21.6953 103.95 21.9276 103.13 21.9276H98.9556V30.3829C98.9556 31.6837 99.2339 32.6593 99.7904 33.3097C100.376 33.9601 101.299 34.2853 102.559 34.2853C102.998 34.2853 103.408 34.2389 103.789 34.146C104.17 34.053 104.521 33.9911 104.843 33.9601C105.254 33.9292 105.59 34.0685 105.854 34.3782C106.118 34.657 106.25 35.2919 106.25 36.283C106.25 37.0263 106.132 37.6767 105.898 38.2342C105.664 38.7917 105.254 39.1944 104.668 39.4421C104.287 39.597 103.76 39.7209 103.086 39.8138C102.441 39.9377 101.885 39.9996 101.416 39.9996Z" fill="#222443"/>
<path d="M71.5612 39.489C70.9167 39.489 70.3748 39.3186 69.9354 38.9779C69.496 38.6063 69.2031 38.1417 69.0566 37.5842C68.9101 37.0267 68.9101 36.4228 69.0566 35.7723C69.2324 35.1219 69.5692 34.518 70.0672 33.9605L80.8324 20.3019V21.9279H71.2975C70.5066 21.9279 69.8915 21.6957 69.4521 21.2311C69.0127 20.7665 68.793 20.1316 68.793 19.3263C68.793 18.4591 69.0127 17.8087 69.4521 17.3751C69.8915 16.9105 70.5066 16.6782 71.2975 16.6782H83.996C84.7869 16.6782 85.4167 16.8641 85.8854 17.2357C86.3541 17.6074 86.6617 18.072 86.8082 18.6294C86.9839 19.156 86.9986 19.7444 86.8521 20.3948C86.7349 21.0143 86.4274 21.6027 85.9294 22.1602L74.9006 36.0975V34.2857H85.0945C86.7642 34.2857 87.5991 35.1529 87.5991 36.8873C87.5991 37.7236 87.3794 38.374 86.94 38.8386C86.5006 39.2722 85.8854 39.489 85.0945 39.489H71.5612Z" fill="#222443"/>
<path d="M51.2888 39.9997C49.414 39.9997 47.759 39.5196 46.3236 38.5595C44.9176 37.5994 43.8191 36.2211 43.0282 34.4248C42.2373 32.6284 41.8418 30.5069 41.8418 28.0601C41.8418 25.6133 42.2373 23.5072 43.0282 21.7418C43.8191 19.9764 44.9176 18.6137 46.3236 17.6536C47.759 16.6934 49.414 16.2134 51.2888 16.2134C52.9878 16.2134 54.4817 16.647 55.7706 17.5142C57.0888 18.3814 57.9822 19.5119 58.4509 20.9056H57.9676V9.89511C57.9676 8.71819 58.2459 7.83549 58.8024 7.24703C59.359 6.62759 60.1792 6.31787 61.2631 6.31787C62.3176 6.31787 63.1378 6.62759 63.7237 7.24703C64.3095 7.83549 64.6025 8.71819 64.6025 9.89511V36.3295C64.6025 37.4755 64.3095 38.3582 63.7237 38.9776C63.1671 39.5971 62.3615 39.9068 61.307 39.9068C60.2525 39.9068 59.4322 39.5971 58.8464 38.9776C58.2898 38.3582 58.0115 37.4755 58.0115 36.3295V33.1704L58.4949 34.9823C58.0848 36.4999 57.206 37.7233 55.8585 38.6524C54.5403 39.5506 53.0171 39.9997 51.2888 39.9997ZM53.2661 34.75C54.2327 34.75 55.0676 34.5022 55.7706 34.0067C56.4737 33.5111 57.0302 32.7833 57.4403 31.8232C57.8504 30.8321 58.0555 29.5777 58.0555 28.0601C58.0555 25.7991 57.6161 24.1421 56.7373 23.0891C55.8585 22.0051 54.7014 21.4631 53.2661 21.4631C52.3287 21.4631 51.4938 21.6954 50.7615 22.1599C50.0585 22.6245 49.5019 23.3524 49.0918 24.3435C48.711 25.3036 48.5206 26.5425 48.5206 28.0601C48.5206 30.321 48.96 32.009 49.8388 33.124C50.7176 34.208 51.86 34.75 53.2661 34.75Z" fill="#222443"/>
<path d="M34.479 39.8606C33.3951 39.8606 32.5603 39.5354 31.9744 38.885C31.4179 38.2037 31.1396 37.259 31.1396 36.0511V20.1626C31.1396 18.9237 31.4179 17.9791 31.9744 17.3287C32.5603 16.6473 33.3951 16.3066 34.479 16.3066C35.5335 16.3066 36.3391 16.6473 36.8957 17.3287C37.4815 17.9791 37.7745 18.9237 37.7745 20.1626V36.0511C37.7745 37.259 37.4962 38.2037 36.9396 38.885C36.383 39.5354 35.5628 39.8606 34.479 39.8606ZM34.479 12.497C33.2487 12.497 32.2967 12.2028 31.6229 11.6144C30.9785 10.9949 30.6562 10.1277 30.6562 9.01272C30.6562 7.86676 30.9785 6.99955 31.6229 6.41109C32.2967 5.79165 33.2487 5.48193 34.479 5.48193C35.7093 5.48193 36.6467 5.79165 37.2911 6.41109C37.9356 6.99955 38.2578 7.86676 38.2578 9.01272C38.2578 10.1277 37.9356 10.9949 37.2911 11.6144C36.6467 12.2028 35.7093 12.497 34.479 12.497Z" fill="#222443"/>
<path d="M3.42728 39.9068C2.31415 39.9068 1.46465 39.5816 0.87879 38.9312C0.29293 38.2808 0 37.3671 0 36.1902V9.98803C0 8.8111 0.29293 7.91292 0.87879 7.29348C1.46465 6.64307 2.31415 6.31787 3.42728 6.31787C4.51112 6.31787 5.34597 6.64307 5.93184 7.29348C6.51769 7.91292 6.81063 8.8111 6.81063 9.98803V20.9985H6.8985L18.5864 8.08326C19.0844 7.52577 19.597 7.10765 20.1243 6.82891C20.6809 6.51919 21.3107 6.36433 22.0137 6.36433C23.039 6.36433 23.7713 6.64307 24.2107 7.20057C24.6794 7.75806 24.8844 8.40847 24.8258 9.15179C24.7672 9.89511 24.445 10.592 23.8592 11.2424L12.1273 23.9253L12.1712 20.8127L24.4743 34.7035C25.1481 35.4778 25.4849 36.2676 25.4849 37.0729C25.5142 37.8781 25.2652 38.5595 24.7379 39.117C24.24 39.6435 23.493 39.9068 22.497 39.9068C21.6475 39.9068 20.9591 39.721 20.4319 39.3493C19.9339 38.9776 19.3773 38.4356 18.7622 37.7233L6.8985 24.5293H6.81063V36.1902C6.81063 37.3671 6.51769 38.2808 5.93184 38.9312C5.37527 39.5816 4.54042 39.9068 3.42728 39.9068Z" fill="#222443"/>
<path d="M161.039 39.9075C159.925 39.9075 159.076 39.5978 158.49 38.9783C157.904 38.3589 157.611 37.4762 157.611 36.3302V19.8378C157.611 18.6918 157.89 17.8246 158.446 17.2361C159.032 16.6167 159.838 16.307 160.863 16.307C161.917 16.307 162.723 16.6167 163.28 17.2361C163.836 17.8246 164.114 18.6918 164.114 19.8378V22.2536H163.675C164.026 20.3953 164.803 18.9551 166.004 17.933C167.205 16.9109 168.757 16.3379 170.661 16.2141C171.394 16.1521 171.95 16.3534 172.331 16.818C172.741 17.2516 172.961 17.9794 172.99 19.0015C173.049 19.9616 172.858 20.7205 172.419 21.2779C172.009 21.8354 171.306 22.1761 170.31 22.3L169.299 22.3929C167.63 22.5478 166.385 23.0588 165.564 23.926C164.773 24.7932 164.378 26.0476 164.378 27.6891V36.3302C164.378 37.4762 164.085 38.3589 163.499 38.9783C162.943 39.5978 162.122 39.9075 161.039 39.9075Z" fill="#222443"/>
<g clip-path="url(#clip0_78_831)">
<path d="M141.764 17.7821L152.188 10.8926L140.467 12.7178L142.592 15.5721L141.764 17.7821Z" fill="#FFD358"/>
<path d="M155.062 39.3479L148.342 29.4145L124.843 19.1071L125.184 18.2945L140.95 15.7853L129.81 0L121.615 15.5008L113.098 16.7499L119.213 20.0435L108.926 39.4891L119.035 32.9331L123.483 22.3429L155.062 39.3479H155.062ZM126.668 14.7606L130.201 6.34888L134.974 13.5436L126.668 14.7606Z" fill="#FFD358"/>
</g>
<defs>
<clipPath id="clip0_78_831">
<rect width="46.1365" height="39.4891" fill="white" transform="translate(108.926)"/>
</clipPath>
</defs>
</svg>
