<svg width="31" height="520" viewBox="0 0 31 520" fill="none" xmlns="http://www.w3.org/2000/svg">
<path d="M19.5122 64.5621L23.3899 57.5525C33.5037 39.2697 31.9872 16.7608 19.5122 0H0V520H19.5122C31.9654 502.052 32.6516 478.445 21.2619 459.803L19.5122 456.939L20.3546 455.417C32.535 433.398 32.2149 406.591 19.5122 384.87L19.7344 384.506C32.1618 364.167 32.0758 338.562 19.5122 318.306C32.115 300.142 33.6362 276.497 23.4648 256.867L19.5122 249.24L19.7459 248.903C31.9076 231.375 31.8142 208.113 19.5122 190.683C31.8314 173.53 32.1968 150.528 20.4286 132.992L19.5122 131.627C32.085 112.277 32.7441 87.5115 21.2182 67.5209L19.5122 64.5621Z" fill="#FFF6F1"/>
</svg>
