<svg width="210" height="110" viewBox="0 0 210 110" fill="none" xmlns="http://www.w3.org/2000/svg">
<path d="M11.748 90.8065L5.26982 101.39C2.96276 105.16 5.6752 110 10.0944 110H193.69C201.489 110 206.81 102.109 203.887 94.8791L191.461 64.1419C185.92 50.4346 169.754 44.5087 156.667 51.3869C127.56 24.464 81.2556 30.0628 59.4044 63.1472L42.7778 88.3212C34.2707 78.4059 18.5683 79.6637 11.748 90.8065Z" fill="#AED032"/>
<path d="M78.4266 55.58C78.4772 61.3545 74.208 65.9473 67.8517 66.9637C62.8868 67.7578 56.8657 63.7938 55.2339 58.661C53.172 52.1624 56.0751 44.2599 65.0246 43.0911C66.4982 42.9005 67.8454 43.2943 69.1736 43.7454C74.2903 45.4605 78.376 50.7331 78.4203 55.5864L78.4266 55.58Z" fill="#FFD358"/>
<path d="M129.09 59.1253C136.291 58.2514 146.013 65.9593 145.934 74.5213C145.865 82.3077 138.457 92.4899 128.319 92.0775C119.408 91.7142 111.109 86.2549 111.189 76.3771C111.268 67.1572 116.45 59.4199 129.08 59.1253H129.09Z" fill="#F73B50"/>
</svg>
