<svg width="81" height="84" viewBox="0 0 81 84" fill="none" xmlns="http://www.w3.org/2000/svg">
<path d="M27.8564 27.9137C32.3643 25.2344 37.9531 23.3952 43.4262 22.6259C51.5844 10.0849 43.1282 2.00424 28.7753 5.34522C25.7378 6.08394 22.9944 7.4962 20.6653 9.24636C19.1537 10.5986 18.2258 12.6429 17.499 14.3984C16.2068 20.8954 21.3321 26.1494 27.8564 27.9137Z" fill="#222443"/>
<path d="M13.8571 26.1782C15.9387 28.9304 19.1845 30.7527 22.8404 31.5439C24.0243 30.5803 25.3002 29.6861 26.7054 28.8737C30.9597 26.3684 36.0795 24.5817 41.2121 23.661C41.1839 23.672 41.175 23.6491 41.1468 23.6601C46.3329 9.88668 35.4346 4.02745 21.4789 10.3189C17.6351 12.2942 13.6779 14.8947 12.7908 18.6998C11.7165 21.4426 12.2721 23.8661 13.8571 26.1782Z" fill="white"/>
<path d="M13.0878 56.0495C27.6044 84.0564 85.4154 56.8459 71.7421 31.1064C69.2702 26.3752 64.956 22.9077 59.8419 21.3435C54.9293 19.8682 49.3453 19.451 43.7117 19.9743C43.0257 20.0326 42.3032 20.1052 41.6314 20.1999C34.934 21.0965 28.3065 23.3481 22.9703 26.7709C21.1941 27.8828 19.5974 29.1341 18.1299 30.5028C12.8984 35.476 9.93705 41.9926 11.1816 49.8831C11.3617 50.9857 11.5921 52.1101 11.9595 53.2652C12.2702 54.2749 12.6607 55.1689 13.0878 56.0495Z" fill="#FFD358"/>
<path d="M44.8192 24.6041C45.7613 33.2031 55.0051 70.7498 66.5361 56.1186C67.1589 55.3269 67.1723 54.2495 66.6284 53.5251C59.2303 44.1985 54.2843 30.3609 52.8914 19.4323C52.7853 18.6516 52.1489 18.0472 51.3404 17.9673C47.0056 17.5225 43.9836 19.7533 44.8192 24.6041Z" fill="#222443"/>
<path d="M54.2718 62.3411C54.2806 62.3649 54.2806 62.3649 54.2718 62.3411V62.3411ZM28.3444 38.9869C31.7241 47.9042 35.5638 56.9602 40.9285 64.8523C42.3878 66.9613 45.175 67.8647 47.8965 67.1105C50.2364 66.4317 52.5895 65.4189 54.4956 63.9334C56.2702 62.7075 55.0476 61.2402 54.0348 60.2203C45.4226 49.1908 39.6891 34.6305 39.5165 20.3621C37.8335 17.77 33.653 20.9757 31.3657 21.9203C23.1495 24.6561 26.9764 33.553 28.3444 38.9869Z" fill="#222443"/>
<path d="M16.8944 47.5947C15.2246 42.492 11.2844 32.6565 17.9204 29.4057C18.9755 28.8916 20.1504 29.4441 20.2975 30.4585C21.8749 43.6162 29.4074 55.5368 34.977 66.6483C35.4579 67.5676 34.8039 68.7853 33.6687 69.0843C24.5355 71.5792 19.2053 53.5513 16.8946 47.5951L16.8944 47.5947Z" fill="#222443"/>
<path d="M63.1172 31.1427C64.2464 29.9059 63.9796 27.7256 62.9392 26.5527C62.6981 26.2516 62.1527 26.5605 62.2415 26.9253C62.6605 28.68 63.5233 29.6056 61.7723 30.0973C60.6176 30.4201 59.8561 27.9645 58.9679 26.9691C55.7831 25.2064 59.9456 33.7578 63.1172 31.1427Z" fill="white"/>
<path d="M13.0722 55.7848C12.6568 55.0013 12.2916 54.1166 12.002 53.2007C11.7249 52.0796 11.5109 51.0124 11.3848 49.9478C11.2589 50.1999 11.0954 50.4679 10.8941 50.7517C9.6731 52.061 7.82284 52.7164 6.27465 53.6042C6.02297 53.7496 5.84681 53.9829 5.77133 54.2539C5.51992 55.5963 12.3421 55.9306 13.072 55.7844L13.0722 55.7848Z" fill="#222443"/>
</svg>
