<svg width="1440" height="283" viewBox="0 0 1440 283" fill="none" xmlns="http://www.w3.org/2000/svg">
<path d="M168.5 114.255C122.533 37.3265 88.5 -13.3325 -10 5.68901V322.991H1451V5.68903C1348.59 -14.3336 1306.36 26.4475 1271.5 114.255L1225.41 114.255C1182.91 114.255 1141.52 127.792 1107.23 152.904L1044.5 198.85L1034.34 194.746C968.588 168.191 893.648 178.928 838 222.878L830.989 219.973C799.253 206.826 762.99 210.889 734.949 230.733L722 239.897L710.404 231.242C683.326 211.034 647.875 205.866 616.155 217.502L601.5 222.878C546.556 178.997 472.161 168.302 407.082 194.93L397.5 198.85L342.618 156.257C307.54 129.032 264.399 114.255 219.995 114.255L168.5 114.255Z" fill="white"/>
</svg>
