<svg width="1440" height="299" viewBox="0 0 1440 299" fill="none" xmlns="http://www.w3.org/2000/svg">
<g clip-path="url(#clip0_139_2171)">
<path d="M178 164.775C181.436 165.364 184.826 166.693 188.312 166.617C192.411 166.524 196.424 165.507 200.401 163.757C201.074 163.463 201.755 163.252 202.428 163C202.446 163.429 202.487 163.85 202.483 164.279C202.383 181.825 202.864 199.362 203.114 216.892C203.246 226.102 203.151 235.38 203.782 244.599C204.069 248.762 204.191 253.119 203.383 257.3C202.874 259.916 202.01 261.657 200.556 262.481C196.774 264.609 192.957 265.568 189.003 264.525C187.04 264.004 185.035 264.281 183.126 262.75C182.118 261.943 181.213 260.959 180.395 259.689C179.413 258.166 178.836 256.248 178.895 253.725C178.954 251.159 178.873 248.586 178.904 246.012C179.159 226.75 178.427 207.513 178.282 188.259C178.223 180.445 178.023 172.606 178 164.775Z" fill="white"/>
<path d="M100.26 77.1239C101.799 57.7021 110.122 39.0709 124.481 24.8894C129.735 19.6996 135.646 15.1911 142.035 11.4901C160.076 1.03474 182.708 -2.29616 203.095 1.54783C223.23 5.34977 241.986 16.3855 254.807 32.3839C273.109 55.2123 278.675 88.7905 266.543 115.774C256.774 137.501 237.926 155.013 215.47 162.97C188.24 172.627 155.032 168.11 132.098 150.193C119.42 140.285 109.727 126.112 104.531 110.929C100.748 99.8683 99.3693 88.3615 100.26 77.1239Z" fill="white"/>
</g>
<path d="M0 296.811C299 174.649 755 299 1440 296.811V299H0V296.811Z" fill="white"/>
<g clip-path="url(#clip1_139_2171)">
<path d="M292.585 219.563C297.779 220.122 302.969 220.677 308.217 220.472C310.836 220.367 313.402 219.764 316.035 219.886C316.928 221.175 318.473 240.017 318.284 244.41C318.139 247.764 317.205 248.991 313.635 249.55C309.498 250.201 305.324 250.066 301.164 249.624C300.086 249.511 298.999 249.445 297.911 249.371C295.455 249.197 294.143 247.865 293.655 245.546C292.933 242.131 293.148 224.782 292.581 219.559L292.585 219.563Z" fill="white"/>
<path d="M344.177 205.297C340.603 199.436 337.508 193.262 333.48 187.685L333.678 187.637C333.564 187.319 333.753 187.174 334.03 187.078C336.465 185.161 339.044 183.393 340.669 180.703C341.848 178.751 341.267 177.284 340.14 175.45C338.023 172.017 335.62 168.742 332.956 165.668C332.507 165.148 325.438 157.659 326.085 157.327C329.267 155.694 331.482 153.022 332.49 149.738C333.709 145.773 330.694 143.34 328.145 140.602C323.769 135.904 319.394 131.205 315.018 126.511C310.977 122.174 307.411 117.559 303.146 113.401C298.092 108.48 292.533 117.816 289.799 120.965C286.115 125.209 282.377 129.41 278.583 133.572C275.501 136.952 271.328 140.41 269.99 144.843C268.564 149.148 270.668 151.899 273.547 154.947C274.652 156.118 276.373 156.768 277.817 157.65C280.079 158.061 280.079 158.061 277.817 157.65C277.17 157.532 273.331 163.65 272.825 164.345C270.976 166.886 269.057 169.38 267.071 171.825C265.399 173.882 263.545 177.463 265.724 179.786C268.071 182.288 271.293 183.895 273.828 186.218C274.55 186.877 270.043 193.511 269.655 194.166C267.934 197.048 266.279 199.969 264.703 202.925C263.096 205.934 260.724 209.956 262.837 213.257C263.598 214.45 264.734 215.38 265.892 216.24C273.551 221.925 282.967 225.284 292.599 226.655C303.643 228.227 316.057 228.126 326.534 224.105C330.993 222.393 335.157 219.987 338.763 216.969C342.077 214.196 346.964 209.856 344.181 205.297H344.177Z" fill="white"/>
</g>
<defs>
<clipPath id="clip0_139_2171">
<rect width="173" height="265" fill="white" transform="translate(100)"/>
</clipPath>
<clipPath id="clip1_139_2171">
<rect width="83" height="138" fill="white" transform="translate(262 112)"/>
</clipPath>
</defs>
</svg>
