<svg width="72" height="72" viewBox="0 0 72 72" fill="none" xmlns="http://www.w3.org/2000/svg">
<g clip-path="url(#clip0_170_1613)">
<path d="M13.7768 34.9863L37.0139 58.2233C38.465 59.6744 40.818 59.6744 42.2691 58.2233C42.9665 57.5265 43.3579 56.5805 43.3579 55.5945V43.5078L65.6561 21.2095L67.5143 23.0677C68.5408 24.0936 70.2042 24.0936 71.2307 23.0677C72.2566 22.0412 72.2566 20.3778 71.2307 19.3513L52.6488 0.769407C51.6223 -0.256469 49.9589 -0.256469 48.9324 0.769407C47.9066 1.79589 47.9066 3.45931 48.9324 4.48579L50.7906 6.34398L28.4923 28.6423H16.4056C15.4197 28.6423 14.4736 29.0336 13.7768 29.7311C12.3257 31.1822 12.3257 33.5345 13.7768 34.9863Z" fill="#AED032"/>
<path d="M27.2535 48.463L8.56631 67.1501C6.20304 69.5134 3.24216 71.1895 0 72.0001C0.810539 68.7579 2.48666 65.797 4.84993 63.4337L23.5371 44.7466L27.2535 48.463Z" fill="#FFD358"/>
</g>
<defs>
<clipPath id="clip0_170_1613">
<rect width="72" height="72" fill="white"/>
</clipPath>
</defs>
</svg>
