<svg width="252" height="155" viewBox="0 0 252 155" fill="none" xmlns="http://www.w3.org/2000/svg">
<path d="M302.923 109.887C302.577 104.986 301.065 100.085 298.204 95.4751C297.658 94.5824 285.796 83.5412 284.74 86.839C289.823 70.7692 289.677 52.8957 283.227 37.3361C276.777 21.7583 263.841 8.7677 247.898 3.3018C236.948 -0.45145 225.05 -0.633646 213.571 0.915026C184.583 4.83225 155.303 22.4507 147.158 50.5454C140.836 42.5105 127.827 41.7271 119.536 47.7214C111.246 53.7156 107.748 64.9207 109.351 75.0326C103.849 64.9754 98.2186 54.7542 90.0376 46.7193C79.5792 36.4434 63.6911 32.6719 49.8072 37.3908C35.8869 42.1097 23.8251 55.0275 19.8895 69.2206C16.7556 80.5168 18.851 93.471 26.6128 102.271C21.2743 98.4996 13.731 98.2081 8.10098 101.524C-9.51804 111.946 5.36795 133.572 17.2111 141.753C27.9247 149.15 40.6971 150.171 53.3238 150.207C63.017 150.225 74.0584 148.677 79.5428 140.678C85.9381 147.656 95.7406 151.337 105.142 150.298C114.544 149.26 123.308 143.502 128.027 135.303C144.188 150.134 167.255 155.09 189.192 154.999C204.989 154.944 222.444 151.646 232.101 139.111C245.22 143.921 259.104 148.185 272.951 146.363C290.188 144.067 304.162 127.323 302.923 109.887Z" fill="white"/>
</svg>
