<svg width="208" height="120" viewBox="0 0 208 120" fill="none" xmlns="http://www.w3.org/2000/svg">
<path d="M-26.9407 85.0737C-26.6722 81.2793 -25.4993 77.4849 -23.2807 73.9162C-22.8567 73.2251 -13.6573 64.6771 -12.8377 67.2302C-16.7803 54.7891 -16.6672 40.9515 -11.6648 28.9054C-6.66233 16.8452 3.37086 6.7879 15.7357 2.55623C24.2286 -0.349509 33.4563 -0.490565 42.359 0.708407C64.8418 3.7411 87.5507 17.3812 93.8674 39.1319C98.7709 32.9114 108.861 32.3048 115.29 36.9456C121.72 41.5863 124.433 50.2612 123.19 58.0898C127.457 50.3035 131.824 42.3903 138.169 36.1698C146.28 28.2142 158.603 25.2944 169.371 28.9477C180.167 32.6011 189.522 42.6019 192.574 53.5901C195.005 62.3356 193.38 72.3646 187.36 79.1776C191.5 76.2577 197.351 76.0321 201.717 78.5993C215.382 86.6676 203.837 103.411 194.651 109.744C186.342 115.471 176.436 116.261 166.643 116.289C159.125 116.303 150.562 115.104 146.308 108.912C141.348 114.315 133.746 117.164 126.454 116.36C119.162 115.556 112.365 111.098 108.705 104.751C96.1708 116.233 78.2806 120.07 61.2666 119.999C49.0148 119.957 35.4771 117.404 27.9875 107.699C17.813 111.423 7.04498 114.724 -3.69476 113.313C-17.0629 111.536 -27.9016 98.5727 -26.9407 85.0737Z" fill="white"/>
</svg>
