<svg width="300" height="241" viewBox="0 0 300 241" fill="none" xmlns="http://www.w3.org/2000/svg">
<path d="M290.315 108.93C281.119 116.856 267.979 150.039 258.824 140.934C258.824 140.934 262.445 163.833 262.513 164.266C263.374 169.689 284.404 158.541 286.384 156.825C294.233 149.999 301.072 131.764 299.86 121.677C298.11 107.07 294.65 105.197 290.315 108.93Z" fill="#222443"/>
<path d="M286.208 188.214C293.357 184.349 292.98 171.367 282.653 170.24C281.967 170.161 281.307 170.161 280.674 170.201C280.903 169.637 281.078 169.035 281.145 168.406C281.172 168.144 281.213 167.882 281.213 167.62C281.213 167.921 281.307 166.113 281.132 165.511C281.011 165.078 280.917 164.751 280.836 164.476C282.236 163.349 283.205 161.725 283.421 159.865C283.865 156.039 280.957 152.489 277.026 152.057C280.028 152.384 282.815 150.21 283.151 147.288L283.3 146.044C283.582 143.646 282.128 141.38 279.92 140.463C281.644 135.459 279.611 129.079 273.04 127.821C276.662 125.385 276.272 118.52 270.63 117.905C269.769 117.813 269.001 117.905 268.315 118.114C268.315 118.062 268.301 117.996 268.288 117.944C270.078 116.241 270.536 113.306 269.378 111.145C271.344 109.612 272.717 107.372 273.013 104.791C273.606 99.6166 269.675 94.8088 264.343 94.2324L261.798 93.9573C258.379 93.5774 255.121 95.0446 253.061 97.5074C252.939 97.455 252.818 97.4026 252.684 97.3502C253.209 95.6865 252.926 93.8001 251.741 92.359L250.61 90.9835C249.062 89.0971 246.396 88.4945 244.175 89.3591C243.825 88.3635 243.178 87.4726 242.33 86.8176C242.209 84.2238 240.136 81.9836 237.416 81.6823C235.854 81.512 234.346 82.0229 233.215 82.9662C232.488 81.1321 230.765 79.7042 228.651 79.4815C227.83 79.3898 227.036 79.4815 226.295 79.7304C225.851 75.8003 223.185 72.1978 217.948 71.6213C212.428 71.0187 208.914 74.3331 207.769 78.3549C206.989 77.5558 205.898 76.9925 204.457 76.8352C201.872 76.5601 200.068 77.7916 199.153 79.5077C199.072 77.1235 197.564 74.8309 194.414 74.4772C191.707 74.1759 189.849 75.5645 188.974 77.4248C188.288 73.796 185.635 70.5995 180.735 70.0624C173.505 69.2764 169.708 75.2108 170.179 80.6605C169.223 77.4641 166.638 74.8047 162.209 74.32C157.86 73.8484 154.75 75.8003 153.067 78.63C152.852 74.4641 150.173 70.4947 144.679 69.9052C137.921 69.1716 134.178 74.2938 134.084 79.416C132.724 78.106 130.839 77.1759 128.402 76.9138C123.273 76.3505 119.866 79.1802 118.493 82.8221C117.604 79.5077 114.992 76.7042 110.442 76.2064C103.225 75.4204 99.4287 81.3286 99.873 86.7783C97.9881 86.6866 96.2244 87.5513 95.1338 88.9661C94.6626 88.7827 94.1375 88.6517 93.5451 88.5862C89.2368 88.1146 87.0827 91.8743 87.6481 95.0839C87.3115 95.6996 87.0961 96.3677 87.0153 97.0489C86.4229 96.7345 85.7228 96.5118 84.915 96.4332C81.4953 96.0533 79.4354 98.3458 79.0046 100.913C78.1564 99.9834 76.9716 99.3415 75.5714 99.1843C72.6498 98.8699 69.6609 101.018 69.432 103.953C69.3378 105.184 69.4455 106.494 70.0513 107.608C70.2264 107.935 70.4149 108.237 70.6168 108.512C71.1957 110.608 72.9325 112.271 75.329 112.533C75.6656 112.573 76.0022 112.573 76.3253 112.533C73.1749 113.948 72.3267 118.35 74.3462 120.931C69.6744 122.66 69.5936 130.703 75.7195 131.372C75.8541 131.385 75.9753 131.385 76.0965 131.398C72.9191 132.708 70.4956 135.603 70.0917 139.127C69.6744 142.729 71.465 146.162 74.4 148.101C69.4051 151.009 68.2876 158.45 71.9093 162.773C70.5495 162.668 69.1493 163.035 68.0184 163.913C65.6488 165.747 65.2583 169.205 67.1432 171.498L68.2742 172.873C68.8666 173.594 69.6205 174.118 70.4553 174.458C69.9167 176.135 70.186 178.035 71.3842 179.489L72.5152 180.864C73.121 181.598 73.9019 182.148 74.7636 182.476C74.5481 185.109 76.0157 187.86 79.4893 188.227C80.4182 188.331 81.2395 188.227 81.9665 187.978C82.1416 190.283 83.6495 192.432 86.7057 192.772C89.4657 193.074 91.3371 191.633 92.1853 189.72C92.4546 190.192 92.7239 190.663 93.0066 191.122C90.9332 192.654 89.4522 194.96 89.156 197.633C88.631 202.178 91.6064 206.436 95.9416 207.798C94.9992 210.746 95.5108 214.086 97.5976 216.641L98.7286 218.017C101.125 220.938 105.029 222.104 108.597 221.344C112.084 224.396 117.537 224.658 121.307 221.737L122.721 220.637C122.842 220.545 122.963 220.44 123.084 220.335C122.855 223.191 125.05 225.798 127.998 226.126C128.819 226.217 129.627 226.099 130.368 225.864C130.004 228.575 131.458 231.523 135.067 231.916C137.786 232.217 139.644 230.829 140.506 228.968C141.179 232.597 143.831 235.807 148.745 236.331C152.34 236.724 155.087 235.453 156.877 233.409C158.143 234.366 159.759 235.034 161.751 235.243C165.979 235.702 169.021 233.868 170.731 231.169C171.472 231.785 172.455 232.23 173.68 232.361C176.588 232.676 178.5 231.078 179.281 229.021C180.062 229.977 181.246 230.684 182.875 230.855C185.393 231.13 187.143 229.964 188.086 228.3C187.682 231.038 189.136 234.038 192.771 234.431C196.164 234.798 198.21 232.558 198.668 230.029C199.382 230.815 200.391 231.405 201.724 231.628C202.007 232.152 202.317 232.65 202.694 233.121C203.488 234.077 204.417 234.837 205.454 235.401C205.629 235.558 205.804 235.728 205.992 235.911C207.433 237.248 209.789 237.89 211.674 238.165C214.097 238.518 216.453 237.824 218.352 236.488C219.658 238.794 222.014 240.549 225.528 240.929C231.048 241.532 234.562 238.217 235.706 234.195C236.487 234.994 237.578 235.558 239.018 235.715C243.717 236.226 245.844 231.719 244.713 228.379C245.225 228.222 245.683 227.999 246.1 227.724C247.325 230.291 249.762 232.283 253.545 232.702C261.933 233.619 265.703 225.484 263.549 219.549C263.724 219.575 263.899 219.615 264.074 219.628C268.369 220.099 270.523 216.366 269.984 213.156C276.379 213.851 279.139 207.432 277.214 203.03C278.52 202.506 279.638 201.602 280.432 200.475C282.29 200.685 284.242 200.213 285.79 199.008C288.873 196.611 289.399 192.091 286.935 189.078L286.208 188.2V188.214ZM79.9335 130.638C79.6912 130.638 79.4489 130.651 79.2065 130.677C79.4893 130.494 79.7585 130.297 80.0009 130.062C79.9739 130.258 79.947 130.441 79.9335 130.638ZM81.1183 123.315C80.9837 123.04 80.8087 122.791 80.6202 122.555C80.8895 122.45 81.1453 122.345 81.3876 122.201C81.2934 122.581 81.1991 122.948 81.1183 123.315ZM83.5822 115.18C83.4071 114.76 83.1782 114.367 82.8955 114.014C83.5014 113.791 84.0264 113.464 84.4707 113.057C84.1611 113.752 83.8514 114.459 83.5687 115.18H83.5822ZM235.275 227.134C235.195 226.964 235.114 226.781 235.02 226.61C235.302 226.545 235.585 226.479 235.868 226.414C235.652 226.637 235.45 226.872 235.275 227.134ZM275.733 151.926C275.585 151.913 275.437 151.913 275.289 151.9C275.262 151.782 275.248 151.664 275.221 151.559C275.773 151.821 276.366 152.004 276.985 152.07L275.72 151.926H275.733Z" fill="white"/>
<path d="M135.188 40.3109C127.433 46.3239 118.399 63.6162 106.969 64.3367C107.05 61.8084 106.901 59.3324 106.417 56.9744C102.324 36.6821 85.3733 36.4463 69.446 42.3545C72.96 27.132 86.3831 6.26332 68.7998 0.761215C53.7341 -3.95487 47.5948 14.3724 48.4295 24.6692C49.3046 35.621 52.684 40.9266 58.9714 47.1361C55.5786 48.9701 52.4012 50.9614 49.6143 52.9395C44.7405 56.4111 38.9108 60.721 33.0003 65.6598C11.4318 83.6989 -11.3484 110.083 6.31569 134.384C33.8216 172.243 74.3602 134.305 89.345 109.454C94.8112 100.375 101.826 87.9433 105.124 75.7601C120.136 82.9522 144.02 79.0352 149.581 61.9263C152.664 52.4679 147.346 30.8918 135.188 40.3109Z" fill="#222443"/>
<path d="M61.6783 64.7308C58.2586 66.3421 54.4215 67.8487 50.5979 66.8006C46.7338 65.7526 45.0644 60.7745 44.0546 57.5388C42.8967 53.8576 36.9593 55.4296 38.1172 59.1239C39.7732 64.4164 42.4794 70.2067 48.1879 72.2896C53.8022 74.3464 59.6453 72.2896 64.7749 69.8923C68.3427 68.2155 65.2192 63.054 61.6648 64.7177L61.6783 64.7308Z" fill="white"/>
<path d="M92.7508 91.2582C88.1732 91.1927 83.2052 90.708 79.9336 87.2365C77.012 84.1448 78.1295 78.8523 79.1123 75.289C80.149 71.5555 74.2116 69.9703 73.1749 73.7039C71.5862 79.4418 71.0881 86.005 75.1271 90.9307C79.3277 96.0398 86.3961 97.1665 92.7508 97.2451C96.7225 97.2975 96.7091 91.3106 92.7508 91.2582Z" fill="white"/>
</svg>
