<svg width="387" height="162" viewBox="0 0 387 162" fill="none" xmlns="http://www.w3.org/2000/svg">
<path d="M-94.4941 154.626C-88.7042 159.034 -81.9815 160.961 -74.8482 161.671C-70.0346 162.152 -65.2455 161.905 -60.4619 161.269C-57.6934 160.902 -57.4241 161.081 -56.6817 163.778C-54.5115 171.666 -50.1358 177.974 -43.065 182.159C-33.1442 188.029 -22.8616 188.151 -12.4159 183.57C-8.08096 181.669 -4.47757 178.806 -1.49698 175.141C-0.0420227 173.352 -0.0148315 173.316 2.15536 174.14C7.52643 176.177 12.9601 176.854 18.5677 175.184C20.4823 174.616 22.2446 173.773 23.9252 172.702C25.5189 171.682 25.7119 171.75 26.0954 173.537C26.8732 177.161 27.9093 180.707 29.3887 184.103C35.5403 198.228 45.8582 207.423 61.1855 210.376C71.9739 212.453 82.406 210.944 92.3948 206.406C93.6132 205.852 94.6113 205.341 95.8269 206.621C102.699 213.848 111.423 217.755 120.893 220.167C130.449 222.603 140.134 223.052 149.753 220.741C151.085 220.42 152.382 220.064 153.641 219.67C156.761 218.696 159.66 217.497 162.341 216.083C162.347 216.081 162.352 216.078 162.36 216.075C174.65 209.59 182.414 198.573 186.333 183.795C186.686 182.466 186.896 181.101 187.239 179.771C187.619 178.292 187.75 178.211 189.18 178.833C192.588 180.318 196.088 181.381 199.792 181.887C205.473 182.667 210.926 181.775 216.286 179.997C218.592 179.233 218.614 179.179 219.857 181.337C223.003 186.797 227.286 191.044 233.209 193.339C242.407 196.898 250.908 195.696 258.485 189.176C258.615 189.065 258.732 188.934 258.857 188.82C260.435 187.382 260.465 187.349 261.969 188.768C263.603 190.315 265.39 191.634 267.378 192.689C274.829 196.64 282.623 197.102 290.657 194.957C298.111 192.966 304.369 188.978 309.248 183.048C311.178 180.701 313.101 180.329 315.769 181.297C322.078 183.581 328.486 185.552 335.119 186.677C343.057 188.026 350.992 188.505 358.904 186.455C361.425 185.802 363.774 184.782 365.958 183.366C368.37 181.802 370.108 179.687 370.695 176.87C370.75 176.604 370.821 176.359 370.902 176.141C371.354 174.937 372.21 174.423 373.589 174.195C376.428 173.722 379.02 172.58 381.34 170.864C388.119 165.853 388.253 157.19 381.639 151.97C379.583 150.347 377.29 149.215 374.742 148.75C374.473 148.702 374.201 148.658 373.926 148.625C372.692 148.473 372.118 147.989 372.004 146.719C371.299 138.826 364.685 131.45 354.506 129.516C352.912 129.215 351.292 128.913 349.633 128.992C342.926 129.375 336.813 131.352 331.716 135.892C329.718 137.671 330.017 137.809 327.768 135.906C324.039 132.752 319.905 130.387 315.19 129.051C309.161 127.347 303.286 127.958 297.507 130.164C296.224 130.653 294.951 131.186 293.646 131.61C291.873 132.184 291.35 132.021 290.63 130.28C289.545 127.662 288.658 124.965 287.649 122.314C285.528 116.729 282.814 111.465 278.756 107.022C272.237 99.8877 264.253 95.8501 254.441 95.9343C249.763 95.9724 245.434 97.3645 241.567 99.9394C239.57 101.269 237.909 101.25 235.872 100.054C229.835 96.5026 223.452 93.8163 216.49 92.59C209.966 91.4426 203.629 91.7036 197.475 93.5824C195.903 94.061 194.345 94.6456 192.797 95.3389C192.563 95.4449 192.319 95.5401 192.098 95.6706C192.025 95.7114 191.957 95.7495 191.886 95.7848C190.883 96.3014 190.132 96.1437 189.738 94.8522C189.588 94.3628 189.343 93.9006 189.118 93.4383C181.405 77.7063 168.683 68.8098 151.512 66.2023C147.441 65.5824 143.275 65.751 139.206 66.7244C138.787 66.825 138.366 66.9065 137.95 67.0207C136.74 67.3552 136.255 66.9147 136.141 65.6504C135.896 62.9124 135.788 60.1662 135.331 57.4472C133.356 45.723 128.497 35.3256 120.863 26.2524C108.236 11.2437 91.8346 3.17916 72.6103 0.650515C68.0714 0.0523403 63.5787 -0.135269 59.1458 0.0958439C54.8816 0.321519 50.6718 0.938727 46.5245 1.96106C42.2304 3.01874 38.007 4.51146 33.8651 6.45281C31.1864 7.70898 28.6599 9.131 26.283 10.7189C24.5942 11.8473 22.9815 13.0572 21.4423 14.3514C15.8699 19.0335 11.2957 24.7814 7.69232 31.5109C3.38458 39.5564 0.966919 48.181 -0.0664978 57.2161C-0.0692139 57.2351 -0.0719604 57.2569 -0.0746765 57.2759C-0.335754 59.5599 -0.308502 59.549 -2.52493 59.1683H-2.5304C-8.01572 58.2276 -13.3106 58.5022 -18.2411 61.4632C-20.4956 62.8145 -22.353 64.5845 -23.9766 66.5911C-24.9393 67.7821 -26.0298 68.2062 -27.5229 68.2334C-31.4037 68.3014 -35.2518 68.7364 -38.896 70.1938C-48.2675 73.9433 -53.7636 80.689 -54.7617 90.8689C-54.982 93.112 -54.9657 93.1121 -57.3153 93.5036C-67.8236 95.2519 -75.6423 100.35 -80.9209 108.61C-82.2072 110.62 -83.3386 112.814 -84.3257 115.196C-84.4563 115.511 -84.595 115.824 -84.7228 116.142C-84.8207 116.384 -84.9104 116.626 -84.9866 116.876C-85.3564 118.102 -86.1505 118.616 -87.4315 118.755C-96.9009 119.777 -101.589 127.091 -102.691 134.22C-103.974 142.592 -101.263 149.476 -94.4941 154.626Z" fill="#AED032"/>
</svg>
